G75*
G70*
%OFA0B0*%
%FSLAX24Y24*%
%IPPOS*%
%LPD*%
%AMOC8*
5,1,8,0,0,1.08239X$1,22.5*
%
%ADD10C,0.0594*%
%ADD11R,0.0984X0.0866*%
%ADD12R,0.0197X0.0787*%
%ADD13OC8,0.0600*%
%ADD14R,0.0600X0.0600*%
%ADD15C,0.0060*%
%ADD16C,0.0240*%
%ADD17C,0.0070*%
%ADD18C,0.0100*%
D10*
X007035Y008156D03*
X007035Y009156D03*
X007035Y010156D03*
X007035Y011156D03*
X007035Y012156D03*
X007035Y013156D03*
X014035Y013156D03*
X014035Y012156D03*
X014035Y011156D03*
X014035Y010156D03*
X014035Y009156D03*
X014035Y008156D03*
D11*
X014853Y016381D03*
X014853Y018467D03*
X018160Y018467D03*
X018160Y016381D03*
D12*
X017136Y016282D03*
X016821Y016282D03*
X016506Y016282D03*
X016191Y016282D03*
X015876Y016282D03*
D13*
X017760Y011040D03*
X017760Y010040D03*
X017760Y009040D03*
X017760Y008040D03*
X017760Y007040D03*
X003211Y007080D03*
X002211Y007080D03*
X002211Y008080D03*
X002211Y009080D03*
X002211Y010080D03*
X002211Y011080D03*
X002211Y012080D03*
X002211Y013080D03*
X002211Y014080D03*
X002211Y015080D03*
X002211Y016080D03*
X002211Y017080D03*
X002211Y018080D03*
X002211Y019080D03*
X003211Y019080D03*
X003211Y018080D03*
X003211Y017080D03*
X003211Y016080D03*
X003211Y015080D03*
X003211Y014080D03*
X003211Y013080D03*
X003211Y012080D03*
X003211Y011080D03*
X003211Y010080D03*
X003211Y009080D03*
X003211Y008080D03*
D14*
X017760Y012040D03*
D15*
X017760Y012000D01*
X017520Y011760D01*
X013860Y011760D01*
X013440Y012180D01*
X007680Y012180D01*
X007260Y011760D01*
X006900Y011760D01*
X006780Y011640D01*
X002640Y011640D01*
X002220Y012060D01*
X002211Y012080D01*
X001680Y012660D02*
X002760Y012660D01*
X003180Y013080D01*
X003211Y013080D01*
X002760Y013500D02*
X006720Y013500D01*
X007020Y013200D01*
X007035Y013156D01*
X007080Y013140D01*
X013980Y013140D01*
X014035Y013156D01*
X014040Y013200D01*
X017100Y013200D01*
X018300Y013200D01*
X018300Y010620D01*
X017760Y010080D01*
X017760Y010040D01*
X017760Y011040D02*
X017220Y011580D01*
X007500Y011580D01*
X007080Y011160D01*
X007035Y011156D01*
X006900Y011580D02*
X006420Y011100D01*
X003240Y011100D01*
X003211Y011080D01*
X003211Y012080D02*
X003240Y012120D01*
X003840Y012720D01*
X010440Y012720D01*
X010740Y012420D01*
X009660Y011940D02*
X009420Y011700D01*
X007380Y011700D01*
X007260Y011580D01*
X006900Y011580D01*
X007140Y010680D02*
X002040Y010680D01*
X001680Y011040D01*
X001680Y012660D01*
X002760Y013500D02*
X002220Y014040D01*
X002211Y014080D01*
X002211Y015080D02*
X002220Y015120D01*
X002580Y015480D01*
X008340Y015480D01*
X008400Y015540D01*
X008580Y015540D01*
X008880Y015840D01*
X010380Y014340D01*
X015090Y014340D01*
X015840Y016260D02*
X015876Y016282D01*
X017100Y016260D02*
X017136Y016282D01*
X017100Y016260D02*
X017100Y013200D01*
X014700Y011100D02*
X014040Y011100D01*
X014035Y011156D01*
X014220Y010560D02*
X014580Y010200D01*
X014580Y008160D01*
X014040Y008160D01*
X014035Y008156D01*
X013740Y007860D02*
X013860Y007740D01*
X014340Y007740D01*
X014700Y008100D01*
X014700Y011100D01*
X014220Y010560D02*
X009540Y010560D01*
X009270Y010740D01*
X009300Y010440D02*
X009240Y010380D01*
X008940Y010380D01*
X008760Y010200D01*
X008760Y008160D01*
X007080Y008160D01*
X007035Y008156D01*
X007035Y009156D02*
X007080Y009180D01*
X008490Y009180D01*
X008490Y010140D01*
X009000Y010140D02*
X011280Y007860D01*
X013740Y007860D01*
X014220Y008760D02*
X014460Y009000D01*
X014460Y010140D01*
X014040Y010140D01*
X014035Y010156D01*
X013680Y009480D02*
X013980Y009180D01*
X014035Y009156D01*
X014220Y008760D02*
X011220Y008760D01*
X010740Y009240D01*
X010020Y009480D02*
X013680Y009480D01*
X013320Y011340D02*
X009570Y011340D01*
X009270Y011040D01*
X009360Y010140D02*
X010020Y009480D01*
X007920Y009900D02*
X007140Y010680D01*
X005760Y012600D02*
X005040Y011880D01*
X005760Y012600D02*
X009480Y012600D01*
X009600Y012480D01*
X007680Y013380D02*
X007020Y014040D01*
X003240Y014040D01*
X003211Y014080D01*
X003240Y015060D02*
X003211Y015080D01*
X003240Y015060D02*
X008580Y015060D01*
X008880Y014760D01*
X009180Y015840D02*
X008940Y016080D01*
X003211Y016080D01*
X003240Y017040D02*
X003211Y017080D01*
X003240Y017040D02*
X008280Y017040D01*
X009480Y015840D01*
X010500Y015120D02*
X007560Y018060D01*
X006660Y018060D01*
X007380Y018780D02*
X007860Y018780D01*
X012060Y014580D01*
X017760Y008040D02*
X017340Y007620D01*
X012480Y007620D01*
X011400Y006540D01*
X001620Y006540D01*
X001620Y008520D01*
X002160Y009060D01*
X002211Y009080D01*
X002211Y008080D02*
X002220Y008040D01*
X002580Y007680D01*
X012120Y007680D01*
X012180Y007620D01*
X011940Y007380D02*
X011220Y006660D01*
X002640Y006660D01*
X002220Y007080D01*
X002211Y007080D01*
D16*
X005040Y011880D03*
X007680Y013380D03*
X008880Y014760D03*
X008400Y015540D03*
X008880Y015840D03*
X009180Y015840D03*
X009480Y015840D03*
X010500Y015120D03*
X012060Y014580D03*
X010740Y012420D03*
X009660Y011940D03*
X009600Y012480D03*
X009270Y011040D03*
X009270Y010740D03*
X009300Y010440D03*
X009360Y010140D03*
X009000Y010140D03*
X008490Y010140D03*
X007920Y009900D03*
X010740Y009240D03*
X012180Y007620D03*
X012480Y007620D03*
X011940Y007380D03*
X013320Y011340D03*
X006660Y018060D03*
X007380Y018780D03*
D17*
X015090Y014340D02*
X015270Y014340D01*
X015870Y014940D01*
X015870Y016276D01*
X015876Y016282D01*
D18*
X000410Y019635D02*
X000410Y000410D01*
X019635Y000410D01*
X019635Y007530D01*
X019545Y007440D01*
X019395Y007440D01*
X019290Y007545D01*
X019290Y018615D01*
X019395Y018720D01*
X019545Y018720D01*
X019635Y018630D01*
X019635Y019635D01*
X018172Y019635D01*
X018172Y019050D01*
X018714Y019050D01*
X018802Y018962D01*
X018802Y017972D01*
X018714Y017884D01*
X018172Y017884D01*
X018172Y017283D01*
X018084Y017195D01*
X017384Y017195D01*
X017384Y015826D01*
X017297Y015739D01*
X017280Y015739D01*
X017280Y013380D01*
X018375Y013380D01*
X018480Y013275D01*
X018480Y010545D01*
X018375Y010440D01*
X018185Y010251D01*
X018210Y010226D01*
X018210Y009854D01*
X017946Y009590D01*
X017574Y009590D01*
X017310Y009854D01*
X017310Y010226D01*
X017574Y010490D01*
X017915Y010490D01*
X018120Y010695D01*
X018120Y010764D01*
X017946Y010590D01*
X017574Y010590D01*
X017310Y010854D01*
X017310Y011226D01*
X017315Y011231D01*
X017145Y011400D01*
X014417Y011400D01*
X014467Y011280D01*
X014775Y011280D01*
X014880Y011175D01*
X014880Y008025D01*
X014775Y007920D01*
X014655Y007800D01*
X017265Y007800D01*
X017315Y007849D01*
X017310Y007854D01*
X017310Y008226D01*
X017574Y008490D01*
X017946Y008490D01*
X018210Y008226D01*
X018210Y007854D01*
X017946Y007590D01*
X017574Y007590D01*
X017569Y007595D01*
X017415Y007440D01*
X012682Y007440D01*
X012633Y007391D01*
X012534Y007350D01*
X012465Y007350D01*
X011505Y006390D01*
X019215Y006390D01*
X019320Y006285D01*
X019320Y006135D01*
X019215Y006030D01*
X001155Y006030D01*
X001050Y006135D01*
X001050Y006285D01*
X001155Y006390D01*
X001515Y006390D01*
X001440Y006465D01*
X001440Y008595D01*
X001545Y008700D01*
X001761Y008916D01*
X001761Y009266D01*
X002025Y009530D01*
X002397Y009530D01*
X002661Y009266D01*
X002661Y008894D01*
X002397Y008630D01*
X002025Y008630D01*
X002005Y008650D01*
X001800Y008445D01*
X001800Y008305D01*
X002025Y008530D01*
X002397Y008530D01*
X002661Y008266D01*
X002661Y007894D01*
X002641Y007874D01*
X002655Y007860D01*
X002795Y007860D01*
X002761Y007894D01*
X002761Y008266D01*
X003025Y008530D01*
X003397Y008530D01*
X003661Y008266D01*
X003661Y007894D01*
X003627Y007860D01*
X006699Y007860D01*
X006656Y007902D01*
X006588Y008067D01*
X006588Y008244D01*
X006656Y008409D01*
X006782Y008534D01*
X006946Y008602D01*
X007124Y008602D01*
X007288Y008534D01*
X007414Y008409D01*
X007442Y008340D01*
X008580Y008340D01*
X008580Y009015D01*
X008565Y009000D01*
X007454Y009000D01*
X007414Y008902D01*
X007288Y008777D01*
X007124Y008709D01*
X006946Y008709D01*
X006782Y008777D01*
X006656Y008902D01*
X006588Y009067D01*
X006588Y009244D01*
X006656Y009409D01*
X006782Y009534D01*
X006946Y009602D01*
X007124Y009602D01*
X007288Y009534D01*
X007414Y009409D01*
X007434Y009360D01*
X008310Y009360D01*
X008310Y009938D01*
X008261Y009987D01*
X008220Y010086D01*
X008220Y010194D01*
X008261Y010293D01*
X008337Y010369D01*
X008436Y010410D01*
X008544Y010410D01*
X008643Y010369D01*
X008659Y010353D01*
X008685Y010380D01*
X008865Y010560D01*
X009057Y010560D01*
X009061Y010568D01*
X009041Y010587D01*
X009000Y010686D01*
X009000Y010794D01*
X009040Y010890D01*
X009000Y010986D01*
X009000Y011094D01*
X009041Y011193D01*
X009117Y011269D01*
X009216Y011310D01*
X009285Y011310D01*
X009375Y011400D01*
X007575Y011400D01*
X007463Y011289D01*
X007482Y011244D01*
X007482Y011067D01*
X007414Y010902D01*
X007293Y010782D01*
X007320Y010755D01*
X007905Y010170D01*
X007974Y010170D01*
X008073Y010129D01*
X008149Y010053D01*
X008190Y009954D01*
X008190Y009846D01*
X008149Y009747D01*
X008073Y009671D01*
X007974Y009630D01*
X007866Y009630D01*
X007767Y009671D01*
X007691Y009747D01*
X007650Y009846D01*
X007650Y009915D01*
X007482Y010084D01*
X007482Y010067D01*
X007414Y009902D01*
X007288Y009777D01*
X007124Y009709D01*
X006946Y009709D01*
X006782Y009777D01*
X006656Y009902D01*
X006588Y010067D01*
X006588Y010244D01*
X006656Y010409D01*
X006748Y010500D01*
X003427Y010500D01*
X003661Y010266D01*
X003661Y009894D01*
X003397Y009630D01*
X003025Y009630D01*
X002761Y009894D01*
X002761Y010266D01*
X002995Y010500D01*
X002427Y010500D01*
X002661Y010266D01*
X002661Y009894D01*
X002397Y009630D01*
X002025Y009630D01*
X001761Y009894D01*
X001761Y010266D01*
X001995Y010500D01*
X001965Y010500D01*
X001605Y010860D01*
X001500Y010965D01*
X001500Y012735D01*
X001605Y012840D01*
X001815Y012840D01*
X001761Y012894D01*
X001761Y013266D01*
X002025Y013530D01*
X002397Y013530D01*
X002661Y013266D01*
X002661Y012894D01*
X002607Y012840D01*
X002685Y012840D01*
X002761Y012916D01*
X002761Y013266D01*
X002815Y013320D01*
X002685Y013320D01*
X002580Y013425D01*
X002375Y013630D01*
X002025Y013630D01*
X001761Y013894D01*
X001761Y014266D01*
X002025Y014530D01*
X002397Y014530D01*
X002661Y014266D01*
X002661Y013894D01*
X002641Y013874D01*
X002835Y013680D01*
X002975Y013680D01*
X002761Y013894D01*
X002761Y014266D01*
X003025Y014530D01*
X003397Y014530D01*
X003661Y014266D01*
X003661Y014220D01*
X007095Y014220D01*
X007200Y014115D01*
X007665Y013650D01*
X007734Y013650D01*
X007833Y013609D01*
X007909Y013533D01*
X007950Y013434D01*
X007950Y013326D01*
X007947Y013320D01*
X013620Y013320D01*
X013656Y013409D01*
X013782Y013534D01*
X013946Y013602D01*
X014124Y013602D01*
X014288Y013534D01*
X014414Y013409D01*
X014426Y013380D01*
X016920Y013380D01*
X016920Y015739D01*
X016055Y015739D01*
X016055Y014863D01*
X015947Y014755D01*
X015347Y014155D01*
X015013Y014155D01*
X015008Y014160D01*
X010305Y014160D01*
X008895Y015570D01*
X008865Y015570D01*
X008760Y015465D01*
X008760Y015465D01*
X008655Y015360D01*
X008602Y015360D01*
X008553Y015311D01*
X008454Y015270D01*
X008346Y015270D01*
X008274Y015300D01*
X003627Y015300D01*
X003661Y015266D01*
X003661Y015240D01*
X008655Y015240D01*
X008760Y015135D01*
X008865Y015030D01*
X008934Y015030D01*
X009033Y014989D01*
X009109Y014913D01*
X009150Y014814D01*
X009150Y014706D01*
X009109Y014607D01*
X009033Y014531D01*
X008934Y014490D01*
X008826Y014490D01*
X008727Y014531D01*
X008651Y014607D01*
X008610Y014706D01*
X008610Y014775D01*
X008505Y014880D01*
X003647Y014880D01*
X003397Y014630D01*
X003025Y014630D01*
X002761Y014894D01*
X002761Y015266D01*
X002795Y015300D01*
X002655Y015300D01*
X002641Y015286D01*
X002661Y015266D01*
X002661Y014894D01*
X002397Y014630D01*
X002025Y014630D01*
X001761Y014894D01*
X001761Y015266D01*
X002025Y015530D01*
X002375Y015530D01*
X002505Y015660D01*
X002995Y015660D01*
X002761Y015894D01*
X002761Y016266D01*
X003025Y016530D01*
X003397Y016530D01*
X003661Y016266D01*
X003661Y016260D01*
X008805Y016260D01*
X008205Y016860D01*
X003627Y016860D01*
X003397Y016630D01*
X003025Y016630D01*
X002761Y016894D01*
X002761Y017266D01*
X003025Y017530D01*
X003397Y017530D01*
X003661Y017266D01*
X003661Y017220D01*
X008145Y017220D01*
X007485Y017880D01*
X006862Y017880D01*
X006813Y017831D01*
X006714Y017790D01*
X006606Y017790D01*
X006507Y017831D01*
X006431Y017907D01*
X006390Y018006D01*
X006390Y018114D01*
X006431Y018213D01*
X006507Y018289D01*
X006606Y018330D01*
X006714Y018330D01*
X006813Y018289D01*
X006862Y018240D01*
X007635Y018240D01*
X007740Y018135D01*
X010485Y015390D01*
X010554Y015390D01*
X010653Y015349D01*
X010729Y015273D01*
X010770Y015174D01*
X010770Y015066D01*
X010729Y014967D01*
X010653Y014891D01*
X010554Y014850D01*
X010446Y014850D01*
X010347Y014891D01*
X010271Y014967D01*
X010230Y015066D01*
X010230Y015135D01*
X009694Y015672D01*
X009633Y015611D01*
X009534Y015570D01*
X009426Y015570D01*
X009389Y015585D01*
X010455Y014520D01*
X011793Y014520D01*
X011790Y014526D01*
X011790Y014595D01*
X007785Y018600D01*
X007582Y018600D01*
X007533Y018551D01*
X007434Y018510D01*
X007326Y018510D01*
X007227Y018551D01*
X007151Y018627D01*
X007110Y018726D01*
X007110Y018834D01*
X007151Y018933D01*
X007227Y019009D01*
X007326Y019050D01*
X007434Y019050D01*
X007533Y019009D01*
X007582Y018960D01*
X007935Y018960D01*
X008040Y018855D01*
X012045Y014850D01*
X012114Y014850D01*
X012213Y014809D01*
X012289Y014733D01*
X012330Y014634D01*
X012330Y014526D01*
X012327Y014520D01*
X015008Y014520D01*
X015013Y014525D01*
X015193Y014525D01*
X015685Y015017D01*
X015685Y015769D01*
X015628Y015826D01*
X015628Y017195D01*
X014928Y017195D01*
X014840Y017283D01*
X014840Y017884D01*
X014298Y017884D01*
X014210Y017972D01*
X014210Y018962D01*
X014298Y019050D01*
X014840Y019050D01*
X014840Y019635D01*
X000410Y019635D01*
X000410Y019585D02*
X014840Y019585D01*
X014840Y019486D02*
X003441Y019486D01*
X003397Y019530D02*
X003661Y019266D01*
X003661Y018894D01*
X003397Y018630D01*
X003025Y018630D01*
X002761Y018894D01*
X002761Y019266D01*
X003025Y019530D01*
X003397Y019530D01*
X003540Y019388D02*
X014840Y019388D01*
X014840Y019289D02*
X003638Y019289D01*
X003661Y019191D02*
X014840Y019191D01*
X014840Y019092D02*
X003661Y019092D01*
X003661Y018994D02*
X007212Y018994D01*
X007135Y018895D02*
X003661Y018895D01*
X003564Y018797D02*
X007110Y018797D01*
X007122Y018698D02*
X003466Y018698D01*
X003397Y018530D02*
X003025Y018530D01*
X002761Y018266D01*
X002761Y017894D01*
X003025Y017630D01*
X003397Y017630D01*
X003661Y017894D01*
X003661Y018266D01*
X003397Y018530D01*
X003426Y018501D02*
X007884Y018501D01*
X007786Y018600D02*
X007581Y018600D01*
X007548Y018994D02*
X014241Y018994D01*
X014210Y018895D02*
X008000Y018895D01*
X008098Y018797D02*
X014210Y018797D01*
X014210Y018698D02*
X008197Y018698D01*
X008295Y018600D02*
X014210Y018600D01*
X014210Y018501D02*
X008394Y018501D01*
X008492Y018403D02*
X014210Y018403D01*
X014210Y018304D02*
X008591Y018304D01*
X008689Y018206D02*
X014210Y018206D01*
X014210Y018107D02*
X008788Y018107D01*
X008886Y018009D02*
X014210Y018009D01*
X014272Y017910D02*
X008985Y017910D01*
X009083Y017812D02*
X014840Y017812D01*
X014840Y017713D02*
X009182Y017713D01*
X009280Y017615D02*
X014840Y017615D01*
X014840Y017516D02*
X009379Y017516D01*
X009477Y017418D02*
X014840Y017418D01*
X014840Y017319D02*
X009576Y017319D01*
X009674Y017221D02*
X014903Y017221D01*
X015407Y016964D02*
X014298Y016964D01*
X014210Y016876D01*
X014210Y015885D01*
X014298Y015798D01*
X015407Y015798D01*
X015495Y015885D01*
X015495Y016876D01*
X015407Y016964D01*
X015445Y016925D02*
X015628Y016925D01*
X015628Y016827D02*
X015495Y016827D01*
X015495Y016728D02*
X015628Y016728D01*
X015628Y016630D02*
X015495Y016630D01*
X015495Y016531D02*
X015628Y016531D01*
X015628Y016433D02*
X015495Y016433D01*
X015495Y016334D02*
X015628Y016334D01*
X015628Y016236D02*
X015495Y016236D01*
X015495Y016137D02*
X015628Y016137D01*
X015628Y016039D02*
X015495Y016039D01*
X015495Y015940D02*
X015628Y015940D01*
X015628Y015842D02*
X015451Y015842D01*
X015685Y015743D02*
X011152Y015743D01*
X011250Y015645D02*
X015685Y015645D01*
X015685Y015546D02*
X011349Y015546D01*
X011447Y015448D02*
X015685Y015448D01*
X015685Y015349D02*
X011546Y015349D01*
X011644Y015251D02*
X015685Y015251D01*
X015685Y015152D02*
X011743Y015152D01*
X011841Y015054D02*
X015685Y015054D01*
X015623Y014955D02*
X011940Y014955D01*
X012038Y014857D02*
X015525Y014857D01*
X015426Y014758D02*
X012264Y014758D01*
X012319Y014660D02*
X015328Y014660D01*
X015229Y014561D02*
X012330Y014561D01*
X011790Y014561D02*
X010414Y014561D01*
X010315Y014660D02*
X011726Y014660D01*
X011627Y014758D02*
X010217Y014758D01*
X010118Y014857D02*
X010431Y014857D01*
X010569Y014857D02*
X011529Y014857D01*
X011430Y014955D02*
X010717Y014955D01*
X010765Y015054D02*
X011332Y015054D01*
X011233Y015152D02*
X010770Y015152D01*
X010738Y015251D02*
X011135Y015251D01*
X011036Y015349D02*
X010653Y015349D01*
X010427Y015448D02*
X010938Y015448D01*
X010839Y015546D02*
X010329Y015546D01*
X010230Y015645D02*
X010741Y015645D01*
X010642Y015743D02*
X010132Y015743D01*
X010033Y015842D02*
X010544Y015842D01*
X010445Y015940D02*
X009935Y015940D01*
X009836Y016039D02*
X010347Y016039D01*
X010248Y016137D02*
X009738Y016137D01*
X009639Y016236D02*
X010150Y016236D01*
X010051Y016334D02*
X009541Y016334D01*
X009442Y016433D02*
X009953Y016433D01*
X009854Y016531D02*
X009344Y016531D01*
X009245Y016630D02*
X009756Y016630D01*
X009657Y016728D02*
X009147Y016728D01*
X009048Y016827D02*
X009559Y016827D01*
X009460Y016925D02*
X008950Y016925D01*
X008851Y017024D02*
X009362Y017024D01*
X009263Y017122D02*
X008753Y017122D01*
X008654Y017221D02*
X009165Y017221D01*
X009066Y017319D02*
X008556Y017319D01*
X008457Y017418D02*
X008968Y017418D01*
X008869Y017516D02*
X008359Y017516D01*
X008260Y017615D02*
X008771Y017615D01*
X008672Y017713D02*
X008162Y017713D01*
X008063Y017812D02*
X008574Y017812D01*
X008475Y017910D02*
X007965Y017910D01*
X007866Y018009D02*
X008377Y018009D01*
X008278Y018107D02*
X007768Y018107D01*
X007669Y018206D02*
X008180Y018206D01*
X008081Y018304D02*
X006776Y018304D01*
X006544Y018304D02*
X003623Y018304D01*
X003661Y018206D02*
X006428Y018206D01*
X006390Y018107D02*
X003661Y018107D01*
X003661Y018009D02*
X006390Y018009D01*
X006430Y017910D02*
X003661Y017910D01*
X003579Y017812D02*
X006554Y017812D01*
X006766Y017812D02*
X007554Y017812D01*
X007652Y017713D02*
X003481Y017713D01*
X003411Y017516D02*
X007849Y017516D01*
X007751Y017615D02*
X000410Y017615D01*
X000410Y017713D02*
X001942Y017713D01*
X002025Y017630D02*
X001761Y017894D01*
X001761Y018266D01*
X002025Y018530D01*
X002397Y018530D01*
X002661Y018266D01*
X002661Y017894D01*
X002397Y017630D01*
X002025Y017630D01*
X002025Y017530D02*
X001761Y017266D01*
X001761Y016894D01*
X002025Y016630D01*
X002397Y016630D01*
X002661Y016894D01*
X002661Y017266D01*
X002397Y017530D01*
X002025Y017530D01*
X002011Y017516D02*
X000410Y017516D01*
X000410Y017418D02*
X001912Y017418D01*
X001814Y017319D02*
X000410Y017319D01*
X000410Y017221D02*
X001761Y017221D01*
X001761Y017122D02*
X000410Y017122D01*
X000410Y017024D02*
X001761Y017024D01*
X001761Y016925D02*
X000410Y016925D01*
X000410Y016827D02*
X001828Y016827D01*
X001927Y016728D02*
X000410Y016728D01*
X000410Y016630D02*
X008436Y016630D01*
X008337Y016728D02*
X003496Y016728D01*
X003594Y016827D02*
X008239Y016827D01*
X008534Y016531D02*
X000410Y016531D01*
X000410Y016433D02*
X001927Y016433D01*
X002025Y016530D02*
X001761Y016266D01*
X001761Y015894D01*
X002025Y015630D01*
X002397Y015630D01*
X002661Y015894D01*
X002661Y016266D01*
X002397Y016530D01*
X002025Y016530D01*
X001829Y016334D02*
X000410Y016334D01*
X000410Y016236D02*
X001761Y016236D01*
X001761Y016137D02*
X000410Y016137D01*
X000410Y016039D02*
X001761Y016039D01*
X001761Y015940D02*
X000410Y015940D01*
X000410Y015842D02*
X001813Y015842D01*
X001912Y015743D02*
X000410Y015743D01*
X000410Y015645D02*
X002010Y015645D01*
X001942Y015448D02*
X000410Y015448D01*
X000410Y015546D02*
X002391Y015546D01*
X002412Y015645D02*
X002490Y015645D01*
X002511Y015743D02*
X002912Y015743D01*
X002813Y015842D02*
X002609Y015842D01*
X002661Y015940D02*
X002761Y015940D01*
X002761Y016039D02*
X002661Y016039D01*
X002661Y016137D02*
X002761Y016137D01*
X002761Y016236D02*
X002661Y016236D01*
X002593Y016334D02*
X002829Y016334D01*
X002927Y016433D02*
X002495Y016433D01*
X002496Y016728D02*
X002927Y016728D01*
X002828Y016827D02*
X002594Y016827D01*
X002661Y016925D02*
X002761Y016925D01*
X002761Y017024D02*
X002661Y017024D01*
X002661Y017122D02*
X002761Y017122D01*
X002761Y017221D02*
X002661Y017221D01*
X002608Y017319D02*
X002814Y017319D01*
X002912Y017418D02*
X002510Y017418D01*
X002411Y017516D02*
X003011Y017516D01*
X002942Y017713D02*
X002481Y017713D01*
X002579Y017812D02*
X002843Y017812D01*
X002761Y017910D02*
X002661Y017910D01*
X002661Y018009D02*
X002761Y018009D01*
X002761Y018107D02*
X002661Y018107D01*
X002661Y018206D02*
X002761Y018206D01*
X002799Y018304D02*
X002623Y018304D01*
X002525Y018403D02*
X002897Y018403D01*
X002996Y018501D02*
X002426Y018501D01*
X002397Y018630D02*
X002661Y018894D01*
X002661Y019266D01*
X002397Y019530D01*
X002025Y019530D01*
X001761Y019266D01*
X001761Y018894D01*
X002025Y018630D01*
X002397Y018630D01*
X002466Y018698D02*
X002957Y018698D01*
X002858Y018797D02*
X002564Y018797D01*
X002661Y018895D02*
X002761Y018895D01*
X002761Y018994D02*
X002661Y018994D01*
X002661Y019092D02*
X002761Y019092D01*
X002761Y019191D02*
X002661Y019191D01*
X002638Y019289D02*
X002784Y019289D01*
X002882Y019388D02*
X002540Y019388D01*
X002441Y019486D02*
X002981Y019486D01*
X001981Y019486D02*
X000410Y019486D01*
X000410Y019388D02*
X001882Y019388D01*
X001784Y019289D02*
X000410Y019289D01*
X000410Y019191D02*
X001761Y019191D01*
X001761Y019092D02*
X000410Y019092D01*
X000410Y018994D02*
X001761Y018994D01*
X001761Y018895D02*
X000410Y018895D01*
X000410Y018797D02*
X001858Y018797D01*
X001957Y018698D02*
X000410Y018698D01*
X000410Y018600D02*
X007179Y018600D01*
X007983Y018403D02*
X003525Y018403D01*
X003510Y017418D02*
X007948Y017418D01*
X008046Y017319D02*
X003608Y017319D01*
X003661Y017221D02*
X008145Y017221D01*
X008633Y016433D02*
X003495Y016433D01*
X003593Y016334D02*
X008731Y016334D01*
X008613Y015900D02*
X008610Y015894D01*
X008610Y015825D01*
X008554Y015768D01*
X008553Y015769D01*
X008454Y015810D01*
X008346Y015810D01*
X008247Y015769D01*
X008171Y015693D01*
X008157Y015660D01*
X003427Y015660D01*
X003661Y015894D01*
X003661Y015900D01*
X008613Y015900D01*
X008610Y015842D02*
X003609Y015842D01*
X003511Y015743D02*
X008221Y015743D01*
X008591Y015349D02*
X009116Y015349D01*
X009018Y015448D02*
X008742Y015448D01*
X008841Y015546D02*
X008919Y015546D01*
X009215Y015251D02*
X003661Y015251D01*
X003624Y014857D02*
X008529Y014857D01*
X008610Y014758D02*
X003526Y014758D01*
X003427Y014660D02*
X008629Y014660D01*
X008697Y014561D02*
X000410Y014561D01*
X000410Y014463D02*
X001957Y014463D01*
X001859Y014364D02*
X000410Y014364D01*
X000410Y014266D02*
X001761Y014266D01*
X001761Y014167D02*
X000410Y014167D01*
X000410Y014069D02*
X001761Y014069D01*
X001761Y013970D02*
X000410Y013970D01*
X000410Y013872D02*
X001783Y013872D01*
X001882Y013773D02*
X000410Y013773D01*
X000410Y013675D02*
X001980Y013675D01*
X001972Y013478D02*
X000410Y013478D01*
X000410Y013576D02*
X002429Y013576D01*
X002450Y013478D02*
X002528Y013478D01*
X002548Y013379D02*
X002626Y013379D01*
X002647Y013281D02*
X002775Y013281D01*
X002761Y013182D02*
X002661Y013182D01*
X002661Y013084D02*
X002761Y013084D01*
X002761Y012985D02*
X002661Y012985D01*
X002654Y012887D02*
X002732Y012887D01*
X003005Y012650D02*
X003025Y012630D01*
X003397Y012630D01*
X003661Y012894D01*
X003661Y013266D01*
X003607Y013320D01*
X006620Y013320D01*
X006588Y013244D01*
X006588Y013067D01*
X006656Y012902D01*
X006659Y012900D01*
X003765Y012900D01*
X003395Y012530D01*
X003025Y012530D01*
X002761Y012266D01*
X002761Y011894D01*
X002835Y011820D01*
X002715Y011820D01*
X002651Y011884D01*
X002661Y011894D01*
X002661Y012266D01*
X002447Y012480D01*
X002835Y012480D01*
X003005Y012650D01*
X002946Y012591D02*
X003456Y012591D01*
X003457Y012690D02*
X003555Y012690D01*
X003556Y012788D02*
X003653Y012788D01*
X003654Y012887D02*
X003752Y012887D01*
X003661Y012985D02*
X006622Y012985D01*
X006588Y013084D02*
X003661Y013084D01*
X003661Y013182D02*
X006588Y013182D01*
X006603Y013281D02*
X003647Y013281D01*
X003447Y013680D02*
X003627Y013860D01*
X006945Y013860D01*
X007259Y013546D01*
X007124Y013602D01*
X006946Y013602D01*
X006894Y013581D01*
X006795Y013680D01*
X003447Y013680D01*
X003541Y013773D02*
X007032Y013773D01*
X007131Y013675D02*
X006800Y013675D01*
X007187Y013576D02*
X007229Y013576D01*
X007542Y013773D02*
X016920Y013773D01*
X016920Y013675D02*
X007640Y013675D01*
X007866Y013576D02*
X013883Y013576D01*
X013725Y013478D02*
X007932Y013478D01*
X007950Y013379D02*
X013644Y013379D01*
X013632Y012960D02*
X013656Y012902D01*
X013782Y012777D01*
X013946Y012709D01*
X014124Y012709D01*
X014288Y012777D01*
X014414Y012902D01*
X014463Y013020D01*
X018120Y013020D01*
X018120Y012490D01*
X017398Y012490D01*
X017310Y012402D01*
X017310Y011940D01*
X014429Y011940D01*
X014482Y012067D01*
X014482Y012244D01*
X014414Y012409D01*
X014288Y012534D01*
X014124Y012602D01*
X013946Y012602D01*
X013782Y012534D01*
X013656Y012409D01*
X013600Y012274D01*
X013515Y012360D01*
X011007Y012360D01*
X011010Y012366D01*
X011010Y012474D01*
X010969Y012573D01*
X010893Y012649D01*
X010794Y012690D01*
X010725Y012690D01*
X010620Y012795D01*
X010515Y012900D01*
X007411Y012900D01*
X007414Y012902D01*
X007438Y012960D01*
X013632Y012960D01*
X013672Y012887D02*
X010528Y012887D01*
X010627Y012788D02*
X013771Y012788D01*
X013919Y012591D02*
X010951Y012591D01*
X011002Y012493D02*
X013740Y012493D01*
X013650Y012394D02*
X011010Y012394D01*
X010795Y012690D02*
X018120Y012690D01*
X018120Y012788D02*
X014300Y012788D01*
X014398Y012887D02*
X018120Y012887D01*
X018120Y012985D02*
X014448Y012985D01*
X014151Y012591D02*
X018120Y012591D01*
X018120Y012493D02*
X014330Y012493D01*
X014420Y012394D02*
X017310Y012394D01*
X017310Y012296D02*
X014461Y012296D01*
X014482Y012197D02*
X017310Y012197D01*
X017310Y012099D02*
X014482Y012099D01*
X014454Y012000D02*
X017310Y012000D01*
X017475Y011580D02*
X017595Y011580D01*
X017605Y011590D01*
X018120Y011590D01*
X018120Y011316D01*
X017946Y011490D01*
X017574Y011490D01*
X017569Y011485D01*
X017475Y011580D01*
X017547Y011508D02*
X018120Y011508D01*
X018120Y011409D02*
X018027Y011409D01*
X018480Y011409D02*
X019290Y011409D01*
X019290Y011311D02*
X018480Y011311D01*
X018480Y011212D02*
X019290Y011212D01*
X019290Y011114D02*
X018480Y011114D01*
X018480Y011015D02*
X019290Y011015D01*
X019290Y010917D02*
X018480Y010917D01*
X018480Y010818D02*
X019290Y010818D01*
X019290Y010720D02*
X018480Y010720D01*
X018480Y010621D02*
X019290Y010621D01*
X019290Y010523D02*
X018457Y010523D01*
X018359Y010424D02*
X019290Y010424D01*
X019290Y010326D02*
X018260Y010326D01*
X018209Y010227D02*
X019290Y010227D01*
X019290Y010129D02*
X018210Y010129D01*
X018210Y010030D02*
X019290Y010030D01*
X019290Y009932D02*
X018210Y009932D01*
X018189Y009833D02*
X019290Y009833D01*
X019290Y009735D02*
X018091Y009735D01*
X017992Y009636D02*
X019290Y009636D01*
X019290Y009538D02*
X014880Y009538D01*
X014880Y009636D02*
X017528Y009636D01*
X017429Y009735D02*
X014880Y009735D01*
X014880Y009833D02*
X017331Y009833D01*
X017310Y009932D02*
X014880Y009932D01*
X014880Y010030D02*
X017310Y010030D01*
X017310Y010129D02*
X014880Y010129D01*
X014880Y010227D02*
X017311Y010227D01*
X017409Y010326D02*
X014880Y010326D01*
X014880Y010424D02*
X017508Y010424D01*
X017543Y010621D02*
X014880Y010621D01*
X014880Y010523D02*
X017948Y010523D01*
X017977Y010621D02*
X018046Y010621D01*
X018076Y010720D02*
X018120Y010720D01*
X017444Y010720D02*
X014880Y010720D01*
X014880Y010818D02*
X017346Y010818D01*
X017310Y010917D02*
X014880Y010917D01*
X014880Y011015D02*
X017310Y011015D01*
X017310Y011114D02*
X014880Y011114D01*
X014843Y011212D02*
X017310Y011212D01*
X017235Y011311D02*
X014454Y011311D01*
X014421Y010920D02*
X014520Y010920D01*
X014520Y010515D01*
X014295Y010740D01*
X014200Y010740D01*
X014288Y010777D01*
X014414Y010902D01*
X014421Y010920D01*
X014420Y010917D02*
X014520Y010917D01*
X014520Y010818D02*
X014329Y010818D01*
X014315Y010720D02*
X014520Y010720D01*
X014520Y010621D02*
X014414Y010621D01*
X014512Y010523D02*
X014520Y010523D01*
X013871Y010740D02*
X009594Y010740D01*
X009540Y010776D01*
X009540Y010794D01*
X009500Y010890D01*
X009540Y010986D01*
X009540Y011055D01*
X009645Y011160D01*
X013118Y011160D01*
X013167Y011111D01*
X013266Y011070D01*
X013374Y011070D01*
X013473Y011111D01*
X013549Y011187D01*
X013590Y011286D01*
X013590Y011394D01*
X013587Y011400D01*
X013653Y011400D01*
X013588Y011244D01*
X013588Y011067D01*
X013656Y010902D01*
X013782Y010777D01*
X013871Y010740D01*
X013741Y010818D02*
X009530Y010818D01*
X009511Y010917D02*
X013650Y010917D01*
X013610Y011015D02*
X009540Y011015D01*
X009598Y011114D02*
X013165Y011114D01*
X013475Y011114D02*
X013588Y011114D01*
X013588Y011212D02*
X013559Y011212D01*
X013590Y011311D02*
X013616Y011311D01*
X013605Y011760D02*
X009862Y011760D01*
X009889Y011787D01*
X009930Y011886D01*
X009930Y011994D01*
X009927Y012000D01*
X013365Y012000D01*
X013605Y011760D01*
X013562Y011803D02*
X009896Y011803D01*
X009930Y011902D02*
X013464Y011902D01*
X013579Y012296D02*
X013609Y012296D01*
X014345Y013478D02*
X016920Y013478D01*
X016920Y013576D02*
X014187Y013576D01*
X015359Y014167D02*
X016920Y014167D01*
X016920Y014069D02*
X007246Y014069D01*
X007148Y014167D02*
X010298Y014167D01*
X010200Y014266D02*
X003661Y014266D01*
X003563Y014364D02*
X010101Y014364D01*
X010003Y014463D02*
X003465Y014463D01*
X002957Y014463D02*
X002465Y014463D01*
X002563Y014364D02*
X002859Y014364D01*
X002761Y014266D02*
X002661Y014266D01*
X002661Y014167D02*
X002761Y014167D01*
X002761Y014069D02*
X002661Y014069D01*
X002661Y013970D02*
X002761Y013970D01*
X002783Y013872D02*
X002643Y013872D01*
X002742Y013773D02*
X002882Y013773D01*
X002995Y014660D02*
X002427Y014660D01*
X002526Y014758D02*
X002897Y014758D01*
X002798Y014857D02*
X002624Y014857D01*
X002661Y014955D02*
X002761Y014955D01*
X002761Y015054D02*
X002661Y015054D01*
X002661Y015152D02*
X002761Y015152D01*
X002761Y015251D02*
X002661Y015251D01*
X001844Y015349D02*
X000410Y015349D01*
X000410Y015251D02*
X001761Y015251D01*
X001761Y015152D02*
X000410Y015152D01*
X000410Y015054D02*
X001761Y015054D01*
X001761Y014955D02*
X000410Y014955D01*
X000410Y014857D02*
X001798Y014857D01*
X001897Y014758D02*
X000410Y014758D01*
X000410Y014660D02*
X001995Y014660D01*
X001874Y013379D02*
X000410Y013379D01*
X000410Y013281D02*
X001775Y013281D01*
X001761Y013182D02*
X000410Y013182D01*
X000410Y013084D02*
X001761Y013084D01*
X001761Y012985D02*
X000410Y012985D01*
X000410Y012887D02*
X001768Y012887D01*
X001553Y012788D02*
X000410Y012788D01*
X000410Y012690D02*
X001500Y012690D01*
X001500Y012591D02*
X000410Y012591D01*
X000410Y012493D02*
X001500Y012493D01*
X001500Y012394D02*
X000410Y012394D01*
X000410Y012296D02*
X001500Y012296D01*
X001500Y012197D02*
X000410Y012197D01*
X000410Y012099D02*
X001500Y012099D01*
X001500Y012000D02*
X000410Y012000D01*
X000410Y011902D02*
X001500Y011902D01*
X001500Y011803D02*
X000410Y011803D01*
X000410Y011705D02*
X001500Y011705D01*
X001500Y011606D02*
X000410Y011606D01*
X000410Y011508D02*
X001500Y011508D01*
X001500Y011409D02*
X000410Y011409D01*
X000410Y011311D02*
X001500Y011311D01*
X001500Y011212D02*
X000410Y011212D01*
X000410Y011114D02*
X001500Y011114D01*
X001500Y011015D02*
X000410Y011015D01*
X000410Y010917D02*
X001549Y010917D01*
X001647Y010818D02*
X000410Y010818D01*
X000410Y010720D02*
X001746Y010720D01*
X001844Y010621D02*
X000410Y010621D01*
X000410Y010523D02*
X001943Y010523D01*
X001919Y010424D02*
X000410Y010424D01*
X000410Y010326D02*
X001820Y010326D01*
X001761Y010227D02*
X000410Y010227D01*
X000410Y010129D02*
X001761Y010129D01*
X001761Y010030D02*
X000410Y010030D01*
X000410Y009932D02*
X001761Y009932D01*
X001822Y009833D02*
X000410Y009833D01*
X000410Y009735D02*
X001920Y009735D01*
X002019Y009636D02*
X000410Y009636D01*
X000410Y009538D02*
X006790Y009538D01*
X006687Y009439D02*
X003488Y009439D01*
X003397Y009530D02*
X003661Y009266D01*
X003661Y008894D01*
X003397Y008630D01*
X003025Y008630D01*
X002761Y008894D01*
X002761Y009266D01*
X003025Y009530D01*
X003397Y009530D01*
X003404Y009636D02*
X007852Y009636D01*
X007988Y009636D02*
X008310Y009636D01*
X008310Y009538D02*
X007280Y009538D01*
X007383Y009439D02*
X008310Y009439D01*
X008310Y009735D02*
X008136Y009735D01*
X008185Y009833D02*
X008310Y009833D01*
X008310Y009932D02*
X008190Y009932D01*
X008158Y010030D02*
X008243Y010030D01*
X008220Y010129D02*
X008073Y010129D01*
X008234Y010227D02*
X007848Y010227D01*
X007749Y010326D02*
X008294Y010326D01*
X008729Y010424D02*
X007651Y010424D01*
X007552Y010523D02*
X008828Y010523D01*
X009027Y010621D02*
X007454Y010621D01*
X007355Y010720D02*
X009000Y010720D01*
X009010Y010818D02*
X007329Y010818D01*
X007420Y010917D02*
X009029Y010917D01*
X009000Y011015D02*
X007461Y011015D01*
X007482Y011114D02*
X009008Y011114D01*
X009060Y011212D02*
X007482Y011212D01*
X007485Y011311D02*
X009286Y011311D01*
X009345Y011880D02*
X007635Y011880D01*
X007755Y012000D01*
X009393Y012000D01*
X009390Y011994D01*
X009390Y011925D01*
X009345Y011880D01*
X009367Y011902D02*
X007656Y011902D01*
X007482Y012236D02*
X007500Y012255D01*
X007605Y012360D01*
X009357Y012360D01*
X009333Y012420D01*
X007402Y012420D01*
X007414Y012409D01*
X007482Y012244D01*
X007482Y012236D01*
X007461Y012296D02*
X007541Y012296D01*
X007420Y012394D02*
X009343Y012394D01*
X009843Y012360D02*
X009870Y012426D01*
X009870Y012534D01*
X009867Y012540D01*
X010365Y012540D01*
X010470Y012435D01*
X010470Y012366D01*
X010473Y012360D01*
X009843Y012360D01*
X009857Y012394D02*
X010470Y012394D01*
X010413Y012493D02*
X009870Y012493D01*
X009904Y014561D02*
X009063Y014561D01*
X009131Y014660D02*
X009806Y014660D01*
X009707Y014758D02*
X009150Y014758D01*
X009132Y014857D02*
X009609Y014857D01*
X009510Y014955D02*
X009067Y014955D01*
X008841Y015054D02*
X009412Y015054D01*
X009313Y015152D02*
X008743Y015152D01*
X009429Y015546D02*
X009819Y015546D01*
X009721Y015645D02*
X009666Y015645D01*
X009527Y015448D02*
X009918Y015448D01*
X010016Y015349D02*
X009626Y015349D01*
X009724Y015251D02*
X010115Y015251D01*
X010213Y015152D02*
X009823Y015152D01*
X009921Y015054D02*
X010235Y015054D01*
X010283Y014955D02*
X010020Y014955D01*
X010955Y015940D02*
X014210Y015940D01*
X014210Y016039D02*
X010856Y016039D01*
X010758Y016137D02*
X014210Y016137D01*
X014210Y016236D02*
X010659Y016236D01*
X010561Y016334D02*
X014210Y016334D01*
X014210Y016433D02*
X010462Y016433D01*
X010364Y016531D02*
X014210Y016531D01*
X014210Y016630D02*
X010265Y016630D01*
X010167Y016728D02*
X014210Y016728D01*
X014210Y016827D02*
X010068Y016827D01*
X009970Y016925D02*
X014260Y016925D01*
X014254Y015842D02*
X011053Y015842D01*
X009871Y017024D02*
X015628Y017024D01*
X015628Y017122D02*
X009773Y017122D01*
X007345Y013970D02*
X016920Y013970D01*
X016920Y013872D02*
X007443Y013872D01*
X006668Y012420D02*
X005835Y012420D01*
X005310Y011895D01*
X005310Y011826D01*
X005307Y011820D01*
X006705Y011820D01*
X006720Y011835D01*
X006720Y011835D01*
X006722Y011837D01*
X006656Y011902D01*
X006588Y012067D01*
X006588Y012244D01*
X006656Y012409D01*
X006668Y012420D01*
X006650Y012394D02*
X005809Y012394D01*
X005710Y012296D02*
X006609Y012296D01*
X006588Y012197D02*
X005612Y012197D01*
X005513Y012099D02*
X006588Y012099D01*
X006616Y012000D02*
X005415Y012000D01*
X005316Y011902D02*
X006657Y011902D01*
X006525Y011460D02*
X006345Y011280D01*
X003647Y011280D01*
X003467Y011460D01*
X006525Y011460D01*
X006474Y011409D02*
X003518Y011409D01*
X003617Y011311D02*
X006376Y011311D01*
X006604Y011029D02*
X006656Y010902D01*
X006699Y010860D01*
X003627Y010860D01*
X003661Y010894D01*
X003661Y010920D01*
X006495Y010920D01*
X006600Y011025D01*
X006604Y011029D01*
X006610Y011015D02*
X006590Y011015D01*
X006650Y010917D02*
X003661Y010917D01*
X003503Y010424D02*
X006672Y010424D01*
X006622Y010326D02*
X003602Y010326D01*
X003661Y010227D02*
X006588Y010227D01*
X006588Y010129D02*
X003661Y010129D01*
X003661Y010030D02*
X006603Y010030D01*
X006644Y009932D02*
X003661Y009932D01*
X003601Y009833D02*
X006726Y009833D01*
X006884Y009735D02*
X003502Y009735D01*
X003587Y009341D02*
X006628Y009341D01*
X006588Y009242D02*
X003661Y009242D01*
X003661Y009144D02*
X006588Y009144D01*
X006597Y009045D02*
X003661Y009045D01*
X003661Y008947D02*
X006638Y008947D01*
X006711Y008848D02*
X003616Y008848D01*
X003517Y008750D02*
X006848Y008750D01*
X006826Y008553D02*
X001907Y008553D01*
X001949Y008454D02*
X001809Y008454D01*
X001800Y008356D02*
X001850Y008356D01*
X001440Y008356D02*
X000410Y008356D01*
X000410Y008454D02*
X001440Y008454D01*
X001440Y008553D02*
X000410Y008553D01*
X000410Y008651D02*
X001496Y008651D01*
X001595Y008750D02*
X000410Y008750D01*
X000410Y008848D02*
X001693Y008848D01*
X001761Y008947D02*
X000410Y008947D01*
X000410Y009045D02*
X001761Y009045D01*
X001761Y009144D02*
X000410Y009144D01*
X000410Y009242D02*
X001761Y009242D01*
X001835Y009341D02*
X000410Y009341D01*
X000410Y009439D02*
X001934Y009439D01*
X002404Y009636D02*
X003019Y009636D01*
X002920Y009735D02*
X002502Y009735D01*
X002601Y009833D02*
X002822Y009833D01*
X002761Y009932D02*
X002661Y009932D01*
X002661Y010030D02*
X002761Y010030D01*
X002761Y010129D02*
X002661Y010129D01*
X002661Y010227D02*
X002761Y010227D01*
X002820Y010326D02*
X002602Y010326D01*
X002503Y010424D02*
X002919Y010424D01*
X002795Y010860D02*
X002627Y010860D01*
X002661Y010894D01*
X002661Y011266D01*
X002397Y011530D01*
X002025Y011530D01*
X001860Y011365D01*
X001860Y011795D01*
X002025Y011630D01*
X002395Y011630D01*
X002565Y011460D01*
X002955Y011460D01*
X002761Y011266D01*
X002761Y010894D01*
X002795Y010860D01*
X002761Y010917D02*
X002661Y010917D01*
X002661Y011015D02*
X002761Y011015D01*
X002761Y011114D02*
X002661Y011114D01*
X002661Y011212D02*
X002761Y011212D01*
X002805Y011311D02*
X002617Y011311D01*
X002518Y011409D02*
X002904Y011409D01*
X002518Y011508D02*
X002420Y011508D01*
X002419Y011606D02*
X001860Y011606D01*
X001860Y011508D02*
X002002Y011508D01*
X001904Y011409D02*
X001860Y011409D01*
X001860Y011705D02*
X001950Y011705D01*
X001860Y012365D02*
X001975Y012480D01*
X001860Y012480D01*
X001860Y012365D01*
X001860Y012394D02*
X001889Y012394D01*
X002533Y012394D02*
X002889Y012394D01*
X002847Y012493D02*
X002987Y012493D01*
X002790Y012296D02*
X002632Y012296D01*
X002661Y012197D02*
X002761Y012197D01*
X002761Y012099D02*
X002661Y012099D01*
X002661Y012000D02*
X002761Y012000D01*
X002761Y011902D02*
X002661Y011902D01*
X003587Y011820D02*
X003661Y011894D01*
X003661Y012266D01*
X003651Y012276D01*
X003915Y012540D01*
X005445Y012540D01*
X005055Y012150D01*
X004986Y012150D01*
X004887Y012109D01*
X004811Y012033D01*
X004770Y011934D01*
X004770Y011826D01*
X004773Y011820D01*
X003587Y011820D01*
X003661Y011902D02*
X004770Y011902D01*
X004797Y012000D02*
X003661Y012000D01*
X003661Y012099D02*
X004877Y012099D01*
X005102Y012197D02*
X003661Y012197D01*
X003670Y012296D02*
X005201Y012296D01*
X005299Y012394D02*
X003769Y012394D01*
X003867Y012493D02*
X005398Y012493D01*
X007467Y010030D02*
X007535Y010030D01*
X007634Y009932D02*
X007426Y009932D01*
X007344Y009833D02*
X007655Y009833D01*
X007704Y009735D02*
X007186Y009735D01*
X007432Y008947D02*
X008580Y008947D01*
X008580Y008848D02*
X007359Y008848D01*
X007223Y008750D02*
X008580Y008750D01*
X008580Y008651D02*
X003419Y008651D01*
X003473Y008454D02*
X006702Y008454D01*
X006634Y008356D02*
X003572Y008356D01*
X003661Y008257D02*
X006593Y008257D01*
X006588Y008159D02*
X003661Y008159D01*
X003661Y008060D02*
X006591Y008060D01*
X006632Y007962D02*
X003661Y007962D01*
X003631Y007863D02*
X006696Y007863D01*
X007371Y007860D02*
X007414Y007902D01*
X007446Y007980D01*
X008835Y007980D01*
X008940Y008085D01*
X008940Y009873D01*
X008946Y009870D01*
X009015Y009870D01*
X011025Y007860D01*
X007371Y007860D01*
X007374Y007863D02*
X011022Y007863D01*
X010924Y007962D02*
X007438Y007962D01*
X007436Y008356D02*
X008580Y008356D01*
X008580Y008454D02*
X007368Y008454D01*
X007244Y008553D02*
X008580Y008553D01*
X008940Y008553D02*
X010333Y008553D01*
X010234Y008651D02*
X008940Y008651D01*
X008940Y008750D02*
X010136Y008750D01*
X010037Y008848D02*
X008940Y008848D01*
X008940Y008947D02*
X009939Y008947D01*
X009840Y009045D02*
X008940Y009045D01*
X008940Y009144D02*
X009742Y009144D01*
X009643Y009242D02*
X008940Y009242D01*
X008940Y009341D02*
X009545Y009341D01*
X009446Y009439D02*
X008940Y009439D01*
X008940Y009538D02*
X009348Y009538D01*
X009249Y009636D02*
X008940Y009636D01*
X008940Y009735D02*
X009151Y009735D01*
X009052Y009833D02*
X008940Y009833D01*
X009630Y010194D02*
X009589Y010293D01*
X009548Y010334D01*
X009567Y010380D01*
X013644Y010380D01*
X013588Y010244D01*
X013588Y010067D01*
X013656Y009902D01*
X013782Y009777D01*
X013946Y009709D01*
X014124Y009709D01*
X014280Y009773D01*
X014280Y009538D01*
X014124Y009602D01*
X013946Y009602D01*
X013851Y009563D01*
X013755Y009660D01*
X010095Y009660D01*
X009630Y010125D01*
X009630Y010194D01*
X009616Y010227D02*
X013588Y010227D01*
X013588Y010129D02*
X009630Y010129D01*
X009725Y010030D02*
X013603Y010030D01*
X013644Y009932D02*
X009823Y009932D01*
X009922Y009833D02*
X013726Y009833D01*
X013884Y009735D02*
X010020Y009735D01*
X010095Y009300D02*
X010473Y009300D01*
X010470Y009294D01*
X010470Y009186D01*
X010511Y009087D01*
X010587Y009011D01*
X010686Y008970D01*
X010755Y008970D01*
X011040Y008685D01*
X011145Y008580D01*
X013892Y008580D01*
X013782Y008534D01*
X013656Y008409D01*
X013588Y008244D01*
X013588Y008067D01*
X013599Y008040D01*
X011355Y008040D01*
X010095Y009300D01*
X010153Y009242D02*
X010470Y009242D01*
X010488Y009144D02*
X010251Y009144D01*
X010350Y009045D02*
X010553Y009045D01*
X010448Y008947D02*
X010779Y008947D01*
X010877Y008848D02*
X010547Y008848D01*
X010645Y008750D02*
X010976Y008750D01*
X011074Y008651D02*
X010744Y008651D01*
X010842Y008553D02*
X013826Y008553D01*
X013702Y008454D02*
X010941Y008454D01*
X011039Y008356D02*
X013634Y008356D01*
X013593Y008257D02*
X011138Y008257D01*
X011236Y008159D02*
X013588Y008159D01*
X013591Y008060D02*
X011335Y008060D01*
X010825Y008060D02*
X008915Y008060D01*
X008940Y008159D02*
X010727Y008159D01*
X010628Y008257D02*
X008940Y008257D01*
X008940Y008356D02*
X010530Y008356D01*
X010431Y008454D02*
X008940Y008454D01*
X009556Y010326D02*
X013622Y010326D01*
X013779Y009636D02*
X014280Y009636D01*
X014280Y009735D02*
X014186Y009735D01*
X013610Y009296D02*
X013588Y009244D01*
X013588Y009067D01*
X013641Y008940D01*
X011295Y008940D01*
X011010Y009225D01*
X011010Y009294D01*
X011007Y009300D01*
X013605Y009300D01*
X013610Y009296D01*
X013588Y009242D02*
X011010Y009242D01*
X011091Y009144D02*
X013588Y009144D01*
X013597Y009045D02*
X011190Y009045D01*
X011288Y008947D02*
X013638Y008947D01*
X014178Y008580D02*
X014295Y008580D01*
X014400Y008685D01*
X014400Y008422D01*
X014288Y008534D01*
X014178Y008580D01*
X014244Y008553D02*
X014400Y008553D01*
X014400Y008651D02*
X014366Y008651D01*
X014368Y008454D02*
X014400Y008454D01*
X014880Y008454D02*
X017538Y008454D01*
X017439Y008356D02*
X014880Y008356D01*
X014880Y008257D02*
X017341Y008257D01*
X017310Y008159D02*
X014880Y008159D01*
X014880Y008060D02*
X017310Y008060D01*
X017310Y007962D02*
X014816Y007962D01*
X014718Y007863D02*
X017310Y007863D01*
X017542Y007568D02*
X019290Y007568D01*
X019290Y007666D02*
X018022Y007666D01*
X018121Y007765D02*
X019290Y007765D01*
X019290Y007863D02*
X018210Y007863D01*
X018210Y007962D02*
X019290Y007962D01*
X019290Y008060D02*
X018210Y008060D01*
X018210Y008159D02*
X019290Y008159D01*
X019290Y008257D02*
X018179Y008257D01*
X018081Y008356D02*
X019290Y008356D01*
X019290Y008454D02*
X017982Y008454D01*
X017946Y008590D02*
X018210Y008854D01*
X018210Y009226D01*
X017946Y009490D01*
X017574Y009490D01*
X017310Y009226D01*
X017310Y008854D01*
X017574Y008590D01*
X017946Y008590D01*
X018007Y008651D02*
X019290Y008651D01*
X019290Y008553D02*
X014880Y008553D01*
X014880Y008651D02*
X017513Y008651D01*
X017414Y008750D02*
X014880Y008750D01*
X014880Y008848D02*
X017316Y008848D01*
X017310Y008947D02*
X014880Y008947D01*
X014880Y009045D02*
X017310Y009045D01*
X017310Y009144D02*
X014880Y009144D01*
X014880Y009242D02*
X017326Y009242D01*
X017424Y009341D02*
X014880Y009341D01*
X014880Y009439D02*
X017523Y009439D01*
X017997Y009439D02*
X019290Y009439D01*
X019290Y009341D02*
X018096Y009341D01*
X018194Y009242D02*
X019290Y009242D01*
X019290Y009144D02*
X018210Y009144D01*
X018210Y009045D02*
X019290Y009045D01*
X019290Y008947D02*
X018210Y008947D01*
X018204Y008848D02*
X019290Y008848D01*
X019290Y008750D02*
X018106Y008750D01*
X017946Y007490D02*
X017574Y007490D01*
X017310Y007226D01*
X017310Y006854D01*
X017574Y006590D01*
X017946Y006590D01*
X018210Y006854D01*
X018210Y007226D01*
X017946Y007490D01*
X017967Y007469D02*
X019366Y007469D01*
X019574Y007469D02*
X019635Y007469D01*
X019635Y007371D02*
X018066Y007371D01*
X018164Y007272D02*
X019635Y007272D01*
X019635Y007174D02*
X018210Y007174D01*
X018210Y007075D02*
X019635Y007075D01*
X019635Y006977D02*
X018210Y006977D01*
X018210Y006878D02*
X019635Y006878D01*
X019635Y006780D02*
X018136Y006780D01*
X018037Y006681D02*
X019635Y006681D01*
X019635Y006583D02*
X011697Y006583D01*
X011796Y006681D02*
X017483Y006681D01*
X017384Y006780D02*
X011894Y006780D01*
X011993Y006878D02*
X017310Y006878D01*
X017310Y006977D02*
X012091Y006977D01*
X012190Y007075D02*
X017310Y007075D01*
X017310Y007174D02*
X012288Y007174D01*
X012387Y007272D02*
X017356Y007272D01*
X017454Y007371D02*
X012583Y007371D01*
X011697Y007500D02*
X011670Y007434D01*
X011670Y007365D01*
X011145Y006840D01*
X003607Y006840D01*
X003661Y006894D01*
X003661Y007266D01*
X003427Y007500D01*
X011697Y007500D01*
X011685Y007469D02*
X003458Y007469D01*
X003557Y007371D02*
X011670Y007371D01*
X011577Y007272D02*
X003655Y007272D01*
X003661Y007174D02*
X011479Y007174D01*
X011380Y007075D02*
X003661Y007075D01*
X003661Y006977D02*
X011282Y006977D01*
X011183Y006878D02*
X003646Y006878D01*
X002815Y006840D02*
X002715Y006840D01*
X002661Y006894D01*
X002661Y007266D01*
X002397Y007530D01*
X002025Y007530D01*
X001800Y007305D01*
X001800Y007855D01*
X002025Y007630D01*
X002375Y007630D01*
X002505Y007500D01*
X002995Y007500D01*
X002761Y007266D01*
X002761Y006894D01*
X002815Y006840D01*
X002777Y006878D02*
X002677Y006878D01*
X002661Y006894D02*
X002661Y006894D01*
X002661Y006977D02*
X002761Y006977D01*
X002761Y007075D02*
X002661Y007075D01*
X002661Y007174D02*
X002761Y007174D01*
X002767Y007272D02*
X002655Y007272D01*
X002557Y007371D02*
X002865Y007371D01*
X002964Y007469D02*
X002458Y007469D01*
X002438Y007568D02*
X001800Y007568D01*
X001800Y007666D02*
X001989Y007666D01*
X001890Y007765D02*
X001800Y007765D01*
X001800Y007469D02*
X001964Y007469D01*
X001865Y007371D02*
X001800Y007371D01*
X001440Y007371D02*
X000410Y007371D01*
X000410Y007469D02*
X001440Y007469D01*
X001440Y007568D02*
X000410Y007568D01*
X000410Y007666D02*
X001440Y007666D01*
X001440Y007765D02*
X000410Y007765D01*
X000410Y007863D02*
X001440Y007863D01*
X001440Y007962D02*
X000410Y007962D01*
X000410Y008060D02*
X001440Y008060D01*
X001440Y008159D02*
X000410Y008159D01*
X000410Y008257D02*
X001440Y008257D01*
X001440Y007272D02*
X000410Y007272D01*
X000410Y007174D02*
X001440Y007174D01*
X001440Y007075D02*
X000410Y007075D01*
X000410Y006977D02*
X001440Y006977D01*
X001440Y006878D02*
X000410Y006878D01*
X000410Y006780D02*
X001440Y006780D01*
X001440Y006681D02*
X000410Y006681D01*
X000410Y006583D02*
X001440Y006583D01*
X001440Y006484D02*
X000410Y006484D01*
X000410Y006386D02*
X001151Y006386D01*
X001052Y006287D02*
X000410Y006287D01*
X000410Y006189D02*
X001050Y006189D01*
X001095Y006090D02*
X000410Y006090D01*
X000410Y005992D02*
X019635Y005992D01*
X019635Y006090D02*
X019275Y006090D01*
X019320Y006189D02*
X019635Y006189D01*
X019635Y006287D02*
X019318Y006287D01*
X019219Y006386D02*
X019635Y006386D01*
X019635Y006484D02*
X011599Y006484D01*
X017444Y007469D02*
X017553Y007469D01*
X019635Y005893D02*
X000410Y005893D01*
X000410Y005795D02*
X019635Y005795D01*
X019635Y005696D02*
X000410Y005696D01*
X000410Y005598D02*
X019635Y005598D01*
X019635Y005499D02*
X000410Y005499D01*
X000410Y005401D02*
X019635Y005401D01*
X019635Y005302D02*
X000410Y005302D01*
X000410Y005204D02*
X019635Y005204D01*
X019635Y005105D02*
X000410Y005105D01*
X000410Y005007D02*
X019635Y005007D01*
X019635Y004908D02*
X000410Y004908D01*
X000410Y004810D02*
X019635Y004810D01*
X019635Y004711D02*
X000410Y004711D01*
X000410Y004613D02*
X019635Y004613D01*
X019635Y004514D02*
X000410Y004514D01*
X000410Y004416D02*
X019635Y004416D01*
X019635Y004317D02*
X000410Y004317D01*
X000410Y004219D02*
X019635Y004219D01*
X019635Y004120D02*
X000410Y004120D01*
X000410Y004022D02*
X019635Y004022D01*
X019635Y003923D02*
X000410Y003923D01*
X000410Y003825D02*
X019635Y003825D01*
X019635Y003726D02*
X000410Y003726D01*
X000410Y003628D02*
X019635Y003628D01*
X019635Y003529D02*
X000410Y003529D01*
X000410Y003431D02*
X019635Y003431D01*
X019635Y003332D02*
X000410Y003332D01*
X000410Y003234D02*
X019635Y003234D01*
X019635Y003135D02*
X000410Y003135D01*
X000410Y003037D02*
X019635Y003037D01*
X019635Y002938D02*
X000410Y002938D01*
X000410Y002840D02*
X019635Y002840D01*
X019635Y002741D02*
X000410Y002741D01*
X000410Y002643D02*
X019635Y002643D01*
X019635Y002544D02*
X000410Y002544D01*
X000410Y002446D02*
X019635Y002446D01*
X019635Y002347D02*
X000410Y002347D01*
X000410Y002249D02*
X019635Y002249D01*
X019635Y002150D02*
X000410Y002150D01*
X000410Y002052D02*
X019635Y002052D01*
X019635Y001953D02*
X000410Y001953D01*
X000410Y001855D02*
X019635Y001855D01*
X019635Y001756D02*
X000410Y001756D01*
X000410Y001658D02*
X019635Y001658D01*
X019635Y001559D02*
X000410Y001559D01*
X000410Y001461D02*
X019635Y001461D01*
X019635Y001362D02*
X000410Y001362D01*
X000410Y001264D02*
X019635Y001264D01*
X019635Y001165D02*
X000410Y001165D01*
X000410Y001067D02*
X019635Y001067D01*
X019635Y000968D02*
X000410Y000968D01*
X000410Y000870D02*
X019635Y000870D01*
X019635Y000771D02*
X000410Y000771D01*
X000410Y000673D02*
X019635Y000673D01*
X019635Y000574D02*
X000410Y000574D01*
X000410Y000476D02*
X019635Y000476D01*
X019290Y011508D02*
X018480Y011508D01*
X018480Y011606D02*
X019290Y011606D01*
X019290Y011705D02*
X018480Y011705D01*
X018480Y011803D02*
X019290Y011803D01*
X019290Y011902D02*
X018480Y011902D01*
X018480Y012000D02*
X019290Y012000D01*
X019290Y012099D02*
X018480Y012099D01*
X018480Y012197D02*
X019290Y012197D01*
X019290Y012296D02*
X018480Y012296D01*
X018480Y012394D02*
X019290Y012394D01*
X019290Y012493D02*
X018480Y012493D01*
X018480Y012591D02*
X019290Y012591D01*
X019290Y012690D02*
X018480Y012690D01*
X018480Y012788D02*
X019290Y012788D01*
X019290Y012887D02*
X018480Y012887D01*
X018480Y012985D02*
X019290Y012985D01*
X019290Y013084D02*
X018480Y013084D01*
X018480Y013182D02*
X019290Y013182D01*
X019290Y013281D02*
X018474Y013281D01*
X018376Y013379D02*
X019290Y013379D01*
X019290Y013478D02*
X017280Y013478D01*
X017280Y013576D02*
X019290Y013576D01*
X019290Y013675D02*
X017280Y013675D01*
X017280Y013773D02*
X019290Y013773D01*
X019290Y013872D02*
X017280Y013872D01*
X017280Y013970D02*
X019290Y013970D01*
X019290Y014069D02*
X017280Y014069D01*
X017280Y014167D02*
X019290Y014167D01*
X019290Y014266D02*
X017280Y014266D01*
X017280Y014364D02*
X019290Y014364D01*
X019290Y014463D02*
X017280Y014463D01*
X017280Y014561D02*
X019290Y014561D01*
X019290Y014660D02*
X017280Y014660D01*
X017280Y014758D02*
X019290Y014758D01*
X019290Y014857D02*
X017280Y014857D01*
X017280Y014955D02*
X019290Y014955D01*
X019290Y015054D02*
X017280Y015054D01*
X017280Y015152D02*
X019290Y015152D01*
X019290Y015251D02*
X017280Y015251D01*
X017280Y015349D02*
X019290Y015349D01*
X019290Y015448D02*
X017280Y015448D01*
X017280Y015546D02*
X019290Y015546D01*
X019290Y015645D02*
X017280Y015645D01*
X017301Y015743D02*
X019290Y015743D01*
X019290Y015842D02*
X018758Y015842D01*
X018802Y015885D02*
X018802Y016876D01*
X018714Y016964D01*
X017605Y016964D01*
X017517Y016876D01*
X017517Y015885D01*
X017605Y015798D01*
X018714Y015798D01*
X018802Y015885D01*
X018802Y015940D02*
X019290Y015940D01*
X019290Y016039D02*
X018802Y016039D01*
X018802Y016137D02*
X019290Y016137D01*
X019290Y016236D02*
X018802Y016236D01*
X018802Y016334D02*
X019290Y016334D01*
X019290Y016433D02*
X018802Y016433D01*
X018802Y016531D02*
X019290Y016531D01*
X019290Y016630D02*
X018802Y016630D01*
X018802Y016728D02*
X019290Y016728D01*
X019290Y016827D02*
X018802Y016827D01*
X018753Y016925D02*
X019290Y016925D01*
X019290Y017024D02*
X017384Y017024D01*
X017384Y017122D02*
X019290Y017122D01*
X019290Y017221D02*
X018109Y017221D01*
X018172Y017319D02*
X019290Y017319D01*
X019290Y017418D02*
X018172Y017418D01*
X018172Y017516D02*
X019290Y017516D01*
X019290Y017615D02*
X018172Y017615D01*
X018172Y017713D02*
X019290Y017713D01*
X019290Y017812D02*
X018172Y017812D01*
X018740Y017910D02*
X019290Y017910D01*
X019290Y018009D02*
X018802Y018009D01*
X018802Y018107D02*
X019290Y018107D01*
X019290Y018206D02*
X018802Y018206D01*
X018802Y018304D02*
X019290Y018304D01*
X019290Y018403D02*
X018802Y018403D01*
X018802Y018501D02*
X019290Y018501D01*
X019290Y018600D02*
X018802Y018600D01*
X018802Y018698D02*
X019373Y018698D01*
X019567Y018698D02*
X019635Y018698D01*
X019635Y018797D02*
X018802Y018797D01*
X018802Y018895D02*
X019635Y018895D01*
X019635Y018994D02*
X018771Y018994D01*
X018172Y019092D02*
X019635Y019092D01*
X019635Y019191D02*
X018172Y019191D01*
X018172Y019289D02*
X019635Y019289D01*
X019635Y019388D02*
X018172Y019388D01*
X018172Y019486D02*
X019635Y019486D01*
X019635Y019585D02*
X018172Y019585D01*
X017567Y016925D02*
X017384Y016925D01*
X017384Y016827D02*
X017517Y016827D01*
X017517Y016728D02*
X017384Y016728D01*
X017384Y016630D02*
X017517Y016630D01*
X017517Y016531D02*
X017384Y016531D01*
X017384Y016433D02*
X017517Y016433D01*
X017517Y016334D02*
X017384Y016334D01*
X017384Y016236D02*
X017517Y016236D01*
X017517Y016137D02*
X017384Y016137D01*
X017384Y016039D02*
X017517Y016039D01*
X017517Y015940D02*
X017384Y015940D01*
X017384Y015842D02*
X017561Y015842D01*
X016920Y015645D02*
X016055Y015645D01*
X016055Y015546D02*
X016920Y015546D01*
X016920Y015448D02*
X016055Y015448D01*
X016055Y015349D02*
X016920Y015349D01*
X016920Y015251D02*
X016055Y015251D01*
X016055Y015152D02*
X016920Y015152D01*
X016920Y015054D02*
X016055Y015054D01*
X016055Y014955D02*
X016920Y014955D01*
X016920Y014857D02*
X016048Y014857D01*
X015950Y014758D02*
X016920Y014758D01*
X016920Y014660D02*
X015851Y014660D01*
X015753Y014561D02*
X016920Y014561D01*
X016920Y014463D02*
X015654Y014463D01*
X015556Y014364D02*
X016920Y014364D01*
X016920Y014266D02*
X015457Y014266D01*
X002934Y009439D02*
X002488Y009439D01*
X002587Y009341D02*
X002835Y009341D01*
X002761Y009242D02*
X002661Y009242D01*
X002661Y009144D02*
X002761Y009144D01*
X002761Y009045D02*
X002661Y009045D01*
X002661Y008947D02*
X002761Y008947D01*
X002807Y008848D02*
X002616Y008848D01*
X002517Y008750D02*
X002905Y008750D01*
X003004Y008651D02*
X002419Y008651D01*
X002473Y008454D02*
X002949Y008454D01*
X002850Y008356D02*
X002572Y008356D01*
X002661Y008257D02*
X002761Y008257D01*
X002761Y008159D02*
X002661Y008159D01*
X002661Y008060D02*
X002761Y008060D01*
X002761Y007962D02*
X002661Y007962D01*
X002652Y007863D02*
X002792Y007863D01*
X001800Y006855D02*
X001800Y006720D01*
X001935Y006720D01*
X001800Y006855D01*
X001800Y006780D02*
X001875Y006780D01*
X001843Y017812D02*
X000410Y017812D01*
X000410Y017910D02*
X001761Y017910D01*
X001761Y018009D02*
X000410Y018009D01*
X000410Y018107D02*
X001761Y018107D01*
X001761Y018206D02*
X000410Y018206D01*
X000410Y018304D02*
X001799Y018304D01*
X001897Y018403D02*
X000410Y018403D01*
X000410Y018501D02*
X001996Y018501D01*
M02*
