%
M48
M72
T01C0.0120
T02C0.0394
T03C0.0400
%
T01
X9300Y10440
X8490Y10140
X9270Y10740
X9360Y10140
X10740Y9240
X9000Y10140
X9270Y11040
X13320Y11340
X8400Y15540
X8880Y15840
X7680Y13380
X12060Y14580
X7380Y18780
X10500Y15120
X6660Y18060
X9480Y15840
X9180Y15840
X8880Y14760
X9600Y12480
X5040Y11880
X10740Y12420
X9660Y11940
X11940Y7380
X12180Y7620
X12480Y7620
X7920Y9900
T02
X14035Y8156
X14035Y9156
X14035Y10156
X14035Y11156
X14035Y12156
X14035Y13156
X7035Y8156
X7035Y9156
X7035Y10156
X7035Y11156
X7035Y12156
X7035Y13156
T03
X3211Y19080
X2211Y19080
X3211Y18080
X2211Y18080
X3211Y17080
X2211Y17080
X3211Y16080
X2211Y16080
X3211Y15080
X2211Y15080
X3211Y14080
X2211Y14080
X3211Y13080
X2211Y13080
X3211Y12080
X2211Y12080
X3211Y11080
X2211Y11080
X3211Y10080
X2211Y10080
X3211Y9080
X2211Y9080
X3211Y8080
X2211Y8080
X3211Y7080
X2211Y7080
X17760Y12040
X17760Y11040
X17760Y10040
X17760Y9040
X17760Y8040
X17760Y7040
M30
