G75*
G70*
%OFA0B0*%
%FSLAX24Y24*%
%IPPOS*%
%LPD*%
%AMOC8*
5,1,8,0,0,1.08239X$1,22.5*
%
%ADD10C,0.0020*%
%ADD11C,0.0010*%
%ADD12C,0.0050*%
%ADD13C,0.0040*%
%ADD14C,0.0060*%
%ADD15R,0.0200X0.0200*%
%ADD16C,0.0100*%
D10*
X001360Y006757D02*
X001580Y006757D01*
X001580Y006867D01*
X001543Y006904D01*
X001470Y006904D01*
X001433Y006867D01*
X001433Y006757D01*
X001433Y006830D02*
X001360Y006904D01*
X001360Y006978D02*
X001360Y007088D01*
X001397Y007125D01*
X001433Y007125D01*
X001470Y007088D01*
X001470Y006978D01*
X001360Y006978D02*
X001580Y006978D01*
X001580Y007088D01*
X001543Y007125D01*
X001507Y007125D01*
X001470Y007088D01*
X001470Y007199D02*
X001470Y007346D01*
X001360Y007309D02*
X001580Y007309D01*
X001470Y007199D01*
X001433Y007687D02*
X001433Y007797D01*
X001470Y007834D01*
X001543Y007834D01*
X001580Y007797D01*
X001580Y007687D01*
X001360Y007687D01*
X001433Y007760D02*
X001360Y007834D01*
X001360Y007908D02*
X001360Y008018D01*
X001397Y008055D01*
X001433Y008055D01*
X001470Y008018D01*
X001470Y007908D01*
X001360Y007908D02*
X001580Y007908D01*
X001580Y008018D01*
X001543Y008055D01*
X001507Y008055D01*
X001470Y008018D01*
X001470Y008129D02*
X001507Y008202D01*
X001507Y008239D01*
X001470Y008276D01*
X001397Y008276D01*
X001360Y008239D01*
X001360Y008166D01*
X001397Y008129D01*
X001470Y008129D02*
X001580Y008129D01*
X001580Y008276D01*
X001580Y008707D02*
X001360Y008707D01*
X001433Y008707D02*
X001433Y008817D01*
X001470Y008854D01*
X001543Y008854D01*
X001580Y008817D01*
X001580Y008707D01*
X001433Y008780D02*
X001360Y008854D01*
X001360Y008928D02*
X001360Y009038D01*
X001397Y009075D01*
X001433Y009075D01*
X001470Y009038D01*
X001470Y008928D01*
X001360Y008928D02*
X001580Y008928D01*
X001580Y009038D01*
X001543Y009075D01*
X001507Y009075D01*
X001470Y009038D01*
X001470Y009149D02*
X001470Y009259D01*
X001433Y009296D01*
X001397Y009296D01*
X001360Y009259D01*
X001360Y009186D01*
X001397Y009149D01*
X001470Y009149D01*
X001543Y009222D01*
X001580Y009296D01*
X001550Y009667D02*
X001330Y009667D01*
X001403Y009667D02*
X001403Y009777D01*
X001440Y009814D01*
X001513Y009814D01*
X001550Y009777D01*
X001550Y009667D01*
X001403Y009740D02*
X001330Y009814D01*
X001330Y009888D02*
X001330Y009998D01*
X001367Y010035D01*
X001403Y010035D01*
X001440Y009998D01*
X001440Y009888D01*
X001330Y009888D02*
X001550Y009888D01*
X001550Y009998D01*
X001513Y010035D01*
X001477Y010035D01*
X001440Y009998D01*
X001367Y010109D02*
X001330Y010109D01*
X001367Y010109D02*
X001513Y010256D01*
X001550Y010256D01*
X001550Y010109D01*
X003771Y010155D02*
X003918Y010155D01*
X003991Y010081D01*
X003918Y010008D01*
X003771Y010008D01*
X003771Y009934D02*
X003844Y009860D01*
X003844Y009897D02*
X003844Y009787D01*
X003771Y009787D02*
X003991Y009787D01*
X003991Y009897D01*
X003955Y009934D01*
X003881Y009934D01*
X003844Y009897D01*
X003881Y010008D02*
X003881Y010155D01*
X003808Y010229D02*
X003771Y010229D01*
X003808Y010229D02*
X003955Y010376D01*
X003991Y010376D01*
X003991Y010229D01*
X003991Y010777D02*
X003771Y010777D01*
X003844Y010777D02*
X003844Y010887D01*
X003881Y010924D01*
X003955Y010924D01*
X003991Y010887D01*
X003991Y010777D01*
X003844Y010850D02*
X003771Y010924D01*
X003771Y010998D02*
X003918Y010998D01*
X003991Y011071D01*
X003918Y011145D01*
X003771Y011145D01*
X003808Y011219D02*
X003771Y011256D01*
X003771Y011329D01*
X003808Y011366D01*
X003844Y011366D01*
X003881Y011329D01*
X003881Y011219D01*
X003808Y011219D01*
X003881Y011219D02*
X003955Y011292D01*
X003991Y011366D01*
X003881Y011145D02*
X003881Y010998D01*
X003844Y011767D02*
X003844Y011877D01*
X003881Y011914D01*
X003955Y011914D01*
X003991Y011877D01*
X003991Y011767D01*
X003771Y011767D01*
X003844Y011840D02*
X003771Y011914D01*
X003771Y011988D02*
X003918Y011988D01*
X003991Y012061D01*
X003918Y012135D01*
X003771Y012135D01*
X003808Y012209D02*
X003771Y012246D01*
X003771Y012319D01*
X003808Y012356D01*
X003881Y012356D01*
X003918Y012319D01*
X003918Y012282D01*
X003881Y012209D01*
X003991Y012209D01*
X003991Y012356D01*
X003881Y012135D02*
X003881Y011988D01*
X001610Y013604D02*
X001573Y013567D01*
X001427Y013567D01*
X001390Y013604D01*
X001390Y013677D01*
X001427Y013714D01*
X001500Y013714D01*
X001500Y013640D01*
X001573Y013714D02*
X001610Y013677D01*
X001610Y013604D01*
X001610Y013788D02*
X001390Y013935D01*
X001610Y013935D01*
X001610Y014009D02*
X001610Y014119D01*
X001573Y014156D01*
X001427Y014156D01*
X001390Y014119D01*
X001390Y014009D01*
X001610Y014009D01*
X001610Y013788D02*
X001390Y013788D01*
X001427Y014928D02*
X001390Y014965D01*
X001390Y015038D01*
X001427Y015075D01*
X001500Y015075D01*
X001537Y015038D01*
X001537Y015001D01*
X001500Y014928D01*
X001610Y014928D01*
X001610Y015075D01*
X001610Y015149D02*
X001463Y015149D01*
X001390Y015222D01*
X001463Y015296D01*
X001610Y015296D01*
X001573Y016717D02*
X001427Y016717D01*
X001390Y016754D01*
X001390Y016827D01*
X001427Y016864D01*
X001500Y016864D01*
X001500Y016790D01*
X001573Y016717D02*
X001610Y016754D01*
X001610Y016827D01*
X001573Y016864D01*
X001610Y016938D02*
X001390Y017085D01*
X001610Y017085D01*
X001610Y017159D02*
X001610Y017269D01*
X001573Y017306D01*
X001427Y017306D01*
X001390Y017269D01*
X001390Y017159D01*
X001610Y017159D01*
X001610Y016938D02*
X001390Y016938D01*
X001427Y017928D02*
X001390Y017965D01*
X001390Y018038D01*
X001427Y018075D01*
X001463Y018075D01*
X001500Y018038D01*
X001500Y018001D01*
X001500Y018038D02*
X001537Y018075D01*
X001573Y018075D01*
X001610Y018038D01*
X001610Y017965D01*
X001573Y017928D01*
X001610Y018149D02*
X001463Y018149D01*
X001390Y018222D01*
X001463Y018296D01*
X001610Y018296D01*
X003790Y018312D02*
X004010Y018312D01*
X003937Y018239D01*
X003937Y018165D02*
X003790Y018165D01*
X003790Y018239D02*
X003790Y018386D01*
X003900Y018165D02*
X003900Y018018D01*
X003937Y018018D02*
X004010Y018091D01*
X003937Y018165D01*
X003937Y018018D02*
X003790Y018018D01*
X003790Y017944D02*
X003863Y017870D01*
X003863Y017907D02*
X003863Y017797D01*
X003790Y017797D02*
X004010Y017797D01*
X004010Y017907D01*
X003973Y017944D01*
X003900Y017944D01*
X003863Y017907D01*
X003918Y017336D02*
X003955Y017336D01*
X003991Y017299D01*
X003991Y017226D01*
X003955Y017189D01*
X003918Y017115D02*
X003771Y017115D01*
X003771Y017189D02*
X003918Y017336D01*
X003771Y017336D02*
X003771Y017189D01*
X003881Y017115D02*
X003881Y016968D01*
X003918Y016968D02*
X003991Y017041D01*
X003918Y017115D01*
X003918Y016968D02*
X003771Y016968D01*
X003771Y016894D02*
X003844Y016820D01*
X003844Y016857D02*
X003844Y016747D01*
X003771Y016747D02*
X003991Y016747D01*
X003991Y016857D01*
X003955Y016894D01*
X003881Y016894D01*
X003844Y016857D01*
X003844Y016346D02*
X003808Y016346D01*
X003771Y016309D01*
X003771Y016236D01*
X003808Y016199D01*
X003771Y016125D02*
X003918Y016125D01*
X003991Y016051D01*
X003918Y015978D01*
X003771Y015978D01*
X003771Y015904D02*
X003844Y015830D01*
X003844Y015867D02*
X003844Y015757D01*
X003771Y015757D02*
X003991Y015757D01*
X003991Y015867D01*
X003955Y015904D01*
X003881Y015904D01*
X003844Y015867D01*
X003881Y015978D02*
X003881Y016125D01*
X003955Y016199D02*
X003991Y016236D01*
X003991Y016309D01*
X003955Y016346D01*
X003918Y016346D01*
X003881Y016309D01*
X003844Y016346D01*
X003881Y016309D02*
X003881Y016272D01*
X003881Y015356D02*
X003881Y015209D01*
X003991Y015319D01*
X003771Y015319D01*
X003771Y015135D02*
X003918Y015135D01*
X003991Y015061D01*
X003918Y014988D01*
X003771Y014988D01*
X003771Y014914D02*
X003844Y014840D01*
X003844Y014877D02*
X003844Y014767D01*
X003771Y014767D02*
X003991Y014767D01*
X003991Y014877D01*
X003955Y014914D01*
X003881Y014914D01*
X003844Y014877D01*
X003881Y014988D02*
X003881Y015135D01*
X003863Y018757D02*
X003863Y018867D01*
X003900Y018904D01*
X003973Y018904D01*
X004010Y018867D01*
X004010Y018757D01*
X003790Y018757D01*
X003863Y018830D02*
X003790Y018904D01*
X003790Y018978D02*
X003937Y018978D01*
X004010Y019051D01*
X003937Y019125D01*
X003790Y019125D01*
X003827Y019199D02*
X003790Y019236D01*
X003790Y019309D01*
X003827Y019346D01*
X003973Y019346D01*
X003827Y019199D01*
X003973Y019199D01*
X004010Y019236D01*
X004010Y019309D01*
X003973Y019346D01*
X003900Y019125D02*
X003900Y018978D01*
X003771Y009356D02*
X003771Y009209D01*
X003771Y009282D02*
X003991Y009282D01*
X003918Y009209D01*
X003918Y009135D02*
X003881Y009098D01*
X003881Y008988D01*
X003881Y008914D02*
X003844Y008877D01*
X003844Y008767D01*
X003771Y008767D02*
X003991Y008767D01*
X003991Y008877D01*
X003955Y008914D01*
X003881Y008914D01*
X003844Y008840D02*
X003771Y008914D01*
X003771Y008988D02*
X003771Y009098D01*
X003808Y009135D01*
X003844Y009135D01*
X003881Y009098D01*
X003918Y009135D02*
X003955Y009135D01*
X003991Y009098D01*
X003991Y008988D01*
X003771Y008988D01*
X003771Y008336D02*
X003771Y008189D01*
X003918Y008336D01*
X003955Y008336D01*
X003991Y008299D01*
X003991Y008226D01*
X003955Y008189D01*
X003955Y008115D02*
X003918Y008115D01*
X003881Y008078D01*
X003881Y007968D01*
X003881Y007894D02*
X003844Y007857D01*
X003844Y007747D01*
X003771Y007747D02*
X003991Y007747D01*
X003991Y007857D01*
X003955Y007894D01*
X003881Y007894D01*
X003844Y007820D02*
X003771Y007894D01*
X003771Y007968D02*
X003771Y008078D01*
X003808Y008115D01*
X003844Y008115D01*
X003881Y008078D01*
X003955Y008115D02*
X003991Y008078D01*
X003991Y007968D01*
X003771Y007968D01*
X003808Y007346D02*
X003771Y007309D01*
X003771Y007236D01*
X003808Y007199D01*
X003808Y007125D02*
X003771Y007088D01*
X003771Y006978D01*
X003991Y006978D01*
X003991Y007088D01*
X003955Y007125D01*
X003918Y007125D01*
X003881Y007088D01*
X003881Y006978D01*
X003881Y006904D02*
X003844Y006867D01*
X003844Y006757D01*
X003771Y006757D02*
X003991Y006757D01*
X003991Y006867D01*
X003955Y006904D01*
X003881Y006904D01*
X003844Y006830D02*
X003771Y006904D01*
X003881Y007088D02*
X003844Y007125D01*
X003808Y007125D01*
X003955Y007199D02*
X003991Y007236D01*
X003991Y007309D01*
X003955Y007346D01*
X003918Y007346D01*
X003881Y007309D01*
X003844Y007346D01*
X003808Y007346D01*
X003881Y007309D02*
X003881Y007272D01*
D11*
X001585Y011426D02*
X001535Y011476D01*
X001585Y011526D01*
X001435Y011526D01*
X001460Y011574D02*
X001435Y011599D01*
X001435Y011649D01*
X001460Y011674D01*
X001435Y011721D02*
X001435Y011821D01*
X001435Y011868D02*
X001585Y011868D01*
X001585Y011943D01*
X001560Y011968D01*
X001510Y011968D01*
X001485Y011943D01*
X001485Y011868D01*
X001485Y011918D02*
X001435Y011968D01*
X001435Y012016D02*
X001585Y012116D01*
X001585Y012163D02*
X001585Y012238D01*
X001560Y012263D01*
X001510Y012263D01*
X001485Y012238D01*
X001485Y012163D01*
X001435Y012163D02*
X001585Y012163D01*
X001485Y012213D02*
X001435Y012263D01*
X001435Y012310D02*
X001435Y012410D01*
X001460Y012458D02*
X001435Y012483D01*
X001435Y012533D01*
X001460Y012558D01*
X001485Y012558D01*
X001510Y012533D01*
X001510Y012508D01*
X001510Y012533D02*
X001535Y012558D01*
X001560Y012558D01*
X001585Y012533D01*
X001585Y012483D01*
X001560Y012458D01*
X001585Y012410D02*
X001585Y012310D01*
X001435Y012310D01*
X001510Y012310D02*
X001510Y012360D01*
X001585Y011721D02*
X001435Y011721D01*
X001560Y011674D02*
X001585Y011649D01*
X001585Y011599D01*
X001560Y011574D01*
X001460Y011574D01*
X001435Y011426D02*
X001585Y011426D01*
X003786Y012671D02*
X003936Y012671D01*
X003936Y012621D02*
X003936Y012721D01*
X003936Y012768D02*
X003786Y012868D01*
X003786Y012916D02*
X003936Y013016D01*
X003936Y013063D02*
X003786Y013063D01*
X003836Y013063D02*
X003836Y013138D01*
X003861Y013163D01*
X003911Y013163D01*
X003936Y013138D01*
X003936Y013063D01*
X003836Y013113D02*
X003786Y013163D01*
X003811Y013210D02*
X003786Y013235D01*
X003786Y013285D01*
X003811Y013310D01*
X003811Y013358D02*
X003786Y013383D01*
X003786Y013433D01*
X003811Y013458D01*
X003836Y013458D01*
X003861Y013433D01*
X003861Y013358D01*
X003811Y013358D01*
X003861Y013358D02*
X003911Y013408D01*
X003936Y013458D01*
X003911Y013310D02*
X003936Y013285D01*
X003936Y013235D01*
X003911Y013210D01*
X003811Y013210D01*
X003936Y012868D02*
X003786Y012768D01*
X003786Y013641D02*
X003936Y013641D01*
X003936Y013716D01*
X003911Y013741D01*
X003861Y013741D01*
X003836Y013716D01*
X003836Y013641D01*
X003836Y013691D02*
X003786Y013741D01*
X003786Y013788D02*
X003936Y013888D01*
X003936Y013788D02*
X003786Y013888D01*
X003786Y013936D02*
X003936Y014036D01*
X003936Y014083D02*
X003936Y014158D01*
X003911Y014183D01*
X003861Y014183D01*
X003836Y014158D01*
X003836Y014083D01*
X003786Y014083D02*
X003936Y014083D01*
X003836Y014133D02*
X003786Y014183D01*
X003811Y014230D02*
X003786Y014255D01*
X003786Y014305D01*
X003811Y014330D01*
X003811Y014378D02*
X003786Y014378D01*
X003811Y014378D02*
X003911Y014478D01*
X003936Y014478D01*
X003936Y014378D01*
X003911Y014330D02*
X003936Y014305D01*
X003936Y014255D01*
X003911Y014230D01*
X003811Y014230D01*
D12*
X007021Y013894D02*
X007021Y013540D01*
X007035Y013856D02*
X007035Y018556D01*
X014035Y018556D01*
X014035Y013856D01*
X007035Y013856D01*
X007021Y012752D02*
X007021Y012556D01*
X007021Y011768D02*
X007021Y011571D01*
X007021Y010744D02*
X007021Y010548D01*
X007021Y009760D02*
X007021Y009563D01*
X007021Y008737D02*
X007021Y008579D01*
X007021Y007752D02*
X007021Y007556D01*
X007035Y007556D02*
X014029Y007556D01*
X014029Y007752D01*
X014029Y007556D02*
X014035Y007556D01*
X014029Y008540D02*
X014029Y008776D01*
X014029Y009563D02*
X014029Y009760D01*
X014029Y010548D02*
X014029Y010744D01*
X014029Y011532D02*
X014029Y011768D01*
X014029Y012556D02*
X014029Y012752D01*
X014029Y013579D02*
X014029Y013855D01*
D13*
X014643Y016164D02*
X015013Y016164D01*
X015008Y016164D02*
X015504Y016164D01*
X015526Y016166D01*
X015548Y016171D01*
X015569Y016180D01*
X015588Y016191D01*
X015605Y016206D01*
X015620Y016223D01*
X015631Y016242D01*
X015640Y016263D01*
X015645Y016285D01*
X015647Y016307D01*
X015648Y016307D02*
X015648Y016517D01*
X015008Y016605D02*
X014638Y016605D01*
X014638Y016606D02*
X014625Y016604D01*
X014612Y016600D01*
X014600Y016593D01*
X014590Y016583D01*
X014583Y016571D01*
X014578Y016558D01*
X014577Y016545D01*
X014577Y016544D02*
X014577Y016544D01*
X014579Y016529D01*
X014584Y016515D01*
X014591Y016503D01*
X014602Y016492D01*
X014614Y016485D01*
X014628Y016480D01*
X014643Y016478D01*
X014704Y016478D01*
X014721Y016476D01*
X014738Y016471D01*
X014753Y016463D01*
X014766Y016452D01*
X014777Y016439D01*
X014785Y016424D01*
X014790Y016407D01*
X014792Y016390D01*
X014792Y016379D01*
X014790Y016362D01*
X014785Y016345D01*
X014777Y016330D01*
X014766Y016317D01*
X014753Y016306D01*
X014738Y016298D01*
X014721Y016293D01*
X014704Y016291D01*
X014638Y016291D01*
X014624Y016289D01*
X014612Y016285D01*
X014600Y016278D01*
X014590Y016268D01*
X014583Y016256D01*
X014579Y016244D01*
X014577Y016230D01*
X014579Y016215D01*
X014584Y016201D01*
X014591Y016189D01*
X014602Y016178D01*
X014614Y016171D01*
X014628Y016166D01*
X014643Y016164D01*
X015008Y016164D02*
X015008Y019668D01*
X018005Y019668D01*
X018005Y018244D01*
X018374Y018244D01*
X018375Y018245D02*
X018388Y018246D01*
X018401Y018251D01*
X018412Y018258D01*
X018422Y018268D01*
X018429Y018279D01*
X018434Y018292D01*
X018435Y018305D01*
X018435Y018305D01*
X018433Y018320D01*
X018428Y018334D01*
X018421Y018346D01*
X018410Y018357D01*
X018398Y018364D01*
X018384Y018369D01*
X018369Y018371D01*
X018308Y018371D01*
X018308Y018372D02*
X018291Y018374D01*
X018274Y018379D01*
X018259Y018387D01*
X018246Y018398D01*
X018235Y018411D01*
X018227Y018426D01*
X018222Y018443D01*
X018220Y018460D01*
X018220Y018471D01*
X018222Y018488D01*
X018227Y018505D01*
X018235Y018520D01*
X018246Y018533D01*
X018259Y018544D01*
X018274Y018552D01*
X018291Y018557D01*
X018308Y018559D01*
X018374Y018559D01*
X018388Y018561D01*
X018400Y018565D01*
X018412Y018572D01*
X018422Y018582D01*
X018429Y018594D01*
X018433Y018606D01*
X018435Y018620D01*
X018433Y018635D01*
X018428Y018649D01*
X018421Y018661D01*
X018410Y018672D01*
X018398Y018679D01*
X018384Y018684D01*
X018369Y018686D01*
X018027Y018686D01*
X018005Y018244D02*
X018005Y016164D01*
X018374Y016164D01*
X018375Y016163D02*
X018388Y016164D01*
X018401Y016169D01*
X018413Y016176D01*
X018423Y016186D01*
X018430Y016198D01*
X018435Y016211D01*
X018436Y016224D01*
X018435Y016224D02*
X018435Y016224D01*
X018433Y016239D01*
X018428Y016253D01*
X018421Y016265D01*
X018410Y016276D01*
X018398Y016283D01*
X018384Y016288D01*
X018369Y016290D01*
X018369Y016291D02*
X018308Y016291D01*
X018291Y016293D01*
X018274Y016298D01*
X018259Y016306D01*
X018246Y016317D01*
X018235Y016330D01*
X018227Y016345D01*
X018222Y016362D01*
X018220Y016379D01*
X018220Y016390D01*
X018222Y016407D01*
X018227Y016424D01*
X018235Y016439D01*
X018246Y016452D01*
X018259Y016463D01*
X018274Y016471D01*
X018291Y016476D01*
X018308Y016478D01*
X018374Y016478D01*
X018388Y016480D01*
X018400Y016484D01*
X018412Y016491D01*
X018422Y016501D01*
X018429Y016513D01*
X018433Y016525D01*
X018435Y016539D01*
X018433Y016554D01*
X018428Y016568D01*
X018421Y016580D01*
X018410Y016591D01*
X018398Y016598D01*
X018384Y016603D01*
X018369Y016605D01*
X018027Y016605D01*
X018005Y016164D02*
X017502Y016164D01*
X017480Y016166D01*
X017459Y016171D01*
X017439Y016179D01*
X017421Y016190D01*
X017404Y016204D01*
X017390Y016221D01*
X017379Y016239D01*
X017371Y016259D01*
X017366Y016280D01*
X017364Y016302D01*
X017364Y016533D01*
X016790Y017422D02*
X016211Y017422D01*
X016190Y017424D01*
X016170Y017429D01*
X016151Y017437D01*
X016133Y017447D01*
X016117Y017461D01*
X016103Y017477D01*
X016093Y017495D01*
X016085Y017514D01*
X016080Y017534D01*
X016078Y017555D01*
X015996Y019139D01*
X015995Y019138D02*
X015996Y019152D01*
X016001Y019165D01*
X016009Y019176D01*
X016019Y019185D01*
X016032Y019191D01*
X016045Y019194D01*
X016059Y019193D01*
X016072Y019188D01*
X016083Y019180D01*
X016092Y019170D01*
X016098Y019157D01*
X016101Y019144D01*
X016167Y017919D01*
X016169Y017895D01*
X016174Y017871D01*
X016182Y017848D01*
X016194Y017827D01*
X016209Y017807D01*
X016226Y017790D01*
X016246Y017775D01*
X016267Y017763D01*
X016290Y017755D01*
X016314Y017750D01*
X016338Y017748D01*
X016686Y017748D01*
X016686Y017747D02*
X016710Y017749D01*
X016733Y017754D01*
X016755Y017762D01*
X016776Y017773D01*
X016795Y017788D01*
X016811Y017804D01*
X016826Y017823D01*
X016837Y017844D01*
X016845Y017866D01*
X016850Y017889D01*
X016852Y017913D01*
X016851Y017913D02*
X016851Y017941D01*
X016906Y019139D01*
X016907Y019139D02*
X016909Y019152D01*
X016915Y019165D01*
X016924Y019176D01*
X016935Y019184D01*
X016948Y019189D01*
X016962Y019191D01*
X016976Y019189D01*
X016989Y019184D01*
X017000Y019176D01*
X017009Y019165D01*
X017015Y019152D01*
X017017Y019139D01*
X016934Y017566D01*
X016932Y017543D01*
X016927Y017522D01*
X016918Y017501D01*
X016906Y017481D01*
X016892Y017464D01*
X016875Y017450D01*
X016855Y017438D01*
X016834Y017429D01*
X016813Y017424D01*
X016790Y017422D01*
X017171Y017599D02*
X017237Y019045D01*
X017237Y019061D01*
X017238Y019061D02*
X017240Y019083D01*
X017245Y019104D01*
X017253Y019124D01*
X017264Y019142D01*
X017278Y019159D01*
X017295Y019173D01*
X017313Y019184D01*
X017333Y019192D01*
X017354Y019197D01*
X017376Y019199D01*
X017375Y019199D02*
X017983Y019199D01*
X017569Y018923D02*
X017657Y017582D01*
X017659Y017570D01*
X017665Y017559D01*
X017673Y017550D01*
X017683Y017543D01*
X017694Y017539D01*
X017706Y017538D01*
X017707Y017538D02*
X017983Y017538D01*
X017287Y017593D02*
X017375Y018929D01*
X017375Y018928D02*
X017378Y018947D01*
X017385Y018964D01*
X017394Y018980D01*
X017407Y018994D01*
X017422Y019005D01*
X017438Y019013D01*
X017456Y019018D01*
X017475Y019019D01*
X017493Y019017D01*
X017511Y019011D01*
X017527Y019002D01*
X017541Y018990D01*
X017553Y018975D01*
X017562Y018959D01*
X017567Y018941D01*
X017569Y018923D01*
X017287Y017593D02*
X017285Y017579D01*
X017279Y017567D01*
X017270Y017555D01*
X017260Y017547D01*
X017247Y017541D01*
X017233Y017538D01*
X017219Y017539D01*
X017206Y017543D01*
X017194Y017550D01*
X017184Y017560D01*
X017176Y017571D01*
X017172Y017585D01*
X017171Y017599D01*
X015841Y017599D02*
X015775Y019045D01*
X015775Y019061D01*
X015773Y019083D01*
X015768Y019104D01*
X015760Y019124D01*
X015749Y019142D01*
X015735Y019159D01*
X015718Y019173D01*
X015700Y019184D01*
X015680Y019192D01*
X015659Y019197D01*
X015637Y019199D01*
X015030Y019199D01*
X015008Y018686D02*
X014638Y018686D01*
X014638Y018685D02*
X014625Y018684D01*
X014612Y018679D01*
X014601Y018672D01*
X014591Y018662D01*
X014584Y018651D01*
X014579Y018638D01*
X014578Y018625D01*
X014577Y018625D02*
X014577Y018625D01*
X014579Y018610D01*
X014584Y018596D01*
X014591Y018584D01*
X014602Y018573D01*
X014614Y018566D01*
X014628Y018561D01*
X014643Y018559D01*
X014704Y018559D01*
X014721Y018557D01*
X014738Y018552D01*
X014753Y018544D01*
X014766Y018533D01*
X014777Y018520D01*
X014785Y018505D01*
X014790Y018488D01*
X014792Y018471D01*
X014792Y018460D01*
X014790Y018443D01*
X014785Y018426D01*
X014777Y018411D01*
X014766Y018398D01*
X014753Y018387D01*
X014738Y018379D01*
X014721Y018374D01*
X014704Y018372D01*
X014704Y018371D02*
X014638Y018371D01*
X014638Y018372D02*
X014624Y018370D01*
X014612Y018366D01*
X014600Y018359D01*
X014590Y018349D01*
X014583Y018337D01*
X014579Y018325D01*
X014577Y018311D01*
X014579Y018296D01*
X014584Y018282D01*
X014591Y018270D01*
X014602Y018259D01*
X014614Y018252D01*
X014628Y018247D01*
X014643Y018245D01*
X014643Y018244D02*
X014986Y018244D01*
X015355Y017582D02*
X015444Y018923D01*
X015443Y018923D02*
X015445Y018941D01*
X015450Y018959D01*
X015459Y018975D01*
X015471Y018990D01*
X015485Y019002D01*
X015501Y019011D01*
X015519Y019017D01*
X015537Y019019D01*
X015556Y019018D01*
X015574Y019013D01*
X015590Y019005D01*
X015605Y018994D01*
X015618Y018980D01*
X015627Y018964D01*
X015634Y018947D01*
X015637Y018928D01*
X015637Y018929D02*
X015725Y017593D01*
X015727Y017579D01*
X015733Y017567D01*
X015742Y017555D01*
X015752Y017547D01*
X015765Y017541D01*
X015779Y017538D01*
X015793Y017539D01*
X015806Y017543D01*
X015818Y017550D01*
X015828Y017560D01*
X015836Y017571D01*
X015840Y017585D01*
X015841Y017599D01*
X015355Y017582D02*
X015353Y017570D01*
X015347Y017559D01*
X015339Y017550D01*
X015329Y017543D01*
X015318Y017539D01*
X015306Y017538D01*
X015030Y017538D01*
D14*
X003461Y006580D02*
X001961Y006580D01*
X001711Y006830D01*
X001711Y007330D01*
X001961Y007580D01*
X003461Y007580D01*
X003711Y007330D01*
X003711Y006830D01*
X003461Y006580D01*
X003461Y007580D02*
X003711Y007830D01*
X003711Y008330D01*
X003461Y008580D01*
X001961Y008580D01*
X001711Y008330D01*
X001711Y007830D01*
X001961Y007580D01*
X001961Y008580D02*
X001711Y008830D01*
X001711Y009330D01*
X001961Y009580D01*
X003461Y009580D01*
X003711Y009830D01*
X003711Y010330D01*
X003461Y010580D01*
X001961Y010580D01*
X001711Y010330D01*
X001711Y009830D01*
X001961Y009580D01*
X001961Y010580D02*
X001711Y010830D01*
X001711Y011330D01*
X001961Y011580D01*
X003461Y011580D01*
X003711Y011830D01*
X003711Y012330D01*
X003461Y012580D01*
X001961Y012580D01*
X001711Y012330D01*
X001711Y011830D01*
X001961Y011580D01*
X001961Y012580D02*
X001711Y012830D01*
X001711Y013330D01*
X001961Y013580D01*
X003461Y013580D01*
X003711Y013330D01*
X003711Y012830D01*
X003461Y012580D01*
X003461Y011580D02*
X003711Y011330D01*
X003711Y010830D01*
X003461Y010580D01*
X003461Y009580D02*
X003711Y009330D01*
X003711Y008830D01*
X003461Y008580D01*
X003461Y013580D02*
X003711Y013830D01*
X003711Y014330D01*
X003461Y014580D01*
X001961Y014580D01*
X001711Y014330D01*
X001711Y013830D01*
X001961Y013580D01*
X001961Y014580D02*
X001711Y014830D01*
X001711Y015330D01*
X001961Y015580D01*
X003461Y015580D01*
X003711Y015330D01*
X003711Y014830D01*
X003461Y014580D01*
X003461Y015580D02*
X003711Y015830D01*
X003711Y016330D01*
X003461Y016580D01*
X001961Y016580D01*
X001711Y016330D01*
X001711Y015830D01*
X001961Y015580D01*
X001961Y016580D02*
X001711Y016830D01*
X001711Y017330D01*
X001961Y017580D01*
X003461Y017580D01*
X003711Y017330D01*
X003711Y016830D01*
X003461Y016580D01*
X003461Y017580D02*
X003711Y017830D01*
X003711Y018330D01*
X003461Y018580D01*
X001961Y018580D01*
X001711Y018330D01*
X001711Y017830D01*
X001961Y017580D01*
X001961Y018580D02*
X001711Y018830D01*
X001711Y019330D01*
X001961Y019580D01*
X003461Y019580D01*
X003711Y019330D01*
X003711Y018830D01*
X003461Y018580D01*
D15*
X003211Y018080D03*
X002211Y018080D03*
X002211Y017080D03*
X002211Y016080D03*
X002211Y015080D03*
X002211Y014080D03*
X002211Y013080D03*
X002211Y012080D03*
X002211Y011080D03*
X002211Y010080D03*
X002211Y009080D03*
X002211Y008080D03*
X002211Y007080D03*
X003211Y007080D03*
X003211Y008080D03*
X003211Y009080D03*
X003211Y010080D03*
X003211Y011080D03*
X003211Y012080D03*
X003211Y013080D03*
X003211Y014080D03*
X003211Y015080D03*
X003211Y016080D03*
X003211Y017080D03*
X003211Y019080D03*
X002211Y019080D03*
D16*
X017260Y012540D02*
X017260Y011540D01*
X018260Y011540D01*
X018260Y012540D02*
X017260Y012540D01*
X017260Y011540D02*
X017260Y006540D01*
X018260Y006540D01*
X018260Y012540D01*
M02*
