G75*
G70*
%OFA0B0*%
%FSLAX24Y24*%
%IPPOS*%
%LPD*%
%AMOC8*
5,1,8,0,0,1.08239X$1,22.5*
%
%ADD10C,0.0634*%
%ADD11R,0.1024X0.0906*%
%ADD12R,0.0237X0.0827*%
%ADD13OC8,0.0640*%
%ADD14R,0.0640X0.0640*%
D10*
X007035Y008156D03*
X007035Y009156D03*
X007035Y010156D03*
X007035Y011156D03*
X007035Y012156D03*
X007035Y013156D03*
X014035Y013156D03*
X014035Y012156D03*
X014035Y011156D03*
X014035Y010156D03*
X014035Y009156D03*
X014035Y008156D03*
D11*
X014853Y016381D03*
X014853Y018467D03*
X018160Y018467D03*
X018160Y016381D03*
D12*
X017136Y016282D03*
X016821Y016282D03*
X016506Y016282D03*
X016191Y016282D03*
X015876Y016282D03*
D13*
X002211Y007080D03*
X002211Y008080D03*
X002211Y009080D03*
X002211Y010080D03*
X002211Y011080D03*
X002211Y012080D03*
X002211Y013080D03*
X002211Y014080D03*
X002211Y015080D03*
X002211Y016080D03*
X002211Y017080D03*
X002211Y018080D03*
X002211Y019080D03*
X003211Y019080D03*
X003211Y018080D03*
X003211Y017080D03*
X003211Y016080D03*
X003211Y015080D03*
X003211Y014080D03*
X003211Y013080D03*
X003211Y012080D03*
X003211Y011080D03*
X003211Y010080D03*
X003211Y009080D03*
X003211Y008080D03*
X003211Y007080D03*
X017760Y007040D03*
X017760Y008040D03*
X017760Y009040D03*
X017760Y010040D03*
X017760Y011040D03*
D14*
X017760Y012040D03*
M02*
