G75*
G70*
%OFA0B0*%
%FSLAX24Y24*%
%IPPOS*%
%LPD*%
%AMOC8*
5,1,8,0,0,1.08239X$1,22.5*
%
%ADD10C,0.0039*%
%ADD11C,0.0017*%
%ADD12R,0.1398X0.1398*%
%ADD13C,0.0594*%
%ADD14R,0.0591X0.0315*%
%ADD15R,0.1181X0.0984*%
%ADD16R,0.0512X0.0591*%
%ADD17OC8,0.0600*%
%ADD18R,0.0472X0.0472*%
%ADD19R,0.0472X0.0591*%
%ADD20R,0.0600X0.0600*%
%ADD21C,0.0060*%
%ADD22C,0.0240*%
%ADD23C,0.0100*%
D10*
X009564Y009838D02*
X009840Y009838D01*
X009564Y009838D02*
X009564Y009956D01*
X009840Y009956D01*
X009840Y009838D01*
X009840Y009876D02*
X009564Y009876D01*
X009564Y009914D02*
X009840Y009914D01*
X009840Y009952D02*
X009564Y009952D01*
X009564Y010094D02*
X009840Y010094D01*
X009564Y010094D02*
X009564Y010212D01*
X009840Y010212D01*
X009840Y010094D01*
X009840Y010132D02*
X009564Y010132D01*
X009564Y010170D02*
X009840Y010170D01*
X009840Y010208D02*
X009564Y010208D01*
X009564Y010350D02*
X009840Y010350D01*
X009564Y010350D02*
X009564Y010468D01*
X009840Y010468D01*
X009840Y010350D01*
X009840Y010388D02*
X009564Y010388D01*
X009564Y010426D02*
X009840Y010426D01*
X009840Y010464D02*
X009564Y010464D01*
X009564Y010606D02*
X009840Y010606D01*
X009564Y010606D02*
X009564Y010724D01*
X009840Y010724D01*
X009840Y010606D01*
X009840Y010644D02*
X009564Y010644D01*
X009564Y010682D02*
X009840Y010682D01*
X009840Y010720D02*
X009564Y010720D01*
X009564Y010862D02*
X009840Y010862D01*
X009564Y010862D02*
X009564Y010980D01*
X009840Y010980D01*
X009840Y010862D01*
X009840Y010900D02*
X009564Y010900D01*
X009564Y010938D02*
X009840Y010938D01*
X009840Y010976D02*
X009564Y010976D01*
X009564Y011118D02*
X009840Y011118D01*
X009564Y011118D02*
X009564Y011236D01*
X009840Y011236D01*
X009840Y011118D01*
X009840Y011156D02*
X009564Y011156D01*
X009564Y011194D02*
X009840Y011194D01*
X009840Y011232D02*
X009564Y011232D01*
X009564Y011374D02*
X009840Y011374D01*
X009564Y011374D02*
X009564Y011492D01*
X009840Y011492D01*
X009840Y011374D01*
X009840Y011412D02*
X009564Y011412D01*
X009564Y011450D02*
X009840Y011450D01*
X009840Y011488D02*
X009564Y011488D01*
X009918Y011570D02*
X009918Y011846D01*
X010036Y011846D01*
X010036Y011570D01*
X009918Y011570D01*
X009918Y011608D02*
X010036Y011608D01*
X010036Y011646D02*
X009918Y011646D01*
X009918Y011684D02*
X010036Y011684D01*
X010036Y011722D02*
X009918Y011722D01*
X009918Y011760D02*
X010036Y011760D01*
X010036Y011798D02*
X009918Y011798D01*
X009918Y011836D02*
X010036Y011836D01*
X010174Y011846D02*
X010174Y011570D01*
X010174Y011846D02*
X010292Y011846D01*
X010292Y011570D01*
X010174Y011570D01*
X010174Y011608D02*
X010292Y011608D01*
X010292Y011646D02*
X010174Y011646D01*
X010174Y011684D02*
X010292Y011684D01*
X010292Y011722D02*
X010174Y011722D01*
X010174Y011760D02*
X010292Y011760D01*
X010292Y011798D02*
X010174Y011798D01*
X010174Y011836D02*
X010292Y011836D01*
X010430Y011846D02*
X010430Y011570D01*
X010430Y011846D02*
X010548Y011846D01*
X010548Y011570D01*
X010430Y011570D01*
X010430Y011608D02*
X010548Y011608D01*
X010548Y011646D02*
X010430Y011646D01*
X010430Y011684D02*
X010548Y011684D01*
X010548Y011722D02*
X010430Y011722D01*
X010430Y011760D02*
X010548Y011760D01*
X010548Y011798D02*
X010430Y011798D01*
X010430Y011836D02*
X010548Y011836D01*
X010686Y011846D02*
X010686Y011570D01*
X010686Y011846D02*
X010804Y011846D01*
X010804Y011570D01*
X010686Y011570D01*
X010686Y011608D02*
X010804Y011608D01*
X010804Y011646D02*
X010686Y011646D01*
X010686Y011684D02*
X010804Y011684D01*
X010804Y011722D02*
X010686Y011722D01*
X010686Y011760D02*
X010804Y011760D01*
X010804Y011798D02*
X010686Y011798D01*
X010686Y011836D02*
X010804Y011836D01*
X010942Y011846D02*
X010942Y011570D01*
X010942Y011846D02*
X011060Y011846D01*
X011060Y011570D01*
X010942Y011570D01*
X010942Y011608D02*
X011060Y011608D01*
X011060Y011646D02*
X010942Y011646D01*
X010942Y011684D02*
X011060Y011684D01*
X011060Y011722D02*
X010942Y011722D01*
X010942Y011760D02*
X011060Y011760D01*
X011060Y011798D02*
X010942Y011798D01*
X010942Y011836D02*
X011060Y011836D01*
X011198Y011846D02*
X011198Y011570D01*
X011198Y011846D02*
X011316Y011846D01*
X011316Y011570D01*
X011198Y011570D01*
X011198Y011608D02*
X011316Y011608D01*
X011316Y011646D02*
X011198Y011646D01*
X011198Y011684D02*
X011316Y011684D01*
X011316Y011722D02*
X011198Y011722D01*
X011198Y011760D02*
X011316Y011760D01*
X011316Y011798D02*
X011198Y011798D01*
X011198Y011836D02*
X011316Y011836D01*
X011454Y011846D02*
X011454Y011570D01*
X011454Y011846D02*
X011572Y011846D01*
X011572Y011570D01*
X011454Y011570D01*
X011454Y011608D02*
X011572Y011608D01*
X011572Y011646D02*
X011454Y011646D01*
X011454Y011684D02*
X011572Y011684D01*
X011572Y011722D02*
X011454Y011722D01*
X011454Y011760D02*
X011572Y011760D01*
X011572Y011798D02*
X011454Y011798D01*
X011454Y011836D02*
X011572Y011836D01*
X011650Y011492D02*
X011926Y011492D01*
X011926Y011374D01*
X011650Y011374D01*
X011650Y011492D01*
X011650Y011412D02*
X011926Y011412D01*
X011926Y011450D02*
X011650Y011450D01*
X011650Y011488D02*
X011926Y011488D01*
X011926Y011236D02*
X011650Y011236D01*
X011926Y011236D02*
X011926Y011118D01*
X011650Y011118D01*
X011650Y011236D01*
X011650Y011156D02*
X011926Y011156D01*
X011926Y011194D02*
X011650Y011194D01*
X011650Y011232D02*
X011926Y011232D01*
X011926Y010980D02*
X011650Y010980D01*
X011926Y010980D02*
X011926Y010862D01*
X011650Y010862D01*
X011650Y010980D01*
X011650Y010900D02*
X011926Y010900D01*
X011926Y010938D02*
X011650Y010938D01*
X011650Y010976D02*
X011926Y010976D01*
X011926Y010724D02*
X011650Y010724D01*
X011926Y010724D02*
X011926Y010606D01*
X011650Y010606D01*
X011650Y010724D01*
X011650Y010644D02*
X011926Y010644D01*
X011926Y010682D02*
X011650Y010682D01*
X011650Y010720D02*
X011926Y010720D01*
X011926Y010468D02*
X011650Y010468D01*
X011926Y010468D02*
X011926Y010350D01*
X011650Y010350D01*
X011650Y010468D01*
X011650Y010388D02*
X011926Y010388D01*
X011926Y010426D02*
X011650Y010426D01*
X011650Y010464D02*
X011926Y010464D01*
X011926Y010212D02*
X011650Y010212D01*
X011926Y010212D02*
X011926Y010094D01*
X011650Y010094D01*
X011650Y010212D01*
X011650Y010132D02*
X011926Y010132D01*
X011926Y010170D02*
X011650Y010170D01*
X011650Y010208D02*
X011926Y010208D01*
X011926Y009956D02*
X011650Y009956D01*
X011926Y009956D02*
X011926Y009838D01*
X011650Y009838D01*
X011650Y009956D01*
X011650Y009876D02*
X011926Y009876D01*
X011926Y009914D02*
X011650Y009914D01*
X011650Y009952D02*
X011926Y009952D01*
X011572Y009760D02*
X011572Y009484D01*
X011454Y009484D01*
X011454Y009760D01*
X011572Y009760D01*
X011572Y009522D02*
X011454Y009522D01*
X011454Y009560D02*
X011572Y009560D01*
X011572Y009598D02*
X011454Y009598D01*
X011454Y009636D02*
X011572Y009636D01*
X011572Y009674D02*
X011454Y009674D01*
X011454Y009712D02*
X011572Y009712D01*
X011572Y009750D02*
X011454Y009750D01*
X011316Y009760D02*
X011316Y009484D01*
X011198Y009484D01*
X011198Y009760D01*
X011316Y009760D01*
X011316Y009522D02*
X011198Y009522D01*
X011198Y009560D02*
X011316Y009560D01*
X011316Y009598D02*
X011198Y009598D01*
X011198Y009636D02*
X011316Y009636D01*
X011316Y009674D02*
X011198Y009674D01*
X011198Y009712D02*
X011316Y009712D01*
X011316Y009750D02*
X011198Y009750D01*
X011060Y009760D02*
X011060Y009484D01*
X010942Y009484D01*
X010942Y009760D01*
X011060Y009760D01*
X011060Y009522D02*
X010942Y009522D01*
X010942Y009560D02*
X011060Y009560D01*
X011060Y009598D02*
X010942Y009598D01*
X010942Y009636D02*
X011060Y009636D01*
X011060Y009674D02*
X010942Y009674D01*
X010942Y009712D02*
X011060Y009712D01*
X011060Y009750D02*
X010942Y009750D01*
X010804Y009760D02*
X010804Y009484D01*
X010686Y009484D01*
X010686Y009760D01*
X010804Y009760D01*
X010804Y009522D02*
X010686Y009522D01*
X010686Y009560D02*
X010804Y009560D01*
X010804Y009598D02*
X010686Y009598D01*
X010686Y009636D02*
X010804Y009636D01*
X010804Y009674D02*
X010686Y009674D01*
X010686Y009712D02*
X010804Y009712D01*
X010804Y009750D02*
X010686Y009750D01*
X010548Y009760D02*
X010548Y009484D01*
X010430Y009484D01*
X010430Y009760D01*
X010548Y009760D01*
X010548Y009522D02*
X010430Y009522D01*
X010430Y009560D02*
X010548Y009560D01*
X010548Y009598D02*
X010430Y009598D01*
X010430Y009636D02*
X010548Y009636D01*
X010548Y009674D02*
X010430Y009674D01*
X010430Y009712D02*
X010548Y009712D01*
X010548Y009750D02*
X010430Y009750D01*
X010292Y009760D02*
X010292Y009484D01*
X010174Y009484D01*
X010174Y009760D01*
X010292Y009760D01*
X010292Y009522D02*
X010174Y009522D01*
X010174Y009560D02*
X010292Y009560D01*
X010292Y009598D02*
X010174Y009598D01*
X010174Y009636D02*
X010292Y009636D01*
X010292Y009674D02*
X010174Y009674D01*
X010174Y009712D02*
X010292Y009712D01*
X010292Y009750D02*
X010174Y009750D01*
X010036Y009760D02*
X010036Y009484D01*
X009918Y009484D01*
X009918Y009760D01*
X010036Y009760D01*
X010036Y009522D02*
X009918Y009522D01*
X009918Y009560D02*
X010036Y009560D01*
X010036Y009598D02*
X009918Y009598D01*
X009918Y009636D02*
X010036Y009636D01*
X010036Y009674D02*
X009918Y009674D01*
X009918Y009712D02*
X010036Y009712D01*
X010036Y009750D02*
X009918Y009750D01*
D11*
X009818Y009702D02*
X009782Y009738D01*
X009818Y009702D02*
X009720Y009604D01*
X009684Y009640D01*
X009782Y009738D01*
X009736Y009620D02*
X009704Y009620D01*
X009688Y009636D02*
X009752Y009636D01*
X009768Y009652D02*
X009696Y009652D01*
X009712Y009668D02*
X009784Y009668D01*
X009800Y009684D02*
X009728Y009684D01*
X009744Y009700D02*
X009816Y009700D01*
X009804Y009716D02*
X009760Y009716D01*
X009776Y009732D02*
X009788Y009732D01*
X009782Y011592D02*
X009818Y011628D01*
X009782Y011592D02*
X009684Y011690D01*
X009720Y011726D01*
X009818Y011628D01*
X009798Y011608D02*
X009766Y011608D01*
X009750Y011624D02*
X009814Y011624D01*
X009806Y011640D02*
X009734Y011640D01*
X009718Y011656D02*
X009790Y011656D01*
X009774Y011672D02*
X009702Y011672D01*
X009686Y011688D02*
X009758Y011688D01*
X009742Y011704D02*
X009698Y011704D01*
X009714Y011720D02*
X009726Y011720D01*
X011672Y011628D02*
X011708Y011592D01*
X011672Y011628D02*
X011770Y011726D01*
X011806Y011690D01*
X011708Y011592D01*
X011724Y011608D02*
X011692Y011608D01*
X011676Y011624D02*
X011740Y011624D01*
X011756Y011640D02*
X011684Y011640D01*
X011700Y011656D02*
X011772Y011656D01*
X011788Y011672D02*
X011716Y011672D01*
X011732Y011688D02*
X011804Y011688D01*
X011792Y011704D02*
X011748Y011704D01*
X011764Y011720D02*
X011776Y011720D01*
X011698Y009748D02*
X011662Y009712D01*
X011698Y009748D02*
X011796Y009650D01*
X011760Y009614D01*
X011662Y009712D01*
X011744Y009630D02*
X011776Y009630D01*
X011792Y009646D02*
X011728Y009646D01*
X011712Y009662D02*
X011784Y009662D01*
X011768Y009678D02*
X011696Y009678D01*
X011680Y009694D02*
X011752Y009694D01*
X011736Y009710D02*
X011664Y009710D01*
X011676Y009726D02*
X011720Y009726D01*
X011704Y009742D02*
X011692Y009742D01*
D12*
X010745Y010665D03*
D13*
X014035Y011156D03*
X014035Y012156D03*
X014035Y013156D03*
X014035Y010156D03*
X014035Y009156D03*
X014035Y008156D03*
X007035Y008156D03*
X007035Y009156D03*
X007035Y010156D03*
X007035Y011156D03*
X007035Y012156D03*
X007035Y013156D03*
D14*
X007891Y014977D03*
X007891Y015568D03*
X007891Y016159D03*
D15*
X006789Y015568D03*
D16*
X008386Y017674D03*
X009134Y017674D03*
X009162Y019196D03*
X008414Y019196D03*
D17*
X003211Y019080D03*
X002211Y019080D03*
X002211Y018080D03*
X002211Y017080D03*
X002211Y016080D03*
X002211Y015080D03*
X002211Y014080D03*
X002211Y013080D03*
X002211Y012080D03*
X002211Y011080D03*
X002211Y010080D03*
X002211Y009080D03*
X002211Y008080D03*
X002211Y007080D03*
X003211Y007080D03*
X003211Y008080D03*
X003211Y009080D03*
X003211Y010080D03*
X003211Y011080D03*
X003211Y012080D03*
X003211Y013080D03*
X003211Y014080D03*
X003211Y015080D03*
X003211Y016080D03*
X003211Y017080D03*
X003211Y018080D03*
X017760Y011040D03*
X017760Y010040D03*
X017760Y009040D03*
X017760Y008040D03*
X017760Y007040D03*
D18*
X005281Y017820D03*
X004454Y017820D03*
X004394Y019350D03*
X005221Y019350D03*
D19*
X006202Y019200D03*
X006952Y019200D03*
X006938Y017584D03*
X006188Y017584D03*
D20*
X017760Y012040D03*
D21*
X017760Y011760D01*
X014040Y011760D01*
X013620Y011340D01*
X013620Y010980D01*
X011820Y010980D01*
X011788Y010921D01*
X011788Y011177D02*
X011820Y011190D01*
X012060Y011190D01*
X012060Y014580D01*
X011940Y013680D02*
X010500Y015120D01*
X009480Y015840D02*
X011490Y013830D01*
X011490Y011760D01*
X011513Y011708D01*
X011257Y011708D02*
X011250Y011760D01*
X011250Y013770D01*
X009180Y015840D01*
X008880Y015840D02*
X008880Y017400D01*
X009120Y017640D01*
X009134Y017674D01*
X008640Y017400D02*
X008640Y014220D01*
X010470Y012390D01*
X010470Y011760D01*
X010489Y011708D01*
X010233Y011708D02*
X010200Y011760D01*
X010200Y011880D01*
X009600Y012480D01*
X009660Y011940D02*
X009840Y011760D01*
X009960Y011760D01*
X009977Y011708D01*
X009702Y011433D02*
X009660Y011460D01*
X008490Y011460D01*
X008490Y010140D01*
X009000Y010140D02*
X009000Y011280D01*
X009360Y011280D01*
X009450Y011190D01*
X009690Y011190D01*
X009702Y011177D01*
X009702Y010921D02*
X009690Y010920D01*
X009390Y010920D01*
X009270Y011040D01*
X009270Y010740D02*
X009270Y010680D01*
X009660Y010680D01*
X009702Y010665D01*
X009660Y010440D02*
X009702Y010409D01*
X009660Y010440D02*
X009300Y010440D01*
X009360Y010140D02*
X009660Y010140D01*
X009702Y010153D01*
X009660Y009900D02*
X009702Y009897D01*
X009660Y009900D02*
X007920Y009900D01*
X007680Y009480D02*
X007680Y013380D01*
X007080Y013260D02*
X007080Y013200D01*
X007035Y013156D01*
X007080Y013140D01*
X007080Y012180D01*
X007035Y012156D01*
X007080Y012120D01*
X007560Y011640D01*
X007560Y009240D01*
X009960Y009240D01*
X010200Y009480D01*
X010200Y009600D01*
X010233Y009622D01*
X010440Y009600D02*
X010489Y009622D01*
X010440Y009600D02*
X010440Y009420D01*
X010140Y009120D01*
X007440Y009120D01*
X007440Y010740D01*
X007080Y011100D01*
X007035Y011156D01*
X007020Y011160D01*
X006600Y011580D01*
X006600Y013320D01*
X007500Y014220D01*
X007500Y015780D01*
X007860Y016140D01*
X007891Y016159D01*
X007920Y016200D01*
X007980Y016260D01*
X007980Y018480D01*
X003000Y018480D01*
X002820Y018300D01*
X002820Y018120D01*
X002220Y018120D01*
X002211Y018080D01*
X002211Y017080D02*
X002160Y017040D01*
X001800Y016680D01*
X001800Y014460D01*
X002160Y014100D01*
X002211Y014080D01*
X005040Y011880D02*
X003240Y010080D01*
X003211Y010080D01*
X002820Y009480D02*
X002820Y006900D01*
X003060Y006660D01*
X012720Y006660D01*
X012720Y010620D01*
X011820Y010620D01*
X011788Y010665D01*
X011788Y010409D02*
X011820Y010380D01*
X012480Y010380D01*
X012480Y007620D01*
X012180Y007620D02*
X012180Y010140D01*
X011820Y010140D01*
X011788Y010153D01*
X011788Y009897D02*
X011820Y009840D01*
X011940Y009720D01*
X011940Y007380D01*
X010560Y008760D02*
X003240Y008760D01*
X003240Y009060D01*
X003211Y009080D01*
X002820Y009480D02*
X002220Y010080D01*
X002211Y010080D01*
X003211Y008080D02*
X003240Y008040D01*
X003240Y007620D01*
X009600Y007620D01*
X011220Y009240D01*
X011220Y009600D01*
X011257Y009622D01*
X011460Y009600D02*
X011513Y009622D01*
X011460Y009600D02*
X011460Y008880D01*
X009660Y007080D01*
X003211Y007080D01*
X007680Y009480D02*
X009840Y009480D01*
X009960Y009600D01*
X009977Y009622D01*
X010740Y009600D02*
X010740Y009240D01*
X010980Y009180D02*
X010560Y008760D01*
X010980Y009180D02*
X010980Y009600D01*
X011001Y009622D01*
X010745Y009622D02*
X010740Y009600D01*
X011788Y011433D02*
X011820Y011460D01*
X011940Y011580D01*
X011940Y013680D01*
X010980Y012660D02*
X008880Y014760D01*
X008340Y014520D02*
X008640Y014220D01*
X008340Y014520D02*
X007080Y013260D01*
X008340Y014520D02*
X007920Y014940D01*
X007891Y014977D01*
X007920Y015540D02*
X007891Y015568D01*
X007920Y015540D02*
X008400Y015540D01*
X008640Y017400D02*
X008400Y017640D01*
X008386Y017674D01*
X008400Y017700D01*
X008400Y019140D01*
X008414Y019196D01*
X008100Y019620D02*
X007980Y019500D01*
X007980Y018480D01*
X007380Y018780D02*
X006960Y019200D01*
X006952Y019200D01*
X006202Y019200D02*
X006180Y019200D01*
X006180Y019320D01*
X005280Y019320D01*
X005221Y019350D01*
X004394Y019350D02*
X004380Y019320D01*
X003240Y019320D01*
X003240Y019080D01*
X003211Y019080D01*
X003211Y018080D02*
X003240Y018060D01*
X003240Y017820D01*
X004454Y017820D01*
X005281Y017820D02*
X005340Y017820D01*
X005820Y018300D01*
X006900Y018300D01*
X006900Y017640D01*
X006938Y017584D01*
X006660Y018060D02*
X006240Y017640D01*
X006188Y017584D01*
X008100Y019620D02*
X009120Y019620D01*
X009120Y019200D01*
X009162Y019196D01*
X010980Y012660D02*
X010980Y011760D01*
X011001Y011708D01*
X010745Y011708D02*
X010740Y011760D01*
X010740Y012420D01*
X012720Y010620D02*
X017340Y010620D01*
X017340Y009480D01*
X017760Y009060D01*
X017760Y009040D01*
X014035Y012156D02*
X013980Y012120D01*
X013980Y012000D01*
X013320Y011340D01*
D22*
X013320Y011340D03*
X010740Y012420D03*
X009660Y011940D03*
X009600Y012480D03*
X009270Y011040D03*
X009270Y010740D03*
X009300Y010440D03*
X009360Y010140D03*
X009000Y010140D03*
X008490Y010140D03*
X007920Y009900D03*
X010740Y009240D03*
X012180Y007620D03*
X012480Y007620D03*
X011940Y007380D03*
X007680Y013380D03*
X008880Y014760D03*
X008400Y015540D03*
X008880Y015840D03*
X009180Y015840D03*
X009480Y015840D03*
X010500Y015120D03*
X012060Y014580D03*
X007380Y018780D03*
X006660Y018060D03*
X005040Y011880D03*
D23*
X000410Y019635D02*
X000410Y000410D01*
X019635Y000410D01*
X019635Y007530D01*
X019545Y007440D01*
X019395Y007440D01*
X019290Y007545D01*
X019290Y018615D01*
X019395Y018720D01*
X019545Y018720D01*
X019635Y018630D01*
X019635Y019635D01*
X009486Y019635D01*
X009568Y019553D01*
X009568Y018838D01*
X009480Y018750D01*
X008844Y018750D01*
X008788Y018806D01*
X008732Y018750D01*
X008580Y018750D01*
X008580Y018119D01*
X008704Y018119D01*
X008760Y018063D01*
X008816Y018119D01*
X009452Y018119D01*
X009540Y018031D01*
X009540Y017316D01*
X009452Y017228D01*
X009060Y017228D01*
X009060Y016083D01*
X009126Y016110D01*
X009234Y016110D01*
X009330Y016070D01*
X009426Y016110D01*
X009534Y016110D01*
X009633Y016069D01*
X009709Y015993D01*
X009750Y015894D01*
X009750Y015825D01*
X010286Y015288D01*
X010347Y015349D01*
X010446Y015390D01*
X010554Y015390D01*
X010653Y015349D01*
X010729Y015273D01*
X010770Y015174D01*
X010770Y015105D01*
X011880Y013995D01*
X011880Y014378D01*
X011831Y014427D01*
X011790Y014526D01*
X011790Y014634D01*
X011831Y014733D01*
X011907Y014809D01*
X012006Y014850D01*
X012114Y014850D01*
X012213Y014809D01*
X012289Y014733D01*
X012330Y014634D01*
X012330Y014526D01*
X012289Y014427D01*
X012240Y014378D01*
X012240Y011160D01*
X013118Y011160D01*
X013091Y011187D01*
X013050Y011286D01*
X013050Y011394D01*
X013091Y011493D01*
X013167Y011569D01*
X013266Y011610D01*
X013335Y011610D01*
X013648Y011922D01*
X013588Y012067D01*
X013588Y012244D01*
X013656Y012409D01*
X013782Y012534D01*
X013946Y012602D01*
X014124Y012602D01*
X014288Y012534D01*
X014414Y012409D01*
X014482Y012244D01*
X014482Y012067D01*
X014429Y011940D01*
X017310Y011940D01*
X017310Y012402D01*
X017398Y012490D01*
X018122Y012490D01*
X018210Y012402D01*
X018210Y011678D01*
X018122Y011590D01*
X017845Y011590D01*
X017835Y011580D01*
X014178Y011580D01*
X014288Y011534D01*
X014414Y011409D01*
X014482Y011244D01*
X014482Y011067D01*
X014414Y010902D01*
X014311Y010800D01*
X017364Y010800D01*
X017310Y010854D01*
X017310Y011226D01*
X017574Y011490D01*
X017946Y011490D01*
X018210Y011226D01*
X018210Y010854D01*
X017946Y010590D01*
X017574Y010590D01*
X017520Y010644D01*
X017520Y010436D01*
X017574Y010490D01*
X017946Y010490D01*
X018210Y010226D01*
X018210Y009854D01*
X017946Y009590D01*
X017574Y009590D01*
X017520Y009644D01*
X017520Y009555D01*
X017585Y009490D01*
X017946Y009490D01*
X018210Y009226D01*
X018210Y008854D01*
X017946Y008590D01*
X017574Y008590D01*
X017310Y008854D01*
X017310Y009226D01*
X017325Y009241D01*
X017160Y009405D01*
X017160Y010440D01*
X014382Y010440D01*
X014414Y010409D01*
X014482Y010244D01*
X014482Y010067D01*
X014414Y009902D01*
X014288Y009777D01*
X014124Y009709D01*
X013946Y009709D01*
X013782Y009777D01*
X013656Y009902D01*
X013588Y010067D01*
X013588Y010244D01*
X013656Y010409D01*
X013688Y010440D01*
X012900Y010440D01*
X012900Y006585D01*
X012795Y006480D01*
X002985Y006480D01*
X002880Y006585D01*
X002640Y006825D01*
X002640Y006873D01*
X002397Y006630D01*
X002025Y006630D01*
X001761Y006894D01*
X001761Y007266D01*
X002025Y007530D01*
X002397Y007530D01*
X002640Y007287D01*
X002640Y007873D01*
X002397Y007630D01*
X002025Y007630D01*
X001761Y007894D01*
X001761Y008266D01*
X002025Y008530D01*
X002397Y008530D01*
X002640Y008287D01*
X002640Y008873D01*
X002397Y008630D01*
X002025Y008630D01*
X001761Y008894D01*
X001761Y009266D01*
X002025Y009530D01*
X002397Y009530D01*
X002640Y009287D01*
X002640Y009405D01*
X002406Y009639D01*
X002397Y009630D01*
X002025Y009630D01*
X001761Y009894D01*
X001761Y010266D01*
X002025Y010530D01*
X002397Y010530D01*
X002661Y010266D01*
X002661Y009894D01*
X002661Y009894D01*
X002895Y009660D01*
X003000Y009555D01*
X003000Y009505D01*
X003025Y009530D01*
X003397Y009530D01*
X003661Y009266D01*
X003661Y008940D01*
X006641Y008940D01*
X006588Y009067D01*
X006588Y009244D01*
X006656Y009409D01*
X006782Y009534D01*
X006946Y009602D01*
X007124Y009602D01*
X007260Y009546D01*
X007260Y009765D01*
X007124Y009709D01*
X006946Y009709D01*
X006782Y009777D01*
X006656Y009902D01*
X006588Y010067D01*
X006588Y010244D01*
X006656Y010409D01*
X006782Y010534D01*
X006946Y010602D01*
X007124Y010602D01*
X007260Y010546D01*
X007260Y010665D01*
X007190Y010736D01*
X007124Y010709D01*
X006946Y010709D01*
X006782Y010777D01*
X006656Y010902D01*
X006588Y011067D01*
X006588Y011244D01*
X006615Y011310D01*
X006420Y011505D01*
X006420Y013395D01*
X006525Y013500D01*
X007320Y014295D01*
X007320Y014926D01*
X006136Y014926D01*
X006048Y015014D01*
X006048Y016122D01*
X006136Y016210D01*
X007441Y016210D01*
X007446Y016206D01*
X007446Y016378D01*
X007534Y016466D01*
X007800Y016466D01*
X007800Y018300D01*
X007080Y018300D01*
X007080Y018029D01*
X007236Y018029D01*
X007324Y017941D01*
X007324Y017226D01*
X007236Y017138D01*
X006639Y017138D01*
X006563Y017215D01*
X006486Y017138D01*
X005889Y017138D01*
X005801Y017226D01*
X005801Y017941D01*
X005889Y018029D01*
X006374Y018029D01*
X006390Y018045D01*
X006390Y018114D01*
X006393Y018120D01*
X005895Y018120D01*
X005667Y017892D01*
X005667Y017522D01*
X005579Y017434D01*
X004982Y017434D01*
X004895Y017522D01*
X004895Y018118D01*
X004982Y018206D01*
X005472Y018206D01*
X005565Y018300D01*
X003627Y018300D01*
X003661Y018266D01*
X003661Y018000D01*
X004068Y018000D01*
X004068Y018118D01*
X004156Y018206D01*
X004752Y018206D01*
X004840Y018118D01*
X004840Y017522D01*
X004752Y017434D01*
X004156Y017434D01*
X004068Y017522D01*
X004068Y017640D01*
X003407Y017640D01*
X003397Y017630D01*
X003025Y017630D01*
X002761Y017894D01*
X002761Y017940D01*
X002661Y017940D01*
X002661Y017894D01*
X002397Y017630D01*
X002025Y017630D01*
X001761Y017894D01*
X001761Y018266D01*
X002025Y018530D01*
X002397Y018530D01*
X002627Y018300D01*
X002640Y018300D01*
X002640Y018375D01*
X002820Y018555D01*
X002925Y018660D01*
X002995Y018660D01*
X002761Y018894D01*
X002761Y019266D01*
X003025Y019530D01*
X003397Y019530D01*
X003427Y019500D01*
X004008Y019500D01*
X004008Y019635D01*
X000410Y019635D01*
X000410Y019585D02*
X004008Y019585D01*
X004008Y019140D02*
X003661Y019140D01*
X003661Y018894D01*
X003427Y018660D01*
X007137Y018660D01*
X007110Y018726D01*
X007110Y018755D01*
X006654Y018755D01*
X006577Y018831D01*
X006501Y018755D01*
X005904Y018755D01*
X005816Y018843D01*
X005816Y019140D01*
X005607Y019140D01*
X005607Y019052D01*
X005519Y018964D01*
X004922Y018964D01*
X004835Y019052D01*
X004835Y019635D01*
X004780Y019635D01*
X004780Y019052D01*
X004692Y018964D01*
X004096Y018964D01*
X004008Y019052D01*
X004008Y019140D01*
X004008Y019092D02*
X003661Y019092D01*
X003661Y018994D02*
X004066Y018994D01*
X003661Y018895D02*
X005816Y018895D01*
X005816Y018994D02*
X005549Y018994D01*
X005607Y019092D02*
X005816Y019092D01*
X005862Y018797D02*
X003564Y018797D01*
X003466Y018698D02*
X007122Y018698D01*
X007365Y019050D02*
X007339Y019076D01*
X007339Y019557D01*
X007261Y019635D01*
X007860Y019635D01*
X007800Y019575D01*
X007800Y018660D01*
X007623Y018660D01*
X007650Y018726D01*
X007650Y018834D01*
X007609Y018933D01*
X007533Y019009D01*
X007434Y019050D01*
X007365Y019050D01*
X007339Y019092D02*
X007800Y019092D01*
X007800Y018994D02*
X007548Y018994D01*
X007625Y018895D02*
X007800Y018895D01*
X007800Y018797D02*
X007650Y018797D01*
X007638Y018698D02*
X007800Y018698D01*
X008160Y018698D02*
X008220Y018698D01*
X008220Y018750D02*
X008220Y018119D01*
X008160Y018119D01*
X008160Y018750D01*
X008220Y018750D01*
X008220Y018600D02*
X008160Y018600D01*
X008160Y018501D02*
X008220Y018501D01*
X008220Y018403D02*
X008160Y018403D01*
X008160Y018304D02*
X008220Y018304D01*
X008220Y018206D02*
X008160Y018206D01*
X007800Y018206D02*
X007080Y018206D01*
X007080Y018107D02*
X007800Y018107D01*
X007800Y018009D02*
X007256Y018009D01*
X007324Y017910D02*
X007800Y017910D01*
X007800Y017812D02*
X007324Y017812D01*
X007324Y017713D02*
X007800Y017713D01*
X007800Y017615D02*
X007324Y017615D01*
X007324Y017516D02*
X007800Y017516D01*
X007800Y017418D02*
X007324Y017418D01*
X007324Y017319D02*
X007800Y017319D01*
X007800Y017221D02*
X007318Y017221D01*
X007800Y017122D02*
X003661Y017122D01*
X003661Y017024D02*
X007800Y017024D01*
X007800Y016925D02*
X003661Y016925D01*
X003661Y016894D02*
X003397Y016630D01*
X003025Y016630D01*
X002761Y016894D01*
X002761Y017266D01*
X003025Y017530D01*
X003397Y017530D01*
X003661Y017266D01*
X003661Y016894D01*
X003594Y016827D02*
X007800Y016827D01*
X007800Y016728D02*
X003496Y016728D01*
X003397Y016530D02*
X003025Y016530D01*
X002761Y016266D01*
X002761Y015894D01*
X003025Y015630D01*
X003397Y015630D01*
X003661Y015894D01*
X003661Y016266D01*
X003397Y016530D01*
X003495Y016433D02*
X007500Y016433D01*
X007446Y016334D02*
X003593Y016334D01*
X003661Y016236D02*
X007446Y016236D01*
X007800Y016531D02*
X001980Y016531D01*
X002025Y016530D02*
X001980Y016485D01*
X001980Y016605D01*
X002015Y016640D01*
X002025Y016630D01*
X002397Y016630D01*
X002661Y016894D01*
X002661Y017266D01*
X002397Y017530D01*
X002025Y017530D01*
X001761Y017266D01*
X001761Y016896D01*
X001620Y016755D01*
X001620Y014385D01*
X001725Y014280D01*
X001761Y014244D01*
X001761Y013894D01*
X002025Y013630D01*
X002397Y013630D01*
X002661Y013894D01*
X002661Y014266D01*
X002397Y014530D01*
X002025Y014530D01*
X002005Y014510D01*
X001980Y014535D01*
X001980Y014675D01*
X002025Y014630D01*
X002397Y014630D01*
X002661Y014894D01*
X002661Y015266D01*
X002397Y015530D01*
X002025Y015530D01*
X001980Y015485D01*
X001980Y015675D01*
X002025Y015630D01*
X002397Y015630D01*
X002661Y015894D01*
X002661Y016266D01*
X002397Y016530D01*
X002025Y016530D01*
X002004Y016630D02*
X007800Y016630D01*
X008160Y016630D02*
X008460Y016630D01*
X008460Y016728D02*
X008160Y016728D01*
X008160Y016827D02*
X008460Y016827D01*
X008460Y016925D02*
X008160Y016925D01*
X008160Y017024D02*
X008460Y017024D01*
X008460Y017122D02*
X008160Y017122D01*
X008160Y017221D02*
X008460Y017221D01*
X008460Y017228D02*
X008460Y015807D01*
X008454Y015810D01*
X008346Y015810D01*
X008323Y015801D01*
X008261Y015863D01*
X008336Y015939D01*
X008336Y016378D01*
X008248Y016466D01*
X008160Y016466D01*
X008160Y017228D01*
X008460Y017228D01*
X009060Y017221D02*
X019290Y017221D01*
X019290Y017319D02*
X009540Y017319D01*
X009540Y017418D02*
X019290Y017418D01*
X019290Y017516D02*
X009540Y017516D01*
X009540Y017615D02*
X019290Y017615D01*
X019290Y017713D02*
X009540Y017713D01*
X009540Y017812D02*
X019290Y017812D01*
X019290Y017910D02*
X009540Y017910D01*
X009540Y018009D02*
X019290Y018009D01*
X019290Y018107D02*
X009464Y018107D01*
X009526Y018797D02*
X019635Y018797D01*
X019635Y018895D02*
X009568Y018895D01*
X009568Y018994D02*
X019635Y018994D01*
X019635Y019092D02*
X009568Y019092D01*
X009568Y019191D02*
X019635Y019191D01*
X019635Y019289D02*
X009568Y019289D01*
X009568Y019388D02*
X019635Y019388D01*
X019635Y019486D02*
X009568Y019486D01*
X009537Y019585D02*
X019635Y019585D01*
X019635Y018698D02*
X019567Y018698D01*
X019373Y018698D02*
X008580Y018698D01*
X008580Y018600D02*
X019290Y018600D01*
X019290Y018501D02*
X008580Y018501D01*
X008580Y018403D02*
X019290Y018403D01*
X019290Y018304D02*
X008580Y018304D01*
X008580Y018206D02*
X019290Y018206D01*
X019290Y017122D02*
X009060Y017122D01*
X009060Y017024D02*
X019290Y017024D01*
X019290Y016925D02*
X009060Y016925D01*
X009060Y016827D02*
X019290Y016827D01*
X019290Y016728D02*
X009060Y016728D01*
X009060Y016630D02*
X019290Y016630D01*
X019290Y016531D02*
X009060Y016531D01*
X009060Y016433D02*
X019290Y016433D01*
X019290Y016334D02*
X009060Y016334D01*
X009060Y016236D02*
X019290Y016236D01*
X019290Y016137D02*
X009060Y016137D01*
X009030Y015610D02*
X008934Y015570D01*
X008826Y015570D01*
X008820Y015573D01*
X008820Y015027D01*
X008826Y015030D01*
X008934Y015030D01*
X009033Y014989D01*
X009109Y014913D01*
X009150Y014814D01*
X009150Y014745D01*
X011070Y012825D01*
X011070Y013695D01*
X009195Y015570D01*
X009126Y015570D01*
X009030Y015610D01*
X009219Y015546D02*
X008820Y015546D01*
X008820Y015448D02*
X009318Y015448D01*
X009416Y015349D02*
X008820Y015349D01*
X008820Y015251D02*
X009515Y015251D01*
X009613Y015152D02*
X008820Y015152D01*
X008820Y015054D02*
X009712Y015054D01*
X009810Y014955D02*
X009067Y014955D01*
X009132Y014857D02*
X009909Y014857D01*
X010007Y014758D02*
X009150Y014758D01*
X009235Y014660D02*
X010106Y014660D01*
X010204Y014561D02*
X009334Y014561D01*
X009432Y014463D02*
X010303Y014463D01*
X010401Y014364D02*
X009531Y014364D01*
X009629Y014266D02*
X010500Y014266D01*
X010598Y014167D02*
X009728Y014167D01*
X009826Y014069D02*
X010697Y014069D01*
X010795Y013970D02*
X009925Y013970D01*
X010023Y013872D02*
X010894Y013872D01*
X010992Y013773D02*
X010122Y013773D01*
X010220Y013675D02*
X011070Y013675D01*
X011070Y013576D02*
X010319Y013576D01*
X010417Y013478D02*
X011070Y013478D01*
X011070Y013379D02*
X010516Y013379D01*
X010614Y013281D02*
X011070Y013281D01*
X011070Y013182D02*
X010713Y013182D01*
X010811Y013084D02*
X011070Y013084D01*
X011070Y012985D02*
X010910Y012985D01*
X011008Y012887D02*
X011070Y012887D01*
X010695Y012690D02*
X010686Y012690D01*
X010587Y012649D01*
X010526Y012588D01*
X008820Y014295D01*
X008820Y014493D01*
X008826Y014490D01*
X008895Y014490D01*
X010695Y012690D01*
X010685Y012690D02*
X010425Y012690D01*
X010327Y012788D02*
X010597Y012788D01*
X010499Y012887D02*
X010228Y012887D01*
X010130Y012985D02*
X010400Y012985D01*
X010302Y013084D02*
X010031Y013084D01*
X009933Y013182D02*
X010203Y013182D01*
X010105Y013281D02*
X009834Y013281D01*
X009736Y013379D02*
X010006Y013379D01*
X009908Y013478D02*
X009637Y013478D01*
X009539Y013576D02*
X009809Y013576D01*
X009711Y013675D02*
X009440Y013675D01*
X009342Y013773D02*
X009612Y013773D01*
X009514Y013872D02*
X009243Y013872D01*
X009145Y013970D02*
X009415Y013970D01*
X009317Y014069D02*
X009046Y014069D01*
X008948Y014167D02*
X009218Y014167D01*
X009120Y014266D02*
X008849Y014266D01*
X008820Y014364D02*
X009021Y014364D01*
X008923Y014463D02*
X008820Y014463D01*
X008460Y014655D02*
X008415Y014700D01*
X008336Y014778D01*
X008336Y015197D01*
X008261Y015273D01*
X008284Y015296D01*
X008346Y015270D01*
X008454Y015270D01*
X008460Y015273D01*
X008460Y014655D01*
X008460Y014660D02*
X008455Y014660D01*
X008460Y014758D02*
X008357Y014758D01*
X008336Y014857D02*
X008460Y014857D01*
X008460Y014955D02*
X008336Y014955D01*
X008336Y015054D02*
X008460Y015054D01*
X008460Y015152D02*
X008336Y015152D01*
X008283Y015251D02*
X008460Y015251D01*
X008460Y015842D02*
X008282Y015842D01*
X008336Y015940D02*
X008460Y015940D01*
X008460Y016039D02*
X008336Y016039D01*
X008336Y016137D02*
X008460Y016137D01*
X008460Y016236D02*
X008336Y016236D01*
X008336Y016334D02*
X008460Y016334D01*
X008460Y016433D02*
X008282Y016433D01*
X008160Y016531D02*
X008460Y016531D01*
X009663Y016039D02*
X019290Y016039D01*
X019290Y015940D02*
X009731Y015940D01*
X009750Y015842D02*
X019290Y015842D01*
X019290Y015743D02*
X009832Y015743D01*
X009930Y015645D02*
X019290Y015645D01*
X019290Y015546D02*
X010029Y015546D01*
X010127Y015448D02*
X019290Y015448D01*
X019290Y015349D02*
X010653Y015349D01*
X010738Y015251D02*
X019290Y015251D01*
X019290Y015152D02*
X010770Y015152D01*
X010821Y015054D02*
X019290Y015054D01*
X019290Y014955D02*
X010920Y014955D01*
X011018Y014857D02*
X019290Y014857D01*
X019290Y014758D02*
X012264Y014758D01*
X012319Y014660D02*
X019290Y014660D01*
X019290Y014561D02*
X012330Y014561D01*
X012304Y014463D02*
X019290Y014463D01*
X019290Y014364D02*
X012240Y014364D01*
X012240Y014266D02*
X019290Y014266D01*
X019290Y014167D02*
X012240Y014167D01*
X012240Y014069D02*
X019290Y014069D01*
X019290Y013970D02*
X012240Y013970D01*
X012240Y013872D02*
X019290Y013872D01*
X019290Y013773D02*
X012240Y013773D01*
X012240Y013675D02*
X019290Y013675D01*
X019290Y013576D02*
X014187Y013576D01*
X014124Y013602D02*
X013946Y013602D01*
X013782Y013534D01*
X013656Y013409D01*
X013588Y013244D01*
X013588Y013067D01*
X013656Y012902D01*
X013782Y012777D01*
X013946Y012709D01*
X014124Y012709D01*
X014288Y012777D01*
X014414Y012902D01*
X014482Y013067D01*
X014482Y013244D01*
X014414Y013409D01*
X014288Y013534D01*
X014124Y013602D01*
X013883Y013576D02*
X012240Y013576D01*
X012240Y013478D02*
X013725Y013478D01*
X013644Y013379D02*
X012240Y013379D01*
X012240Y013281D02*
X013603Y013281D01*
X013588Y013182D02*
X012240Y013182D01*
X012240Y013084D02*
X013588Y013084D01*
X013622Y012985D02*
X012240Y012985D01*
X012240Y012887D02*
X013672Y012887D01*
X013771Y012788D02*
X012240Y012788D01*
X012240Y012690D02*
X019290Y012690D01*
X019290Y012788D02*
X014300Y012788D01*
X014398Y012887D02*
X019290Y012887D01*
X019290Y012985D02*
X014448Y012985D01*
X014482Y013084D02*
X019290Y013084D01*
X019290Y013182D02*
X014482Y013182D01*
X014467Y013281D02*
X019290Y013281D01*
X019290Y013379D02*
X014426Y013379D01*
X014345Y013478D02*
X019290Y013478D01*
X019290Y012591D02*
X014151Y012591D01*
X014330Y012493D02*
X019290Y012493D01*
X019290Y012394D02*
X018210Y012394D01*
X018210Y012296D02*
X019290Y012296D01*
X019290Y012197D02*
X018210Y012197D01*
X018210Y012099D02*
X019290Y012099D01*
X019290Y012000D02*
X018210Y012000D01*
X018210Y011902D02*
X019290Y011902D01*
X019290Y011803D02*
X018210Y011803D01*
X018210Y011705D02*
X019290Y011705D01*
X019290Y011606D02*
X018138Y011606D01*
X018027Y011409D02*
X019290Y011409D01*
X019290Y011311D02*
X018126Y011311D01*
X018210Y011212D02*
X019290Y011212D01*
X019290Y011114D02*
X018210Y011114D01*
X018210Y011015D02*
X019290Y011015D01*
X019290Y010917D02*
X018210Y010917D01*
X018174Y010818D02*
X019290Y010818D01*
X019290Y010720D02*
X018076Y010720D01*
X017977Y010621D02*
X019290Y010621D01*
X019290Y010523D02*
X017520Y010523D01*
X017520Y010621D02*
X017543Y010621D01*
X017346Y010818D02*
X014329Y010818D01*
X014420Y010917D02*
X017310Y010917D01*
X017310Y011015D02*
X014461Y011015D01*
X014482Y011114D02*
X017310Y011114D01*
X017310Y011212D02*
X014482Y011212D01*
X014454Y011311D02*
X017394Y011311D01*
X017493Y011409D02*
X014413Y011409D01*
X014315Y011508D02*
X019290Y011508D01*
X019290Y010424D02*
X018012Y010424D01*
X018111Y010326D02*
X019290Y010326D01*
X019290Y010227D02*
X018209Y010227D01*
X018210Y010129D02*
X019290Y010129D01*
X019290Y010030D02*
X018210Y010030D01*
X018210Y009932D02*
X019290Y009932D01*
X019290Y009833D02*
X018189Y009833D01*
X018091Y009735D02*
X019290Y009735D01*
X019290Y009636D02*
X017992Y009636D01*
X017997Y009439D02*
X019290Y009439D01*
X019290Y009341D02*
X018096Y009341D01*
X018194Y009242D02*
X019290Y009242D01*
X019290Y009144D02*
X018210Y009144D01*
X018210Y009045D02*
X019290Y009045D01*
X019290Y008947D02*
X018210Y008947D01*
X018204Y008848D02*
X019290Y008848D01*
X019290Y008750D02*
X018106Y008750D01*
X018007Y008651D02*
X019290Y008651D01*
X019290Y008553D02*
X014244Y008553D01*
X014288Y008534D02*
X014124Y008602D01*
X013946Y008602D01*
X013782Y008534D01*
X013656Y008409D01*
X013588Y008244D01*
X013588Y008067D01*
X013656Y007902D01*
X013782Y007777D01*
X013946Y007709D01*
X014124Y007709D01*
X014288Y007777D01*
X014414Y007902D01*
X014482Y008067D01*
X014482Y008244D01*
X014414Y008409D01*
X014288Y008534D01*
X014368Y008454D02*
X017538Y008454D01*
X017574Y008490D02*
X017310Y008226D01*
X017310Y007854D01*
X017574Y007590D01*
X017946Y007590D01*
X018210Y007854D01*
X018210Y008226D01*
X017946Y008490D01*
X017574Y008490D01*
X017513Y008651D02*
X012900Y008651D01*
X012900Y008553D02*
X013826Y008553D01*
X013702Y008454D02*
X012900Y008454D01*
X012900Y008356D02*
X013634Y008356D01*
X013593Y008257D02*
X012900Y008257D01*
X012900Y008159D02*
X013588Y008159D01*
X013591Y008060D02*
X012900Y008060D01*
X012900Y007962D02*
X013632Y007962D01*
X013696Y007863D02*
X012900Y007863D01*
X012900Y007765D02*
X013811Y007765D01*
X014259Y007765D02*
X017399Y007765D01*
X017310Y007863D02*
X014374Y007863D01*
X014438Y007962D02*
X017310Y007962D01*
X017310Y008060D02*
X014479Y008060D01*
X014482Y008159D02*
X017310Y008159D01*
X017341Y008257D02*
X014477Y008257D01*
X014436Y008356D02*
X017439Y008356D01*
X017414Y008750D02*
X014223Y008750D01*
X014288Y008777D02*
X014124Y008709D01*
X013946Y008709D01*
X013782Y008777D01*
X013656Y008902D01*
X013588Y009067D01*
X013588Y009244D01*
X013656Y009409D01*
X013782Y009534D01*
X013946Y009602D01*
X014124Y009602D01*
X014288Y009534D01*
X014414Y009409D01*
X014482Y009244D01*
X014482Y009067D01*
X014414Y008902D01*
X014288Y008777D01*
X014359Y008848D02*
X017316Y008848D01*
X017310Y008947D02*
X014432Y008947D01*
X014473Y009045D02*
X017310Y009045D01*
X017310Y009144D02*
X014482Y009144D01*
X014482Y009242D02*
X017323Y009242D01*
X017225Y009341D02*
X014442Y009341D01*
X014383Y009439D02*
X017160Y009439D01*
X017160Y009538D02*
X014280Y009538D01*
X014186Y009735D02*
X017160Y009735D01*
X017160Y009833D02*
X014344Y009833D01*
X014426Y009932D02*
X017160Y009932D01*
X017160Y010030D02*
X014467Y010030D01*
X014482Y010129D02*
X017160Y010129D01*
X017160Y010227D02*
X014482Y010227D01*
X014448Y010326D02*
X017160Y010326D01*
X017160Y010424D02*
X014398Y010424D01*
X013672Y010424D02*
X012900Y010424D01*
X012900Y010326D02*
X013622Y010326D01*
X013588Y010227D02*
X012900Y010227D01*
X012900Y010129D02*
X013588Y010129D01*
X013603Y010030D02*
X012900Y010030D01*
X012900Y009932D02*
X013644Y009932D01*
X013726Y009833D02*
X012900Y009833D01*
X012900Y009735D02*
X013884Y009735D01*
X013790Y009538D02*
X012900Y009538D01*
X012900Y009636D02*
X017160Y009636D01*
X017520Y009636D02*
X017528Y009636D01*
X017537Y009538D02*
X019290Y009538D01*
X019290Y008454D02*
X017982Y008454D01*
X018081Y008356D02*
X019290Y008356D01*
X019290Y008257D02*
X018179Y008257D01*
X018210Y008159D02*
X019290Y008159D01*
X019290Y008060D02*
X018210Y008060D01*
X018210Y007962D02*
X019290Y007962D01*
X019290Y007863D02*
X018210Y007863D01*
X018121Y007765D02*
X019290Y007765D01*
X019290Y007666D02*
X018022Y007666D01*
X017946Y007490D02*
X017574Y007490D01*
X017310Y007226D01*
X017310Y006854D01*
X017574Y006590D01*
X017946Y006590D01*
X018210Y006854D01*
X018210Y007226D01*
X017946Y007490D01*
X017967Y007469D02*
X019366Y007469D01*
X019290Y007568D02*
X012900Y007568D01*
X012900Y007666D02*
X017498Y007666D01*
X017553Y007469D02*
X012900Y007469D01*
X012900Y007371D02*
X017454Y007371D01*
X017356Y007272D02*
X012900Y007272D01*
X012900Y007174D02*
X017310Y007174D01*
X017310Y007075D02*
X012900Y007075D01*
X012900Y006977D02*
X017310Y006977D01*
X017310Y006878D02*
X012900Y006878D01*
X012900Y006780D02*
X017384Y006780D01*
X017483Y006681D02*
X012900Y006681D01*
X012897Y006583D02*
X019635Y006583D01*
X019635Y006681D02*
X018037Y006681D01*
X018136Y006780D02*
X019635Y006780D01*
X019635Y006878D02*
X018210Y006878D01*
X018210Y006977D02*
X019635Y006977D01*
X019635Y007075D02*
X018210Y007075D01*
X018210Y007174D02*
X019635Y007174D01*
X019635Y007272D02*
X018164Y007272D01*
X018066Y007371D02*
X019635Y007371D01*
X019635Y007469D02*
X019574Y007469D01*
X019635Y006484D02*
X012799Y006484D01*
X012540Y006840D02*
X003607Y006840D01*
X003661Y006894D01*
X003661Y006900D01*
X009735Y006900D01*
X009840Y007005D01*
X011640Y008805D01*
X011640Y009314D01*
X011642Y009314D01*
X011741Y009414D01*
X011741Y009455D01*
X011760Y009455D01*
X011760Y007582D01*
X011711Y007533D01*
X011670Y007434D01*
X011670Y007326D01*
X011711Y007227D01*
X011787Y007151D01*
X011886Y007110D01*
X011994Y007110D01*
X012093Y007151D01*
X012169Y007227D01*
X012210Y007326D01*
X012210Y007350D01*
X012234Y007350D01*
X012330Y007390D01*
X012426Y007350D01*
X012534Y007350D01*
X012540Y007353D01*
X012540Y006840D01*
X012540Y006878D02*
X003646Y006878D01*
X003661Y007260D02*
X003661Y007266D01*
X003487Y007440D01*
X009675Y007440D01*
X009780Y007545D01*
X011280Y009045D01*
X011280Y009045D01*
X011280Y008955D01*
X009585Y007260D01*
X003661Y007260D01*
X003655Y007272D02*
X009597Y007272D01*
X009696Y007371D02*
X003557Y007371D01*
X003567Y007800D02*
X003661Y007894D01*
X003661Y008266D01*
X003397Y008530D01*
X003025Y008530D01*
X003000Y008505D01*
X003000Y008655D01*
X003025Y008630D01*
X003115Y008630D01*
X003165Y008580D01*
X006892Y008580D01*
X006782Y008534D01*
X006656Y008409D01*
X006588Y008244D01*
X006588Y008067D01*
X006656Y007902D01*
X006759Y007800D01*
X003567Y007800D01*
X003631Y007863D02*
X006696Y007863D01*
X006632Y007962D02*
X003661Y007962D01*
X003661Y008060D02*
X006591Y008060D01*
X006588Y008159D02*
X003661Y008159D01*
X003661Y008257D02*
X006593Y008257D01*
X006634Y008356D02*
X003572Y008356D01*
X003473Y008454D02*
X006702Y008454D01*
X006826Y008553D02*
X003000Y008553D01*
X003000Y008651D02*
X003004Y008651D01*
X002640Y008651D02*
X002419Y008651D01*
X002517Y008750D02*
X002640Y008750D01*
X002640Y008848D02*
X002616Y008848D01*
X002640Y008553D02*
X000410Y008553D01*
X000410Y008651D02*
X002004Y008651D01*
X001905Y008750D02*
X000410Y008750D01*
X000410Y008848D02*
X001807Y008848D01*
X001761Y008947D02*
X000410Y008947D01*
X000410Y009045D02*
X001761Y009045D01*
X001761Y009144D02*
X000410Y009144D01*
X000410Y009242D02*
X001761Y009242D01*
X001835Y009341D02*
X000410Y009341D01*
X000410Y009439D02*
X001934Y009439D01*
X002019Y009636D02*
X000410Y009636D01*
X000410Y009538D02*
X002508Y009538D01*
X002488Y009439D02*
X002606Y009439D01*
X002587Y009341D02*
X002640Y009341D01*
X003000Y009538D02*
X006790Y009538D01*
X006687Y009439D02*
X003488Y009439D01*
X003587Y009341D02*
X006628Y009341D01*
X006588Y009242D02*
X003661Y009242D01*
X003661Y009144D02*
X006588Y009144D01*
X006597Y009045D02*
X003661Y009045D01*
X003661Y008947D02*
X006638Y008947D01*
X007178Y008580D02*
X010305Y008580D01*
X009525Y007800D01*
X007311Y007800D01*
X007414Y007902D01*
X007482Y008067D01*
X007482Y008244D01*
X007414Y008409D01*
X007288Y008534D01*
X007178Y008580D01*
X007244Y008553D02*
X010278Y008553D01*
X010179Y008454D02*
X007368Y008454D01*
X007436Y008356D02*
X010081Y008356D01*
X009982Y008257D02*
X007477Y008257D01*
X007482Y008159D02*
X009884Y008159D01*
X009785Y008060D02*
X007479Y008060D01*
X007438Y007962D02*
X009687Y007962D01*
X009588Y007863D02*
X007374Y007863D01*
X007429Y008940D02*
X007429Y008940D01*
X010485Y008940D01*
X010572Y009026D01*
X010511Y009087D01*
X010470Y009186D01*
X010470Y009195D01*
X010320Y009045D01*
X010553Y009045D01*
X010492Y008947D02*
X010221Y008947D01*
X010215Y008940D02*
X010320Y009045D01*
X010418Y009144D02*
X010488Y009144D01*
X010215Y008940D02*
X007429Y008940D01*
X007260Y009636D02*
X003404Y009636D01*
X003397Y009630D02*
X003661Y009894D01*
X003661Y010247D01*
X005025Y011610D01*
X005094Y011610D01*
X005193Y011651D01*
X005269Y011727D01*
X005310Y011826D01*
X005310Y011934D01*
X005269Y012033D01*
X005193Y012109D01*
X005094Y012150D01*
X004986Y012150D01*
X004887Y012109D01*
X004811Y012033D01*
X004770Y011934D01*
X004770Y011865D01*
X003416Y010511D01*
X003397Y010530D01*
X003025Y010530D01*
X002761Y010266D01*
X002761Y009894D01*
X003025Y009630D01*
X003397Y009630D01*
X003502Y009735D02*
X006884Y009735D01*
X006726Y009833D02*
X003601Y009833D01*
X003661Y009932D02*
X006644Y009932D01*
X006603Y010030D02*
X003661Y010030D01*
X003661Y010129D02*
X006588Y010129D01*
X006588Y010227D02*
X003661Y010227D01*
X003740Y010326D02*
X006622Y010326D01*
X006672Y010424D02*
X003839Y010424D01*
X003937Y010523D02*
X006770Y010523D01*
X006920Y010720D02*
X004134Y010720D01*
X004233Y010818D02*
X006741Y010818D01*
X006650Y010917D02*
X004331Y010917D01*
X004430Y011015D02*
X006610Y011015D01*
X006588Y011114D02*
X004528Y011114D01*
X004627Y011212D02*
X006588Y011212D01*
X006615Y011311D02*
X004725Y011311D01*
X004824Y011409D02*
X006516Y011409D01*
X006420Y011508D02*
X004922Y011508D01*
X005021Y011606D02*
X006420Y011606D01*
X006420Y011705D02*
X005246Y011705D01*
X005300Y011803D02*
X006420Y011803D01*
X006420Y011902D02*
X005310Y011902D01*
X005283Y012000D02*
X006420Y012000D01*
X006420Y012099D02*
X005203Y012099D01*
X004877Y012099D02*
X003661Y012099D01*
X003661Y012197D02*
X006420Y012197D01*
X006420Y012296D02*
X003632Y012296D01*
X003661Y012266D02*
X003397Y012530D01*
X003025Y012530D01*
X002761Y012266D01*
X002761Y011894D01*
X003025Y011630D01*
X003397Y011630D01*
X003661Y011894D01*
X003661Y012266D01*
X003533Y012394D02*
X006420Y012394D01*
X006420Y012493D02*
X003435Y012493D01*
X003397Y012630D02*
X003661Y012894D01*
X003661Y013266D01*
X003397Y013530D01*
X003025Y013530D01*
X002761Y013266D01*
X002761Y012894D01*
X003025Y012630D01*
X003397Y012630D01*
X003457Y012690D02*
X006420Y012690D01*
X006420Y012788D02*
X003556Y012788D01*
X003654Y012887D02*
X006420Y012887D01*
X006420Y012985D02*
X003661Y012985D01*
X003661Y013084D02*
X006420Y013084D01*
X006420Y013182D02*
X003661Y013182D01*
X003647Y013281D02*
X006420Y013281D01*
X006420Y013379D02*
X003548Y013379D01*
X003450Y013478D02*
X006503Y013478D01*
X006601Y013576D02*
X000410Y013576D01*
X000410Y013478D02*
X001972Y013478D01*
X002025Y013530D02*
X001761Y013266D01*
X001761Y012894D01*
X002025Y012630D01*
X002397Y012630D01*
X002661Y012894D01*
X002661Y013266D01*
X002397Y013530D01*
X002025Y013530D01*
X001980Y013675D02*
X000410Y013675D01*
X000410Y013773D02*
X001882Y013773D01*
X001783Y013872D02*
X000410Y013872D01*
X000410Y013970D02*
X001761Y013970D01*
X001761Y014069D02*
X000410Y014069D01*
X000410Y014167D02*
X001761Y014167D01*
X001740Y014266D02*
X000410Y014266D01*
X000410Y014364D02*
X001641Y014364D01*
X001620Y014463D02*
X000410Y014463D01*
X000410Y014561D02*
X001620Y014561D01*
X001620Y014660D02*
X000410Y014660D01*
X000410Y014758D02*
X001620Y014758D01*
X001620Y014857D02*
X000410Y014857D01*
X000410Y014955D02*
X001620Y014955D01*
X001620Y015054D02*
X000410Y015054D01*
X000410Y015152D02*
X001620Y015152D01*
X001620Y015251D02*
X000410Y015251D01*
X000410Y015349D02*
X001620Y015349D01*
X001620Y015448D02*
X000410Y015448D01*
X000410Y015546D02*
X001620Y015546D01*
X001620Y015645D02*
X000410Y015645D01*
X000410Y015743D02*
X001620Y015743D01*
X001620Y015842D02*
X000410Y015842D01*
X000410Y015940D02*
X001620Y015940D01*
X001620Y016039D02*
X000410Y016039D01*
X000410Y016137D02*
X001620Y016137D01*
X001620Y016236D02*
X000410Y016236D01*
X000410Y016334D02*
X001620Y016334D01*
X001620Y016433D02*
X000410Y016433D01*
X000410Y016531D02*
X001620Y016531D01*
X001620Y016630D02*
X000410Y016630D01*
X000410Y016728D02*
X001620Y016728D01*
X001692Y016827D02*
X000410Y016827D01*
X000410Y016925D02*
X001761Y016925D01*
X001761Y017024D02*
X000410Y017024D01*
X000410Y017122D02*
X001761Y017122D01*
X001761Y017221D02*
X000410Y017221D01*
X000410Y017319D02*
X001814Y017319D01*
X001912Y017418D02*
X000410Y017418D01*
X000410Y017516D02*
X002011Y017516D01*
X001942Y017713D02*
X000410Y017713D01*
X000410Y017615D02*
X004068Y017615D01*
X004073Y017516D02*
X003411Y017516D01*
X003510Y017418D02*
X005801Y017418D01*
X005801Y017516D02*
X005661Y017516D01*
X005667Y017615D02*
X005801Y017615D01*
X005801Y017713D02*
X005667Y017713D01*
X005667Y017812D02*
X005801Y017812D01*
X005801Y017910D02*
X005685Y017910D01*
X005783Y018009D02*
X005869Y018009D01*
X005882Y018107D02*
X006390Y018107D01*
X006543Y018797D02*
X006612Y018797D01*
X006577Y019569D02*
X006511Y019635D01*
X006644Y019635D01*
X006577Y019569D01*
X006561Y019585D02*
X006593Y019585D01*
X005894Y019635D02*
X005816Y019557D01*
X005816Y019500D01*
X005607Y019500D01*
X005607Y019635D01*
X005894Y019635D01*
X005843Y019585D02*
X005607Y019585D01*
X004835Y019585D02*
X004780Y019585D01*
X004780Y019486D02*
X004835Y019486D01*
X004835Y019388D02*
X004780Y019388D01*
X004780Y019289D02*
X004835Y019289D01*
X004835Y019191D02*
X004780Y019191D01*
X004780Y019092D02*
X004835Y019092D01*
X004893Y018994D02*
X004722Y018994D01*
X004753Y018206D02*
X004982Y018206D01*
X004895Y018107D02*
X004840Y018107D01*
X004840Y018009D02*
X004895Y018009D01*
X004895Y017910D02*
X004840Y017910D01*
X004840Y017812D02*
X004895Y017812D01*
X004895Y017713D02*
X004840Y017713D01*
X004840Y017615D02*
X004895Y017615D01*
X004900Y017516D02*
X004835Y017516D01*
X004068Y018009D02*
X003661Y018009D01*
X003661Y018107D02*
X004068Y018107D01*
X004155Y018206D02*
X003661Y018206D01*
X003011Y017516D02*
X002411Y017516D01*
X002510Y017418D02*
X002912Y017418D01*
X002814Y017319D02*
X002608Y017319D01*
X002661Y017221D02*
X002761Y017221D01*
X002761Y017122D02*
X002661Y017122D01*
X002661Y017024D02*
X002761Y017024D01*
X002761Y016925D02*
X002661Y016925D01*
X002594Y016827D02*
X002828Y016827D01*
X002927Y016728D02*
X002496Y016728D01*
X002495Y016433D02*
X002927Y016433D01*
X002829Y016334D02*
X002593Y016334D01*
X002661Y016236D02*
X002761Y016236D01*
X002761Y016137D02*
X002661Y016137D01*
X002661Y016039D02*
X002761Y016039D01*
X002761Y015940D02*
X002661Y015940D01*
X002609Y015842D02*
X002813Y015842D01*
X002912Y015743D02*
X002511Y015743D01*
X002412Y015645D02*
X003010Y015645D01*
X003025Y015530D02*
X002761Y015266D01*
X002761Y014894D01*
X003025Y014630D01*
X003397Y014630D01*
X003661Y014894D01*
X003661Y015266D01*
X003397Y015530D01*
X003025Y015530D01*
X002942Y015448D02*
X002480Y015448D01*
X002578Y015349D02*
X002844Y015349D01*
X002761Y015251D02*
X002661Y015251D01*
X002661Y015152D02*
X002761Y015152D01*
X002761Y015054D02*
X002661Y015054D01*
X002661Y014955D02*
X002761Y014955D01*
X002798Y014857D02*
X002624Y014857D01*
X002526Y014758D02*
X002897Y014758D01*
X002995Y014660D02*
X002427Y014660D01*
X002465Y014463D02*
X002957Y014463D01*
X003025Y014530D02*
X002761Y014266D01*
X002761Y013894D01*
X003025Y013630D01*
X003397Y013630D01*
X003661Y013894D01*
X003661Y014266D01*
X003397Y014530D01*
X003025Y014530D01*
X002859Y014364D02*
X002563Y014364D01*
X002661Y014266D02*
X002761Y014266D01*
X002761Y014167D02*
X002661Y014167D01*
X002661Y014069D02*
X002761Y014069D01*
X002761Y013970D02*
X002661Y013970D01*
X002639Y013872D02*
X002783Y013872D01*
X002882Y013773D02*
X002541Y013773D01*
X002442Y013675D02*
X002980Y013675D01*
X002972Y013478D02*
X002450Y013478D01*
X002548Y013379D02*
X002874Y013379D01*
X002775Y013281D02*
X002647Y013281D01*
X002661Y013182D02*
X002761Y013182D01*
X002761Y013084D02*
X002661Y013084D01*
X002661Y012985D02*
X002761Y012985D01*
X002768Y012887D02*
X002654Y012887D01*
X002556Y012788D02*
X002867Y012788D01*
X002965Y012690D02*
X002457Y012690D01*
X002397Y012530D02*
X002025Y012530D01*
X001761Y012266D01*
X001761Y011894D01*
X002025Y011630D01*
X002397Y011630D01*
X002661Y011894D01*
X002661Y012266D01*
X002397Y012530D01*
X002435Y012493D02*
X002987Y012493D01*
X002889Y012394D02*
X002533Y012394D01*
X002632Y012296D02*
X002790Y012296D01*
X002761Y012197D02*
X002661Y012197D01*
X002661Y012099D02*
X002761Y012099D01*
X002761Y012000D02*
X002661Y012000D01*
X002661Y011902D02*
X002761Y011902D01*
X002852Y011803D02*
X002571Y011803D01*
X002472Y011705D02*
X002950Y011705D01*
X003025Y011530D02*
X002761Y011266D01*
X002761Y010894D01*
X003025Y010630D01*
X003397Y010630D01*
X003661Y010894D01*
X003661Y011266D01*
X003397Y011530D01*
X003025Y011530D01*
X003002Y011508D02*
X002420Y011508D01*
X002397Y011530D02*
X002661Y011266D01*
X002661Y010894D01*
X002397Y010630D01*
X002025Y010630D01*
X001761Y010894D01*
X001761Y011266D01*
X002025Y011530D01*
X002397Y011530D01*
X002518Y011409D02*
X002904Y011409D01*
X002805Y011311D02*
X002617Y011311D01*
X002661Y011212D02*
X002761Y011212D01*
X002761Y011114D02*
X002661Y011114D01*
X002661Y011015D02*
X002761Y011015D01*
X002761Y010917D02*
X002661Y010917D01*
X002586Y010818D02*
X002837Y010818D01*
X002935Y010720D02*
X002487Y010720D01*
X002405Y010523D02*
X003017Y010523D01*
X002919Y010424D02*
X002503Y010424D01*
X002602Y010326D02*
X002820Y010326D01*
X002761Y010227D02*
X002661Y010227D01*
X002661Y010129D02*
X002761Y010129D01*
X002761Y010030D02*
X002661Y010030D01*
X002661Y009932D02*
X002761Y009932D01*
X002722Y009833D02*
X002822Y009833D01*
X002820Y009735D02*
X002920Y009735D01*
X002919Y009636D02*
X003019Y009636D01*
X002409Y009636D02*
X002404Y009636D01*
X001920Y009735D02*
X000410Y009735D01*
X000410Y009833D02*
X001822Y009833D01*
X001761Y009932D02*
X000410Y009932D01*
X000410Y010030D02*
X001761Y010030D01*
X001761Y010129D02*
X000410Y010129D01*
X000410Y010227D02*
X001761Y010227D01*
X001820Y010326D02*
X000410Y010326D01*
X000410Y010424D02*
X001919Y010424D01*
X002017Y010523D02*
X000410Y010523D01*
X000410Y010621D02*
X003526Y010621D01*
X003487Y010720D02*
X003625Y010720D01*
X003586Y010818D02*
X003723Y010818D01*
X003661Y010917D02*
X003822Y010917D01*
X003920Y011015D02*
X003661Y011015D01*
X003661Y011114D02*
X004019Y011114D01*
X004117Y011212D02*
X003661Y011212D01*
X003617Y011311D02*
X004216Y011311D01*
X004314Y011409D02*
X003518Y011409D01*
X003420Y011508D02*
X004413Y011508D01*
X004511Y011606D02*
X000410Y011606D01*
X000410Y011508D02*
X002002Y011508D01*
X001904Y011409D02*
X000410Y011409D01*
X000410Y011311D02*
X001805Y011311D01*
X001761Y011212D02*
X000410Y011212D01*
X000410Y011114D02*
X001761Y011114D01*
X001761Y011015D02*
X000410Y011015D01*
X000410Y010917D02*
X001761Y010917D01*
X001837Y010818D02*
X000410Y010818D01*
X000410Y010720D02*
X001935Y010720D01*
X001950Y011705D02*
X000410Y011705D01*
X000410Y011803D02*
X001852Y011803D01*
X001761Y011902D02*
X000410Y011902D01*
X000410Y012000D02*
X001761Y012000D01*
X001761Y012099D02*
X000410Y012099D01*
X000410Y012197D02*
X001761Y012197D01*
X001790Y012296D02*
X000410Y012296D01*
X000410Y012394D02*
X001889Y012394D01*
X001987Y012493D02*
X000410Y012493D01*
X000410Y012591D02*
X006420Y012591D01*
X006780Y012591D02*
X006900Y012591D01*
X006900Y012583D02*
X006782Y012534D01*
X006780Y012532D01*
X006780Y012779D01*
X006782Y012777D01*
X006900Y012728D01*
X006900Y012583D01*
X006900Y012690D02*
X006780Y012690D01*
X007260Y012690D02*
X007500Y012690D01*
X007500Y012788D02*
X007300Y012788D01*
X007288Y012777D02*
X007414Y012902D01*
X007482Y013067D01*
X007482Y013196D01*
X007500Y013178D01*
X007500Y011955D01*
X007454Y012000D01*
X007482Y012067D01*
X007482Y012244D01*
X007414Y012409D01*
X007288Y012534D01*
X007260Y012546D01*
X007260Y012765D01*
X007288Y012777D01*
X007398Y012887D02*
X007500Y012887D01*
X007500Y012985D02*
X007448Y012985D01*
X007482Y013084D02*
X007500Y013084D01*
X007496Y013182D02*
X007482Y013182D01*
X007860Y013178D02*
X007909Y013227D01*
X007950Y013326D01*
X007950Y013434D01*
X007909Y013533D01*
X007833Y013609D01*
X007734Y013650D01*
X007725Y013650D01*
X008340Y014265D01*
X008460Y014145D01*
X008565Y014040D01*
X010290Y012315D01*
X010290Y012045D01*
X009870Y012465D01*
X009870Y012534D01*
X009829Y012633D01*
X009753Y012709D01*
X009654Y012750D01*
X009546Y012750D01*
X009447Y012709D01*
X009371Y012633D01*
X009330Y012534D01*
X009330Y012426D01*
X009371Y012327D01*
X009447Y012251D01*
X009546Y012210D01*
X009615Y012210D01*
X009615Y012210D01*
X009606Y012210D01*
X009507Y012169D01*
X009431Y012093D01*
X009390Y011994D01*
X009390Y011886D01*
X009431Y011787D01*
X009507Y011711D01*
X009525Y011704D01*
X009525Y011661D01*
X009494Y011661D01*
X009472Y011640D01*
X008415Y011640D01*
X008310Y011535D01*
X008310Y010342D01*
X008261Y010293D01*
X008220Y010194D01*
X008220Y010086D01*
X008223Y010080D01*
X008122Y010080D01*
X008073Y010129D01*
X007974Y010170D01*
X007866Y010170D01*
X007860Y010167D01*
X007860Y013178D01*
X007864Y013182D02*
X009423Y013182D01*
X009325Y013281D02*
X007931Y013281D01*
X007950Y013379D02*
X009226Y013379D01*
X009128Y013478D02*
X007932Y013478D01*
X007866Y013576D02*
X009029Y013576D01*
X008931Y013675D02*
X007749Y013675D01*
X007848Y013773D02*
X008832Y013773D01*
X008734Y013872D02*
X007946Y013872D01*
X008045Y013970D02*
X008635Y013970D01*
X008537Y014069D02*
X008143Y014069D01*
X008242Y014167D02*
X008438Y014167D01*
X008085Y014520D02*
X007155Y013590D01*
X007133Y013599D01*
X007680Y014145D01*
X007680Y014295D01*
X007680Y014670D01*
X007935Y014670D01*
X008085Y014520D01*
X008044Y014561D02*
X007680Y014561D01*
X007680Y014463D02*
X008028Y014463D01*
X007929Y014364D02*
X007680Y014364D01*
X007680Y014266D02*
X007831Y014266D01*
X007732Y014167D02*
X007680Y014167D01*
X007634Y014069D02*
X007603Y014069D01*
X007535Y013970D02*
X007505Y013970D01*
X007437Y013872D02*
X007406Y013872D01*
X007338Y013773D02*
X007308Y013773D01*
X007240Y013675D02*
X007209Y013675D01*
X006995Y013970D02*
X003661Y013970D01*
X003661Y014069D02*
X007094Y014069D01*
X007192Y014167D02*
X003661Y014167D01*
X003661Y014266D02*
X007291Y014266D01*
X007320Y014364D02*
X003563Y014364D01*
X003465Y014463D02*
X007320Y014463D01*
X007320Y014561D02*
X001980Y014561D01*
X001980Y014660D02*
X001995Y014660D01*
X001980Y015546D02*
X006048Y015546D01*
X006048Y015448D02*
X003480Y015448D01*
X003578Y015349D02*
X006048Y015349D01*
X006048Y015251D02*
X003661Y015251D01*
X003661Y015152D02*
X006048Y015152D01*
X006048Y015054D02*
X003661Y015054D01*
X003661Y014955D02*
X006107Y014955D01*
X006048Y015645D02*
X003412Y015645D01*
X003511Y015743D02*
X006048Y015743D01*
X006048Y015842D02*
X003609Y015842D01*
X003661Y015940D02*
X006048Y015940D01*
X006048Y016039D02*
X003661Y016039D01*
X003661Y016137D02*
X006063Y016137D01*
X005807Y017221D02*
X003661Y017221D01*
X003608Y017319D02*
X005801Y017319D01*
X007339Y019191D02*
X007800Y019191D01*
X007800Y019289D02*
X007339Y019289D01*
X007339Y019388D02*
X007800Y019388D01*
X007800Y019486D02*
X007339Y019486D01*
X007311Y019585D02*
X007810Y019585D01*
X008778Y018797D02*
X008798Y018797D01*
X008804Y018107D02*
X008715Y018107D01*
X010226Y015349D02*
X010347Y015349D01*
X011117Y014758D02*
X011856Y014758D01*
X011801Y014660D02*
X011215Y014660D01*
X011314Y014561D02*
X011790Y014561D01*
X011816Y014463D02*
X011412Y014463D01*
X011511Y014364D02*
X011880Y014364D01*
X011880Y014266D02*
X011609Y014266D01*
X011708Y014167D02*
X011880Y014167D01*
X011880Y014069D02*
X011806Y014069D01*
X011670Y013695D02*
X011760Y013605D01*
X011760Y011885D01*
X011741Y011885D01*
X011741Y011916D01*
X011670Y011988D01*
X011670Y013695D01*
X011670Y013675D02*
X011691Y013675D01*
X011670Y013576D02*
X011760Y013576D01*
X011760Y013478D02*
X011670Y013478D01*
X011670Y013379D02*
X011760Y013379D01*
X011760Y013281D02*
X011670Y013281D01*
X011670Y013182D02*
X011760Y013182D01*
X011760Y013084D02*
X011670Y013084D01*
X011670Y012985D02*
X011760Y012985D01*
X011760Y012887D02*
X011670Y012887D01*
X011670Y012788D02*
X011760Y012788D01*
X011760Y012690D02*
X011670Y012690D01*
X011670Y012591D02*
X011760Y012591D01*
X011760Y012493D02*
X011670Y012493D01*
X011670Y012394D02*
X011760Y012394D01*
X011760Y012296D02*
X011670Y012296D01*
X011670Y012197D02*
X011760Y012197D01*
X011760Y012099D02*
X011670Y012099D01*
X011670Y012000D02*
X011760Y012000D01*
X011760Y011902D02*
X011741Y011902D01*
X012240Y011902D02*
X013627Y011902D01*
X013616Y012000D02*
X012240Y012000D01*
X012240Y012099D02*
X013588Y012099D01*
X013588Y012197D02*
X012240Y012197D01*
X012240Y012296D02*
X013609Y012296D01*
X013650Y012394D02*
X012240Y012394D01*
X012240Y012493D02*
X013740Y012493D01*
X013919Y012591D02*
X012240Y012591D01*
X012240Y011803D02*
X013528Y011803D01*
X013430Y011705D02*
X012240Y011705D01*
X012240Y011606D02*
X013257Y011606D01*
X013106Y011508D02*
X012240Y011508D01*
X012240Y011409D02*
X013056Y011409D01*
X013050Y011311D02*
X012240Y011311D01*
X012240Y011212D02*
X013081Y011212D01*
X013695Y010800D02*
X013727Y010832D01*
X013759Y010800D01*
X012096Y010800D01*
X013695Y010800D01*
X013713Y010818D02*
X013741Y010818D01*
X013687Y009439D02*
X012900Y009439D01*
X012900Y009341D02*
X013628Y009341D01*
X013588Y009242D02*
X012900Y009242D01*
X012900Y009144D02*
X013588Y009144D01*
X013597Y009045D02*
X012900Y009045D01*
X012900Y008947D02*
X013638Y008947D01*
X013711Y008848D02*
X012900Y008848D01*
X012900Y008750D02*
X013848Y008750D01*
X012540Y007272D02*
X012188Y007272D01*
X012115Y007174D02*
X012540Y007174D01*
X012540Y007075D02*
X009910Y007075D01*
X010008Y007174D02*
X011765Y007174D01*
X011692Y007272D02*
X010107Y007272D01*
X010205Y007371D02*
X011670Y007371D01*
X011685Y007469D02*
X010304Y007469D01*
X010402Y007568D02*
X011746Y007568D01*
X011760Y007666D02*
X010501Y007666D01*
X010599Y007765D02*
X011760Y007765D01*
X011760Y007863D02*
X010698Y007863D01*
X010796Y007962D02*
X011760Y007962D01*
X011760Y008060D02*
X010895Y008060D01*
X010993Y008159D02*
X011760Y008159D01*
X011760Y008257D02*
X011092Y008257D01*
X011190Y008356D02*
X011760Y008356D01*
X011760Y008454D02*
X011289Y008454D01*
X011387Y008553D02*
X011760Y008553D01*
X011760Y008651D02*
X011486Y008651D01*
X011584Y008750D02*
X011760Y008750D01*
X011760Y008848D02*
X011640Y008848D01*
X011640Y008947D02*
X011760Y008947D01*
X011760Y009045D02*
X011640Y009045D01*
X011640Y009144D02*
X011760Y009144D01*
X011760Y009242D02*
X011640Y009242D01*
X011668Y009341D02*
X011760Y009341D01*
X011760Y009439D02*
X011741Y009439D01*
X011272Y008947D02*
X011181Y008947D01*
X011173Y008848D02*
X011083Y008848D01*
X011075Y008750D02*
X010984Y008750D01*
X010976Y008651D02*
X010886Y008651D01*
X010878Y008553D02*
X010787Y008553D01*
X010779Y008454D02*
X010689Y008454D01*
X010681Y008356D02*
X010590Y008356D01*
X010582Y008257D02*
X010492Y008257D01*
X010484Y008159D02*
X010393Y008159D01*
X010385Y008060D02*
X010295Y008060D01*
X010287Y007962D02*
X010196Y007962D01*
X010188Y007863D02*
X010098Y007863D01*
X010090Y007765D02*
X009999Y007765D01*
X009991Y007666D02*
X009901Y007666D01*
X009893Y007568D02*
X009802Y007568D01*
X009794Y007469D02*
X009704Y007469D01*
X009811Y006977D02*
X012540Y006977D01*
X012377Y007371D02*
X012283Y007371D01*
X009525Y009660D02*
X008046Y009660D01*
X008073Y009671D01*
X008122Y009720D01*
X009442Y009720D01*
X009494Y009669D01*
X009525Y009669D01*
X009525Y009660D01*
X008820Y010342D02*
X008771Y010293D01*
X008745Y010230D01*
X008719Y010293D01*
X008670Y010342D01*
X008670Y011280D01*
X008820Y011280D01*
X008820Y010342D01*
X008804Y010326D02*
X008686Y010326D01*
X008670Y010424D02*
X008820Y010424D01*
X008820Y010523D02*
X008670Y010523D01*
X008670Y010621D02*
X008820Y010621D01*
X008820Y010720D02*
X008670Y010720D01*
X008670Y010818D02*
X008820Y010818D01*
X008820Y010917D02*
X008670Y010917D01*
X008670Y011015D02*
X008820Y011015D01*
X008820Y011114D02*
X008670Y011114D01*
X008670Y011212D02*
X008820Y011212D01*
X008310Y011212D02*
X007860Y011212D01*
X007860Y011114D02*
X008310Y011114D01*
X008310Y011015D02*
X007860Y011015D01*
X007860Y010917D02*
X008310Y010917D01*
X008310Y010818D02*
X007860Y010818D01*
X007860Y010720D02*
X008310Y010720D01*
X008310Y010621D02*
X007860Y010621D01*
X007860Y010523D02*
X008310Y010523D01*
X008310Y010424D02*
X007860Y010424D01*
X007860Y010326D02*
X008294Y010326D01*
X008234Y010227D02*
X007860Y010227D01*
X008073Y010129D02*
X008220Y010129D01*
X007260Y009735D02*
X007186Y009735D01*
X007260Y010621D02*
X004036Y010621D01*
X003428Y010523D02*
X003405Y010523D01*
X003472Y011705D02*
X004610Y011705D01*
X004708Y011803D02*
X003571Y011803D01*
X003661Y011902D02*
X004770Y011902D01*
X004797Y012000D02*
X003661Y012000D01*
X003442Y013675D02*
X006700Y013675D01*
X006798Y013773D02*
X003541Y013773D01*
X003639Y013872D02*
X006897Y013872D01*
X007320Y014660D02*
X003427Y014660D01*
X003526Y014758D02*
X007320Y014758D01*
X007320Y014857D02*
X003624Y014857D01*
X002010Y015645D02*
X001980Y015645D01*
X002481Y017713D02*
X002942Y017713D01*
X002843Y017812D02*
X002579Y017812D01*
X002661Y017910D02*
X002761Y017910D01*
X002640Y018304D02*
X002623Y018304D01*
X002668Y018403D02*
X002525Y018403D01*
X002426Y018501D02*
X002766Y018501D01*
X002865Y018600D02*
X000410Y018600D01*
X000410Y018698D02*
X001957Y018698D01*
X002025Y018630D02*
X001761Y018894D01*
X001761Y019266D01*
X002025Y019530D01*
X002397Y019530D01*
X002661Y019266D01*
X002661Y018894D01*
X002397Y018630D01*
X002025Y018630D01*
X001996Y018501D02*
X000410Y018501D01*
X000410Y018403D02*
X001897Y018403D01*
X001799Y018304D02*
X000410Y018304D01*
X000410Y018206D02*
X001761Y018206D01*
X001761Y018107D02*
X000410Y018107D01*
X000410Y018009D02*
X001761Y018009D01*
X001761Y017910D02*
X000410Y017910D01*
X000410Y017812D02*
X001843Y017812D01*
X001858Y018797D02*
X000410Y018797D01*
X000410Y018895D02*
X001761Y018895D01*
X001761Y018994D02*
X000410Y018994D01*
X000410Y019092D02*
X001761Y019092D01*
X001761Y019191D02*
X000410Y019191D01*
X000410Y019289D02*
X001784Y019289D01*
X001882Y019388D02*
X000410Y019388D01*
X000410Y019486D02*
X001981Y019486D01*
X002441Y019486D02*
X002981Y019486D01*
X002882Y019388D02*
X002540Y019388D01*
X002638Y019289D02*
X002784Y019289D01*
X002761Y019191D02*
X002661Y019191D01*
X002661Y019092D02*
X002761Y019092D01*
X002761Y018994D02*
X002661Y018994D01*
X002661Y018895D02*
X002761Y018895D01*
X002858Y018797D02*
X002564Y018797D01*
X002466Y018698D02*
X002957Y018698D01*
X007680Y014660D02*
X007946Y014660D01*
X007860Y013084D02*
X009522Y013084D01*
X009620Y012985D02*
X007860Y012985D01*
X007860Y012887D02*
X009719Y012887D01*
X009817Y012788D02*
X007860Y012788D01*
X007860Y012690D02*
X009428Y012690D01*
X009354Y012591D02*
X007860Y012591D01*
X007860Y012493D02*
X009330Y012493D01*
X009343Y012394D02*
X007860Y012394D01*
X007860Y012296D02*
X009403Y012296D01*
X009575Y012197D02*
X007860Y012197D01*
X007860Y012099D02*
X009437Y012099D01*
X009393Y012000D02*
X007860Y012000D01*
X007860Y011902D02*
X009390Y011902D01*
X009424Y011803D02*
X007860Y011803D01*
X007860Y011705D02*
X009523Y011705D01*
X010039Y012296D02*
X010290Y012296D01*
X010290Y012197D02*
X010138Y012197D01*
X010236Y012099D02*
X010290Y012099D01*
X010211Y012394D02*
X009941Y012394D01*
X009870Y012493D02*
X010113Y012493D01*
X010014Y012591D02*
X009846Y012591D01*
X009916Y012690D02*
X009772Y012690D01*
X010524Y012591D02*
X010529Y012591D01*
X012096Y010800D02*
X012096Y010800D01*
X014420Y012394D02*
X017310Y012394D01*
X017310Y012296D02*
X014461Y012296D01*
X014482Y012197D02*
X017310Y012197D01*
X017310Y012099D02*
X014482Y012099D01*
X014454Y012000D02*
X017310Y012000D01*
X019215Y006390D02*
X019320Y006285D01*
X019320Y006135D01*
X019215Y006030D01*
X001155Y006030D01*
X001050Y006135D01*
X001050Y006285D01*
X001155Y006390D01*
X019215Y006390D01*
X019219Y006386D02*
X019635Y006386D01*
X019635Y006287D02*
X019318Y006287D01*
X019320Y006189D02*
X019635Y006189D01*
X019635Y006090D02*
X019275Y006090D01*
X019635Y005992D02*
X000410Y005992D01*
X000410Y006090D02*
X001095Y006090D01*
X001050Y006189D02*
X000410Y006189D01*
X000410Y006287D02*
X001052Y006287D01*
X001151Y006386D02*
X000410Y006386D01*
X000410Y006484D02*
X002981Y006484D01*
X002883Y006583D02*
X000410Y006583D01*
X000410Y006681D02*
X001974Y006681D01*
X001875Y006780D02*
X000410Y006780D01*
X000410Y006878D02*
X001777Y006878D01*
X001761Y006977D02*
X000410Y006977D01*
X000410Y007075D02*
X001761Y007075D01*
X001761Y007174D02*
X000410Y007174D01*
X000410Y007272D02*
X001767Y007272D01*
X001865Y007371D02*
X000410Y007371D01*
X000410Y007469D02*
X001964Y007469D01*
X001989Y007666D02*
X000410Y007666D01*
X000410Y007568D02*
X002640Y007568D01*
X002640Y007666D02*
X002434Y007666D01*
X002532Y007765D02*
X002640Y007765D01*
X002631Y007863D02*
X002640Y007863D01*
X003000Y007655D02*
X003025Y007630D01*
X003060Y007630D01*
X003060Y007545D01*
X003075Y007530D01*
X003025Y007530D01*
X003000Y007505D01*
X003000Y007655D01*
X003000Y007568D02*
X003060Y007568D01*
X002640Y007469D02*
X002458Y007469D01*
X002557Y007371D02*
X002640Y007371D01*
X002686Y006780D02*
X002547Y006780D01*
X002449Y006681D02*
X002784Y006681D01*
X001890Y007765D02*
X000410Y007765D01*
X000410Y007863D02*
X001792Y007863D01*
X001761Y007962D02*
X000410Y007962D01*
X000410Y008060D02*
X001761Y008060D01*
X001761Y008159D02*
X000410Y008159D01*
X000410Y008257D02*
X001761Y008257D01*
X001850Y008356D02*
X000410Y008356D01*
X000410Y008454D02*
X001949Y008454D01*
X002473Y008454D02*
X002640Y008454D01*
X002640Y008356D02*
X002572Y008356D01*
X000410Y005893D02*
X019635Y005893D01*
X019635Y005795D02*
X000410Y005795D01*
X000410Y005696D02*
X019635Y005696D01*
X019635Y005598D02*
X000410Y005598D01*
X000410Y005499D02*
X019635Y005499D01*
X019635Y005401D02*
X000410Y005401D01*
X000410Y005302D02*
X019635Y005302D01*
X019635Y005204D02*
X000410Y005204D01*
X000410Y005105D02*
X019635Y005105D01*
X019635Y005007D02*
X000410Y005007D01*
X000410Y004908D02*
X019635Y004908D01*
X019635Y004810D02*
X000410Y004810D01*
X000410Y004711D02*
X019635Y004711D01*
X019635Y004613D02*
X000410Y004613D01*
X000410Y004514D02*
X019635Y004514D01*
X019635Y004416D02*
X000410Y004416D01*
X000410Y004317D02*
X019635Y004317D01*
X019635Y004219D02*
X000410Y004219D01*
X000410Y004120D02*
X019635Y004120D01*
X019635Y004022D02*
X000410Y004022D01*
X000410Y003923D02*
X019635Y003923D01*
X019635Y003825D02*
X000410Y003825D01*
X000410Y003726D02*
X019635Y003726D01*
X019635Y003628D02*
X000410Y003628D01*
X000410Y003529D02*
X019635Y003529D01*
X019635Y003431D02*
X000410Y003431D01*
X000410Y003332D02*
X019635Y003332D01*
X019635Y003234D02*
X000410Y003234D01*
X000410Y003135D02*
X019635Y003135D01*
X019635Y003037D02*
X000410Y003037D01*
X000410Y002938D02*
X019635Y002938D01*
X019635Y002840D02*
X000410Y002840D01*
X000410Y002741D02*
X019635Y002741D01*
X019635Y002643D02*
X000410Y002643D01*
X000410Y002544D02*
X019635Y002544D01*
X019635Y002446D02*
X000410Y002446D01*
X000410Y002347D02*
X019635Y002347D01*
X019635Y002249D02*
X000410Y002249D01*
X000410Y002150D02*
X019635Y002150D01*
X019635Y002052D02*
X000410Y002052D01*
X000410Y001953D02*
X019635Y001953D01*
X019635Y001855D02*
X000410Y001855D01*
X000410Y001756D02*
X019635Y001756D01*
X019635Y001658D02*
X000410Y001658D01*
X000410Y001559D02*
X019635Y001559D01*
X019635Y001461D02*
X000410Y001461D01*
X000410Y001362D02*
X019635Y001362D01*
X019635Y001264D02*
X000410Y001264D01*
X000410Y001165D02*
X019635Y001165D01*
X019635Y001067D02*
X000410Y001067D01*
X000410Y000968D02*
X019635Y000968D01*
X019635Y000870D02*
X000410Y000870D01*
X000410Y000771D02*
X019635Y000771D01*
X019635Y000673D02*
X000410Y000673D01*
X000410Y000574D02*
X019635Y000574D01*
X019635Y000476D02*
X000410Y000476D01*
X007150Y010720D02*
X007206Y010720D01*
X007380Y011442D02*
X007380Y011565D01*
X007204Y011742D01*
X007124Y011709D01*
X006946Y011709D01*
X006782Y011777D01*
X006780Y011779D01*
X006780Y011655D01*
X006866Y011569D01*
X006946Y011602D01*
X007124Y011602D01*
X007288Y011534D01*
X007380Y011442D01*
X007380Y011508D02*
X007315Y011508D01*
X007339Y011606D02*
X006829Y011606D01*
X006780Y011705D02*
X007241Y011705D01*
X007455Y012000D02*
X007500Y012000D01*
X007500Y012099D02*
X007482Y012099D01*
X007482Y012197D02*
X007500Y012197D01*
X007500Y012296D02*
X007461Y012296D01*
X007500Y012394D02*
X007420Y012394D01*
X007500Y012493D02*
X007330Y012493D01*
X007260Y012591D02*
X007500Y012591D01*
X007860Y011606D02*
X008381Y011606D01*
X008310Y011508D02*
X007860Y011508D01*
X007860Y011409D02*
X008310Y011409D01*
X008310Y011311D02*
X007860Y011311D01*
X001965Y012690D02*
X000410Y012690D01*
X000410Y012788D02*
X001867Y012788D01*
X001768Y012887D02*
X000410Y012887D01*
X000410Y012985D02*
X001761Y012985D01*
X001761Y013084D02*
X000410Y013084D01*
X000410Y013182D02*
X001761Y013182D01*
X001775Y013281D02*
X000410Y013281D01*
X000410Y013379D02*
X001874Y013379D01*
M02*
