G75*
G70*
%OFA0B0*%
%FSLAX24Y24*%
%IPPOS*%
%LPD*%
%AMOC8*
5,1,8,0,0,1.08239X$1,22.5*
%
%ADD10C,0.0594*%
%ADD11R,0.0984X0.0866*%
%ADD12R,0.0197X0.0787*%
%ADD13OC8,0.0600*%
%ADD14R,0.0600X0.0600*%
%ADD15C,0.0060*%
%ADD16C,0.0240*%
%ADD17C,0.0070*%
%ADD18C,0.0160*%
D10*
X006341Y002250D03*
X006341Y003250D03*
X006341Y004250D03*
X006341Y005250D03*
X006341Y006250D03*
X006341Y007250D03*
X013341Y007250D03*
X013341Y006250D03*
X013341Y005250D03*
X013341Y004250D03*
X013341Y003250D03*
X013341Y002250D03*
D11*
X014158Y010475D03*
X014158Y012562D03*
X017465Y012562D03*
X017465Y010475D03*
D12*
X016442Y010377D03*
X016127Y010377D03*
X015812Y010377D03*
X015497Y010377D03*
X015182Y010377D03*
D13*
X017066Y005134D03*
X017066Y004134D03*
X017066Y003134D03*
X017066Y002134D03*
X017066Y001134D03*
X002517Y001174D03*
X001517Y001174D03*
X001517Y002174D03*
X002517Y002174D03*
X002517Y003174D03*
X001517Y003174D03*
X001517Y004174D03*
X002517Y004174D03*
X002517Y005174D03*
X001517Y005174D03*
X001517Y006174D03*
X002517Y006174D03*
X002517Y007174D03*
X001517Y007174D03*
X001517Y008174D03*
X002517Y008174D03*
X002517Y009174D03*
X001517Y009174D03*
X001517Y010174D03*
X002517Y010174D03*
X002517Y011174D03*
X001517Y011174D03*
X001517Y012174D03*
X002517Y012174D03*
X002517Y013174D03*
X001517Y013174D03*
D14*
X017066Y006134D03*
D15*
X017066Y006094D01*
X016826Y005854D01*
X013166Y005854D01*
X012746Y006274D01*
X006986Y006274D01*
X006566Y005854D01*
X006206Y005854D01*
X006086Y005734D01*
X001946Y005734D01*
X001526Y006154D01*
X001517Y006174D01*
X000986Y006754D02*
X002066Y006754D01*
X002486Y007174D01*
X002517Y007174D01*
X002066Y007594D02*
X006026Y007594D01*
X006326Y007294D01*
X006341Y007250D01*
X006386Y007234D01*
X013286Y007234D01*
X013341Y007250D01*
X013346Y007294D01*
X016406Y007294D01*
X017606Y007294D01*
X017606Y004714D01*
X017066Y004174D01*
X017066Y004134D01*
X017066Y005134D02*
X016526Y005674D01*
X006806Y005674D01*
X006386Y005254D01*
X006341Y005250D01*
X006206Y005674D02*
X005726Y005194D01*
X002546Y005194D01*
X002517Y005174D01*
X001346Y004774D02*
X000986Y005134D01*
X000986Y006754D01*
X002066Y007594D02*
X001526Y008134D01*
X001517Y008174D01*
X002517Y008174D02*
X002546Y008134D01*
X006326Y008134D01*
X006986Y007474D01*
X008186Y008854D02*
X007886Y009154D01*
X002546Y009154D01*
X002517Y009174D01*
X001886Y009574D02*
X001526Y009214D01*
X001517Y009174D01*
X001886Y009574D02*
X007646Y009574D01*
X007706Y009634D01*
X007886Y009634D01*
X008186Y009934D01*
X009686Y008434D01*
X014396Y008434D01*
X016406Y007294D02*
X016406Y010354D01*
X016442Y010377D01*
X015182Y010377D02*
X015146Y010354D01*
X011366Y008674D02*
X007166Y012874D01*
X006686Y012874D01*
X006866Y012154D02*
X005966Y012154D01*
X006866Y012154D02*
X009806Y009214D01*
X008786Y009934D02*
X007586Y011134D01*
X002546Y011134D01*
X002517Y011174D01*
X002517Y010174D02*
X008246Y010174D01*
X008486Y009934D01*
X009746Y006814D02*
X003146Y006814D01*
X002546Y006214D01*
X002517Y006174D01*
X004346Y005974D02*
X005066Y006694D01*
X008786Y006694D01*
X008906Y006574D01*
X008966Y006034D02*
X008726Y005794D01*
X006686Y005794D01*
X006566Y005674D01*
X006206Y005674D01*
X006446Y004774D02*
X001346Y004774D01*
X001517Y003174D02*
X001466Y003154D01*
X000926Y002614D01*
X000926Y000634D01*
X010706Y000634D01*
X011786Y001714D01*
X016646Y001714D01*
X017066Y002134D01*
X014006Y002194D02*
X014006Y005194D01*
X013346Y005194D01*
X013341Y005250D01*
X013526Y004654D02*
X013886Y004294D01*
X013886Y002254D01*
X013346Y002254D01*
X013341Y002250D01*
X013046Y001954D02*
X013166Y001834D01*
X013646Y001834D01*
X014006Y002194D01*
X013526Y002854D02*
X013766Y003094D01*
X013766Y004234D01*
X013346Y004234D01*
X013341Y004250D01*
X013526Y004654D02*
X008846Y004654D01*
X008576Y004834D01*
X008576Y005134D02*
X008876Y005434D01*
X012626Y005434D01*
X012986Y003574D02*
X013286Y003274D01*
X013341Y003250D01*
X012986Y003574D02*
X009326Y003574D01*
X008666Y004234D01*
X008546Y004474D02*
X008246Y004474D01*
X008066Y004294D01*
X008066Y002254D01*
X006386Y002254D01*
X006341Y002250D01*
X006341Y003250D02*
X006386Y003274D01*
X007796Y003274D01*
X007796Y004234D01*
X008306Y004234D02*
X010586Y001954D01*
X013046Y001954D01*
X013526Y002854D02*
X010526Y002854D01*
X010046Y003334D01*
X008606Y004534D02*
X008546Y004474D01*
X007226Y003994D02*
X006446Y004774D01*
X009746Y006814D02*
X010046Y006514D01*
X011426Y001774D02*
X001886Y001774D01*
X001526Y002134D01*
X001517Y002174D01*
X001526Y001174D02*
X001517Y001174D01*
X001526Y001174D02*
X001946Y000754D01*
X010526Y000754D01*
X011246Y001474D01*
X011486Y001714D02*
X011426Y001774D01*
D16*
X011486Y001714D03*
X011246Y001474D03*
X011786Y001714D03*
X010046Y003334D03*
X008666Y004234D03*
X008606Y004534D03*
X008576Y004834D03*
X008576Y005134D03*
X008306Y004234D03*
X007796Y004234D03*
X007226Y003994D03*
X008966Y006034D03*
X008906Y006574D03*
X010046Y006514D03*
X012626Y005434D03*
X011366Y008674D03*
X009806Y009214D03*
X008786Y009934D03*
X008486Y009934D03*
X008186Y009934D03*
X007706Y009634D03*
X008186Y008854D03*
X006986Y007474D03*
X004346Y005974D03*
X005966Y012154D03*
X006686Y012874D03*
D17*
X014396Y008434D02*
X014576Y008434D01*
X015176Y009034D01*
X015176Y010371D01*
X015182Y010377D01*
D18*
X000533Y013896D02*
X000533Y000440D01*
X018714Y000440D01*
X018714Y013896D01*
X000533Y013896D01*
X000533Y013811D02*
X014216Y013811D01*
X014216Y013815D02*
X014216Y013135D01*
X013608Y013135D01*
X013526Y013053D01*
X013526Y012071D01*
X013608Y011989D01*
X014216Y011989D01*
X014216Y011407D01*
X014263Y011360D01*
X015003Y011360D01*
X015003Y010888D01*
X014943Y010828D01*
X014943Y009925D01*
X015001Y009868D01*
X015001Y009107D01*
X014503Y008609D01*
X014323Y008609D01*
X014318Y008604D01*
X011618Y008604D01*
X011626Y008623D01*
X011626Y008726D01*
X011586Y008822D01*
X011513Y008895D01*
X011417Y008934D01*
X011346Y008934D01*
X007336Y012945D01*
X007236Y013044D01*
X006883Y013044D01*
X006833Y013095D01*
X006737Y013134D01*
X006634Y013134D01*
X006538Y013095D01*
X006465Y013022D01*
X006426Y012926D01*
X006426Y012823D01*
X006465Y012727D01*
X006538Y012654D01*
X006634Y012614D01*
X006737Y012614D01*
X006833Y012654D01*
X006883Y012704D01*
X007095Y012704D01*
X011106Y008694D01*
X011106Y008623D01*
X011113Y008604D01*
X009756Y008604D01*
X008652Y009708D01*
X008734Y009674D01*
X008837Y009674D01*
X008933Y009714D01*
X008999Y009780D01*
X009546Y009234D01*
X009546Y009163D01*
X009585Y009067D01*
X009658Y008994D01*
X009754Y008954D01*
X009857Y008954D01*
X009953Y008994D01*
X010026Y009067D01*
X010066Y009163D01*
X010066Y009266D01*
X010026Y009362D01*
X009953Y009435D01*
X009857Y009474D01*
X009786Y009474D01*
X007036Y012225D01*
X006936Y012324D01*
X006163Y012324D01*
X006113Y012375D01*
X006017Y012414D01*
X005914Y012414D01*
X005818Y012375D01*
X005745Y012302D01*
X005706Y012206D01*
X005706Y012103D01*
X005745Y012007D01*
X005818Y011934D01*
X005914Y011894D01*
X006017Y011894D01*
X006113Y011934D01*
X006163Y011984D01*
X006795Y011984D01*
X007475Y011304D01*
X002957Y011304D01*
X002957Y011357D01*
X002699Y011614D01*
X002334Y011614D01*
X002077Y011357D01*
X002077Y010992D01*
X002334Y010734D01*
X002699Y010734D01*
X002929Y010964D01*
X007515Y010964D01*
X008135Y010344D01*
X002957Y010344D01*
X002957Y010357D01*
X002699Y010614D01*
X002334Y010614D01*
X002077Y010357D01*
X002077Y009992D01*
X002324Y009744D01*
X001815Y009744D01*
X001685Y009614D01*
X001334Y009614D01*
X001077Y009357D01*
X001077Y008992D01*
X001334Y008734D01*
X001699Y008734D01*
X001957Y008992D01*
X001957Y009357D01*
X001932Y009381D01*
X001956Y009404D01*
X002124Y009404D01*
X002077Y009357D01*
X002077Y008992D01*
X002334Y008734D01*
X002699Y008734D01*
X002949Y008984D01*
X007815Y008984D01*
X007926Y008874D01*
X007926Y008803D01*
X007965Y008707D01*
X008038Y008634D01*
X008134Y008594D01*
X008237Y008594D01*
X008333Y008634D01*
X008406Y008707D01*
X008446Y008803D01*
X008446Y008906D01*
X008406Y009002D01*
X008333Y009075D01*
X008237Y009114D01*
X008166Y009114D01*
X008056Y009225D01*
X007956Y009324D01*
X002957Y009324D01*
X002957Y009357D01*
X002909Y009404D01*
X007581Y009404D01*
X007654Y009374D01*
X007757Y009374D01*
X007853Y009414D01*
X007903Y009464D01*
X007956Y009464D01*
X008166Y009674D01*
X008205Y009674D01*
X009615Y008264D01*
X014318Y008264D01*
X014323Y008259D01*
X014648Y008259D01*
X015248Y008859D01*
X015351Y008962D01*
X015351Y009843D01*
X015653Y009843D01*
X015654Y009844D01*
X015655Y009843D01*
X015968Y009843D01*
X015969Y009844D01*
X015970Y009843D01*
X016236Y009843D01*
X016236Y007464D01*
X013725Y007464D01*
X013711Y007497D01*
X013588Y007620D01*
X013427Y007687D01*
X013254Y007687D01*
X013093Y007620D01*
X012970Y007497D01*
X012932Y007404D01*
X007238Y007404D01*
X007246Y007423D01*
X007246Y007526D01*
X007206Y007622D01*
X007133Y007695D01*
X007037Y007734D01*
X006966Y007734D01*
X006496Y008205D01*
X006396Y008304D01*
X002957Y008304D01*
X002957Y008357D01*
X002699Y008614D01*
X002334Y008614D01*
X002077Y008357D01*
X002077Y007992D01*
X002304Y007764D01*
X002136Y007764D01*
X001932Y007968D01*
X001957Y007992D01*
X001957Y008357D01*
X001699Y008614D01*
X001334Y008614D01*
X001077Y008357D01*
X001077Y007992D01*
X001334Y007734D01*
X001685Y007734D01*
X001896Y007524D01*
X001995Y007424D01*
X002144Y007424D01*
X002077Y007357D01*
X002077Y007006D01*
X001995Y006924D01*
X001889Y006924D01*
X001957Y006992D01*
X001957Y007357D01*
X001699Y007614D01*
X001334Y007614D01*
X001077Y007357D01*
X001077Y006992D01*
X001144Y006924D01*
X000915Y006924D01*
X000816Y006825D01*
X000816Y005064D01*
X000915Y004964D01*
X001275Y004604D01*
X001324Y004604D01*
X001077Y004357D01*
X001077Y003992D01*
X001334Y003734D01*
X001699Y003734D01*
X001957Y003992D01*
X001957Y004357D01*
X001709Y004604D01*
X002324Y004604D01*
X002077Y004357D01*
X002077Y003992D01*
X002334Y003734D01*
X002699Y003734D01*
X002957Y003992D01*
X002957Y004357D01*
X002709Y004604D01*
X006077Y004604D01*
X005970Y004497D01*
X005904Y004337D01*
X005904Y004163D01*
X005970Y004003D01*
X006093Y003880D01*
X006254Y003813D01*
X006427Y003813D01*
X006588Y003880D01*
X006711Y004003D01*
X006777Y004163D01*
X006777Y004202D01*
X006966Y004014D01*
X006966Y003943D01*
X007005Y003847D01*
X007078Y003774D01*
X007174Y003734D01*
X007277Y003734D01*
X007373Y003774D01*
X007446Y003847D01*
X007486Y003943D01*
X007486Y004046D01*
X007446Y004142D01*
X007373Y004215D01*
X007277Y004254D01*
X007206Y004254D01*
X006616Y004845D01*
X006583Y004878D01*
X006588Y004880D01*
X006711Y005003D01*
X006777Y005163D01*
X006777Y005337D01*
X006757Y005386D01*
X006876Y005504D01*
X008705Y005504D01*
X008595Y005394D01*
X008524Y005394D01*
X008428Y005355D01*
X008355Y005282D01*
X008316Y005186D01*
X008316Y005083D01*
X008355Y004987D01*
X008358Y004984D01*
X008355Y004982D01*
X008316Y004886D01*
X008316Y004783D01*
X008355Y004687D01*
X008378Y004664D01*
X008370Y004644D01*
X008175Y004644D01*
X007995Y004464D01*
X007964Y004434D01*
X007943Y004455D01*
X007847Y004494D01*
X007744Y004494D01*
X007648Y004455D01*
X007575Y004382D01*
X007536Y004286D01*
X007536Y004183D01*
X007575Y004087D01*
X007626Y004037D01*
X007626Y003444D01*
X006733Y003444D01*
X006711Y003497D01*
X006588Y003620D01*
X006427Y003687D01*
X006254Y003687D01*
X006093Y003620D01*
X005970Y003497D01*
X005904Y003337D01*
X005904Y003163D01*
X005970Y003003D01*
X006093Y002880D01*
X006254Y002813D01*
X006427Y002813D01*
X006588Y002880D01*
X006711Y003003D01*
X006753Y003104D01*
X007866Y003104D01*
X007896Y003134D01*
X007896Y002424D01*
X006741Y002424D01*
X006711Y002497D01*
X006588Y002620D01*
X006427Y002687D01*
X006254Y002687D01*
X006093Y002620D01*
X005970Y002497D01*
X005904Y002337D01*
X005904Y002163D01*
X005970Y002003D01*
X006028Y001944D01*
X002909Y001944D01*
X002957Y001992D01*
X002957Y002357D01*
X002699Y002614D01*
X002334Y002614D01*
X002077Y002357D01*
X002077Y001992D01*
X002124Y001944D01*
X001956Y001944D01*
X001932Y001968D01*
X001957Y001992D01*
X001957Y002357D01*
X001699Y002614D01*
X001334Y002614D01*
X001096Y002376D01*
X001096Y002544D01*
X001310Y002759D01*
X001334Y002734D01*
X001699Y002734D01*
X001957Y002992D01*
X001957Y003357D01*
X001699Y003614D01*
X001334Y003614D01*
X001077Y003357D01*
X001077Y003006D01*
X000855Y002784D01*
X000756Y002685D01*
X000756Y000564D01*
X000855Y000464D01*
X010776Y000464D01*
X011766Y001454D01*
X011837Y001454D01*
X011933Y001494D01*
X011983Y001544D01*
X016716Y001544D01*
X016875Y001703D01*
X016883Y001694D01*
X017248Y001694D01*
X017506Y001952D01*
X017506Y002317D01*
X017248Y002574D01*
X016883Y002574D01*
X016626Y002317D01*
X016626Y001952D01*
X016634Y001944D01*
X016575Y001884D01*
X013936Y001884D01*
X014076Y002024D01*
X014176Y002124D01*
X014176Y005265D01*
X014076Y005364D01*
X013766Y005364D01*
X013711Y005497D01*
X013704Y005504D01*
X016455Y005504D01*
X016634Y005325D01*
X016626Y005317D01*
X016626Y004952D01*
X016883Y004694D01*
X017248Y004694D01*
X017436Y004882D01*
X017436Y004785D01*
X017225Y004574D01*
X016883Y004574D01*
X016626Y004317D01*
X016626Y003952D01*
X016883Y003694D01*
X017248Y003694D01*
X017506Y003952D01*
X017506Y004317D01*
X017477Y004345D01*
X017676Y004544D01*
X017776Y004644D01*
X017776Y007365D01*
X017676Y007464D01*
X016576Y007464D01*
X016576Y009843D01*
X016598Y009843D01*
X016680Y009925D01*
X016680Y010828D01*
X016620Y010888D01*
X016620Y011360D01*
X017361Y011360D01*
X017407Y011407D01*
X017407Y011989D01*
X018015Y011989D01*
X018097Y012071D01*
X018097Y013053D01*
X018015Y013135D01*
X017407Y013135D01*
X017407Y013815D01*
X017361Y013862D01*
X014263Y013862D01*
X014216Y013815D01*
X014216Y013653D02*
X000533Y013653D01*
X000533Y013494D02*
X001214Y013494D01*
X001334Y013614D02*
X001077Y013357D01*
X001077Y012992D01*
X001334Y012734D01*
X001699Y012734D01*
X001957Y012992D01*
X001957Y013357D01*
X001699Y013614D01*
X001334Y013614D01*
X001077Y013336D02*
X000533Y013336D01*
X000533Y013177D02*
X001077Y013177D01*
X001077Y013019D02*
X000533Y013019D01*
X000533Y012860D02*
X001209Y012860D01*
X001334Y012614D02*
X001077Y012357D01*
X001077Y011992D01*
X001334Y011734D01*
X001699Y011734D01*
X001957Y011992D01*
X001957Y012357D01*
X001699Y012614D01*
X001334Y012614D01*
X001263Y012543D02*
X000533Y012543D01*
X000533Y012385D02*
X001104Y012385D01*
X001077Y012226D02*
X000533Y012226D01*
X000533Y012068D02*
X001077Y012068D01*
X001160Y011909D02*
X000533Y011909D01*
X000533Y011751D02*
X001318Y011751D01*
X001334Y011614D02*
X001077Y011357D01*
X001077Y010992D01*
X001334Y010734D01*
X001699Y010734D01*
X001957Y010992D01*
X001957Y011357D01*
X001699Y011614D01*
X001334Y011614D01*
X001312Y011592D02*
X000533Y011592D01*
X000533Y011434D02*
X001153Y011434D01*
X001077Y011275D02*
X000533Y011275D01*
X000533Y011117D02*
X001077Y011117D01*
X001111Y010958D02*
X000533Y010958D01*
X000533Y010800D02*
X001269Y010800D01*
X001334Y010614D02*
X001077Y010357D01*
X001077Y009992D01*
X001334Y009734D01*
X001699Y009734D01*
X001957Y009992D01*
X001957Y010357D01*
X001699Y010614D01*
X001334Y010614D01*
X001202Y010483D02*
X000533Y010483D01*
X000533Y010641D02*
X007839Y010641D01*
X007997Y010483D02*
X002831Y010483D01*
X002764Y010800D02*
X007680Y010800D01*
X007522Y010958D02*
X002922Y010958D01*
X002880Y011434D02*
X007346Y011434D01*
X007188Y011592D02*
X002721Y011592D01*
X002699Y011734D02*
X002957Y011992D01*
X002957Y012357D01*
X002699Y012614D01*
X002334Y012614D01*
X002077Y012357D01*
X002077Y011992D01*
X002334Y011734D01*
X002699Y011734D01*
X002715Y011751D02*
X007029Y011751D01*
X006871Y011909D02*
X006052Y011909D01*
X005879Y011909D02*
X002873Y011909D01*
X002957Y012068D02*
X005720Y012068D01*
X005714Y012226D02*
X002957Y012226D01*
X002929Y012385D02*
X005841Y012385D01*
X006090Y012385D02*
X007415Y012385D01*
X007257Y012543D02*
X002770Y012543D01*
X002699Y012734D02*
X002957Y012992D01*
X002957Y013357D01*
X002699Y013614D01*
X002334Y013614D01*
X002077Y013357D01*
X002077Y012992D01*
X002334Y012734D01*
X002699Y012734D01*
X002824Y012860D02*
X006426Y012860D01*
X006464Y013019D02*
X002957Y013019D01*
X002957Y013177D02*
X014216Y013177D01*
X014216Y013336D02*
X002957Y013336D01*
X002819Y013494D02*
X014216Y013494D01*
X013526Y013019D02*
X007262Y013019D01*
X007420Y012860D02*
X013526Y012860D01*
X013526Y012702D02*
X007579Y012702D01*
X007737Y012543D02*
X013526Y012543D01*
X013526Y012385D02*
X007896Y012385D01*
X008054Y012226D02*
X013526Y012226D01*
X013529Y012068D02*
X008213Y012068D01*
X008371Y011909D02*
X014216Y011909D01*
X014216Y011751D02*
X008530Y011751D01*
X008688Y011592D02*
X014216Y011592D01*
X014216Y011434D02*
X008847Y011434D01*
X009005Y011275D02*
X015003Y011275D01*
X015003Y011117D02*
X009164Y011117D01*
X009322Y010958D02*
X013526Y010958D01*
X013526Y010966D02*
X013526Y009984D01*
X013608Y009902D01*
X014708Y009902D01*
X014790Y009984D01*
X014790Y010966D01*
X014708Y011048D01*
X013608Y011048D01*
X013526Y010966D01*
X013526Y010800D02*
X009481Y010800D01*
X009639Y010641D02*
X013526Y010641D01*
X013526Y010483D02*
X009798Y010483D01*
X009956Y010324D02*
X013526Y010324D01*
X013526Y010166D02*
X010115Y010166D01*
X010273Y010007D02*
X013526Y010007D01*
X014790Y010007D02*
X014943Y010007D01*
X014943Y010166D02*
X014790Y010166D01*
X014790Y010324D02*
X014943Y010324D01*
X014943Y010483D02*
X014790Y010483D01*
X014790Y010641D02*
X014943Y010641D01*
X014943Y010800D02*
X014790Y010800D01*
X014790Y010958D02*
X015003Y010958D01*
X015001Y009849D02*
X010432Y009849D01*
X010590Y009690D02*
X015001Y009690D01*
X015001Y009532D02*
X010749Y009532D01*
X010907Y009373D02*
X015001Y009373D01*
X015001Y009215D02*
X011066Y009215D01*
X011224Y009056D02*
X014950Y009056D01*
X014791Y008898D02*
X011507Y008898D01*
X011620Y008739D02*
X014633Y008739D01*
X014811Y008422D02*
X016236Y008422D01*
X016236Y008264D02*
X014652Y008264D01*
X014319Y008264D02*
X006437Y008264D01*
X006595Y008105D02*
X016236Y008105D01*
X016236Y007947D02*
X006754Y007947D01*
X006912Y007788D02*
X016236Y007788D01*
X016236Y007630D02*
X013566Y007630D01*
X013722Y007471D02*
X016236Y007471D01*
X016576Y007471D02*
X018714Y007471D01*
X018714Y007313D02*
X017776Y007313D01*
X017776Y007154D02*
X018714Y007154D01*
X018714Y006996D02*
X017776Y006996D01*
X017776Y006837D02*
X018714Y006837D01*
X018714Y006679D02*
X017776Y006679D01*
X017776Y006520D02*
X018714Y006520D01*
X018714Y006362D02*
X017776Y006362D01*
X017776Y006203D02*
X018714Y006203D01*
X018714Y006045D02*
X017776Y006045D01*
X017776Y005886D02*
X018714Y005886D01*
X018714Y005728D02*
X017776Y005728D01*
X017776Y005569D02*
X018714Y005569D01*
X018714Y005411D02*
X017776Y005411D01*
X017776Y005252D02*
X018714Y005252D01*
X018714Y005094D02*
X017776Y005094D01*
X017776Y004935D02*
X018714Y004935D01*
X018714Y004777D02*
X017776Y004777D01*
X017749Y004618D02*
X018714Y004618D01*
X018714Y004460D02*
X017591Y004460D01*
X017506Y004301D02*
X018714Y004301D01*
X018714Y004143D02*
X017506Y004143D01*
X017506Y003984D02*
X018714Y003984D01*
X018714Y003826D02*
X017379Y003826D01*
X017248Y003574D02*
X016883Y003574D01*
X016626Y003317D01*
X016626Y002952D01*
X016883Y002694D01*
X017248Y002694D01*
X017506Y002952D01*
X017506Y003317D01*
X017248Y003574D01*
X017314Y003509D02*
X018714Y003509D01*
X018714Y003667D02*
X014176Y003667D01*
X014176Y003509D02*
X016817Y003509D01*
X016659Y003350D02*
X014176Y003350D01*
X014176Y003192D02*
X016626Y003192D01*
X016626Y003033D02*
X014176Y003033D01*
X014176Y002875D02*
X016703Y002875D01*
X016862Y002716D02*
X014176Y002716D01*
X014176Y002558D02*
X016866Y002558D01*
X016708Y002399D02*
X014176Y002399D01*
X014176Y002241D02*
X016626Y002241D01*
X016626Y002082D02*
X014133Y002082D01*
X013975Y001924D02*
X016614Y001924D01*
X016778Y001607D02*
X018714Y001607D01*
X018714Y001765D02*
X017318Y001765D01*
X017477Y001924D02*
X018714Y001924D01*
X018714Y002082D02*
X017506Y002082D01*
X017506Y002241D02*
X018714Y002241D01*
X018714Y002399D02*
X017423Y002399D01*
X017265Y002558D02*
X018714Y002558D01*
X018714Y002716D02*
X017269Y002716D01*
X017428Y002875D02*
X018714Y002875D01*
X018714Y003033D02*
X017506Y003033D01*
X017506Y003192D02*
X018714Y003192D01*
X018714Y003350D02*
X017472Y003350D01*
X016752Y003826D02*
X014176Y003826D01*
X014176Y003984D02*
X016626Y003984D01*
X016626Y004143D02*
X014176Y004143D01*
X014176Y004301D02*
X016626Y004301D01*
X016768Y004460D02*
X014176Y004460D01*
X014176Y004618D02*
X017269Y004618D01*
X017330Y004777D02*
X017427Y004777D01*
X016801Y004777D02*
X014176Y004777D01*
X014176Y004935D02*
X016643Y004935D01*
X016626Y005094D02*
X014176Y005094D01*
X014176Y005252D02*
X016626Y005252D01*
X016549Y005411D02*
X013747Y005411D01*
X013720Y005024D02*
X013836Y005024D01*
X013836Y004585D01*
X013596Y004824D01*
X013455Y004824D01*
X013588Y004880D01*
X013711Y005003D01*
X013720Y005024D01*
X013643Y004935D02*
X013836Y004935D01*
X013836Y004777D02*
X013644Y004777D01*
X013802Y004618D02*
X013836Y004618D01*
X013226Y004824D02*
X008897Y004824D01*
X008836Y004865D01*
X008836Y004886D01*
X008796Y004982D01*
X008793Y004984D01*
X008796Y004987D01*
X008836Y005083D01*
X008836Y005154D01*
X008946Y005264D01*
X012428Y005264D01*
X012478Y005214D01*
X012574Y005174D01*
X012677Y005174D01*
X012773Y005214D01*
X012846Y005287D01*
X012886Y005383D01*
X012886Y005486D01*
X012878Y005504D01*
X012977Y005504D01*
X012970Y005497D01*
X012904Y005337D01*
X012904Y005163D01*
X012970Y005003D01*
X013093Y004880D01*
X013226Y004824D01*
X013038Y004935D02*
X008815Y004935D01*
X008836Y005094D02*
X012933Y005094D01*
X012904Y005252D02*
X012811Y005252D01*
X012886Y005411D02*
X012934Y005411D01*
X012935Y005844D02*
X009143Y005844D01*
X009186Y005887D01*
X009226Y005983D01*
X009226Y006086D01*
X009218Y006104D01*
X012675Y006104D01*
X012935Y005844D01*
X012894Y005886D02*
X009185Y005886D01*
X009226Y006045D02*
X012735Y006045D01*
X012910Y006351D02*
X012816Y006444D01*
X010298Y006444D01*
X010306Y006463D01*
X010306Y006566D01*
X010266Y006662D01*
X010193Y006735D01*
X010097Y006774D01*
X010026Y006774D01*
X009916Y006885D01*
X009816Y006984D01*
X006693Y006984D01*
X006711Y007003D01*
X006737Y007064D01*
X012945Y007064D01*
X012970Y007003D01*
X013093Y006880D01*
X013254Y006813D01*
X013427Y006813D01*
X013588Y006880D01*
X013711Y007003D01*
X013761Y007124D01*
X017436Y007124D01*
X017436Y006562D01*
X017424Y006574D01*
X016708Y006574D01*
X016626Y006492D01*
X016626Y006024D01*
X013720Y006024D01*
X013777Y006163D01*
X013777Y006337D01*
X013711Y006497D01*
X013588Y006620D01*
X013427Y006687D01*
X013254Y006687D01*
X013093Y006620D01*
X012970Y006497D01*
X012910Y006351D01*
X012914Y006362D02*
X012899Y006362D01*
X012993Y006520D02*
X010306Y006520D01*
X010249Y006679D02*
X013234Y006679D01*
X013196Y006837D02*
X009963Y006837D01*
X009675Y006644D02*
X009786Y006534D01*
X009786Y006463D01*
X009793Y006444D01*
X009133Y006444D01*
X009166Y006523D01*
X009166Y006626D01*
X009158Y006644D01*
X009675Y006644D01*
X009786Y006520D02*
X009164Y006520D01*
X008678Y006444D02*
X006915Y006444D01*
X006816Y006345D01*
X006777Y006307D01*
X006777Y006337D01*
X006711Y006497D01*
X006684Y006524D01*
X008646Y006524D01*
X008646Y006523D01*
X008678Y006444D01*
X008647Y006520D02*
X006688Y006520D01*
X006767Y006362D02*
X006832Y006362D01*
X006816Y006345D02*
X006816Y006345D01*
X007056Y006104D02*
X008713Y006104D01*
X008706Y006086D01*
X008706Y006015D01*
X008655Y005964D01*
X006916Y005964D01*
X007056Y006104D01*
X006996Y006045D02*
X008706Y006045D01*
X008611Y005411D02*
X006782Y005411D01*
X006777Y005252D02*
X008343Y005252D01*
X008316Y005094D02*
X006749Y005094D01*
X006643Y004935D02*
X008336Y004935D01*
X008318Y004777D02*
X006684Y004777D01*
X006842Y004618D02*
X008149Y004618D01*
X007990Y004460D02*
X007932Y004460D01*
X007659Y004460D02*
X007001Y004460D01*
X007159Y004301D02*
X007542Y004301D01*
X007552Y004143D02*
X007445Y004143D01*
X007486Y003984D02*
X007626Y003984D01*
X007626Y003826D02*
X007424Y003826D01*
X007626Y003667D02*
X006475Y003667D01*
X006457Y003826D02*
X007027Y003826D01*
X006966Y003984D02*
X006692Y003984D01*
X006769Y004143D02*
X006837Y004143D01*
X006224Y003826D02*
X002790Y003826D01*
X002948Y003984D02*
X005989Y003984D01*
X005912Y004143D02*
X002957Y004143D01*
X002957Y004301D02*
X005904Y004301D01*
X005955Y004460D02*
X002854Y004460D01*
X002909Y004944D02*
X002957Y004992D01*
X002957Y005024D01*
X005796Y005024D01*
X005896Y005124D01*
X005913Y005141D01*
X005970Y005003D01*
X006028Y004944D01*
X002909Y004944D01*
X002949Y005364D02*
X002749Y005564D01*
X005855Y005564D01*
X005655Y005364D01*
X002949Y005364D01*
X002903Y005411D02*
X005701Y005411D01*
X005865Y005094D02*
X005933Y005094D01*
X006015Y005904D02*
X004598Y005904D01*
X004606Y005923D01*
X004606Y005994D01*
X005136Y006524D01*
X005997Y006524D01*
X005970Y006497D01*
X005904Y006337D01*
X005904Y006163D01*
X005970Y006003D01*
X006042Y005931D01*
X006015Y005904D01*
X005953Y006045D02*
X004656Y006045D01*
X004815Y006203D02*
X005904Y006203D01*
X005914Y006362D02*
X004973Y006362D01*
X005132Y006520D02*
X005993Y006520D01*
X005988Y006984D02*
X003075Y006984D01*
X002702Y006611D01*
X002699Y006614D01*
X002334Y006614D01*
X002077Y006357D01*
X002077Y005992D01*
X002164Y005904D01*
X002016Y005904D01*
X001942Y005978D01*
X001957Y005992D01*
X001957Y006357D01*
X001729Y006584D01*
X002136Y006584D01*
X002310Y006759D01*
X002334Y006734D01*
X002699Y006734D01*
X002957Y006992D01*
X002957Y007357D01*
X002889Y007424D01*
X005940Y007424D01*
X005904Y007337D01*
X005904Y007163D01*
X005970Y007003D01*
X005988Y006984D01*
X005977Y006996D02*
X002957Y006996D01*
X002957Y007154D02*
X005908Y007154D01*
X005904Y007313D02*
X002957Y007313D01*
X002729Y007764D02*
X002929Y007964D01*
X006255Y007964D01*
X006726Y007494D01*
X006726Y007462D01*
X006711Y007497D01*
X006588Y007620D01*
X006427Y007687D01*
X006254Y007687D01*
X006197Y007663D01*
X006096Y007764D01*
X002729Y007764D01*
X002752Y007788D02*
X006432Y007788D01*
X006566Y007630D02*
X006590Y007630D01*
X006722Y007471D02*
X006726Y007471D01*
X007198Y007630D02*
X013115Y007630D01*
X012959Y007471D02*
X007246Y007471D01*
X006704Y006996D02*
X012977Y006996D01*
X013485Y006837D02*
X017436Y006837D01*
X017436Y006679D02*
X013448Y006679D01*
X013688Y006520D02*
X016653Y006520D01*
X016626Y006362D02*
X013767Y006362D01*
X013777Y006203D02*
X016626Y006203D01*
X016626Y006045D02*
X013728Y006045D01*
X013704Y006996D02*
X017436Y006996D01*
X016576Y007630D02*
X018714Y007630D01*
X018714Y007788D02*
X016576Y007788D01*
X016576Y007947D02*
X018714Y007947D01*
X018714Y008105D02*
X016576Y008105D01*
X016576Y008264D02*
X018714Y008264D01*
X018714Y008422D02*
X016576Y008422D01*
X016576Y008581D02*
X018714Y008581D01*
X018714Y008739D02*
X016576Y008739D01*
X016576Y008898D02*
X018714Y008898D01*
X018714Y009056D02*
X016576Y009056D01*
X016576Y009215D02*
X018714Y009215D01*
X018714Y009373D02*
X016576Y009373D01*
X016576Y009532D02*
X018714Y009532D01*
X018714Y009690D02*
X016576Y009690D01*
X016603Y009849D02*
X018714Y009849D01*
X018714Y010007D02*
X018097Y010007D01*
X018097Y009984D02*
X018097Y010966D01*
X018015Y011048D01*
X016915Y011048D01*
X016833Y010966D01*
X016833Y009984D01*
X016915Y009902D01*
X018015Y009902D01*
X018097Y009984D01*
X018097Y010166D02*
X018714Y010166D01*
X018714Y010324D02*
X018097Y010324D01*
X018097Y010483D02*
X018714Y010483D01*
X018714Y010641D02*
X018097Y010641D01*
X018097Y010800D02*
X018714Y010800D01*
X018714Y010958D02*
X018097Y010958D01*
X018714Y011117D02*
X016620Y011117D01*
X016620Y011275D02*
X018714Y011275D01*
X018714Y011434D02*
X017407Y011434D01*
X017407Y011592D02*
X018714Y011592D01*
X018714Y011751D02*
X017407Y011751D01*
X017407Y011909D02*
X018714Y011909D01*
X018714Y012068D02*
X018094Y012068D01*
X018097Y012226D02*
X018714Y012226D01*
X018714Y012385D02*
X018097Y012385D01*
X018097Y012543D02*
X018714Y012543D01*
X018714Y012702D02*
X018097Y012702D01*
X018097Y012860D02*
X018714Y012860D01*
X018714Y013019D02*
X018097Y013019D01*
X018714Y013177D02*
X017407Y013177D01*
X017407Y013336D02*
X018714Y013336D01*
X018714Y013494D02*
X017407Y013494D01*
X017407Y013653D02*
X018714Y013653D01*
X018714Y013811D02*
X017407Y013811D01*
X016833Y010958D02*
X016620Y010958D01*
X016680Y010800D02*
X016833Y010800D01*
X016833Y010641D02*
X016680Y010641D01*
X016680Y010483D02*
X016833Y010483D01*
X016833Y010324D02*
X016680Y010324D01*
X016680Y010166D02*
X016833Y010166D01*
X016833Y010007D02*
X016680Y010007D01*
X016236Y009690D02*
X015351Y009690D01*
X015351Y009532D02*
X016236Y009532D01*
X016236Y009373D02*
X015351Y009373D01*
X015351Y009215D02*
X016236Y009215D01*
X016236Y009056D02*
X015351Y009056D01*
X015286Y008898D02*
X016236Y008898D01*
X016236Y008739D02*
X015128Y008739D01*
X014969Y008581D02*
X016236Y008581D01*
X016756Y005684D02*
X016896Y005684D01*
X016906Y005694D01*
X017424Y005694D01*
X017436Y005706D01*
X017436Y005387D01*
X017248Y005574D01*
X016883Y005574D01*
X016875Y005566D01*
X016756Y005684D01*
X016871Y005569D02*
X016878Y005569D01*
X017253Y005569D02*
X017436Y005569D01*
X017436Y005411D02*
X017412Y005411D01*
X013716Y002804D02*
X013716Y002486D01*
X013711Y002497D01*
X013588Y002620D01*
X013433Y002684D01*
X013596Y002684D01*
X013716Y002804D01*
X013716Y002716D02*
X013627Y002716D01*
X013651Y002558D02*
X013716Y002558D01*
X013248Y002684D02*
X013093Y002620D01*
X012970Y002497D01*
X012904Y002337D01*
X012904Y002163D01*
X012920Y002124D01*
X010656Y002124D01*
X009376Y003404D01*
X009793Y003404D01*
X009786Y003386D01*
X009786Y003283D01*
X009825Y003187D01*
X009898Y003114D01*
X009994Y003074D01*
X010065Y003074D01*
X010356Y002784D01*
X010455Y002684D01*
X013248Y002684D01*
X013030Y002558D02*
X010223Y002558D01*
X010064Y002716D02*
X010424Y002716D01*
X010265Y002875D02*
X009906Y002875D01*
X009747Y003033D02*
X010107Y003033D01*
X009823Y003192D02*
X009589Y003192D01*
X009430Y003350D02*
X009786Y003350D01*
X010298Y003404D02*
X012915Y003404D01*
X012927Y003393D01*
X012904Y003337D01*
X012904Y003163D01*
X012961Y003024D01*
X010596Y003024D01*
X010306Y003315D01*
X010306Y003386D01*
X010298Y003404D01*
X010306Y003350D02*
X012909Y003350D01*
X012904Y003192D02*
X010429Y003192D01*
X010587Y003033D02*
X012958Y003033D01*
X013155Y003646D02*
X013056Y003744D01*
X009396Y003744D01*
X008926Y004215D01*
X008926Y004286D01*
X008886Y004382D01*
X008842Y004426D01*
X008866Y004483D01*
X008866Y004484D01*
X012965Y004484D01*
X012904Y004337D01*
X012904Y004163D01*
X012970Y004003D01*
X013093Y003880D01*
X013254Y003813D01*
X013427Y003813D01*
X013588Y003880D01*
X013596Y003887D01*
X013596Y003613D01*
X013588Y003620D01*
X013427Y003687D01*
X013254Y003687D01*
X013155Y003646D01*
X013133Y003667D02*
X013206Y003667D01*
X013224Y003826D02*
X009315Y003826D01*
X009156Y003984D02*
X012989Y003984D01*
X012912Y004143D02*
X008998Y004143D01*
X008919Y004301D02*
X012904Y004301D01*
X012955Y004460D02*
X008856Y004460D01*
X008325Y003974D02*
X010355Y001944D01*
X006653Y001944D01*
X006711Y002003D01*
X006745Y002084D01*
X008136Y002084D01*
X008236Y002184D01*
X008236Y003982D01*
X008254Y003974D01*
X008325Y003974D01*
X008236Y003826D02*
X008474Y003826D01*
X008633Y003667D02*
X008236Y003667D01*
X008236Y003509D02*
X008791Y003509D01*
X008950Y003350D02*
X008236Y003350D01*
X008236Y003192D02*
X009108Y003192D01*
X009267Y003033D02*
X008236Y003033D01*
X008236Y002875D02*
X009425Y002875D01*
X009584Y002716D02*
X008236Y002716D01*
X008236Y002558D02*
X009742Y002558D01*
X009901Y002399D02*
X008236Y002399D01*
X008236Y002241D02*
X010059Y002241D01*
X010218Y002082D02*
X006744Y002082D01*
X006651Y002558D02*
X007896Y002558D01*
X007896Y002716D02*
X001267Y002716D01*
X001277Y002558D02*
X001109Y002558D01*
X001096Y002399D02*
X001119Y002399D01*
X000756Y002399D02*
X000533Y002399D01*
X000533Y002241D02*
X000756Y002241D01*
X000756Y002082D02*
X000533Y002082D01*
X000533Y001924D02*
X000756Y001924D01*
X000756Y001765D02*
X000533Y001765D01*
X000533Y001607D02*
X000756Y001607D01*
X000756Y001448D02*
X000533Y001448D01*
X000533Y001290D02*
X000756Y001290D01*
X000756Y001131D02*
X000533Y001131D01*
X000533Y000973D02*
X000756Y000973D01*
X000756Y000814D02*
X000533Y000814D01*
X000533Y000656D02*
X000756Y000656D01*
X000823Y000497D02*
X000533Y000497D01*
X001096Y000804D02*
X001096Y000973D01*
X001264Y000804D01*
X001096Y000804D01*
X001096Y000814D02*
X001255Y000814D01*
X001096Y000973D02*
X001096Y000973D01*
X001096Y001376D02*
X001096Y001973D01*
X001334Y001734D01*
X001685Y001734D01*
X001815Y001604D01*
X002324Y001604D01*
X002077Y001357D01*
X002077Y000992D01*
X002144Y000924D01*
X002016Y000924D01*
X001952Y000988D01*
X001957Y000992D01*
X001957Y001357D01*
X001699Y001614D01*
X001334Y001614D01*
X001096Y001376D01*
X001096Y001448D02*
X001168Y001448D01*
X001096Y001607D02*
X001326Y001607D01*
X001304Y001765D02*
X001096Y001765D01*
X001096Y001924D02*
X001145Y001924D01*
X001707Y001607D02*
X001813Y001607D01*
X001865Y001448D02*
X002168Y001448D01*
X002077Y001290D02*
X001957Y001290D01*
X001957Y001131D02*
X002077Y001131D01*
X002096Y000973D02*
X001968Y000973D01*
X002865Y001448D02*
X010979Y001448D01*
X010986Y001455D02*
X010455Y000924D01*
X002889Y000924D01*
X002957Y000992D01*
X002957Y001357D01*
X002709Y001604D01*
X011018Y001604D01*
X010986Y001526D01*
X010986Y001455D01*
X010820Y001290D02*
X002957Y001290D01*
X002957Y001131D02*
X010662Y001131D01*
X010503Y000973D02*
X002937Y000973D01*
X002957Y002082D02*
X005937Y002082D01*
X005904Y002241D02*
X002957Y002241D01*
X002914Y002399D02*
X005929Y002399D01*
X006030Y002558D02*
X002756Y002558D01*
X002699Y002734D02*
X002334Y002734D01*
X002077Y002992D01*
X002077Y003357D01*
X002334Y003614D01*
X002699Y003614D01*
X002957Y003357D01*
X002957Y002992D01*
X002699Y002734D01*
X002839Y002875D02*
X006106Y002875D01*
X005958Y003033D02*
X002957Y003033D01*
X002957Y003192D02*
X005904Y003192D01*
X005909Y003350D02*
X002957Y003350D01*
X002805Y003509D02*
X005981Y003509D01*
X006206Y003667D02*
X000533Y003667D01*
X000533Y003509D02*
X001228Y003509D01*
X001077Y003350D02*
X000533Y003350D01*
X000533Y003192D02*
X001077Y003192D01*
X001077Y003033D02*
X000533Y003033D01*
X000533Y002875D02*
X000945Y002875D01*
X000787Y002716D02*
X000533Y002716D01*
X000533Y002558D02*
X000756Y002558D01*
X001756Y002558D02*
X002277Y002558D01*
X002119Y002399D02*
X001914Y002399D01*
X001957Y002241D02*
X002077Y002241D01*
X002077Y002082D02*
X001957Y002082D01*
X001839Y002875D02*
X002194Y002875D01*
X002077Y003033D02*
X001957Y003033D01*
X001957Y003192D02*
X002077Y003192D01*
X002077Y003350D02*
X001957Y003350D01*
X001805Y003509D02*
X002228Y003509D01*
X002243Y003826D02*
X001790Y003826D01*
X001948Y003984D02*
X002085Y003984D01*
X002077Y004143D02*
X001957Y004143D01*
X001957Y004301D02*
X002077Y004301D01*
X002179Y004460D02*
X001854Y004460D01*
X001909Y004944D02*
X001957Y004992D01*
X001957Y005357D01*
X001699Y005614D01*
X001334Y005614D01*
X001156Y005436D01*
X001156Y005913D01*
X001334Y005734D01*
X001699Y005734D01*
X001702Y005738D01*
X001776Y005664D01*
X001875Y005564D01*
X002284Y005564D01*
X002077Y005357D01*
X002077Y004992D01*
X002124Y004944D01*
X001909Y004944D01*
X001957Y005094D02*
X002077Y005094D01*
X002077Y005252D02*
X001957Y005252D01*
X001903Y005411D02*
X002130Y005411D01*
X001871Y005569D02*
X001744Y005569D01*
X001712Y005728D02*
X001156Y005728D01*
X001156Y005569D02*
X001289Y005569D01*
X000816Y005569D02*
X000533Y005569D01*
X000533Y005411D02*
X000816Y005411D01*
X000816Y005252D02*
X000533Y005252D01*
X000533Y005094D02*
X000816Y005094D01*
X000945Y004935D02*
X000533Y004935D01*
X000533Y004777D02*
X001103Y004777D01*
X001262Y004618D02*
X000533Y004618D01*
X000533Y004460D02*
X001179Y004460D01*
X001077Y004301D02*
X000533Y004301D01*
X000533Y004143D02*
X001077Y004143D01*
X001085Y003984D02*
X000533Y003984D01*
X000533Y003826D02*
X001243Y003826D01*
X000816Y005728D02*
X000533Y005728D01*
X000533Y005886D02*
X000816Y005886D01*
X000816Y006045D02*
X000533Y006045D01*
X000533Y006203D02*
X000816Y006203D01*
X000816Y006362D02*
X000533Y006362D01*
X000533Y006520D02*
X000816Y006520D01*
X000816Y006679D02*
X000533Y006679D01*
X000533Y006837D02*
X000828Y006837D01*
X001077Y006996D02*
X000533Y006996D01*
X000533Y007154D02*
X001077Y007154D01*
X001077Y007313D02*
X000533Y007313D01*
X000533Y007471D02*
X001191Y007471D01*
X001281Y007788D02*
X000533Y007788D01*
X000533Y007630D02*
X001790Y007630D01*
X001842Y007471D02*
X001949Y007471D01*
X001957Y007313D02*
X002077Y007313D01*
X002077Y007154D02*
X001957Y007154D01*
X001957Y006996D02*
X002066Y006996D01*
X002230Y006679D02*
X002769Y006679D01*
X002801Y006837D02*
X002928Y006837D01*
X003216Y006644D02*
X004775Y006644D01*
X004365Y006234D01*
X004294Y006234D01*
X004198Y006195D01*
X004125Y006122D01*
X004086Y006026D01*
X004086Y005923D01*
X004093Y005904D01*
X002869Y005904D01*
X002957Y005992D01*
X002957Y006357D01*
X002942Y006371D01*
X003216Y006644D01*
X003091Y006520D02*
X004651Y006520D01*
X004492Y006362D02*
X002952Y006362D01*
X002957Y006203D02*
X004218Y006203D01*
X004093Y006045D02*
X002957Y006045D01*
X002240Y006520D02*
X001793Y006520D01*
X001952Y006362D02*
X002081Y006362D01*
X002077Y006203D02*
X001957Y006203D01*
X001957Y006045D02*
X002077Y006045D01*
X001183Y005886D02*
X001156Y005886D01*
X001156Y006436D02*
X001304Y006584D01*
X001156Y006584D01*
X001156Y006436D01*
X001156Y006520D02*
X001240Y006520D01*
X002112Y007788D02*
X002281Y007788D01*
X002122Y007947D02*
X001954Y007947D01*
X001957Y008105D02*
X002077Y008105D01*
X002077Y008264D02*
X001957Y008264D01*
X001891Y008422D02*
X002142Y008422D01*
X002300Y008581D02*
X001733Y008581D01*
X001703Y008739D02*
X002330Y008739D01*
X002171Y008898D02*
X001862Y008898D01*
X001957Y009056D02*
X002077Y009056D01*
X002077Y009215D02*
X001957Y009215D01*
X001940Y009373D02*
X002093Y009373D01*
X001761Y009690D02*
X000533Y009690D01*
X000533Y009532D02*
X001251Y009532D01*
X001093Y009373D02*
X000533Y009373D01*
X000533Y009215D02*
X001077Y009215D01*
X001077Y009056D02*
X000533Y009056D01*
X000533Y008898D02*
X001171Y008898D01*
X001330Y008739D02*
X000533Y008739D01*
X000533Y008581D02*
X001300Y008581D01*
X001142Y008422D02*
X000533Y008422D01*
X000533Y008264D02*
X001077Y008264D01*
X001077Y008105D02*
X000533Y008105D01*
X000533Y007947D02*
X001122Y007947D01*
X002733Y008581D02*
X009299Y008581D01*
X009141Y008739D02*
X008419Y008739D01*
X008446Y008898D02*
X008982Y008898D01*
X008824Y009056D02*
X008352Y009056D01*
X008066Y009215D02*
X008665Y009215D01*
X008507Y009373D02*
X002940Y009373D01*
X002709Y009744D02*
X002957Y009992D01*
X002957Y010004D01*
X007933Y010004D01*
X007926Y009986D01*
X007926Y009915D01*
X007859Y009849D01*
X007853Y009855D01*
X007757Y009894D01*
X007654Y009894D01*
X007558Y009855D01*
X007485Y009782D01*
X007470Y009744D01*
X002709Y009744D01*
X002813Y009849D02*
X007552Y009849D01*
X008023Y009532D02*
X008348Y009532D01*
X008670Y009690D02*
X008696Y009690D01*
X008875Y009690D02*
X009090Y009690D01*
X009248Y009532D02*
X008829Y009532D01*
X008987Y009373D02*
X009407Y009373D01*
X009546Y009215D02*
X009146Y009215D01*
X009304Y009056D02*
X009596Y009056D01*
X009463Y008898D02*
X010902Y008898D01*
X010744Y009056D02*
X010015Y009056D01*
X010066Y009215D02*
X010585Y009215D01*
X010427Y009373D02*
X010015Y009373D01*
X010268Y009532D02*
X009729Y009532D01*
X009570Y009690D02*
X010110Y009690D01*
X009951Y009849D02*
X009412Y009849D01*
X009253Y010007D02*
X009793Y010007D01*
X009634Y010166D02*
X009095Y010166D01*
X008936Y010324D02*
X009476Y010324D01*
X009317Y010483D02*
X008778Y010483D01*
X008619Y010641D02*
X009159Y010641D01*
X009000Y010800D02*
X008461Y010800D01*
X008302Y010958D02*
X008842Y010958D01*
X008683Y011117D02*
X008144Y011117D01*
X007985Y011275D02*
X008525Y011275D01*
X008366Y011434D02*
X007827Y011434D01*
X007668Y011592D02*
X008208Y011592D01*
X008049Y011751D02*
X007510Y011751D01*
X007351Y011909D02*
X007891Y011909D01*
X007732Y012068D02*
X007193Y012068D01*
X007034Y012226D02*
X007574Y012226D01*
X007098Y012702D02*
X006880Y012702D01*
X006491Y012702D02*
X000533Y012702D01*
X001770Y012543D02*
X002263Y012543D01*
X002104Y012385D02*
X001929Y012385D01*
X001957Y012226D02*
X002077Y012226D01*
X002077Y012068D02*
X001957Y012068D01*
X001873Y011909D02*
X002160Y011909D01*
X002318Y011751D02*
X001715Y011751D01*
X001721Y011592D02*
X002312Y011592D01*
X002153Y011434D02*
X001880Y011434D01*
X001957Y011275D02*
X002077Y011275D01*
X002077Y011117D02*
X001957Y011117D01*
X001922Y010958D02*
X002111Y010958D01*
X002269Y010800D02*
X001764Y010800D01*
X001831Y010483D02*
X002202Y010483D01*
X002077Y010324D02*
X001957Y010324D01*
X001957Y010166D02*
X002077Y010166D01*
X002077Y010007D02*
X001957Y010007D01*
X001813Y009849D02*
X002220Y009849D01*
X001220Y009849D02*
X000533Y009849D01*
X000533Y010007D02*
X001077Y010007D01*
X001077Y010166D02*
X000533Y010166D01*
X000533Y010324D02*
X001077Y010324D01*
X002862Y008898D02*
X007902Y008898D01*
X007952Y008739D02*
X002703Y008739D01*
X002891Y008422D02*
X009458Y008422D01*
X009621Y008739D02*
X011061Y008739D01*
X012440Y005252D02*
X008933Y005252D01*
X007626Y003509D02*
X006700Y003509D01*
X006724Y003033D02*
X007896Y003033D01*
X007896Y002875D02*
X006576Y002875D01*
X010381Y002399D02*
X012929Y002399D01*
X012904Y002241D02*
X010540Y002241D01*
X011759Y001448D02*
X016757Y001448D01*
X016883Y001574D02*
X016626Y001317D01*
X016626Y000952D01*
X016883Y000694D01*
X017248Y000694D01*
X017506Y000952D01*
X017506Y001317D01*
X017248Y001574D01*
X016883Y001574D01*
X016626Y001290D02*
X011601Y001290D01*
X011442Y001131D02*
X016626Y001131D01*
X016626Y000973D02*
X011284Y000973D01*
X011125Y000814D02*
X016764Y000814D01*
X017367Y000814D02*
X018714Y000814D01*
X018714Y000656D02*
X010967Y000656D01*
X010808Y000497D02*
X018714Y000497D01*
X018714Y000973D02*
X017506Y000973D01*
X017506Y001131D02*
X018714Y001131D01*
X018714Y001290D02*
X017506Y001290D01*
X017374Y001448D02*
X018714Y001448D01*
X013596Y003667D02*
X013475Y003667D01*
X013457Y003826D02*
X013596Y003826D01*
X006273Y007947D02*
X002911Y007947D01*
X002209Y012860D02*
X001824Y012860D01*
X001957Y013019D02*
X002077Y013019D01*
X002077Y013177D02*
X001957Y013177D01*
X001957Y013336D02*
X002077Y013336D01*
X002214Y013494D02*
X001819Y013494D01*
M02*
