%
M48
M72
T01C0.0120
T02C0.0394
T03C0.0400
%
T01
X8606Y4534
X7796Y4234
X8576Y4834
X8666Y4234
X10046Y3334
X8306Y4234
X8576Y5134
X12626Y5434
X7706Y9634
X8186Y9934
X6986Y7474
X11366Y8674
X6686Y12874
X9806Y9214
X5966Y12154
X8786Y9934
X8486Y9934
X8186Y8854
X8906Y6574
X4346Y5974
X10046Y6514
X8966Y6034
X11246Y1474
X11486Y1714
X11786Y1714
X7226Y3994
T02
X13341Y2250
X13341Y3250
X13341Y4250
X13341Y5250
X13341Y6250
X13341Y7250
X6341Y2250
X6341Y3250
X6341Y4250
X6341Y5250
X6341Y6250
X6341Y7250
T03
X2517Y13174
X1517Y13174
X2517Y12174
X1517Y12174
X2517Y11174
X1517Y11174
X2517Y10174
X1517Y10174
X2517Y9174
X1517Y9174
X2517Y8174
X1517Y8174
X2517Y7174
X1517Y7174
X2517Y6174
X1517Y6174
X2517Y5174
X1517Y5174
X2517Y4174
X1517Y4174
X2517Y3174
X1517Y3174
X2517Y2174
X1517Y2174
X2517Y1174
X1517Y1174
X17066Y6134
X17066Y5134
X17066Y4134
X17066Y3134
X17066Y2134
X17066Y1134
M30
