G75*
G70*
%OFA0B0*%
%FSLAX24Y24*%
%IPPOS*%
%LPD*%
%AMOC8*
5,1,8,0,0,1.08239X$1,22.5*
%
%ADD10C,0.0040*%
%ADD11C,0.0030*%
%ADD12C,0.0197*%
%ADD13C,0.0070*%
%ADD14R,0.0079X0.0079*%
%ADD15C,0.0080*%
D10*
X015469Y001145D02*
X015556Y001145D01*
X015729Y001145D02*
X016076Y001145D01*
X016076Y001059D02*
X016076Y001232D01*
X016076Y001402D02*
X015902Y001576D01*
X016076Y001749D01*
X015556Y001749D01*
X015729Y001918D02*
X015729Y002005D01*
X016076Y002005D01*
X016076Y002091D02*
X016076Y001918D01*
X015556Y002005D02*
X015469Y002005D01*
X015556Y001402D02*
X016076Y001402D01*
X015729Y001145D02*
X015729Y001059D01*
X015556Y000890D02*
X016076Y000890D01*
X015729Y000716D02*
X015556Y000890D01*
X015729Y000716D02*
X015556Y000543D01*
X016076Y000543D01*
X017646Y001334D02*
X018166Y001334D01*
X018166Y001074D01*
X018080Y000987D01*
X017906Y000987D01*
X017819Y001074D01*
X017819Y001334D01*
X017906Y001503D02*
X017819Y001590D01*
X017819Y001763D01*
X017906Y001850D01*
X017993Y001850D01*
X017993Y001503D01*
X018080Y001503D02*
X017906Y001503D01*
X018080Y001503D02*
X018166Y001590D01*
X018166Y001763D01*
X018166Y002019D02*
X018166Y002279D01*
X018080Y002366D01*
X017993Y002279D01*
X017993Y002105D01*
X017906Y002019D01*
X017819Y002105D01*
X017819Y002366D01*
X017819Y002534D02*
X017819Y002621D01*
X018166Y002621D01*
X018166Y002534D02*
X018166Y002708D01*
X018080Y002878D02*
X017906Y002878D01*
X017819Y002965D01*
X017819Y003225D01*
X018253Y003225D01*
X018340Y003138D01*
X018340Y003052D01*
X018166Y002965D02*
X018166Y003225D01*
X018166Y003394D02*
X017819Y003394D01*
X017819Y003654D01*
X017906Y003741D01*
X018166Y003741D01*
X018080Y003909D02*
X017906Y003909D01*
X017819Y003996D01*
X017819Y004170D01*
X017906Y004256D01*
X017993Y004256D01*
X017993Y003909D01*
X018080Y003909D02*
X018166Y003996D01*
X018166Y004170D01*
X018080Y004425D02*
X017906Y004425D01*
X017819Y004512D01*
X017819Y004772D01*
X017646Y004772D02*
X018166Y004772D01*
X018166Y004512D01*
X018080Y004425D01*
X018166Y005456D02*
X017646Y005456D01*
X017819Y005456D02*
X017819Y005717D01*
X017906Y005803D01*
X018080Y005803D01*
X018166Y005717D01*
X018166Y005456D01*
X018080Y005972D02*
X017819Y005972D01*
X018080Y005972D02*
X018166Y006059D01*
X018166Y006319D01*
X018253Y006319D02*
X018340Y006232D01*
X018340Y006145D01*
X018253Y006319D02*
X017819Y006319D01*
X017646Y007003D02*
X018166Y007003D01*
X017993Y007177D01*
X018166Y007350D01*
X017646Y007350D01*
X016076Y007421D02*
X016076Y007161D01*
X015989Y007074D01*
X015816Y007074D01*
X015729Y007161D01*
X015729Y007421D01*
X015816Y007590D02*
X015729Y007677D01*
X015729Y007850D01*
X015816Y007937D01*
X015902Y007937D01*
X015902Y007590D01*
X015816Y007590D02*
X015989Y007590D01*
X016076Y007677D01*
X016076Y007850D01*
X016076Y006904D02*
X016076Y006731D01*
X016076Y006817D02*
X015729Y006817D01*
X015729Y006731D01*
X015729Y006562D02*
X016076Y006388D01*
X015729Y006215D01*
X015816Y006046D02*
X015902Y006046D01*
X015902Y005699D01*
X015816Y005699D02*
X015989Y005699D01*
X016076Y005786D01*
X016076Y005959D01*
X015816Y006046D02*
X015729Y005959D01*
X015729Y005786D01*
X015816Y005699D01*
X015989Y005531D02*
X015642Y005531D01*
X015556Y005444D01*
X015556Y005184D01*
X016076Y005184D01*
X016076Y005444D01*
X015989Y005531D01*
X016076Y004498D02*
X015989Y004411D01*
X015642Y004411D01*
X015729Y004324D02*
X015729Y004498D01*
X015729Y004156D02*
X015729Y003895D01*
X015816Y003809D01*
X015902Y003895D01*
X015902Y004069D01*
X015989Y004156D01*
X016076Y004069D01*
X016076Y003809D01*
X015989Y003640D02*
X015816Y003640D01*
X015729Y003553D01*
X015729Y003380D01*
X015816Y003293D01*
X015989Y003293D01*
X016076Y003380D01*
X016076Y003553D01*
X015989Y003640D01*
X016076Y003124D02*
X015556Y003124D01*
X015816Y003124D02*
X015816Y002777D01*
X016076Y002777D02*
X015556Y002777D01*
X017559Y002621D02*
X017646Y002621D01*
X018080Y002878D02*
X018166Y002965D01*
X015556Y006817D02*
X015469Y006817D01*
D11*
X017407Y007343D02*
X017469Y007282D01*
X017407Y007343D02*
X017407Y007467D01*
X017469Y007528D01*
X017531Y007528D01*
X017778Y007282D01*
X017778Y007528D01*
D12*
X010818Y005527D03*
D13*
X006942Y008768D02*
X005874Y008768D01*
X005874Y009086D01*
X006945Y009314D02*
X006945Y009415D01*
X006945Y009904D02*
X006945Y010006D01*
X006942Y010557D02*
X005874Y010557D01*
X005874Y010239D01*
D14*
X004134Y011914D03*
X004074Y013444D03*
D15*
X005164Y013701D02*
X005164Y012888D01*
X006602Y012888D01*
X006602Y013701D01*
X005164Y013701D01*
X005149Y012084D02*
X005149Y011272D01*
X006587Y011272D01*
X006587Y012084D01*
X005149Y012084D01*
M02*
