G75*
G70*
%OFA0B0*%
%FSLAX24Y24*%
%IPPOS*%
%LPD*%
%AMOC8*
5,1,8,0,0,1.08239X$1,22.5*
%
%ADD10C,0.0594*%
%ADD11C,0.0520*%
%ADD12R,0.0600X0.0600*%
%ADD13OC8,0.0600*%
%ADD14C,0.0600*%
%ADD15OC8,0.0520*%
%ADD16C,0.0594*%
%ADD17R,0.0594X0.0594*%
%ADD18C,0.0060*%
%ADD19C,0.0240*%
D10*
X027494Y003215D03*
X028494Y003215D03*
X029494Y003215D03*
X030494Y003215D03*
X031494Y003215D03*
X032494Y003215D03*
X032494Y010215D03*
X031494Y010215D03*
X030494Y010215D03*
X029494Y010215D03*
X028494Y010215D03*
X027494Y010215D03*
D11*
X026367Y003824D02*
X025847Y003824D01*
X025847Y002824D02*
X026367Y002824D01*
X026367Y001824D02*
X025847Y001824D01*
X022847Y001824D02*
X022327Y001824D01*
X022327Y002824D02*
X022847Y002824D01*
X022847Y003824D02*
X022327Y003824D01*
D12*
X038485Y003646D03*
D13*
X038485Y004646D03*
X038485Y005646D03*
X038485Y006646D03*
X038485Y007646D03*
X038485Y008646D03*
D14*
X024966Y009888D02*
X024966Y010488D01*
X023966Y010488D02*
X023966Y009888D01*
X022966Y009888D02*
X022966Y010488D01*
D15*
X023906Y008818D03*
X023906Y004818D03*
D16*
X019732Y009131D02*
X019732Y009725D01*
X016779Y009725D02*
X016779Y009131D01*
X013826Y009131D02*
X013826Y009725D01*
D17*
X009706Y009398D03*
X007206Y009398D03*
X000956Y009398D03*
X000956Y003148D03*
X007206Y003148D03*
X008456Y003148D03*
X009706Y003148D03*
D18*
X009235Y002419D02*
X008526Y003128D01*
X008456Y003148D01*
X009706Y003148D02*
X009708Y003206D01*
X010889Y004387D01*
X033960Y004387D01*
X035298Y003679D02*
X038448Y003679D01*
X038485Y003646D01*
X038999Y003206D02*
X032542Y003206D01*
X032494Y003215D01*
X032463Y003206D01*
X032070Y002813D01*
X025849Y002813D01*
X025847Y002824D01*
X025771Y002813D01*
X025377Y002419D01*
X009235Y002419D01*
X027030Y004151D02*
X027503Y003679D01*
X030023Y003679D01*
X030416Y003285D01*
X030494Y003215D01*
X032494Y003215D02*
X032546Y003248D01*
X035298Y003679D02*
X031991Y006986D01*
X028526Y006490D02*
X028526Y009820D01*
X027897Y009820D01*
X027503Y010214D01*
X027494Y010215D01*
X030494Y010215D02*
X030506Y010268D01*
X030866Y010628D01*
X032666Y010628D01*
X038426Y004868D01*
X038426Y004688D01*
X038485Y004646D01*
X038999Y005096D02*
X038999Y003206D01*
X038999Y005096D02*
X038526Y005568D01*
X038485Y005646D01*
X029975Y005332D02*
X029975Y004655D01*
D19*
X029975Y004655D03*
X029975Y005332D03*
X028526Y006490D03*
X031991Y006986D03*
X033960Y004387D03*
X027030Y004151D03*
M02*
