%
M48
M72
T01C0.0120
T02C0.0320
T03C0.0394
T04C0.0400
%
T01
X29975Y5332
X29975Y4655
X27030Y4151
X28526Y6490
X31991Y6986
X33960Y4387
T02
X25847Y3824
X25847Y2824
X22847Y2824
X22847Y3824
X25847Y1824
X22847Y1824
X23906Y8818
X23906Y4818
T03
X27494Y3215
X28494Y3215
X29494Y3215
X30494Y3215
X31494Y3215
X32494Y3215
X27494Y10215
X28494Y10215
X29494Y10215
X30494Y10215
X31494Y10215
X32494Y10215
X13826Y9428
X16779Y9428
X19732Y9428
X956Y3148
X956Y9398
X7206Y9398
X9706Y9398
X7206Y3148
X9706Y3148
X8456Y3148
T04
X38485Y3646
X38485Y4646
X38485Y5646
X38485Y6646
X38485Y7646
X38485Y8646
X22966Y10188
X23966Y10188
X24966Y10188
M30
