G75*
G70*
%OFA0B0*%
%FSLAX24Y24*%
%IPPOS*%
%LPD*%
%AMOC8*
5,1,8,0,0,1.08239X$1,22.5*
%
%ADD10C,0.0594*%
%ADD11C,0.0520*%
%ADD12R,0.0600X0.0600*%
%ADD13OC8,0.0600*%
%ADD14C,0.0600*%
%ADD15OC8,0.0520*%
%ADD16C,0.0594*%
%ADD17R,0.0594X0.0594*%
%ADD18C,0.0060*%
%ADD19C,0.0240*%
D10*
X027486Y003215D03*
X028486Y003215D03*
X029486Y003215D03*
X030486Y003215D03*
X031486Y003215D03*
X032486Y003215D03*
X032486Y010215D03*
X031486Y010215D03*
X030486Y010215D03*
X029486Y010215D03*
X028486Y010215D03*
X027486Y010215D03*
D11*
X026359Y003824D02*
X025839Y003824D01*
X025839Y002824D02*
X026359Y002824D01*
X026359Y001824D02*
X025839Y001824D01*
X022839Y001824D02*
X022319Y001824D01*
X022319Y002824D02*
X022839Y002824D01*
X022839Y003824D02*
X022319Y003824D01*
D12*
X038477Y003646D03*
D13*
X038477Y004646D03*
X038477Y005646D03*
X038477Y006646D03*
X038477Y007646D03*
X038477Y008646D03*
D14*
X024958Y009888D02*
X024958Y010488D01*
X023958Y010488D02*
X023958Y009888D01*
X022958Y009888D02*
X022958Y010488D01*
D15*
X023898Y008818D03*
X023898Y004818D03*
D16*
X019724Y009131D02*
X019724Y009725D01*
X016771Y009725D02*
X016771Y009131D01*
X013818Y009131D02*
X013818Y009725D01*
D17*
X009698Y009398D03*
X007198Y009398D03*
X000948Y009398D03*
X000948Y003148D03*
X007198Y003148D03*
X008448Y003148D03*
X009698Y003148D03*
D18*
X009227Y002419D02*
X008519Y003128D01*
X008448Y003148D01*
X009698Y003148D02*
X009700Y003206D01*
X010881Y004387D01*
X033952Y004387D01*
X035290Y003679D02*
X038440Y003679D01*
X038477Y003646D01*
X038991Y003206D02*
X032534Y003206D01*
X032486Y003215D01*
X032456Y003206D01*
X032062Y002813D01*
X025841Y002813D01*
X025839Y002824D01*
X025763Y002813D01*
X025369Y002419D01*
X009227Y002419D01*
X027023Y004151D02*
X027495Y003679D01*
X030015Y003679D01*
X030408Y003285D01*
X030486Y003215D01*
X032486Y003215D02*
X032538Y003248D01*
X035290Y003679D02*
X031983Y006986D01*
X028519Y006490D02*
X028519Y009820D01*
X027889Y009820D01*
X027495Y010214D01*
X027486Y010215D01*
X030486Y010215D02*
X030498Y010268D01*
X030858Y010628D01*
X032658Y010628D01*
X038418Y004868D01*
X038418Y004688D01*
X038477Y004646D01*
X038991Y005096D02*
X038991Y003206D01*
X038991Y005096D02*
X038519Y005568D01*
X038477Y005646D01*
X029967Y005332D02*
X029967Y004655D01*
D19*
X029967Y004655D03*
X029967Y005332D03*
X028519Y006490D03*
X031983Y006986D03*
X033952Y004387D03*
X027023Y004151D03*
M02*
