G75*
G70*
%OFA0B0*%
%FSLAX24Y24*%
%IPPOS*%
%LPD*%
%AMOC8*
5,1,8,0,0,1.08239X$1,22.5*
%
%ADD10R,0.0143X0.0279*%
%ADD11R,0.0279X0.0143*%
%ADD12R,0.0143X0.0279*%
%ADD13R,0.1464X0.1464*%
%ADD14C,0.0634*%
%ADD15C,0.0560*%
%ADD16R,0.0512X0.0631*%
%ADD17R,0.0552X0.0670*%
%ADD18R,0.0355X0.0631*%
%ADD19R,0.1024X0.1221*%
%ADD20R,0.0640X0.0640*%
%ADD21OC8,0.0640*%
%ADD22C,0.0640*%
%ADD23OC8,0.0560*%
%ADD24R,0.1221X0.0827*%
%ADD25C,0.0634*%
%ADD26R,0.0634X0.0634*%
%ADD27R,0.0512X0.0512*%
D10*
X029200Y007811D03*
X029456Y007811D03*
X029711Y007811D03*
X029967Y007811D03*
X030223Y007811D03*
X030479Y007811D03*
X030735Y007811D03*
D11*
X031031Y007515D03*
X031031Y007260D03*
X031031Y007004D03*
X031031Y006748D03*
X031031Y006492D03*
X031031Y006236D03*
X031031Y005980D03*
X028904Y005980D03*
X028904Y006236D03*
X028904Y006492D03*
X028904Y006748D03*
X028904Y007004D03*
X028904Y007260D03*
X028904Y007515D03*
D12*
X029200Y005684D03*
X029456Y005684D03*
X029711Y005684D03*
X029967Y005684D03*
X030223Y005684D03*
X030479Y005684D03*
X030735Y005684D03*
D13*
X029967Y006748D03*
D14*
X029486Y010215D03*
X028486Y010215D03*
X027486Y010215D03*
X030486Y010215D03*
X031486Y010215D03*
X032486Y010215D03*
X032486Y003215D03*
X031486Y003215D03*
X030486Y003215D03*
X029486Y003215D03*
X028486Y003215D03*
X027486Y003215D03*
D15*
X026359Y002824D02*
X025839Y002824D01*
X025839Y003824D02*
X026359Y003824D01*
X022839Y003824D02*
X022319Y003824D01*
X022319Y002824D02*
X022839Y002824D01*
X022839Y001824D02*
X022319Y001824D01*
X025839Y001824D02*
X026359Y001824D01*
D16*
X027355Y002038D03*
X028105Y002038D03*
X032163Y008138D03*
X032913Y008138D03*
X032943Y009248D03*
X032193Y009248D03*
D17*
X032875Y006289D03*
X033662Y006289D03*
X033662Y005456D03*
X032875Y005456D03*
D18*
X034764Y003201D03*
X035354Y003201D03*
X035945Y003201D03*
D19*
X035354Y002098D03*
D20*
X038477Y003646D03*
D21*
X038477Y004646D03*
X038477Y005646D03*
X038477Y006646D03*
X038477Y007646D03*
X038477Y008646D03*
D22*
X024958Y009888D02*
X024958Y010488D01*
X023958Y010488D02*
X023958Y009888D01*
X022958Y009888D02*
X022958Y010488D01*
D23*
X023898Y008818D03*
X023898Y004818D03*
D24*
X012498Y003265D03*
X012498Y006612D03*
D25*
X013818Y009131D02*
X013818Y009725D01*
X016771Y009725D02*
X016771Y009131D01*
X019724Y009131D02*
X019724Y009725D01*
D26*
X000948Y003148D03*
X007198Y003148D03*
X008448Y003148D03*
X009698Y003148D03*
X009698Y009398D03*
X007198Y009398D03*
X000948Y009398D03*
D27*
X034045Y009248D03*
X034872Y009248D03*
X034872Y008168D03*
X034045Y008168D03*
M02*
