%
M48
M72
T01C0.0120
T02C0.0320
T03C0.0394
T04C0.0400
%
T01
X29967Y5332
X29967Y4655
X27023Y4151
X28519Y6490
X31983Y6986
X33952Y4387
T02
X25839Y3824
X25839Y2824
X22839Y2824
X22839Y3824
X25839Y1824
X22839Y1824
X23898Y8818
X23898Y4818
T03
X27486Y3215
X28486Y3215
X29486Y3215
X30486Y3215
X31486Y3215
X32486Y3215
X27486Y10215
X28486Y10215
X29486Y10215
X30486Y10215
X31486Y10215
X32486Y10215
X13818Y9428
X16771Y9428
X19724Y9428
X948Y3148
X948Y9398
X7198Y9398
X9698Y9398
X7198Y3148
X9698Y3148
X8448Y3148
T04
X38477Y3646
X38477Y4646
X38477Y5646
X38477Y6646
X38477Y7646
X38477Y8646
X22958Y10188
X23958Y10188
X24958Y10188
M30
