G75*
G70*
%OFA0B0*%
%FSLAX24Y24*%
%IPPOS*%
%LPD*%
%AMOC8*
5,1,8,0,0,1.08239X$1,22.5*
%
%ADD10C,0.0030*%
%ADD11C,0.0060*%
%ADD12C,0.0080*%
%ADD13C,0.0070*%
%ADD14C,0.0100*%
%ADD15R,0.0079X0.0079*%
D10*
X029146Y008087D02*
X029170Y008064D01*
X029193Y008064D01*
X029216Y008088D01*
X029215Y008158D01*
X029168Y008157D01*
X029145Y008134D01*
X029146Y008087D01*
X029215Y008158D02*
X029262Y008112D01*
X029286Y008066D01*
X029400Y008161D02*
X029423Y008162D01*
X029518Y008070D01*
X029541Y008071D01*
X029540Y008164D01*
X029492Y008226D02*
X029398Y008225D01*
X029469Y008226D02*
X029467Y008319D01*
X029490Y008320D02*
X029538Y008274D01*
X029492Y008226D01*
X029490Y008320D02*
X029397Y008318D01*
X029396Y008381D02*
X029442Y008429D01*
X029442Y008405D02*
X029441Y008475D01*
X029394Y008475D02*
X029534Y008477D01*
X029535Y008407D01*
X029512Y008383D01*
X029466Y008382D01*
X029442Y008405D01*
X029280Y008402D02*
X029258Y008379D01*
X029211Y008378D01*
X029187Y008401D01*
X029186Y008471D01*
X029187Y008424D02*
X029141Y008377D01*
X029142Y008314D02*
X029235Y008315D01*
X029283Y008269D01*
X029237Y008222D01*
X029144Y008220D01*
X029214Y008221D02*
X029212Y008315D01*
X029280Y008402D02*
X029279Y008473D01*
X029139Y008470D01*
X029650Y008432D02*
X029697Y008386D01*
X029791Y008388D01*
X029769Y008324D02*
X029745Y008324D01*
X029722Y008300D01*
X029723Y008254D01*
X029700Y008230D01*
X029677Y008229D01*
X029653Y008252D01*
X029652Y008299D01*
X029675Y008323D01*
X029769Y008324D02*
X029792Y008302D01*
X029793Y008255D01*
X029770Y008231D01*
X029771Y008168D02*
X029748Y008168D01*
X029725Y008144D01*
X029726Y008097D01*
X029703Y008073D01*
X029680Y008073D01*
X029656Y008096D01*
X029655Y008143D01*
X029678Y008166D01*
X029771Y008168D02*
X029795Y008145D01*
X029796Y008098D01*
X029773Y008075D01*
X029911Y008100D02*
X029910Y008147D01*
X029933Y008171D01*
X029980Y008172D02*
X030004Y008125D01*
X030004Y008102D01*
X029981Y008078D01*
X029934Y008077D01*
X029911Y008100D01*
X029980Y008172D02*
X030050Y008173D01*
X030051Y008079D01*
X030166Y008105D02*
X030306Y008107D01*
X030234Y008176D01*
X030236Y008083D01*
X030233Y008239D02*
X030232Y008333D01*
X030255Y008333D02*
X030303Y008287D01*
X030257Y008240D01*
X030163Y008238D01*
X030162Y008331D02*
X030255Y008333D01*
X030231Y008396D02*
X030207Y008419D01*
X030206Y008489D01*
X030159Y008488D02*
X030299Y008490D01*
X030300Y008420D01*
X030277Y008396D01*
X030231Y008396D01*
X030207Y008442D02*
X030161Y008394D01*
X030045Y008416D02*
X030022Y008392D01*
X029976Y008391D01*
X029952Y008414D01*
X029951Y008484D01*
X029952Y008438D02*
X029906Y008390D01*
X029907Y008327D02*
X030000Y008329D01*
X030048Y008283D01*
X030002Y008235D01*
X029908Y008234D01*
X029978Y008235D02*
X029977Y008328D01*
X030045Y008416D02*
X030044Y008486D01*
X029904Y008483D01*
X029789Y008481D02*
X029696Y008480D01*
X029650Y008432D01*
X029669Y008699D02*
X029645Y008722D01*
X029644Y008769D01*
X029667Y008792D01*
X029714Y008793D02*
X029738Y008747D01*
X029738Y008724D01*
X029715Y008700D01*
X029669Y008699D01*
X029714Y008793D02*
X029784Y008794D01*
X029785Y008701D01*
X029900Y008726D02*
X030040Y008729D01*
X029969Y008798D01*
X029970Y008704D01*
X030155Y008731D02*
X030154Y008778D01*
X030177Y008801D01*
X030224Y008755D02*
X030225Y008732D01*
X030202Y008708D01*
X030179Y008708D01*
X030155Y008731D01*
X030225Y008732D02*
X030249Y008709D01*
X030272Y008710D01*
X030295Y008733D01*
X030294Y008780D01*
X030270Y008803D01*
X030408Y008805D02*
X030504Y008714D01*
X030527Y008714D01*
X030550Y008738D01*
X030549Y008784D01*
X030525Y008807D01*
X030408Y008805D02*
X030410Y008712D01*
X030414Y008492D02*
X030554Y008495D01*
X030555Y008425D01*
X030532Y008401D01*
X030486Y008400D01*
X030462Y008423D01*
X030461Y008493D01*
X030461Y008446D02*
X030416Y008399D01*
X030417Y008336D02*
X030510Y008337D01*
X030558Y008292D01*
X030512Y008244D01*
X030418Y008242D01*
X030443Y008180D02*
X030420Y008156D01*
X030421Y008109D01*
X030444Y008086D01*
X030468Y008087D01*
X030491Y008110D01*
X030490Y008134D01*
X030491Y008110D02*
X030514Y008088D01*
X030538Y008088D01*
X030561Y008112D01*
X030560Y008158D01*
X030536Y008181D01*
X030488Y008244D02*
X030487Y008337D01*
X030672Y008340D02*
X030765Y008342D01*
X030813Y008296D01*
X030767Y008248D01*
X030673Y008247D01*
X030674Y008184D02*
X030769Y008092D01*
X030793Y008092D01*
X030816Y008116D01*
X030815Y008163D01*
X030791Y008186D01*
X030743Y008248D02*
X030742Y008341D01*
X030741Y008405D02*
X030717Y008428D01*
X030716Y008498D01*
X030669Y008497D02*
X030809Y008499D01*
X030810Y008429D01*
X030787Y008405D01*
X030741Y008405D01*
X030716Y008451D02*
X030671Y008403D01*
X030674Y008184D02*
X030676Y008090D01*
X030665Y008716D02*
X030663Y008810D01*
X030664Y008763D02*
X030804Y008766D01*
X030757Y008811D01*
X029530Y008697D02*
X029506Y008743D01*
X029459Y008789D01*
X029460Y008719D01*
X029437Y008695D01*
X029414Y008695D01*
X029390Y008717D01*
X029389Y008764D01*
X029412Y008788D01*
X029459Y008789D01*
X029274Y008786D02*
X029275Y008692D01*
X029252Y008692D01*
X029157Y008783D01*
X029134Y008783D01*
D11*
X036982Y007539D02*
X037025Y007582D01*
X037112Y007582D01*
X037155Y007539D01*
X037155Y007366D01*
X037112Y007322D01*
X037025Y007322D01*
X036982Y007366D01*
X037276Y007366D02*
X037320Y007322D01*
X037407Y007322D01*
X037450Y007366D01*
X037450Y007539D01*
X037407Y007582D01*
X037320Y007582D01*
X037276Y007539D01*
X037276Y007452D01*
X037363Y007452D01*
X037571Y007452D02*
X037614Y007496D01*
X037745Y007496D01*
X037745Y007582D02*
X037745Y007322D01*
X037614Y007322D01*
X037571Y007366D01*
X037571Y007452D01*
X037407Y006622D02*
X037320Y006622D01*
X037276Y006579D01*
X037276Y006492D01*
X037363Y006492D01*
X037276Y006406D02*
X037320Y006362D01*
X037407Y006362D01*
X037450Y006406D01*
X037450Y006579D01*
X037407Y006622D01*
X037571Y006492D02*
X037614Y006536D01*
X037745Y006536D01*
X037745Y006622D02*
X037745Y006362D01*
X037614Y006362D01*
X037571Y006406D01*
X037571Y006492D01*
X037155Y006362D02*
X037025Y006362D01*
X036982Y006406D01*
X036982Y006579D01*
X037025Y006622D01*
X037155Y006622D01*
X037155Y006362D01*
X037112Y005662D02*
X037155Y005619D01*
X037112Y005662D02*
X037025Y005662D01*
X036982Y005619D01*
X036982Y005576D01*
X037025Y005532D01*
X037112Y005532D01*
X037155Y005489D01*
X037155Y005446D01*
X037112Y005402D01*
X037025Y005402D01*
X036982Y005446D01*
X037276Y005446D02*
X037320Y005402D01*
X037407Y005402D01*
X037450Y005446D01*
X037450Y005489D01*
X037407Y005532D01*
X037320Y005532D01*
X037276Y005576D01*
X037276Y005619D01*
X037320Y005662D01*
X037407Y005662D01*
X037450Y005619D01*
X037571Y005576D02*
X037571Y005402D01*
X037745Y005402D02*
X037745Y005576D01*
X037658Y005662D01*
X037571Y005576D01*
X037658Y004702D02*
X037571Y004616D01*
X037571Y004442D01*
X037450Y004442D02*
X037320Y004442D01*
X037276Y004486D01*
X037276Y004659D01*
X037320Y004702D01*
X037450Y004702D01*
X037450Y004442D01*
X037745Y004442D02*
X037745Y004616D01*
X037658Y004702D01*
X037155Y004702D02*
X037155Y004442D01*
X037025Y004442D01*
X036982Y004486D01*
X036982Y004659D01*
X037025Y004702D01*
X037155Y004702D01*
X037155Y003742D02*
X036982Y003742D01*
X036861Y003742D02*
X036861Y003482D01*
X036731Y003482D01*
X036687Y003526D01*
X036687Y003612D01*
X036731Y003656D01*
X036861Y003656D01*
X036774Y003656D02*
X036687Y003742D01*
X037155Y003742D02*
X037155Y003482D01*
X037276Y003526D02*
X037320Y003482D01*
X037407Y003482D01*
X037450Y003526D01*
X037450Y003699D01*
X037407Y003742D01*
X037320Y003742D01*
X037276Y003699D01*
X037571Y003742D02*
X037571Y003482D01*
X037658Y003569D01*
X037745Y003482D01*
X037745Y003742D01*
D12*
X027012Y002444D02*
X027012Y001632D01*
X028449Y001632D01*
X028449Y002444D01*
X027012Y002444D01*
X031109Y007712D02*
X031109Y007889D01*
X030932Y007889D01*
X031054Y007767D01*
X031109Y007712D01*
X031820Y007732D02*
X031820Y008544D01*
X033257Y008544D01*
X033257Y007732D01*
X031820Y007732D01*
X031850Y008842D02*
X031850Y009654D01*
X033287Y009654D01*
X033287Y008842D01*
X031850Y008842D01*
D13*
X034460Y002946D02*
X034460Y001878D01*
X034778Y001878D01*
X035931Y001878D02*
X036249Y001878D01*
X036249Y002946D01*
X035703Y002949D02*
X035601Y002949D01*
X035113Y002949D02*
X035011Y002949D01*
D14*
X037977Y003146D02*
X037977Y004146D01*
X038977Y004146D01*
X037977Y004146D02*
X037977Y009146D01*
X038977Y009146D01*
X038977Y003146D01*
X037977Y003146D01*
D15*
X034498Y008168D03*
X034498Y009248D03*
M02*
