G75*
G70*
%OFA0B0*%
%FSLAX24Y24*%
%IPPOS*%
%LPD*%
%AMOC8*
5,1,8,0,0,1.08239X$1,22.5*
%
%ADD10C,0.0634*%
%ADD11C,0.0560*%
%ADD12R,0.0640X0.0640*%
%ADD13OC8,0.0640*%
%ADD14C,0.0640*%
%ADD15OC8,0.0560*%
%ADD16C,0.0634*%
%ADD17R,0.0634X0.0634*%
D10*
X027486Y003215D03*
X028486Y003215D03*
X029486Y003215D03*
X030486Y003215D03*
X031486Y003215D03*
X032486Y003215D03*
X032486Y010215D03*
X031486Y010215D03*
X030486Y010215D03*
X029486Y010215D03*
X028486Y010215D03*
X027486Y010215D03*
D11*
X026359Y003824D02*
X025839Y003824D01*
X025839Y002824D02*
X026359Y002824D01*
X026359Y001824D02*
X025839Y001824D01*
X022839Y001824D02*
X022319Y001824D01*
X022319Y002824D02*
X022839Y002824D01*
X022839Y003824D02*
X022319Y003824D01*
D12*
X038477Y003646D03*
D13*
X038477Y004646D03*
X038477Y005646D03*
X038477Y006646D03*
X038477Y007646D03*
X038477Y008646D03*
D14*
X024958Y009888D02*
X024958Y010488D01*
X023958Y010488D02*
X023958Y009888D01*
X022958Y009888D02*
X022958Y010488D01*
D15*
X023898Y008818D03*
X023898Y004818D03*
D16*
X019724Y009131D02*
X019724Y009725D01*
X016771Y009725D02*
X016771Y009131D01*
X013818Y009131D02*
X013818Y009725D01*
D17*
X000948Y003148D03*
X007198Y003148D03*
X008448Y003148D03*
X009698Y003148D03*
X009698Y009398D03*
X007198Y009398D03*
X000948Y009398D03*
M02*
