G75*
G70*
%OFA0B0*%
%FSLAX24Y24*%
%IPPOS*%
%LPD*%
%AMOC8*
5,1,8,0,0,1.08239X$1,22.5*
%
%ADD10C,0.0030*%
%ADD11C,0.0160*%
%ADD12C,0.0070*%
%ADD13C,0.0060*%
%ADD14C,0.0050*%
%ADD15C,0.0200*%
%ADD16R,0.4200X0.0250*%
%ADD17R,0.0750X0.0250*%
%ADD18R,0.0300X0.0250*%
%ADD19R,0.0240X0.0340*%
%ADD20C,0.0020*%
D10*
X001482Y001254D02*
X001530Y001206D01*
X001579Y001206D01*
X001627Y001303D02*
X001482Y001303D01*
X001482Y001254D02*
X001482Y001496D01*
X001675Y001496D02*
X001675Y001351D01*
X001627Y001303D01*
X001776Y001351D02*
X001776Y001448D01*
X001825Y001496D01*
X001970Y001496D01*
X001970Y001593D02*
X001970Y001303D01*
X001825Y001303D01*
X001776Y001351D01*
X002366Y001303D02*
X002511Y001303D01*
X002559Y001351D01*
X002559Y001448D01*
X002511Y001496D01*
X002366Y001496D01*
X002366Y001593D02*
X002366Y001303D01*
X002660Y001400D02*
X002854Y001400D01*
X002854Y001448D02*
X002805Y001496D01*
X002709Y001496D01*
X002660Y001448D01*
X002660Y001400D01*
X002709Y001303D02*
X002805Y001303D01*
X002854Y001351D01*
X002854Y001448D01*
X002955Y001448D02*
X002955Y001303D01*
X002955Y001448D02*
X003003Y001496D01*
X003149Y001496D01*
X003149Y001303D01*
X003250Y001303D02*
X003395Y001303D01*
X003443Y001351D01*
X003443Y001448D01*
X003395Y001496D01*
X003250Y001496D01*
X003250Y001254D01*
X003298Y001206D01*
X003346Y001206D01*
X003543Y001303D02*
X003640Y001303D01*
X003591Y001303D02*
X003591Y001496D01*
X003640Y001496D01*
X003741Y001496D02*
X003886Y001496D01*
X003934Y001448D01*
X003886Y001400D01*
X003789Y001400D01*
X003741Y001351D01*
X003789Y001303D01*
X003934Y001303D01*
X004035Y001400D02*
X004229Y001400D01*
X004229Y001448D02*
X004181Y001496D01*
X004084Y001496D01*
X004035Y001448D01*
X004035Y001400D01*
X004084Y001303D02*
X004181Y001303D01*
X004229Y001351D01*
X004229Y001448D01*
X004330Y001496D02*
X004475Y001496D01*
X004524Y001448D01*
X004524Y001351D01*
X004475Y001303D01*
X004330Y001303D01*
X004330Y001593D01*
X003591Y001593D02*
X003591Y001641D01*
X005214Y001448D02*
X005214Y001303D01*
X005214Y001448D02*
X005262Y001496D01*
X005359Y001496D01*
X005408Y001448D01*
X005509Y001496D02*
X005654Y001496D01*
X005702Y001448D01*
X005702Y001351D01*
X005654Y001303D01*
X005509Y001303D01*
X005408Y001303D02*
X005408Y001593D01*
X005802Y001496D02*
X005899Y001496D01*
X005850Y001545D02*
X005850Y001351D01*
X005802Y001303D01*
X005998Y001303D02*
X006095Y001303D01*
X006047Y001303D02*
X006047Y001496D01*
X006095Y001496D01*
X006196Y001496D02*
X006196Y001351D01*
X006245Y001303D01*
X006293Y001351D01*
X006341Y001303D01*
X006390Y001351D01*
X006390Y001496D01*
X006491Y001545D02*
X006539Y001593D01*
X006636Y001593D01*
X006684Y001545D01*
X006684Y001496D01*
X006636Y001448D01*
X006539Y001448D01*
X006491Y001400D01*
X006491Y001351D01*
X006539Y001303D01*
X006636Y001303D01*
X006684Y001351D01*
X007079Y001303D02*
X007127Y001351D01*
X007127Y001545D01*
X007175Y001496D02*
X007079Y001496D01*
X007277Y001448D02*
X007277Y001303D01*
X007277Y001448D02*
X007325Y001496D01*
X007422Y001496D01*
X007470Y001448D01*
X007571Y001496D02*
X007716Y001496D01*
X007765Y001448D01*
X007765Y001351D01*
X007716Y001303D01*
X007571Y001303D01*
X007571Y001254D02*
X007571Y001496D01*
X007470Y001593D02*
X007470Y001303D01*
X007571Y001254D02*
X007620Y001206D01*
X007668Y001206D01*
X007864Y001303D02*
X007961Y001303D01*
X007913Y001303D02*
X007913Y001496D01*
X007961Y001496D01*
X007913Y001593D02*
X007913Y001641D01*
X008256Y001593D02*
X008256Y001303D01*
X008062Y001303D01*
X006047Y001593D02*
X006047Y001641D01*
X001086Y001593D02*
X001086Y001303D01*
X000989Y001400D01*
X000892Y001303D01*
X000892Y001593D01*
X000708Y001520D02*
X000515Y001714D01*
X000515Y001762D01*
X000563Y001811D01*
X000660Y001811D01*
X000708Y001762D01*
X000708Y001520D02*
X000515Y001520D01*
D11*
X016028Y004448D02*
X016032Y004592D01*
X016042Y004735D01*
X016060Y004878D01*
X016084Y005019D01*
X016116Y005159D01*
X016154Y005298D01*
X016199Y005434D01*
X016251Y005568D01*
X016309Y005700D01*
X016374Y005828D01*
X016445Y005953D01*
X016521Y006075D01*
X016604Y006192D01*
X016693Y006306D01*
X016786Y006414D01*
X016886Y006518D01*
X016990Y006618D01*
X017098Y006711D01*
X017212Y006800D01*
X017329Y006883D01*
X017451Y006959D01*
X017576Y007030D01*
X017704Y007095D01*
X017836Y007153D01*
X017970Y007205D01*
X018106Y007250D01*
X018245Y007288D01*
X018385Y007320D01*
X018526Y007344D01*
X018669Y007362D01*
X018812Y007372D01*
X018956Y007376D01*
X019100Y007372D01*
X019243Y007362D01*
X019386Y007344D01*
X019527Y007320D01*
X019667Y007288D01*
X019806Y007250D01*
X019942Y007205D01*
X020076Y007153D01*
X020208Y007095D01*
X020336Y007030D01*
X020461Y006959D01*
X020583Y006883D01*
X020700Y006800D01*
X020814Y006711D01*
X020922Y006618D01*
X021026Y006518D01*
X021126Y006414D01*
X021219Y006306D01*
X021308Y006192D01*
X021391Y006075D01*
X021467Y005953D01*
X021538Y005828D01*
X021603Y005700D01*
X021661Y005568D01*
X021713Y005434D01*
X021758Y005298D01*
X021796Y005159D01*
X021828Y005019D01*
X021852Y004878D01*
X021870Y004735D01*
X021880Y004592D01*
X021884Y004448D01*
X021880Y004304D01*
X021870Y004161D01*
X021852Y004018D01*
X021828Y003877D01*
X021796Y003737D01*
X021758Y003598D01*
X021713Y003462D01*
X021661Y003328D01*
X021603Y003196D01*
X021538Y003068D01*
X021467Y002943D01*
X021391Y002821D01*
X021308Y002704D01*
X021219Y002590D01*
X021126Y002482D01*
X021026Y002378D01*
X020922Y002278D01*
X020814Y002185D01*
X020700Y002096D01*
X020583Y002013D01*
X020461Y001937D01*
X020336Y001866D01*
X020208Y001801D01*
X020076Y001743D01*
X019942Y001691D01*
X019806Y001646D01*
X019667Y001608D01*
X019527Y001576D01*
X019386Y001552D01*
X019243Y001534D01*
X019100Y001524D01*
X018956Y001520D01*
X018812Y001524D01*
X018669Y001534D01*
X018526Y001552D01*
X018385Y001576D01*
X018245Y001608D01*
X018106Y001646D01*
X017970Y001691D01*
X017836Y001743D01*
X017704Y001801D01*
X017576Y001866D01*
X017451Y001937D01*
X017329Y002013D01*
X017212Y002096D01*
X017098Y002185D01*
X016990Y002278D01*
X016886Y002378D01*
X016786Y002482D01*
X016693Y002590D01*
X016604Y002704D01*
X016521Y002821D01*
X016445Y002943D01*
X016374Y003068D01*
X016309Y003196D01*
X016251Y003328D01*
X016199Y003462D01*
X016154Y003598D01*
X016116Y003737D01*
X016084Y003877D01*
X016060Y004018D01*
X016042Y004161D01*
X016032Y004304D01*
X016028Y004448D01*
D12*
X016039Y007513D02*
X016039Y007678D01*
X016094Y007733D01*
X016259Y007733D01*
X016259Y007513D01*
X016395Y007513D02*
X016505Y007513D01*
X016450Y007513D02*
X016450Y007733D01*
X016505Y007733D01*
X016450Y007843D02*
X016450Y007898D01*
X016653Y007788D02*
X016708Y007843D01*
X016818Y007843D01*
X016873Y007788D01*
X016653Y007788D02*
X016653Y007733D01*
X016873Y007513D01*
X016653Y007513D01*
X017021Y007513D02*
X017241Y007513D01*
X017241Y007843D01*
X018958Y007733D02*
X019068Y007733D01*
X019013Y007788D02*
X019013Y007568D01*
X018958Y007513D01*
X019216Y007513D02*
X019216Y007733D01*
X019436Y007733D02*
X019436Y007568D01*
X019381Y007513D01*
X019216Y007513D01*
X019584Y007568D02*
X019584Y007678D01*
X019640Y007733D01*
X019750Y007733D01*
X019805Y007678D01*
X019805Y007568D01*
X019750Y007513D01*
X019640Y007513D01*
X019584Y007568D01*
X019953Y007513D02*
X020173Y007513D01*
X019953Y007733D01*
X019953Y007788D01*
X020008Y007843D01*
X020118Y007843D01*
X020173Y007788D01*
X020541Y007843D02*
X020541Y007513D01*
X020321Y007513D01*
X013941Y007483D02*
X013721Y007483D01*
X013573Y007483D02*
X013353Y007483D01*
X013463Y007483D02*
X013463Y007813D01*
X013573Y007703D01*
X013941Y007813D02*
X013941Y007483D01*
D13*
X021966Y009638D02*
X021966Y010788D01*
X022066Y010888D01*
X025866Y010888D01*
X025966Y010788D01*
X025966Y009638D01*
X024256Y008068D02*
X023556Y008068D01*
X023539Y008066D01*
X023522Y008062D01*
X023506Y008055D01*
X023492Y008045D01*
X023479Y008032D01*
X023469Y008018D01*
X023462Y008002D01*
X023458Y007985D01*
X023456Y007968D01*
X023456Y007818D01*
X023506Y007768D01*
X023506Y005868D01*
X023456Y005818D01*
X023456Y005668D01*
X023458Y005651D01*
X023462Y005634D01*
X023469Y005618D01*
X023479Y005604D01*
X023492Y005591D01*
X023506Y005581D01*
X023522Y005574D01*
X023539Y005570D01*
X023556Y005568D01*
X024256Y005568D01*
X024273Y005570D01*
X024290Y005574D01*
X024306Y005581D01*
X024320Y005591D01*
X024333Y005604D01*
X024343Y005618D01*
X024350Y005634D01*
X024354Y005651D01*
X024356Y005668D01*
X024356Y005818D01*
X024306Y005868D01*
X024306Y007768D01*
X024356Y007818D01*
X024356Y007968D01*
X024354Y007985D01*
X024350Y008002D01*
X024343Y008018D01*
X024333Y008032D01*
X024320Y008045D01*
X024306Y008055D01*
X024290Y008062D01*
X024273Y008066D01*
X024256Y008068D01*
X023947Y004324D02*
X023949Y004285D01*
X023955Y004246D01*
X023964Y004208D01*
X023977Y004171D01*
X023994Y004135D01*
X024014Y004102D01*
X024038Y004070D01*
X024064Y004041D01*
X024093Y004015D01*
X024125Y003991D01*
X024158Y003971D01*
X024194Y003954D01*
X024231Y003941D01*
X024269Y003932D01*
X024308Y003926D01*
X024347Y003924D01*
X024386Y003926D01*
X024425Y003932D01*
X024463Y003941D01*
X024500Y003954D01*
X024536Y003971D01*
X024569Y003991D01*
X024601Y004015D01*
X024630Y004041D01*
X024656Y004070D01*
X024680Y004102D01*
X024700Y004135D01*
X024717Y004171D01*
X024730Y004208D01*
X024739Y004246D01*
X024745Y004285D01*
X024747Y004324D01*
X025397Y004324D01*
X025397Y001324D01*
X023297Y001324D01*
X023297Y004324D01*
X023947Y004324D01*
X037970Y002890D02*
X037970Y002629D01*
X038057Y002716D01*
X038143Y002629D01*
X038143Y002890D01*
X038265Y002846D02*
X038308Y002890D01*
X038395Y002890D01*
X038438Y002846D01*
X038559Y002890D02*
X038733Y002890D01*
X038854Y002890D02*
X038854Y002629D01*
X038984Y002629D01*
X039027Y002673D01*
X039027Y002759D01*
X038984Y002803D01*
X038854Y002803D01*
X038941Y002803D02*
X039027Y002890D01*
X038559Y002890D02*
X038559Y002629D01*
X038438Y002673D02*
X038395Y002629D01*
X038308Y002629D01*
X038265Y002673D01*
X038265Y002846D01*
D14*
X037894Y003215D02*
X037894Y010215D01*
X033194Y010215D01*
X033194Y003215D01*
X037894Y003215D01*
X033193Y003221D02*
X032918Y003221D01*
X032091Y003221D02*
X031894Y003221D01*
X031107Y003221D02*
X030871Y003221D01*
X030083Y003221D02*
X029886Y003221D01*
X029099Y003221D02*
X028902Y003221D01*
X028115Y003221D02*
X027879Y003221D01*
X027091Y003221D02*
X026894Y003221D01*
X026894Y003215D01*
X026894Y003221D02*
X026894Y010215D01*
X026894Y010229D02*
X027091Y010229D01*
X027918Y010229D02*
X028075Y010229D01*
X028902Y010229D02*
X029099Y010229D01*
X029886Y010229D02*
X030083Y010229D01*
X030910Y010229D02*
X031107Y010229D01*
X031894Y010229D02*
X032091Y010229D01*
X032879Y010229D02*
X033233Y010229D01*
X021076Y010928D02*
X021076Y007928D01*
X012326Y007928D01*
X012326Y010928D01*
X021076Y010928D01*
D15*
X022146Y010648D03*
D16*
X023966Y009313D03*
D17*
X025691Y009563D03*
X022241Y009563D03*
D18*
X023466Y009563D03*
X024466Y009563D03*
D19*
X023906Y008238D03*
X023906Y005398D03*
D20*
X009888Y003888D02*
X009888Y003778D01*
X009815Y003815D01*
X009778Y003815D01*
X009741Y003778D01*
X009741Y003705D01*
X009778Y003668D01*
X009852Y003668D01*
X009888Y003705D01*
X009888Y003888D02*
X009741Y003888D01*
X009667Y003815D02*
X009594Y003668D01*
X009520Y003815D01*
X008696Y003839D02*
X008696Y003693D01*
X008659Y003656D01*
X008586Y003656D01*
X008549Y003693D01*
X008549Y003766D01*
X008622Y003766D01*
X008549Y003839D02*
X008586Y003876D01*
X008659Y003876D01*
X008696Y003839D01*
X008475Y003876D02*
X008328Y003656D01*
X008328Y003876D01*
X008254Y003876D02*
X008144Y003876D01*
X008107Y003839D01*
X008107Y003693D01*
X008144Y003656D01*
X008254Y003656D01*
X008254Y003876D01*
X008475Y003876D02*
X008475Y003656D01*
X009377Y009918D02*
X009524Y009918D01*
X009377Y010065D01*
X009377Y010101D01*
X009413Y010138D01*
X009487Y010138D01*
X009524Y010101D01*
X009745Y010138D02*
X009745Y009918D01*
X009598Y009918D01*
X007294Y009955D02*
X007147Y009955D01*
X007073Y009955D02*
X006926Y009955D01*
X006999Y009955D02*
X006999Y010175D01*
X007073Y010102D01*
X007294Y010175D02*
X007294Y009955D01*
M02*
