G75*
G70*
%OFA0B0*%
%FSLAX24Y24*%
%IPPOS*%
%LPD*%
%AMOC8*
5,1,8,0,0,1.08239X$1,22.5*
%
%ADD10C,0.0520*%
%ADD11OC8,0.0560*%
%ADD12C,0.0594*%
%ADD13C,0.0591*%
%ADD14C,0.0240*%
%ADD15C,0.0100*%
%ADD16OC8,0.0317*%
%ADD17R,0.0472X0.0472*%
%ADD18C,0.0356*%
D10*
X003558Y016759D02*
X004078Y016759D01*
X004078Y017759D02*
X003558Y017759D01*
X003558Y018759D02*
X004078Y018759D01*
X006558Y018759D02*
X007078Y018759D01*
X007078Y017759D02*
X006558Y017759D01*
X006558Y016759D02*
X007078Y016759D01*
D11*
X009123Y017883D03*
X009123Y014883D03*
D12*
X003390Y003537D02*
X003390Y002943D01*
X006343Y002943D02*
X006343Y003537D01*
X009296Y003537D02*
X009296Y002943D01*
D13*
X008704Y006125D03*
X008704Y007109D03*
X008704Y008113D03*
X008704Y009117D03*
X008684Y010121D03*
X008684Y011145D03*
X010062Y016834D03*
X010062Y017834D03*
X010062Y018834D03*
X001656Y011125D03*
X001676Y010101D03*
X001676Y009117D03*
X001696Y008133D03*
X001696Y007109D03*
X001676Y006105D03*
X000921Y014085D03*
X000941Y015089D03*
X000961Y016092D03*
X000961Y017077D03*
X000941Y018100D03*
X000961Y019085D03*
D14*
X001650Y018570D03*
X001440Y017610D03*
X001470Y016530D03*
X001470Y016530D03*
X002010Y016530D03*
X002010Y016530D03*
X002850Y015270D03*
X001980Y014760D03*
X001320Y014580D03*
X001578Y012192D03*
X001950Y010680D03*
X003180Y010830D03*
X005040Y010080D03*
X006240Y011850D03*
X000960Y009600D03*
D15*
X004560Y009600D01*
X005040Y010080D01*
X006240Y011850D02*
X009840Y015450D01*
X019290Y015450D01*
X018540Y016320D02*
X011400Y016320D01*
X010800Y015720D01*
X005970Y015720D01*
X005370Y016320D01*
X005370Y019080D01*
X005100Y019350D01*
X003240Y019350D01*
X002880Y018990D01*
X001650Y018570D02*
X000540Y018570D01*
X000390Y018420D01*
X000390Y012360D01*
X000558Y012192D01*
X001578Y012192D01*
X001950Y010680D02*
X003030Y010680D01*
X003180Y010830D01*
X001320Y014580D02*
X001500Y014760D01*
X001980Y014760D01*
X002850Y015270D02*
X002850Y016290D01*
X001530Y017610D01*
X001440Y017610D01*
X001470Y016530D02*
X002010Y016530D01*
D16*
X006774Y007956D03*
X008270Y007836D03*
D17*
X013040Y006147D03*
X013040Y012397D03*
X013040Y014897D03*
X019290Y014897D03*
X019290Y013647D03*
X019290Y012397D03*
X019290Y006147D03*
D18*
X019290Y015450D03*
X018540Y016320D03*
X002880Y018990D03*
M02*
