%
M48
M72
T01C0.0120
T02C0.0197
T03C0.0236
T04C0.0315
T05C0.0320
T06C0.0394
%
T01
X1578Y12192
X1650Y18570
X1980Y14760
X1320Y14580
X1470Y16530
X1470Y16530
X2010Y16530
X2010Y16530
X3180Y10830
X1950Y10680
X6240Y11850
X5040Y10080
X960Y9600
X2850Y15270
X1440Y17610
T02
X6774Y7956
X8270Y7836
T03
X2880Y18990
X18540Y16320
X19290Y15450
T04
X19290Y14897
X13040Y14897
X19290Y13647
X19290Y12397
X19290Y6147
X13040Y12397
X13040Y6147
T05
X3818Y16759
X3818Y17759
X6818Y17759
X6818Y16759
X3818Y18759
X6818Y18759
X9123Y17883
X9123Y14883
T06
X3390Y3240
X6343Y3240
X9296Y3240
X1676Y6105
X1656Y11125
X1696Y8133
X1696Y7109
X8704Y6125
X8704Y7109
X8704Y8113
X8704Y9117
X8684Y10121
X8684Y11145
X941Y15089
X961Y16092
X961Y17077
X941Y18100
X961Y19085
X921Y14085
X1676Y10101
X1676Y9117
X10062Y18834
X10062Y17834
X10062Y16834
M30
