G75*
G70*
%OFA0B0*%
%FSLAX24Y24*%
%IPPOS*%
%LPD*%
%AMOC8*
5,1,8,0,0,1.08239X$1,22.5*
%
%ADD10R,0.0279X0.0143*%
%ADD11R,0.0143X0.0279*%
%ADD12R,0.0279X0.0143*%
%ADD13R,0.1464X0.1464*%
%ADD14R,0.0630X0.0830*%
%ADD15R,0.1540X0.0830*%
%ADD16R,0.0552X0.0631*%
%ADD17C,0.0560*%
%ADD18R,0.0552X0.0670*%
%ADD19OC8,0.0600*%
%ADD20C,0.0634*%
%ADD21R,0.0827X0.1221*%
D10*
X004138Y006903D03*
X004138Y007159D03*
X004138Y007415D03*
X004138Y007671D03*
X004138Y007927D03*
X004138Y008183D03*
X004138Y008439D03*
D11*
X004434Y008734D03*
X004690Y008734D03*
X004946Y008734D03*
X005202Y008734D03*
X005458Y008734D03*
X005713Y008734D03*
X005969Y008734D03*
X005969Y006608D03*
X005713Y006608D03*
X005458Y006608D03*
X005202Y006608D03*
X004946Y006608D03*
X004690Y006608D03*
X004434Y006608D03*
D12*
X006265Y006903D03*
X006265Y007159D03*
X006265Y007415D03*
X006265Y007671D03*
X006265Y007927D03*
X006265Y008183D03*
X006265Y008439D03*
D13*
X005202Y007671D03*
D14*
G36*
X004821Y010986D02*
X004375Y010540D01*
X003789Y011126D01*
X004235Y011572D01*
X004821Y010986D01*
G37*
G36*
X005458Y011622D02*
X005012Y011176D01*
X004426Y011762D01*
X004872Y012208D01*
X005458Y011622D01*
G37*
G36*
X006094Y012259D02*
X005648Y011813D01*
X005062Y012399D01*
X005508Y012845D01*
X006094Y012259D01*
G37*
D15*
G36*
X004018Y013690D02*
X002930Y012602D01*
X002344Y013188D01*
X003432Y014276D01*
X004018Y013690D01*
G37*
D16*
X006066Y011066D03*
X006814Y011066D03*
X006794Y010180D03*
X006046Y010180D03*
D17*
X006558Y016759D02*
X007078Y016759D01*
X007078Y017759D02*
X006558Y017759D01*
X006558Y018759D02*
X007078Y018759D01*
X004078Y018759D02*
X003558Y018759D01*
X003558Y017759D02*
X004078Y017759D01*
X004078Y016759D02*
X003558Y016759D01*
D18*
G36*
X005890Y014907D02*
X006281Y014516D01*
X005808Y014043D01*
X005417Y014434D01*
X005890Y014907D01*
G37*
G36*
X006447Y014350D02*
X006838Y013959D01*
X006365Y013486D01*
X005974Y013877D01*
X006447Y014350D01*
G37*
D19*
X009123Y014883D03*
X009123Y017883D03*
D20*
X003390Y003537D02*
X003390Y002943D01*
X006343Y002943D02*
X006343Y003537D01*
X009296Y003537D02*
X009296Y002943D01*
D21*
X014996Y003630D03*
X018343Y003630D03*
M02*
