G75*
G70*
%OFA0B0*%
%FSLAX24Y24*%
%IPPOS*%
%LPD*%
%AMOC8*
5,1,8,0,0,1.08239X$1,22.5*
%
%ADD10C,0.0594*%
%ADD11C,0.0520*%
%ADD12R,0.0600X0.0600*%
%ADD13OC8,0.0600*%
%ADD14C,0.0600*%
%ADD15OC8,0.0520*%
%ADD16C,0.0594*%
%ADD17R,0.0594X0.0594*%
%ADD18C,0.0060*%
%ADD19C,0.0240*%
%ADD20C,0.0356*%
%ADD21C,0.0100*%
D10*
X027494Y003215D03*
X028494Y003215D03*
X029494Y003215D03*
X030494Y003215D03*
X031494Y003215D03*
X032494Y003215D03*
X032494Y010215D03*
X031494Y010215D03*
X030494Y010215D03*
X029494Y010215D03*
X028494Y010215D03*
X027494Y010215D03*
D11*
X026367Y003824D02*
X025847Y003824D01*
X025847Y002824D02*
X026367Y002824D01*
X026367Y001824D02*
X025847Y001824D01*
X022847Y001824D02*
X022327Y001824D01*
X022327Y002824D02*
X022847Y002824D01*
X022847Y003824D02*
X022327Y003824D01*
D12*
X038485Y003646D03*
D13*
X038485Y004646D03*
X038485Y005646D03*
X038485Y006646D03*
X038485Y007646D03*
X038485Y008646D03*
D14*
X024966Y009888D02*
X024966Y010488D01*
X023966Y010488D02*
X023966Y009888D01*
X022966Y009888D02*
X022966Y010488D01*
D15*
X023906Y008818D03*
X023906Y004818D03*
D16*
X019732Y009131D02*
X019732Y009725D01*
X016779Y009725D02*
X016779Y009131D01*
X013826Y009131D02*
X013826Y009725D01*
D17*
X009706Y009398D03*
X007206Y009398D03*
X000956Y009398D03*
X000956Y003148D03*
X007206Y003148D03*
X008456Y003148D03*
X009706Y003148D03*
D18*
X027536Y006878D02*
X027986Y006518D01*
X028466Y006518D01*
X028796Y007058D02*
X028586Y007268D01*
X028796Y007058D02*
X028796Y005708D01*
X029216Y005348D02*
X029966Y005348D01*
X031736Y005318D02*
X031736Y004898D01*
X033656Y003698D02*
X034256Y004298D01*
X033656Y003698D02*
X033656Y003668D01*
X032546Y003248D02*
X032494Y003215D01*
X032546Y003218D01*
X036596Y003218D01*
X038426Y004688D02*
X038485Y004646D01*
X038426Y004688D02*
X038426Y004868D01*
X032666Y010628D01*
X030866Y010628D01*
X030506Y010268D01*
X030494Y010215D01*
X030596Y009758D02*
X031046Y010208D01*
X031466Y010208D01*
X031494Y010215D01*
X030596Y009758D02*
X026846Y009758D01*
X031286Y008738D02*
X032216Y008738D01*
X031706Y008138D02*
X030746Y008138D01*
X031496Y007328D02*
X031736Y007088D01*
X031736Y006128D01*
X031976Y006788D02*
X034406Y006788D01*
X034376Y006758D01*
X036476Y007178D02*
X038846Y007178D01*
X029126Y003848D02*
X028976Y003698D01*
X028976Y002828D01*
X028736Y002588D01*
X028736Y002258D01*
D19*
X028736Y002258D03*
X033656Y003668D03*
X034256Y004298D03*
X031736Y004898D03*
X031736Y005318D03*
X029966Y005348D03*
X029216Y005348D03*
X028796Y005708D03*
X028466Y006518D03*
X027536Y006878D03*
X028586Y007268D03*
X030746Y008138D03*
X031706Y008138D03*
X031286Y008738D03*
X032216Y008738D03*
X031496Y007328D03*
X031976Y006788D03*
X031736Y006128D03*
X034376Y006758D03*
X036476Y007178D03*
X038846Y007178D03*
X029126Y003848D03*
X026846Y009758D03*
D20*
X036596Y003218D03*
D21*
X000410Y000838D02*
X000410Y012189D01*
X039320Y012189D01*
X039320Y000838D01*
X000410Y000838D01*
X000410Y000903D02*
X039320Y000903D01*
X039320Y001002D02*
X000410Y001002D01*
X000410Y001100D02*
X039320Y001100D01*
X039320Y001199D02*
X000410Y001199D01*
X000410Y001297D02*
X039320Y001297D01*
X039320Y001396D02*
X000410Y001396D01*
X000410Y001494D02*
X022077Y001494D01*
X022095Y001476D02*
X022246Y001414D01*
X022929Y001414D01*
X023080Y001476D01*
X023195Y001592D01*
X023257Y001742D01*
X023257Y001905D01*
X023195Y002056D01*
X023080Y002171D01*
X022929Y002234D01*
X022246Y002234D01*
X022095Y002171D01*
X021980Y002056D01*
X021917Y001905D01*
X021917Y001742D01*
X021980Y001592D01*
X022095Y001476D01*
X021979Y001593D02*
X000410Y001593D01*
X000410Y001691D02*
X021938Y001691D01*
X021917Y001790D02*
X000410Y001790D01*
X000410Y001888D02*
X021917Y001888D01*
X021951Y001987D02*
X000410Y001987D01*
X000410Y002085D02*
X022009Y002085D01*
X022125Y002184D02*
X000410Y002184D01*
X000410Y002282D02*
X028466Y002282D01*
X028466Y002312D02*
X028466Y002204D01*
X028507Y002105D01*
X028583Y002029D01*
X028683Y001988D01*
X028790Y001988D01*
X028889Y002029D01*
X028965Y002105D01*
X029006Y002204D01*
X029006Y002312D01*
X028965Y002411D01*
X028916Y002460D01*
X028916Y002513D01*
X029051Y002648D01*
X029156Y002753D01*
X029156Y002921D01*
X029241Y002836D01*
X029405Y002768D01*
X029583Y002768D01*
X029747Y002836D01*
X029873Y002962D01*
X029941Y003126D01*
X029941Y003304D01*
X029873Y003468D01*
X029747Y003594D01*
X029583Y003662D01*
X029405Y003662D01*
X029241Y003594D01*
X029156Y003509D01*
X029156Y003578D01*
X029180Y003578D01*
X029279Y003619D01*
X029355Y003695D01*
X029396Y003794D01*
X029396Y003902D01*
X029355Y004001D01*
X029279Y004077D01*
X029180Y004118D01*
X029073Y004118D01*
X028973Y004077D01*
X028897Y004001D01*
X028856Y003902D01*
X028856Y003832D01*
X028796Y003772D01*
X028796Y003545D01*
X028747Y003594D01*
X028583Y003662D01*
X028405Y003662D01*
X028241Y003594D01*
X028115Y003468D01*
X028047Y003304D01*
X028047Y003126D01*
X028115Y002962D01*
X028241Y002836D01*
X028405Y002768D01*
X028583Y002768D01*
X028718Y002824D01*
X028556Y002662D01*
X028556Y002460D01*
X028507Y002411D01*
X028466Y002312D01*
X028495Y002381D02*
X000410Y002381D01*
X000410Y002479D02*
X022092Y002479D01*
X022095Y002476D02*
X022246Y002414D01*
X022929Y002414D01*
X023080Y002476D01*
X023195Y002592D01*
X023257Y002742D01*
X023257Y002905D01*
X023195Y003056D01*
X023080Y003171D01*
X022929Y003234D01*
X022246Y003234D01*
X022095Y003171D01*
X021980Y003056D01*
X021917Y002905D01*
X021917Y002742D01*
X021980Y002592D01*
X022095Y002476D01*
X021993Y002578D02*
X000410Y002578D01*
X000410Y002676D02*
X021945Y002676D01*
X021917Y002775D02*
X010139Y002775D01*
X010153Y002789D02*
X010065Y002701D01*
X009347Y002701D01*
X009259Y002789D01*
X009259Y003507D01*
X009347Y003595D01*
X010065Y003595D01*
X010153Y003507D01*
X010153Y002789D01*
X010153Y002873D02*
X021917Y002873D01*
X021945Y002972D02*
X010153Y002972D01*
X010153Y003070D02*
X021994Y003070D01*
X022093Y003169D02*
X010153Y003169D01*
X010153Y003267D02*
X027047Y003267D01*
X027047Y003304D02*
X027047Y003126D01*
X027115Y002962D01*
X027241Y002836D01*
X027405Y002768D01*
X027583Y002768D01*
X027747Y002836D01*
X027873Y002962D01*
X027941Y003126D01*
X027941Y003304D01*
X027873Y003468D01*
X027747Y003594D01*
X027583Y003662D01*
X027405Y003662D01*
X027241Y003594D01*
X027115Y003468D01*
X027047Y003304D01*
X027073Y003366D02*
X010153Y003366D01*
X010153Y003464D02*
X022124Y003464D01*
X022095Y003476D02*
X022246Y003414D01*
X022929Y003414D01*
X023080Y003476D01*
X023195Y003592D01*
X023257Y003742D01*
X023257Y003905D01*
X023195Y004056D01*
X023080Y004171D01*
X022929Y004234D01*
X022246Y004234D01*
X022095Y004171D01*
X021980Y004056D01*
X021917Y003905D01*
X021917Y003742D01*
X021980Y003592D01*
X022095Y003476D01*
X022008Y003563D02*
X010097Y003563D01*
X009315Y003563D02*
X008847Y003563D01*
X008815Y003595D02*
X008097Y003595D01*
X008009Y003507D01*
X008009Y002789D01*
X008097Y002701D01*
X008815Y002701D01*
X008903Y002789D01*
X008903Y003507D01*
X008815Y003595D01*
X008903Y003464D02*
X009259Y003464D01*
X009259Y003366D02*
X008903Y003366D01*
X008903Y003267D02*
X009259Y003267D01*
X009259Y003169D02*
X008903Y003169D01*
X008903Y003070D02*
X009259Y003070D01*
X009259Y002972D02*
X008903Y002972D01*
X008903Y002873D02*
X009259Y002873D01*
X009273Y002775D02*
X008889Y002775D01*
X008023Y002775D02*
X007639Y002775D01*
X007653Y002789D02*
X007565Y002701D01*
X006847Y002701D01*
X006759Y002789D01*
X006759Y003507D01*
X006847Y003595D01*
X007565Y003595D01*
X007653Y003507D01*
X007653Y002789D01*
X007653Y002873D02*
X008009Y002873D01*
X008009Y002972D02*
X007653Y002972D01*
X007653Y003070D02*
X008009Y003070D01*
X008009Y003169D02*
X007653Y003169D01*
X007653Y003267D02*
X008009Y003267D01*
X008009Y003366D02*
X007653Y003366D01*
X007653Y003464D02*
X008009Y003464D01*
X008065Y003563D02*
X007597Y003563D01*
X006815Y003563D02*
X001347Y003563D01*
X001315Y003595D02*
X000597Y003595D01*
X000509Y003507D01*
X000509Y002789D01*
X000597Y002701D01*
X001315Y002701D01*
X001403Y002789D01*
X001403Y003507D01*
X001315Y003595D01*
X001403Y003464D02*
X006759Y003464D01*
X006759Y003366D02*
X001403Y003366D01*
X001403Y003267D02*
X006759Y003267D01*
X006759Y003169D02*
X001403Y003169D01*
X001403Y003070D02*
X006759Y003070D01*
X006759Y002972D02*
X001403Y002972D01*
X001403Y002873D02*
X006759Y002873D01*
X006773Y002775D02*
X001389Y002775D01*
X000523Y002775D02*
X000410Y002775D01*
X000410Y002873D02*
X000509Y002873D01*
X000509Y002972D02*
X000410Y002972D01*
X000410Y003070D02*
X000509Y003070D01*
X000509Y003169D02*
X000410Y003169D01*
X000410Y003267D02*
X000509Y003267D01*
X000509Y003366D02*
X000410Y003366D01*
X000410Y003464D02*
X000509Y003464D01*
X000565Y003563D02*
X000410Y003563D01*
X000410Y003661D02*
X021951Y003661D01*
X021917Y003760D02*
X000410Y003760D01*
X000410Y003858D02*
X021917Y003858D01*
X021939Y003957D02*
X000410Y003957D01*
X000410Y004055D02*
X021979Y004055D01*
X022078Y004154D02*
X000410Y004154D01*
X000410Y004252D02*
X033956Y004252D01*
X033986Y004282D02*
X033642Y003938D01*
X033603Y003938D01*
X033503Y003897D01*
X033427Y003821D01*
X033386Y003722D01*
X033386Y003614D01*
X033427Y003515D01*
X033503Y003439D01*
X033603Y003398D01*
X033710Y003398D01*
X033809Y003439D01*
X033885Y003515D01*
X033926Y003614D01*
X033926Y003713D01*
X034241Y004028D01*
X034310Y004028D01*
X034409Y004069D01*
X034485Y004145D01*
X034526Y004244D01*
X034526Y004352D01*
X034485Y004451D01*
X034409Y004527D01*
X034310Y004568D01*
X034203Y004568D01*
X034103Y004527D01*
X034027Y004451D01*
X033986Y004352D01*
X033986Y004282D01*
X033986Y004351D02*
X000410Y004351D01*
X000410Y004449D02*
X023695Y004449D01*
X023736Y004408D02*
X024076Y004408D01*
X024316Y004648D01*
X024316Y004988D01*
X024076Y005228D01*
X023736Y005228D01*
X023496Y004988D01*
X023496Y004648D01*
X023736Y004408D01*
X024118Y004449D02*
X034027Y004449D01*
X034154Y004548D02*
X024216Y004548D01*
X024315Y004646D02*
X031638Y004646D01*
X031683Y004628D02*
X031790Y004628D01*
X031889Y004669D01*
X031965Y004745D01*
X038035Y004745D01*
X038035Y004832D02*
X038035Y004460D01*
X038299Y004196D01*
X038672Y004196D01*
X038935Y004460D01*
X038935Y004832D01*
X038672Y005096D01*
X038453Y005096D01*
X038353Y005196D01*
X038672Y005196D01*
X038935Y005460D01*
X038935Y005832D01*
X038672Y006096D01*
X038299Y006096D01*
X038035Y005832D01*
X038035Y005513D01*
X036608Y006940D01*
X036629Y006949D01*
X036678Y006998D01*
X038201Y006998D01*
X038035Y006832D01*
X038035Y006460D01*
X038299Y006196D01*
X038672Y006196D01*
X038935Y006460D01*
X038935Y006832D01*
X038860Y006908D01*
X038900Y006908D01*
X038999Y006949D01*
X039075Y007025D01*
X039116Y007124D01*
X039116Y007232D01*
X039075Y007331D01*
X038999Y007407D01*
X038917Y007441D01*
X038935Y007460D01*
X038935Y007832D01*
X038672Y008096D01*
X038299Y008096D01*
X038035Y007832D01*
X038035Y007460D01*
X038137Y007358D01*
X036678Y007358D01*
X036629Y007407D01*
X036530Y007448D01*
X036423Y007448D01*
X036323Y007407D01*
X036247Y007331D01*
X036239Y007310D01*
X032846Y010702D01*
X032846Y010702D01*
X032741Y010808D01*
X030792Y010808D01*
X030686Y010702D01*
X030627Y010643D01*
X030583Y010662D01*
X030405Y010662D01*
X030241Y010594D01*
X030115Y010468D01*
X030047Y010304D01*
X030047Y010126D01*
X030115Y009962D01*
X030139Y009938D01*
X029849Y009938D01*
X029873Y009962D01*
X029941Y010126D01*
X029941Y010304D01*
X029873Y010468D01*
X029747Y010594D01*
X029583Y010662D01*
X029405Y010662D01*
X029241Y010594D01*
X029115Y010468D01*
X029047Y010304D01*
X029047Y010126D01*
X029115Y009962D01*
X029139Y009938D01*
X028849Y009938D01*
X028873Y009962D01*
X028941Y010126D01*
X028941Y010304D01*
X028873Y010468D01*
X028747Y010594D01*
X028583Y010662D01*
X028405Y010662D01*
X028241Y010594D01*
X028115Y010468D01*
X028047Y010304D01*
X028047Y010126D01*
X028115Y009962D01*
X028139Y009938D01*
X027849Y009938D01*
X027873Y009962D01*
X027941Y010126D01*
X027941Y010304D01*
X027873Y010468D01*
X027747Y010594D01*
X027583Y010662D01*
X027405Y010662D01*
X027241Y010594D01*
X027115Y010468D01*
X027047Y010304D01*
X027047Y010126D01*
X027115Y009962D01*
X027139Y009938D01*
X027048Y009938D01*
X026999Y009987D01*
X026900Y010028D01*
X026793Y010028D01*
X026693Y009987D01*
X026617Y009911D01*
X026576Y009812D01*
X026576Y009704D01*
X026617Y009605D01*
X026693Y009529D01*
X026793Y009488D01*
X026900Y009488D01*
X026999Y009529D01*
X027048Y009578D01*
X030671Y009578D01*
X031098Y010005D01*
X031115Y009962D01*
X031241Y009836D01*
X031405Y009768D01*
X031583Y009768D01*
X031747Y009836D01*
X031873Y009962D01*
X031941Y010126D01*
X031941Y010304D01*
X031881Y010448D01*
X032107Y010448D01*
X032047Y010304D01*
X032047Y010126D01*
X032115Y009962D01*
X032241Y009836D01*
X032405Y009768D01*
X032583Y009768D01*
X032747Y009836D01*
X032873Y009962D01*
X032933Y010107D01*
X038121Y004918D01*
X038035Y004832D01*
X038046Y004843D02*
X032006Y004843D01*
X032006Y004844D02*
X032006Y004952D01*
X031965Y005051D01*
X031916Y005100D01*
X031916Y005116D01*
X031965Y005165D01*
X032006Y005264D01*
X032006Y005372D01*
X031965Y005471D01*
X031889Y005547D01*
X031790Y005588D01*
X031683Y005588D01*
X031583Y005547D01*
X031507Y005471D01*
X031466Y005372D01*
X031466Y005264D01*
X031507Y005165D01*
X031556Y005116D01*
X031556Y005100D01*
X031507Y005051D01*
X031466Y004952D01*
X031466Y004844D01*
X031507Y004745D01*
X031583Y004669D01*
X031683Y004628D01*
X031835Y004646D02*
X038035Y004646D01*
X038035Y004548D02*
X034358Y004548D01*
X034486Y004449D02*
X038045Y004449D01*
X038144Y004351D02*
X034526Y004351D01*
X034526Y004252D02*
X038242Y004252D01*
X038123Y004096D02*
X038035Y004008D01*
X038035Y003284D01*
X038123Y003196D01*
X038847Y003196D01*
X038935Y003284D01*
X038935Y004008D01*
X038847Y004096D01*
X038123Y004096D01*
X038083Y004055D02*
X034376Y004055D01*
X034489Y004154D02*
X039320Y004154D01*
X039320Y004252D02*
X038728Y004252D01*
X038827Y004351D02*
X039320Y004351D01*
X039320Y004449D02*
X038925Y004449D01*
X038935Y004548D02*
X039320Y004548D01*
X039320Y004646D02*
X038935Y004646D01*
X038935Y004745D02*
X039320Y004745D01*
X039320Y004843D02*
X038924Y004843D01*
X038826Y004942D02*
X039320Y004942D01*
X039320Y005040D02*
X038727Y005040D01*
X038713Y005237D02*
X039320Y005237D01*
X039320Y005139D02*
X038410Y005139D01*
X038098Y004942D02*
X032006Y004942D01*
X032006Y004844D02*
X031965Y004745D01*
X031507Y004745D02*
X024316Y004745D01*
X024316Y004843D02*
X031467Y004843D01*
X031466Y004942D02*
X024316Y004942D01*
X024264Y005040D02*
X031503Y005040D01*
X031533Y005139D02*
X030139Y005139D01*
X030119Y005119D02*
X030195Y005195D01*
X030236Y005294D01*
X030236Y005402D01*
X030195Y005501D01*
X030119Y005577D01*
X030020Y005618D01*
X029913Y005618D01*
X029813Y005577D01*
X029764Y005528D01*
X029418Y005528D01*
X029369Y005577D01*
X029270Y005618D01*
X029163Y005618D01*
X029063Y005577D01*
X028987Y005501D01*
X028946Y005402D01*
X028946Y005294D01*
X028987Y005195D01*
X029063Y005119D01*
X029163Y005078D01*
X029270Y005078D01*
X029369Y005119D01*
X029418Y005168D01*
X029764Y005168D01*
X029813Y005119D01*
X029913Y005078D01*
X030020Y005078D01*
X030119Y005119D01*
X030213Y005237D02*
X031477Y005237D01*
X031466Y005336D02*
X030236Y005336D01*
X030223Y005434D02*
X031492Y005434D01*
X031569Y005533D02*
X030163Y005533D01*
X029769Y005533D02*
X029413Y005533D01*
X029066Y005654D02*
X029066Y005762D01*
X029025Y005861D01*
X028976Y005910D01*
X028976Y007132D01*
X028856Y007252D01*
X028856Y007322D01*
X028815Y007421D01*
X028739Y007497D01*
X028640Y007538D01*
X028533Y007538D01*
X028433Y007497D01*
X028357Y007421D01*
X028316Y007322D01*
X028316Y007214D01*
X028357Y007115D01*
X028433Y007039D01*
X028533Y006998D01*
X028602Y006998D01*
X028616Y006983D01*
X028616Y006748D01*
X028520Y006788D01*
X028413Y006788D01*
X028313Y006747D01*
X028264Y006698D01*
X028049Y006698D01*
X027806Y006892D01*
X027806Y006932D01*
X027765Y007031D01*
X027689Y007107D01*
X027590Y007148D01*
X027483Y007148D01*
X027383Y007107D01*
X027307Y007031D01*
X027266Y006932D01*
X027266Y006824D01*
X027307Y006725D01*
X027383Y006649D01*
X027483Y006608D01*
X027586Y006608D01*
X027866Y006383D01*
X027912Y006338D01*
X027923Y006338D01*
X027932Y006331D01*
X027996Y006338D01*
X028264Y006338D01*
X028313Y006289D01*
X028413Y006248D01*
X028520Y006248D01*
X028616Y006288D01*
X028616Y005910D01*
X028567Y005861D01*
X028526Y005762D01*
X028526Y005654D01*
X028567Y005555D01*
X028643Y005479D01*
X028743Y005438D01*
X028850Y005438D01*
X028949Y005479D01*
X029025Y005555D01*
X029066Y005654D01*
X029057Y005631D02*
X037408Y005631D01*
X037507Y005533D02*
X031903Y005533D01*
X031980Y005434D02*
X037605Y005434D01*
X037704Y005336D02*
X032006Y005336D01*
X031995Y005237D02*
X037802Y005237D01*
X037901Y005139D02*
X031939Y005139D01*
X031970Y005040D02*
X037999Y005040D01*
X038812Y005336D02*
X039320Y005336D01*
X039320Y005434D02*
X038910Y005434D01*
X038935Y005533D02*
X039320Y005533D01*
X039320Y005631D02*
X038935Y005631D01*
X038935Y005730D02*
X039320Y005730D01*
X039320Y005828D02*
X038935Y005828D01*
X038841Y005927D02*
X039320Y005927D01*
X039320Y006025D02*
X038742Y006025D01*
X038228Y006025D02*
X037523Y006025D01*
X037425Y006124D02*
X039320Y006124D01*
X039320Y006222D02*
X038698Y006222D01*
X038797Y006321D02*
X039320Y006321D01*
X039320Y006419D02*
X038895Y006419D01*
X038935Y006518D02*
X039320Y006518D01*
X039320Y006616D02*
X038935Y006616D01*
X038935Y006715D02*
X039320Y006715D01*
X039320Y006813D02*
X038935Y006813D01*
X038910Y006912D02*
X039320Y006912D01*
X039320Y007010D02*
X039061Y007010D01*
X039110Y007109D02*
X039320Y007109D01*
X039320Y007207D02*
X039116Y007207D01*
X039086Y007306D02*
X039320Y007306D01*
X039320Y007404D02*
X039002Y007404D01*
X038935Y007503D02*
X039320Y007503D01*
X039320Y007601D02*
X038935Y007601D01*
X038935Y007700D02*
X039320Y007700D01*
X039320Y007798D02*
X038935Y007798D01*
X038871Y007897D02*
X039320Y007897D01*
X039320Y007995D02*
X038772Y007995D01*
X038674Y008094D02*
X039320Y008094D01*
X039320Y008192D02*
X035356Y008192D01*
X035258Y008291D02*
X038204Y008291D01*
X038299Y008196D02*
X038672Y008196D01*
X038935Y008460D01*
X038935Y008832D01*
X038672Y009096D01*
X038299Y009096D01*
X038035Y008832D01*
X038035Y008460D01*
X038299Y008196D01*
X038297Y008094D02*
X035455Y008094D01*
X035553Y007995D02*
X038198Y007995D01*
X038100Y007897D02*
X035652Y007897D01*
X035750Y007798D02*
X038035Y007798D01*
X038035Y007700D02*
X035849Y007700D01*
X035947Y007601D02*
X038035Y007601D01*
X038035Y007503D02*
X036046Y007503D01*
X036144Y007404D02*
X036321Y007404D01*
X036632Y007404D02*
X038090Y007404D01*
X038115Y006912D02*
X036637Y006912D01*
X036735Y006813D02*
X038035Y006813D01*
X038035Y006715D02*
X036834Y006715D01*
X036932Y006616D02*
X038035Y006616D01*
X038035Y006518D02*
X037031Y006518D01*
X037129Y006419D02*
X038075Y006419D01*
X038174Y006321D02*
X037228Y006321D01*
X037326Y006222D02*
X038272Y006222D01*
X038130Y005927D02*
X037622Y005927D01*
X037720Y005828D02*
X038035Y005828D01*
X038035Y005730D02*
X037819Y005730D01*
X037917Y005631D02*
X038035Y005631D01*
X038035Y005533D02*
X038016Y005533D01*
X037310Y005730D02*
X029066Y005730D01*
X029039Y005828D02*
X037211Y005828D01*
X037113Y005927D02*
X031917Y005927D01*
X031889Y005899D02*
X031965Y005975D01*
X032006Y006074D01*
X032006Y006182D01*
X031965Y006281D01*
X031916Y006330D01*
X031916Y006520D01*
X031923Y006518D01*
X032030Y006518D01*
X034250Y006518D01*
X034223Y006529D02*
X034323Y006488D01*
X034430Y006488D01*
X034529Y006529D01*
X034605Y006605D01*
X034646Y006704D01*
X034646Y006812D01*
X034605Y006911D01*
X034529Y006987D01*
X034430Y007028D01*
X034323Y007028D01*
X034223Y006987D01*
X034204Y006968D01*
X032178Y006968D01*
X032129Y007017D01*
X032030Y007058D01*
X031923Y007058D01*
X031916Y007055D01*
X031916Y007162D01*
X031766Y007312D01*
X031766Y007382D01*
X031725Y007481D01*
X031649Y007557D01*
X031550Y007598D01*
X031443Y007598D01*
X031343Y007557D01*
X031267Y007481D01*
X031226Y007382D01*
X031226Y007274D01*
X031267Y007175D01*
X031343Y007099D01*
X031443Y007058D01*
X031512Y007058D01*
X031556Y007013D01*
X031556Y006330D01*
X031507Y006281D01*
X031466Y006182D01*
X031466Y006074D01*
X031507Y005975D01*
X031583Y005899D01*
X031683Y005858D01*
X031790Y005858D01*
X031889Y005899D01*
X031986Y006025D02*
X037014Y006025D01*
X036916Y006124D02*
X032006Y006124D01*
X031989Y006222D02*
X036817Y006222D01*
X036719Y006321D02*
X031925Y006321D01*
X031916Y006419D02*
X036620Y006419D01*
X036522Y006518D02*
X034502Y006518D01*
X034610Y006616D02*
X036423Y006616D01*
X036325Y006715D02*
X034646Y006715D01*
X034646Y006813D02*
X036226Y006813D01*
X036128Y006912D02*
X034604Y006912D01*
X034472Y007010D02*
X036029Y007010D01*
X035931Y007109D02*
X031916Y007109D01*
X031871Y007207D02*
X035832Y007207D01*
X035734Y007306D02*
X031773Y007306D01*
X031757Y007404D02*
X035635Y007404D01*
X035537Y007503D02*
X031703Y007503D01*
X031289Y007503D02*
X028724Y007503D01*
X028822Y007404D02*
X031236Y007404D01*
X031226Y007306D02*
X028856Y007306D01*
X028901Y007207D02*
X031254Y007207D01*
X031333Y007109D02*
X028976Y007109D01*
X028976Y007010D02*
X031556Y007010D01*
X031556Y006912D02*
X028976Y006912D01*
X028976Y006813D02*
X031556Y006813D01*
X031556Y006715D02*
X028976Y006715D01*
X028976Y006616D02*
X031556Y006616D01*
X031556Y006518D02*
X028976Y006518D01*
X028976Y006419D02*
X031556Y006419D01*
X031547Y006321D02*
X028976Y006321D01*
X028976Y006222D02*
X031483Y006222D01*
X031466Y006124D02*
X028976Y006124D01*
X028976Y006025D02*
X031487Y006025D01*
X031555Y005927D02*
X028976Y005927D01*
X028616Y005927D02*
X000410Y005927D01*
X000410Y006025D02*
X028616Y006025D01*
X028616Y006124D02*
X000410Y006124D01*
X000410Y006222D02*
X028616Y006222D01*
X028281Y006321D02*
X000410Y006321D01*
X000410Y006419D02*
X027821Y006419D01*
X027698Y006518D02*
X000410Y006518D01*
X000410Y006616D02*
X027462Y006616D01*
X027317Y006715D02*
X000410Y006715D01*
X000410Y006813D02*
X027271Y006813D01*
X027266Y006912D02*
X000410Y006912D01*
X000410Y007010D02*
X027299Y007010D01*
X027388Y007109D02*
X000410Y007109D01*
X000410Y007207D02*
X028319Y007207D01*
X028316Y007306D02*
X000410Y007306D01*
X000410Y007404D02*
X028351Y007404D01*
X028448Y007503D02*
X000410Y007503D01*
X000410Y007601D02*
X035438Y007601D01*
X035340Y007700D02*
X000410Y007700D01*
X000410Y007798D02*
X035241Y007798D01*
X035143Y007897D02*
X031830Y007897D01*
X031859Y007909D02*
X031935Y007985D01*
X031976Y008084D01*
X031976Y008192D01*
X034847Y008192D01*
X034946Y008094D02*
X031976Y008094D01*
X031976Y008192D02*
X031935Y008291D01*
X034749Y008291D01*
X034650Y008389D02*
X031805Y008389D01*
X031760Y008408D02*
X031859Y008367D01*
X031935Y008291D01*
X031760Y008408D02*
X031653Y008408D01*
X031553Y008367D01*
X031504Y008318D01*
X030948Y008318D01*
X030899Y008367D01*
X030800Y008408D01*
X030693Y008408D01*
X030593Y008367D01*
X030517Y008291D01*
X030476Y008192D01*
X030476Y008084D01*
X030517Y007985D01*
X030593Y007909D01*
X030693Y007868D01*
X030800Y007868D01*
X030899Y007909D01*
X030948Y007958D01*
X031504Y007958D01*
X031553Y007909D01*
X031653Y007868D01*
X031760Y007868D01*
X031859Y007909D01*
X031940Y007995D02*
X035044Y007995D01*
X035159Y008389D02*
X038105Y008389D01*
X038035Y008488D02*
X035061Y008488D01*
X034962Y008586D02*
X038035Y008586D01*
X038035Y008685D02*
X034864Y008685D01*
X034765Y008783D02*
X038035Y008783D01*
X038085Y008882D02*
X034667Y008882D01*
X034568Y008980D02*
X038183Y008980D01*
X038282Y009079D02*
X034470Y009079D01*
X034371Y009177D02*
X039320Y009177D01*
X039320Y009079D02*
X038689Y009079D01*
X038787Y008980D02*
X039320Y008980D01*
X039320Y008882D02*
X038886Y008882D01*
X038935Y008783D02*
X039320Y008783D01*
X039320Y008685D02*
X038935Y008685D01*
X038935Y008586D02*
X039320Y008586D01*
X039320Y008488D02*
X038935Y008488D01*
X038865Y008389D02*
X039320Y008389D01*
X039320Y008291D02*
X038767Y008291D01*
X039320Y009276D02*
X034273Y009276D01*
X034174Y009374D02*
X039320Y009374D01*
X039320Y009473D02*
X034076Y009473D01*
X033977Y009571D02*
X039320Y009571D01*
X039320Y009670D02*
X033879Y009670D01*
X033780Y009768D02*
X039320Y009768D01*
X039320Y009867D02*
X033682Y009867D01*
X033583Y009965D02*
X039320Y009965D01*
X039320Y010064D02*
X033485Y010064D01*
X033386Y010162D02*
X039320Y010162D01*
X039320Y010261D02*
X033288Y010261D01*
X033189Y010359D02*
X039320Y010359D01*
X039320Y010458D02*
X033091Y010458D01*
X032992Y010556D02*
X039320Y010556D01*
X039320Y010655D02*
X032894Y010655D01*
X032795Y010753D02*
X039320Y010753D01*
X039320Y010852D02*
X025239Y010852D01*
X025221Y010869D02*
X025056Y010938D01*
X024877Y010938D01*
X024711Y010869D01*
X024585Y010743D01*
X024516Y010577D01*
X024516Y009798D01*
X024585Y009633D01*
X024711Y009506D01*
X024877Y009438D01*
X025056Y009438D01*
X025221Y009506D01*
X025348Y009633D01*
X025416Y009798D01*
X025416Y010577D01*
X025348Y010743D01*
X025221Y010869D01*
X025337Y010753D02*
X030737Y010753D01*
X030639Y010655D02*
X030600Y010655D01*
X030389Y010655D02*
X029600Y010655D01*
X029785Y010556D02*
X030204Y010556D01*
X030111Y010458D02*
X029877Y010458D01*
X029918Y010359D02*
X030070Y010359D01*
X030047Y010261D02*
X029941Y010261D01*
X029941Y010162D02*
X030047Y010162D01*
X030073Y010064D02*
X029915Y010064D01*
X029875Y009965D02*
X030114Y009965D01*
X030861Y009768D02*
X031404Y009768D01*
X031584Y009768D02*
X032404Y009768D01*
X032584Y009768D02*
X033271Y009768D01*
X033370Y009670D02*
X030763Y009670D01*
X030960Y009867D02*
X031210Y009867D01*
X031114Y009965D02*
X031058Y009965D01*
X031778Y009867D02*
X032210Y009867D01*
X032114Y009965D02*
X031875Y009965D01*
X031915Y010064D02*
X032073Y010064D01*
X032047Y010162D02*
X031941Y010162D01*
X031941Y010261D02*
X032047Y010261D01*
X032070Y010359D02*
X031918Y010359D01*
X031107Y010448D02*
X031082Y010388D01*
X030972Y010388D01*
X030925Y010342D01*
X030899Y010406D01*
X030941Y010448D01*
X031107Y010448D01*
X030943Y010359D02*
X030918Y010359D01*
X029389Y010655D02*
X028600Y010655D01*
X028785Y010556D02*
X029204Y010556D01*
X029111Y010458D02*
X028877Y010458D01*
X028918Y010359D02*
X029070Y010359D01*
X029047Y010261D02*
X028941Y010261D01*
X028941Y010162D02*
X029047Y010162D01*
X029073Y010064D02*
X028915Y010064D01*
X028875Y009965D02*
X029114Y009965D01*
X028114Y009965D02*
X027875Y009965D01*
X027915Y010064D02*
X028073Y010064D01*
X028047Y010162D02*
X027941Y010162D01*
X027941Y010261D02*
X028047Y010261D01*
X028070Y010359D02*
X027918Y010359D01*
X027877Y010458D02*
X028111Y010458D01*
X028204Y010556D02*
X027785Y010556D01*
X027600Y010655D02*
X028389Y010655D01*
X027389Y010655D02*
X025384Y010655D01*
X025416Y010556D02*
X027204Y010556D01*
X027111Y010458D02*
X025416Y010458D01*
X025416Y010359D02*
X027070Y010359D01*
X027047Y010261D02*
X025416Y010261D01*
X025416Y010162D02*
X027047Y010162D01*
X027073Y010064D02*
X025416Y010064D01*
X025416Y009965D02*
X026672Y009965D01*
X026599Y009867D02*
X025416Y009867D01*
X025404Y009768D02*
X026576Y009768D01*
X026590Y009670D02*
X025363Y009670D01*
X025286Y009571D02*
X026651Y009571D01*
X027042Y009571D02*
X033468Y009571D01*
X033567Y009473D02*
X025140Y009473D01*
X024792Y009473D02*
X024140Y009473D01*
X024221Y009506D02*
X024348Y009633D01*
X024416Y009798D01*
X024416Y010577D01*
X024348Y010743D01*
X024221Y010869D01*
X024056Y010938D01*
X023877Y010938D01*
X023711Y010869D01*
X023585Y010743D01*
X023516Y010577D01*
X023516Y009798D01*
X023585Y009633D01*
X023711Y009506D01*
X023877Y009438D01*
X024056Y009438D01*
X024221Y009506D01*
X024286Y009571D02*
X024646Y009571D01*
X024570Y009670D02*
X024363Y009670D01*
X024404Y009768D02*
X024529Y009768D01*
X024516Y009867D02*
X024416Y009867D01*
X024416Y009965D02*
X024516Y009965D01*
X024516Y010064D02*
X024416Y010064D01*
X024416Y010162D02*
X024516Y010162D01*
X024516Y010261D02*
X024416Y010261D01*
X024416Y010359D02*
X024516Y010359D01*
X024516Y010458D02*
X024416Y010458D01*
X024416Y010556D02*
X024516Y010556D01*
X024548Y010655D02*
X024384Y010655D01*
X024337Y010753D02*
X024595Y010753D01*
X024694Y010852D02*
X024239Y010852D01*
X023694Y010852D02*
X023239Y010852D01*
X023221Y010869D02*
X023056Y010938D01*
X022877Y010938D01*
X022711Y010869D01*
X022585Y010743D01*
X022516Y010577D01*
X022516Y009798D01*
X022585Y009633D01*
X022711Y009506D01*
X022877Y009438D01*
X023056Y009438D01*
X023221Y009506D01*
X023348Y009633D01*
X023416Y009798D01*
X023416Y010577D01*
X023348Y010743D01*
X023221Y010869D01*
X023337Y010753D02*
X023595Y010753D01*
X023548Y010655D02*
X023384Y010655D01*
X023416Y010556D02*
X023516Y010556D01*
X023516Y010458D02*
X023416Y010458D01*
X023416Y010359D02*
X023516Y010359D01*
X023516Y010261D02*
X023416Y010261D01*
X023416Y010162D02*
X023516Y010162D01*
X023516Y010064D02*
X023416Y010064D01*
X023416Y009965D02*
X023516Y009965D01*
X023516Y009867D02*
X023416Y009867D01*
X023404Y009768D02*
X023529Y009768D01*
X023570Y009670D02*
X023363Y009670D01*
X023286Y009571D02*
X023646Y009571D01*
X023792Y009473D02*
X023140Y009473D01*
X022792Y009473D02*
X020179Y009473D01*
X020179Y009571D02*
X022646Y009571D01*
X022570Y009670D02*
X020179Y009670D01*
X020179Y009768D02*
X022529Y009768D01*
X022516Y009867D02*
X020157Y009867D01*
X020179Y009814D02*
X020111Y009978D01*
X019985Y010103D01*
X019821Y010172D01*
X019643Y010172D01*
X019479Y010103D01*
X019353Y009978D01*
X019285Y009814D01*
X019285Y009042D01*
X019353Y008878D01*
X019479Y008752D01*
X019643Y008684D01*
X019821Y008684D01*
X019985Y008752D01*
X020111Y008878D01*
X020179Y009042D01*
X020179Y009814D01*
X020116Y009965D02*
X022516Y009965D01*
X022516Y010064D02*
X020025Y010064D01*
X019843Y010162D02*
X022516Y010162D01*
X022516Y010261D02*
X000410Y010261D01*
X000410Y010359D02*
X022516Y010359D01*
X022516Y010458D02*
X000410Y010458D01*
X000410Y010556D02*
X022516Y010556D01*
X022548Y010655D02*
X000410Y010655D01*
X000410Y010753D02*
X022595Y010753D01*
X022694Y010852D02*
X000410Y010852D01*
X000410Y010950D02*
X039320Y010950D01*
X039320Y011049D02*
X000410Y011049D01*
X000410Y011147D02*
X039320Y011147D01*
X039320Y011246D02*
X000410Y011246D01*
X000410Y011344D02*
X039320Y011344D01*
X039320Y011443D02*
X000410Y011443D01*
X000410Y011541D02*
X039320Y011541D01*
X039320Y011640D02*
X000410Y011640D01*
X000410Y011738D02*
X039320Y011738D01*
X039320Y011837D02*
X000410Y011837D01*
X000410Y011935D02*
X039320Y011935D01*
X039320Y012034D02*
X000410Y012034D01*
X000410Y012132D02*
X039320Y012132D01*
X033074Y009965D02*
X032875Y009965D01*
X032915Y010064D02*
X032976Y010064D01*
X033173Y009867D02*
X032778Y009867D01*
X033665Y009374D02*
X020179Y009374D01*
X020179Y009276D02*
X033764Y009276D01*
X033862Y009177D02*
X024127Y009177D01*
X024076Y009228D02*
X023736Y009228D01*
X023496Y008988D01*
X023496Y008648D01*
X023736Y008408D01*
X024076Y008408D01*
X024316Y008648D01*
X024316Y008988D01*
X024076Y009228D01*
X024225Y009079D02*
X033961Y009079D01*
X034059Y008980D02*
X032336Y008980D01*
X032369Y008967D02*
X032270Y009008D01*
X032163Y009008D01*
X032063Y008967D01*
X032014Y008918D01*
X031488Y008918D01*
X031439Y008967D01*
X031340Y009008D01*
X031233Y009008D01*
X031133Y008967D01*
X031057Y008891D01*
X031016Y008792D01*
X031016Y008684D01*
X031057Y008585D01*
X031133Y008509D01*
X031233Y008468D01*
X031340Y008468D01*
X031439Y008509D01*
X031488Y008558D01*
X032014Y008558D01*
X032063Y008509D01*
X032163Y008468D01*
X032270Y008468D01*
X032369Y008509D01*
X032445Y008585D01*
X032486Y008684D01*
X032486Y008792D01*
X032445Y008891D01*
X032369Y008967D01*
X032449Y008882D02*
X034158Y008882D01*
X034256Y008783D02*
X032486Y008783D01*
X032486Y008685D02*
X034355Y008685D01*
X034453Y008586D02*
X032446Y008586D01*
X032318Y008488D02*
X034552Y008488D01*
X032114Y008488D02*
X031388Y008488D01*
X031184Y008488D02*
X024156Y008488D01*
X024255Y008586D02*
X031057Y008586D01*
X031016Y008685D02*
X024316Y008685D01*
X024316Y008783D02*
X031016Y008783D01*
X031054Y008882D02*
X024316Y008882D01*
X024316Y008980D02*
X031166Y008980D01*
X031406Y008980D02*
X032096Y008980D01*
X031608Y008389D02*
X030845Y008389D01*
X030648Y008389D02*
X000410Y008389D01*
X000410Y008291D02*
X030517Y008291D01*
X030477Y008192D02*
X000410Y008192D01*
X000410Y008094D02*
X030476Y008094D01*
X030513Y007995D02*
X000410Y007995D01*
X000410Y007897D02*
X030623Y007897D01*
X030870Y007897D02*
X031583Y007897D01*
X032136Y007010D02*
X034280Y007010D01*
X034146Y006608D02*
X032178Y006608D01*
X032129Y006559D01*
X032030Y006518D01*
X031923Y006518D02*
X031916Y006518D01*
X034146Y006608D02*
X034147Y006605D01*
X034223Y006529D01*
X029793Y005139D02*
X029389Y005139D01*
X029043Y005139D02*
X024165Y005139D01*
X023647Y005139D02*
X000410Y005139D01*
X000410Y005237D02*
X028970Y005237D01*
X028946Y005336D02*
X000410Y005336D01*
X000410Y005434D02*
X028960Y005434D01*
X029003Y005533D02*
X029019Y005533D01*
X028589Y005533D02*
X000410Y005533D01*
X000410Y005631D02*
X028536Y005631D01*
X028526Y005730D02*
X000410Y005730D01*
X000410Y005828D02*
X028554Y005828D01*
X028281Y006715D02*
X028028Y006715D01*
X027905Y006813D02*
X028616Y006813D01*
X028616Y006912D02*
X027806Y006912D01*
X027774Y007010D02*
X028502Y007010D01*
X028363Y007109D02*
X027684Y007109D01*
X023656Y008488D02*
X000410Y008488D01*
X000410Y008586D02*
X023558Y008586D01*
X023496Y008685D02*
X019822Y008685D01*
X019641Y008685D02*
X016870Y008685D01*
X016868Y008684D02*
X017032Y008752D01*
X017158Y008878D01*
X017226Y009042D01*
X017226Y009814D01*
X017158Y009978D01*
X017032Y010103D01*
X016868Y010172D01*
X016690Y010172D01*
X016526Y010103D01*
X016400Y009978D01*
X016332Y009814D01*
X016332Y009042D01*
X016400Y008878D01*
X016526Y008752D01*
X016690Y008684D01*
X016868Y008684D01*
X016688Y008685D02*
X013917Y008685D01*
X013915Y008684D02*
X014079Y008752D01*
X014205Y008878D01*
X014273Y009042D01*
X014273Y009814D01*
X014205Y009978D01*
X014079Y010103D01*
X013915Y010172D01*
X013737Y010172D01*
X013573Y010103D01*
X013447Y009978D01*
X013379Y009814D01*
X013379Y009042D01*
X013447Y008878D01*
X013573Y008752D01*
X013737Y008684D01*
X013915Y008684D01*
X013736Y008685D02*
X000410Y008685D01*
X000410Y008783D02*
X013542Y008783D01*
X013446Y008882D02*
X000410Y008882D01*
X000410Y008980D02*
X000568Y008980D01*
X000597Y008951D02*
X001315Y008951D01*
X001403Y009039D01*
X001403Y009757D01*
X001315Y009845D01*
X000597Y009845D01*
X000509Y009757D01*
X000509Y009039D01*
X000597Y008951D01*
X000509Y009079D02*
X000410Y009079D01*
X000410Y009177D02*
X000509Y009177D01*
X000509Y009276D02*
X000410Y009276D01*
X000410Y009374D02*
X000509Y009374D01*
X000509Y009473D02*
X000410Y009473D01*
X000410Y009571D02*
X000509Y009571D01*
X000509Y009670D02*
X000410Y009670D01*
X000410Y009768D02*
X000521Y009768D01*
X000410Y009867D02*
X013402Y009867D01*
X013379Y009768D02*
X010142Y009768D01*
X010153Y009757D02*
X010065Y009845D01*
X009347Y009845D01*
X009259Y009757D01*
X009259Y009039D01*
X009347Y008951D01*
X010065Y008951D01*
X010153Y009039D01*
X010153Y009757D01*
X010153Y009670D02*
X013379Y009670D01*
X013379Y009571D02*
X010153Y009571D01*
X010153Y009473D02*
X013379Y009473D01*
X013379Y009374D02*
X010153Y009374D01*
X010153Y009276D02*
X013379Y009276D01*
X013379Y009177D02*
X010153Y009177D01*
X010153Y009079D02*
X013379Y009079D01*
X013405Y008980D02*
X010095Y008980D01*
X009318Y008980D02*
X007595Y008980D01*
X007565Y008951D02*
X007653Y009039D01*
X007653Y009757D01*
X007565Y009845D01*
X006847Y009845D01*
X006759Y009757D01*
X006759Y009039D01*
X006847Y008951D01*
X007565Y008951D01*
X007653Y009079D02*
X009259Y009079D01*
X009259Y009177D02*
X007653Y009177D01*
X007653Y009276D02*
X009259Y009276D01*
X009259Y009374D02*
X007653Y009374D01*
X007653Y009473D02*
X009259Y009473D01*
X009259Y009571D02*
X007653Y009571D01*
X007653Y009670D02*
X009259Y009670D01*
X009271Y009768D02*
X007642Y009768D01*
X006771Y009768D02*
X001392Y009768D01*
X001403Y009670D02*
X006759Y009670D01*
X006759Y009571D02*
X001403Y009571D01*
X001403Y009473D02*
X006759Y009473D01*
X006759Y009374D02*
X001403Y009374D01*
X001403Y009276D02*
X006759Y009276D01*
X006759Y009177D02*
X001403Y009177D01*
X001403Y009079D02*
X006759Y009079D01*
X006818Y008980D02*
X001345Y008980D01*
X000410Y009965D02*
X013442Y009965D01*
X013534Y010064D02*
X000410Y010064D01*
X000410Y010162D02*
X013715Y010162D01*
X013937Y010162D02*
X016668Y010162D01*
X016486Y010064D02*
X014119Y010064D01*
X014210Y009965D02*
X016395Y009965D01*
X016354Y009867D02*
X014251Y009867D01*
X014273Y009768D02*
X016332Y009768D01*
X016332Y009670D02*
X014273Y009670D01*
X014273Y009571D02*
X016332Y009571D01*
X016332Y009473D02*
X014273Y009473D01*
X014273Y009374D02*
X016332Y009374D01*
X016332Y009276D02*
X014273Y009276D01*
X014273Y009177D02*
X016332Y009177D01*
X016332Y009079D02*
X014273Y009079D01*
X014248Y008980D02*
X016358Y008980D01*
X016399Y008882D02*
X014207Y008882D01*
X014111Y008783D02*
X016495Y008783D01*
X017063Y008783D02*
X019447Y008783D01*
X019351Y008882D02*
X017160Y008882D01*
X017200Y008980D02*
X019311Y008980D01*
X019285Y009079D02*
X017226Y009079D01*
X017226Y009177D02*
X019285Y009177D01*
X019285Y009276D02*
X017226Y009276D01*
X017226Y009374D02*
X019285Y009374D01*
X019285Y009473D02*
X017226Y009473D01*
X017226Y009571D02*
X019285Y009571D01*
X019285Y009670D02*
X017226Y009670D01*
X017226Y009768D02*
X019285Y009768D01*
X019307Y009867D02*
X017204Y009867D01*
X017163Y009965D02*
X019348Y009965D01*
X019439Y010064D02*
X017072Y010064D01*
X016890Y010162D02*
X019621Y010162D01*
X020179Y009177D02*
X023686Y009177D01*
X023587Y009079D02*
X020179Y009079D01*
X020153Y008980D02*
X023496Y008980D01*
X023496Y008882D02*
X020112Y008882D01*
X020016Y008783D02*
X023496Y008783D01*
X027021Y009965D02*
X027114Y009965D01*
X023549Y005040D02*
X000410Y005040D01*
X000410Y004942D02*
X023496Y004942D01*
X023496Y004843D02*
X000410Y004843D01*
X000410Y004745D02*
X023496Y004745D01*
X023498Y004646D02*
X000410Y004646D01*
X000410Y004548D02*
X023596Y004548D01*
X023195Y004055D02*
X025499Y004055D01*
X025500Y004056D02*
X025437Y003905D01*
X025437Y003742D01*
X025500Y003592D01*
X025615Y003476D01*
X025766Y003414D01*
X026449Y003414D01*
X026600Y003476D01*
X026715Y003592D01*
X026777Y003742D01*
X026777Y003905D01*
X026715Y004056D01*
X026600Y004171D01*
X026449Y004234D01*
X025766Y004234D01*
X025615Y004171D01*
X025500Y004056D01*
X025459Y003957D02*
X023236Y003957D01*
X023257Y003858D02*
X025437Y003858D01*
X025437Y003760D02*
X023257Y003760D01*
X023224Y003661D02*
X025471Y003661D01*
X025528Y003563D02*
X023166Y003563D01*
X023051Y003464D02*
X025644Y003464D01*
X025766Y003234D02*
X025615Y003171D01*
X025500Y003056D01*
X025437Y002905D01*
X025437Y002742D01*
X025500Y002592D01*
X025615Y002476D01*
X025766Y002414D01*
X026449Y002414D01*
X026600Y002476D01*
X026715Y002592D01*
X026777Y002742D01*
X026777Y002905D01*
X026715Y003056D01*
X026600Y003171D01*
X026449Y003234D01*
X025766Y003234D01*
X025613Y003169D02*
X023082Y003169D01*
X023181Y003070D02*
X025514Y003070D01*
X025465Y002972D02*
X023230Y002972D01*
X023257Y002873D02*
X025437Y002873D01*
X025437Y002775D02*
X023257Y002775D01*
X023230Y002676D02*
X025465Y002676D01*
X025513Y002578D02*
X023181Y002578D01*
X023083Y002479D02*
X025612Y002479D01*
X025766Y002234D02*
X025615Y002171D01*
X025500Y002056D01*
X025437Y001905D01*
X025437Y001742D01*
X025500Y001592D01*
X025615Y001476D01*
X025766Y001414D01*
X026449Y001414D01*
X026600Y001476D01*
X026715Y001592D01*
X026777Y001742D01*
X026777Y001905D01*
X026715Y002056D01*
X026600Y002171D01*
X026449Y002234D01*
X025766Y002234D01*
X025645Y002184D02*
X023050Y002184D01*
X023166Y002085D02*
X025529Y002085D01*
X025471Y001987D02*
X023224Y001987D01*
X023257Y001888D02*
X025437Y001888D01*
X025437Y001790D02*
X023257Y001790D01*
X023236Y001691D02*
X025458Y001691D01*
X025499Y001593D02*
X023195Y001593D01*
X023098Y001494D02*
X025597Y001494D01*
X026618Y001494D02*
X039320Y001494D01*
X039320Y001593D02*
X026715Y001593D01*
X026756Y001691D02*
X039320Y001691D01*
X039320Y001790D02*
X026777Y001790D01*
X026777Y001888D02*
X039320Y001888D01*
X039320Y001987D02*
X026744Y001987D01*
X026686Y002085D02*
X028527Y002085D01*
X028475Y002184D02*
X026570Y002184D01*
X026603Y002479D02*
X028556Y002479D01*
X028556Y002578D02*
X026701Y002578D01*
X026750Y002676D02*
X028570Y002676D01*
X028600Y002775D02*
X028669Y002775D01*
X028389Y002775D02*
X027600Y002775D01*
X027785Y002873D02*
X028204Y002873D01*
X028111Y002972D02*
X027877Y002972D01*
X027918Y003070D02*
X028070Y003070D01*
X028047Y003169D02*
X027941Y003169D01*
X027941Y003267D02*
X028047Y003267D01*
X028073Y003366D02*
X027915Y003366D01*
X027875Y003464D02*
X028114Y003464D01*
X028210Y003563D02*
X027778Y003563D01*
X027584Y003661D02*
X028405Y003661D01*
X028584Y003661D02*
X028796Y003661D01*
X028796Y003563D02*
X028778Y003563D01*
X028796Y003760D02*
X026777Y003760D01*
X026777Y003858D02*
X028856Y003858D01*
X028879Y003957D02*
X026756Y003957D01*
X026715Y004055D02*
X028952Y004055D01*
X029301Y004055D02*
X033759Y004055D01*
X033661Y003957D02*
X029373Y003957D01*
X029396Y003858D02*
X033465Y003858D01*
X033402Y003760D02*
X029382Y003760D01*
X029405Y003661D02*
X029322Y003661D01*
X029210Y003563D02*
X029156Y003563D01*
X029584Y003661D02*
X030405Y003661D01*
X030405Y003662D02*
X030241Y003594D01*
X030115Y003468D01*
X030047Y003304D01*
X030047Y003126D01*
X030115Y002962D01*
X030241Y002836D01*
X030405Y002768D01*
X030583Y002768D01*
X030747Y002836D01*
X030873Y002962D01*
X030941Y003126D01*
X030941Y003304D01*
X030873Y003468D01*
X030747Y003594D01*
X030583Y003662D01*
X030405Y003662D01*
X030584Y003661D02*
X031405Y003661D01*
X031405Y003662D02*
X031241Y003594D01*
X031115Y003468D01*
X031047Y003304D01*
X031047Y003126D01*
X031115Y002962D01*
X031241Y002836D01*
X031405Y002768D01*
X031583Y002768D01*
X031747Y002836D01*
X031873Y002962D01*
X031941Y003126D01*
X031941Y003304D01*
X031873Y003468D01*
X031747Y003594D01*
X031583Y003662D01*
X031405Y003662D01*
X031584Y003661D02*
X032405Y003661D01*
X032405Y003662D02*
X032241Y003594D01*
X032115Y003468D01*
X032047Y003304D01*
X032047Y003126D01*
X032115Y002962D01*
X032241Y002836D01*
X032405Y002768D01*
X032583Y002768D01*
X032747Y002836D01*
X032873Y002962D01*
X032905Y003038D01*
X036316Y003038D01*
X036318Y003032D01*
X036410Y002940D01*
X036531Y002890D01*
X036662Y002890D01*
X036782Y002940D01*
X036874Y003032D01*
X036924Y003153D01*
X036924Y003283D01*
X036874Y003404D01*
X036782Y003496D01*
X036662Y003546D01*
X036531Y003546D01*
X036410Y003496D01*
X036318Y003404D01*
X036316Y003398D01*
X032902Y003398D01*
X032873Y003468D01*
X032747Y003594D01*
X032583Y003662D01*
X032405Y003662D01*
X032584Y003661D02*
X033386Y003661D01*
X033408Y003563D02*
X032778Y003563D01*
X032875Y003464D02*
X033478Y003464D01*
X033835Y003464D02*
X036379Y003464D01*
X036814Y003464D02*
X038035Y003464D01*
X038035Y003366D02*
X036890Y003366D01*
X036924Y003267D02*
X038052Y003267D01*
X038919Y003267D02*
X039320Y003267D01*
X039320Y003169D02*
X036924Y003169D01*
X036890Y003070D02*
X039320Y003070D01*
X039320Y002972D02*
X036814Y002972D01*
X036378Y002972D02*
X032877Y002972D01*
X032785Y002873D02*
X039320Y002873D01*
X039320Y002775D02*
X032600Y002775D01*
X032389Y002775D02*
X031600Y002775D01*
X031785Y002873D02*
X032204Y002873D01*
X032111Y002972D02*
X031877Y002972D01*
X031918Y003070D02*
X032070Y003070D01*
X032047Y003169D02*
X031941Y003169D01*
X031941Y003267D02*
X032047Y003267D01*
X032073Y003366D02*
X031915Y003366D01*
X031875Y003464D02*
X032114Y003464D01*
X032210Y003563D02*
X031778Y003563D01*
X031210Y003563D02*
X030778Y003563D01*
X030875Y003464D02*
X031114Y003464D01*
X031073Y003366D02*
X030915Y003366D01*
X030941Y003267D02*
X031047Y003267D01*
X031047Y003169D02*
X030941Y003169D01*
X030918Y003070D02*
X031070Y003070D01*
X031111Y002972D02*
X030877Y002972D01*
X030785Y002873D02*
X031204Y002873D01*
X031389Y002775D02*
X030600Y002775D01*
X030389Y002775D02*
X029600Y002775D01*
X029785Y002873D02*
X030204Y002873D01*
X030111Y002972D02*
X029877Y002972D01*
X029918Y003070D02*
X030070Y003070D01*
X030047Y003169D02*
X029941Y003169D01*
X029941Y003267D02*
X030047Y003267D01*
X030073Y003366D02*
X029915Y003366D01*
X029875Y003464D02*
X030114Y003464D01*
X030210Y003563D02*
X029778Y003563D01*
X029389Y002775D02*
X029156Y002775D01*
X029156Y002873D02*
X029204Y002873D01*
X029079Y002676D02*
X039320Y002676D01*
X039320Y002578D02*
X028981Y002578D01*
X028916Y002479D02*
X039320Y002479D01*
X039320Y002381D02*
X028978Y002381D01*
X029006Y002282D02*
X039320Y002282D01*
X039320Y002184D02*
X028998Y002184D01*
X028946Y002085D02*
X039320Y002085D01*
X039320Y003366D02*
X038935Y003366D01*
X038935Y003464D02*
X039320Y003464D01*
X039320Y003563D02*
X038935Y003563D01*
X038935Y003661D02*
X039320Y003661D01*
X039320Y003760D02*
X038935Y003760D01*
X038935Y003858D02*
X039320Y003858D01*
X039320Y003957D02*
X038935Y003957D01*
X038888Y004055D02*
X039320Y004055D01*
X038035Y003957D02*
X034170Y003957D01*
X034071Y003858D02*
X038035Y003858D01*
X038035Y003760D02*
X033973Y003760D01*
X033926Y003661D02*
X038035Y003661D01*
X038035Y003563D02*
X033905Y003563D01*
X033858Y004154D02*
X026617Y004154D01*
X025598Y004154D02*
X023097Y004154D01*
X026571Y003464D02*
X027114Y003464D01*
X027210Y003563D02*
X026686Y003563D01*
X026744Y003661D02*
X027405Y003661D01*
X027047Y003169D02*
X026602Y003169D01*
X026701Y003070D02*
X027070Y003070D01*
X027111Y002972D02*
X026750Y002972D01*
X026777Y002873D02*
X027204Y002873D01*
X027389Y002775D02*
X026777Y002775D01*
M02*
