%
M48
M72
T01C0.0120
T02C0.0236
T03C0.0320
T04C0.0394
T05C0.0400
%
T01
X34376Y6758
X31976Y6788
X29216Y5348
X29966Y5348
X28796Y5708
X28586Y7268
X27536Y6878
X28466Y6518
X28736Y2258
X29126Y3848
X36476Y7178
X38846Y7178
X33656Y3668
X34256Y4298
X31706Y8138
X30746Y8138
X31286Y8738
X32216Y8738
X26846Y9758
X31736Y6128
X31496Y7328
X31736Y4898
X31736Y5318
T02
X36596Y3218
T03
X25847Y3824
X25847Y2824
X22847Y2824
X22847Y3824
X25847Y1824
X22847Y1824
X23906Y8818
X23906Y4818
T04
X27494Y3215
X28494Y3215
X29494Y3215
X30494Y3215
X31494Y3215
X32494Y3215
X27494Y10215
X28494Y10215
X29494Y10215
X30494Y10215
X31494Y10215
X32494Y10215
X13826Y9428
X16779Y9428
X19732Y9428
X956Y3148
X956Y9398
X7206Y9398
X9706Y9398
X7206Y3148
X9706Y3148
X8456Y3148
T05
X38485Y3646
X38485Y4646
X38485Y5646
X38485Y6646
X38485Y7646
X38485Y8646
X22966Y10188
X23966Y10188
X24966Y10188
M30
