G75*
G70*
%OFA0B0*%
%FSLAX24Y24*%
%IPPOS*%
%LPD*%
%AMOC8*
5,1,8,0,0,1.08239X$1,22.5*
%
%ADD10R,0.0143X0.0279*%
%ADD11R,0.0279X0.0143*%
%ADD12R,0.0143X0.0279*%
%ADD13R,0.1464X0.1464*%
%ADD14C,0.0634*%
%ADD15C,0.0560*%
%ADD16OC8,0.0560*%
%ADD17R,0.0631X0.0512*%
%ADD18R,0.0552X0.0670*%
%ADD19R,0.0355X0.0631*%
%ADD20R,0.1024X0.1221*%
%ADD21C,0.0634*%
%ADD22R,0.0640X0.0640*%
%ADD23OC8,0.0640*%
%ADD24C,0.0640*%
D10*
X028221Y007811D03*
X028477Y007811D03*
X028733Y007811D03*
X028989Y007811D03*
X029245Y007811D03*
X029501Y007811D03*
X029757Y007811D03*
D11*
X030052Y007515D03*
X030052Y007260D03*
X030052Y007004D03*
X030052Y006748D03*
X030052Y006492D03*
X030052Y006236D03*
X030052Y005980D03*
X027926Y005980D03*
X027926Y006236D03*
X027926Y006492D03*
X027926Y006748D03*
X027926Y007004D03*
X027926Y007260D03*
X027926Y007515D03*
D12*
X028221Y005684D03*
X028477Y005684D03*
X028733Y005684D03*
X028989Y005684D03*
X029245Y005684D03*
X029501Y005684D03*
X029757Y005684D03*
D13*
X028989Y006748D03*
D14*
X028508Y010215D03*
X027508Y010215D03*
X026508Y010215D03*
X029508Y010215D03*
X030508Y010215D03*
X031508Y010215D03*
X031508Y003215D03*
X030508Y003215D03*
X029508Y003215D03*
X028508Y003215D03*
X027508Y003215D03*
X026508Y003215D03*
D15*
X024731Y006684D02*
X024211Y006684D01*
X021731Y006684D02*
X021211Y006684D01*
X021211Y007684D02*
X021731Y007684D01*
X024211Y007684D02*
X024731Y007684D01*
X024731Y008684D02*
X024211Y008684D01*
X021731Y008684D02*
X021211Y008684D01*
D16*
X020278Y005571D03*
X022278Y005571D03*
D17*
X024770Y004471D03*
X024770Y003721D03*
D18*
X031896Y005546D03*
X032684Y005546D03*
X032684Y006289D03*
X031896Y006289D03*
D19*
X034235Y005961D03*
X034826Y005961D03*
X035416Y005961D03*
D20*
X034826Y004858D03*
D21*
X003311Y004118D02*
X002717Y004118D01*
X002717Y007071D02*
X003311Y007071D01*
X003311Y010023D02*
X002717Y010023D01*
D22*
X038519Y003646D03*
D23*
X038519Y004646D03*
X038519Y005646D03*
X038519Y006646D03*
X038519Y007646D03*
X038519Y008646D03*
D24*
X019300Y008348D02*
X018700Y008348D01*
X018700Y007448D02*
X019300Y007448D01*
X019300Y006548D02*
X018700Y006548D01*
M02*
