%
M48
M72
T01C0.0120
T02C0.0320
T03C0.0394
T04C0.0400
%
T01
X27930Y5348
X29010Y5348
T02
X24471Y8684
X24471Y7684
X21471Y7684
X21471Y8684
X24471Y6684
X21471Y6684
X22278Y5571
X20278Y5571
T03
X26508Y3215
X27508Y3215
X28508Y3215
X29508Y3215
X30508Y3215
X31508Y3215
X26508Y10215
X27508Y10215
X28508Y10215
X29508Y10215
X30508Y10215
X31508Y10215
X3014Y4118
X3014Y7071
X3014Y10023
T04
X38519Y3646
X38519Y4646
X38519Y5646
X38519Y6646
X38519Y7646
X38519Y8646
X19000Y6548
X19000Y7448
X19000Y8348
M30
