G75*
G70*
%OFA0B0*%
%FSLAX24Y24*%
%IPPOS*%
%LPD*%
%AMOC8*
5,1,8,0,0,1.08239X$1,22.5*
%
%ADD10C,0.0000*%
%ADD11C,0.0060*%
%ADD12C,0.0100*%
%ADD13C,0.0050*%
%ADD14C,0.0040*%
%ADD15R,0.0150X0.0300*%
%ADD16R,0.0150X0.0200*%
D10*
X000330Y001028D02*
X000330Y012839D01*
X039700Y012839D01*
X039700Y001028D01*
X000330Y001028D01*
D11*
X000379Y001284D02*
X000486Y001284D01*
X000593Y001391D01*
X000593Y001925D01*
X000273Y001925D01*
X000166Y001818D01*
X000166Y001605D01*
X000273Y001498D01*
X000593Y001498D01*
X000810Y001498D02*
X000810Y001925D01*
X001131Y001925D01*
X001237Y001818D01*
X001237Y001498D01*
X002099Y001498D02*
X002420Y001498D01*
X002526Y001605D01*
X002526Y001818D01*
X002420Y001925D01*
X002099Y001925D01*
X002744Y001925D02*
X002744Y001605D01*
X002851Y001498D01*
X003171Y001498D01*
X003171Y001391D02*
X003064Y001284D01*
X002957Y001284D01*
X003171Y001391D02*
X003171Y001925D01*
X002099Y002138D02*
X002099Y001498D01*
X004033Y001498D02*
X004033Y002138D01*
X004460Y002138D02*
X004460Y001498D01*
X004247Y001711D01*
X004033Y001498D01*
X004678Y001498D02*
X004891Y001498D01*
X004784Y001498D02*
X004784Y001925D01*
X004678Y001925D01*
X004784Y002138D02*
X004784Y002245D01*
X005107Y002138D02*
X005214Y002138D01*
X005214Y001498D01*
X005107Y001498D02*
X005321Y001498D01*
X005537Y001498D02*
X005751Y001498D01*
X005644Y001498D02*
X005644Y002138D01*
X005537Y002138D01*
X005967Y001818D02*
X006073Y001925D01*
X006287Y001925D01*
X006394Y001818D01*
X006394Y001711D01*
X005967Y001711D01*
X005967Y001605D02*
X005967Y001818D01*
X005967Y001605D02*
X006073Y001498D01*
X006287Y001498D01*
X006611Y001498D02*
X006611Y001925D01*
X006718Y001925D01*
X006825Y001818D01*
X006932Y001925D01*
X007038Y001818D01*
X007038Y001498D01*
X006825Y001498D02*
X006825Y001818D01*
X007900Y002138D02*
X007900Y001498D01*
X008114Y001711D01*
X008327Y001498D01*
X008327Y002138D01*
X008545Y001818D02*
X008545Y001605D01*
X008652Y001498D01*
X008865Y001498D01*
X008972Y001605D01*
X008972Y001818D01*
X008865Y001925D01*
X008652Y001925D01*
X008545Y001818D01*
X009189Y001925D02*
X009189Y001605D01*
X009296Y001498D01*
X009616Y001498D01*
X009616Y001925D01*
X009834Y001925D02*
X010048Y001925D01*
X009941Y002032D02*
X009941Y001605D01*
X010048Y001498D01*
X010264Y001605D02*
X010264Y001818D01*
X010370Y001925D01*
X010584Y001925D01*
X010691Y001818D01*
X010691Y001711D01*
X010264Y001711D01*
X010264Y001605D02*
X010370Y001498D01*
X010584Y001498D01*
X010908Y001498D02*
X010908Y001925D01*
X010908Y001711D02*
X011122Y001925D01*
X011229Y001925D01*
X011445Y001818D02*
X011552Y001925D01*
X011872Y001925D01*
X011766Y001711D02*
X011552Y001711D01*
X011445Y001818D01*
X011766Y001711D02*
X011872Y001605D01*
X011766Y001498D01*
X011445Y001498D01*
X-000050Y001498D02*
X-000264Y001498D01*
X-000157Y001498D02*
X-000157Y001925D01*
X-000264Y001925D01*
X-000481Y001925D02*
X-000802Y001925D01*
X-000908Y001818D01*
X-000802Y001711D01*
X-000588Y001711D01*
X-000481Y001605D01*
X-000588Y001498D01*
X-000908Y001498D01*
X-001233Y001498D02*
X-001446Y001498D01*
X-001553Y001605D01*
X-001553Y001818D01*
X-001446Y001925D01*
X-001233Y001925D01*
X-001126Y001818D01*
X-001126Y001711D01*
X-001553Y001711D01*
X-001771Y001605D02*
X-001771Y002032D01*
X-001877Y002138D01*
X-002198Y002138D01*
X-002198Y001498D01*
X-001877Y001498D01*
X-001771Y001605D01*
X-000157Y002138D02*
X-000157Y002245D01*
X018400Y005998D02*
X018400Y006348D01*
X018400Y005998D02*
X019000Y005898D01*
X019450Y005898D01*
X021821Y006184D02*
X024121Y006184D01*
X024121Y009184D01*
X023371Y009184D01*
X023369Y009145D01*
X023363Y009106D01*
X023354Y009068D01*
X023341Y009031D01*
X023324Y008995D01*
X023304Y008962D01*
X023280Y008930D01*
X023254Y008901D01*
X023225Y008875D01*
X023193Y008851D01*
X023160Y008831D01*
X023124Y008814D01*
X023087Y008801D01*
X023049Y008792D01*
X023010Y008786D01*
X022971Y008784D01*
X022932Y008786D01*
X022893Y008792D01*
X022855Y008801D01*
X022818Y008814D01*
X022782Y008831D01*
X022749Y008851D01*
X022717Y008875D01*
X022688Y008901D01*
X022662Y008930D01*
X022638Y008962D01*
X022618Y008995D01*
X022601Y009031D01*
X022588Y009068D01*
X022579Y009106D01*
X022573Y009145D01*
X022571Y009184D01*
X021821Y009184D01*
X021821Y006184D01*
X018400Y006748D02*
X018400Y007248D01*
X018400Y007648D02*
X018400Y008148D01*
X018400Y008548D02*
X018400Y008898D01*
X019000Y008998D01*
X019450Y008998D01*
D12*
X001200Y004028D02*
X000540Y004028D01*
X000750Y004238D01*
X000540Y004028D02*
X000750Y003818D01*
X000930Y006848D02*
X001140Y007058D01*
X000930Y007268D01*
X001140Y007058D02*
X000480Y007058D01*
D13*
X001514Y011368D02*
X004514Y011368D01*
X004514Y002618D01*
X001514Y002618D01*
X001514Y011368D01*
X017735Y006673D02*
X017735Y006373D01*
X018035Y006673D01*
X018110Y006673D01*
X018185Y006598D01*
X018185Y006448D01*
X018110Y006373D01*
X018185Y006213D02*
X018185Y005913D01*
X018185Y006063D02*
X017735Y006063D01*
X025908Y003215D02*
X032208Y003215D01*
X036908Y003215D01*
X036908Y010215D01*
X032208Y010215D01*
X025908Y010215D01*
X025908Y003215D01*
X032208Y003215D02*
X032208Y010215D01*
X024096Y009684D02*
X024096Y009384D01*
X024021Y009309D01*
X023871Y009309D01*
X023796Y009384D01*
X023796Y009684D01*
X023871Y009759D01*
X024021Y009759D01*
X024096Y009684D01*
X023636Y009684D02*
X023561Y009759D01*
X023410Y009759D01*
X023335Y009684D01*
X023175Y009609D02*
X023025Y009759D01*
X023025Y009309D01*
X023175Y009309D02*
X022875Y009309D01*
X023335Y009384D02*
X023410Y009309D01*
X023561Y009309D01*
X023636Y009384D01*
X023636Y009684D01*
D14*
X024928Y009085D02*
X025235Y009085D01*
X025388Y008932D01*
X025235Y008778D01*
X024928Y008778D01*
X024928Y008625D02*
X025388Y008625D01*
X025235Y008471D01*
X025388Y008318D01*
X024928Y008318D01*
X025005Y008165D02*
X024928Y008088D01*
X024928Y007934D01*
X025005Y007858D01*
X025312Y008165D01*
X025005Y008165D01*
X025312Y008165D02*
X025388Y008088D01*
X025388Y007934D01*
X025312Y007858D01*
X025005Y007858D01*
X025158Y007704D02*
X025158Y007397D01*
X025388Y007627D01*
X024928Y007627D01*
X025005Y007167D02*
X025388Y007167D01*
X025388Y007090D02*
X025388Y007244D01*
X025005Y007167D02*
X024928Y007090D01*
X024928Y007014D01*
X025005Y006937D01*
X025158Y006783D02*
X025158Y006476D01*
X025388Y006707D01*
X024928Y006707D01*
X024928Y006323D02*
X024928Y006016D01*
X025235Y006323D01*
X025312Y006323D01*
X025388Y006246D01*
X025388Y006093D01*
X025312Y006016D01*
X025388Y005863D02*
X025388Y005556D01*
X024928Y005556D01*
X024928Y005402D02*
X025081Y005249D01*
X025081Y005325D02*
X025081Y005095D01*
X024928Y005095D02*
X025388Y005095D01*
X025388Y005325D01*
X025312Y005402D01*
X025158Y005402D01*
X025081Y005325D01*
X025158Y005556D02*
X025158Y005709D01*
X025388Y004942D02*
X024928Y004942D01*
X025235Y004788D02*
X025388Y004942D01*
X025235Y004788D02*
X025388Y004635D01*
X024928Y004635D01*
X031528Y004042D02*
X031528Y003735D01*
X031835Y003735D02*
X031988Y003888D01*
X031528Y003888D01*
X025158Y008778D02*
X025158Y009085D01*
D15*
X019425Y008848D03*
X019425Y006048D03*
D16*
X019425Y006998D03*
X019425Y007898D03*
M02*
