G75*
G70*
%OFA0B0*%
%FSLAX24Y24*%
%IPPOS*%
%LPD*%
%AMOC8*
5,1,8,0,0,1.08239X$1,22.5*
%
%ADD10C,0.0000*%
%ADD11C,0.0060*%
%ADD12C,0.0100*%
%ADD13C,0.0080*%
%ADD14C,0.0040*%
%ADD15C,0.0010*%
%ADD16C,0.0050*%
%ADD17C,0.0070*%
%ADD18C,0.0030*%
D10*
X000330Y001028D02*
X000330Y012839D01*
X039700Y012839D01*
X039700Y001028D01*
X000330Y001028D01*
D11*
X000379Y001284D02*
X000486Y001284D01*
X000593Y001391D01*
X000593Y001925D01*
X000273Y001925D01*
X000166Y001818D01*
X000166Y001605D01*
X000273Y001498D01*
X000593Y001498D01*
X000810Y001498D02*
X000810Y001925D01*
X001131Y001925D01*
X001237Y001818D01*
X001237Y001498D01*
X002099Y001498D02*
X002420Y001498D01*
X002526Y001605D01*
X002526Y001818D01*
X002420Y001925D01*
X002099Y001925D01*
X002744Y001925D02*
X002744Y001605D01*
X002851Y001498D01*
X003171Y001498D01*
X003171Y001391D02*
X003064Y001284D01*
X002957Y001284D01*
X003171Y001391D02*
X003171Y001925D01*
X002099Y002138D02*
X002099Y001498D01*
X004033Y001498D02*
X004033Y002138D01*
X004460Y002138D02*
X004460Y001498D01*
X004247Y001711D01*
X004033Y001498D01*
X004678Y001498D02*
X004891Y001498D01*
X004784Y001498D02*
X004784Y001925D01*
X004678Y001925D01*
X004784Y002138D02*
X004784Y002245D01*
X005107Y002138D02*
X005214Y002138D01*
X005214Y001498D01*
X005107Y001498D02*
X005321Y001498D01*
X005537Y001498D02*
X005751Y001498D01*
X005644Y001498D02*
X005644Y002138D01*
X005537Y002138D01*
X005967Y001818D02*
X006073Y001925D01*
X006287Y001925D01*
X006394Y001818D01*
X006394Y001711D01*
X005967Y001711D01*
X005967Y001605D02*
X005967Y001818D01*
X005967Y001605D02*
X006073Y001498D01*
X006287Y001498D01*
X006611Y001498D02*
X006611Y001925D01*
X006718Y001925D01*
X006825Y001818D01*
X006932Y001925D01*
X007038Y001818D01*
X007038Y001498D01*
X006825Y001498D02*
X006825Y001818D01*
X007900Y002138D02*
X007900Y001498D01*
X008114Y001711D01*
X008327Y001498D01*
X008327Y002138D01*
X008545Y001818D02*
X008545Y001605D01*
X008652Y001498D01*
X008865Y001498D01*
X008972Y001605D01*
X008972Y001818D01*
X008865Y001925D01*
X008652Y001925D01*
X008545Y001818D01*
X009189Y001925D02*
X009189Y001605D01*
X009296Y001498D01*
X009616Y001498D01*
X009616Y001925D01*
X009834Y001925D02*
X010048Y001925D01*
X009941Y002032D02*
X009941Y001605D01*
X010048Y001498D01*
X010264Y001605D02*
X010264Y001818D01*
X010370Y001925D01*
X010584Y001925D01*
X010691Y001818D01*
X010691Y001711D01*
X010264Y001711D01*
X010264Y001605D02*
X010370Y001498D01*
X010584Y001498D01*
X010908Y001498D02*
X010908Y001925D01*
X010908Y001711D02*
X011122Y001925D01*
X011229Y001925D01*
X011445Y001818D02*
X011552Y001925D01*
X011872Y001925D01*
X011766Y001711D02*
X011552Y001711D01*
X011445Y001818D01*
X011766Y001711D02*
X011872Y001605D01*
X011766Y001498D01*
X011445Y001498D01*
X-000050Y001498D02*
X-000264Y001498D01*
X-000157Y001498D02*
X-000157Y001925D01*
X-000264Y001925D01*
X-000481Y001925D02*
X-000802Y001925D01*
X-000908Y001818D01*
X-000802Y001711D01*
X-000588Y001711D01*
X-000481Y001605D01*
X-000588Y001498D01*
X-000908Y001498D01*
X-001233Y001498D02*
X-001446Y001498D01*
X-001553Y001605D01*
X-001553Y001818D01*
X-001446Y001925D01*
X-001233Y001925D01*
X-001126Y001818D01*
X-001126Y001711D01*
X-001553Y001711D01*
X-001771Y001605D02*
X-001771Y002032D01*
X-001877Y002138D01*
X-002198Y002138D01*
X-002198Y001498D01*
X-001877Y001498D01*
X-001771Y001605D01*
X-000157Y002138D02*
X-000157Y002245D01*
X020678Y005221D02*
X020778Y005221D01*
X020828Y005271D01*
X021728Y005271D01*
X021778Y005221D01*
X021878Y005221D01*
X021728Y005871D02*
X020828Y005871D01*
X020778Y005921D01*
X020678Y005921D01*
X021728Y005871D02*
X021778Y005921D01*
X021878Y005921D01*
D12*
X038019Y004146D02*
X038019Y003146D01*
X039019Y003146D01*
X039019Y009146D01*
X038019Y009146D01*
X038019Y004146D01*
X039019Y004146D01*
X001200Y004028D02*
X000540Y004028D01*
X000750Y004238D01*
X000540Y004028D02*
X000750Y003818D01*
X000930Y006848D02*
X001140Y007058D01*
X000930Y007268D01*
X001140Y007058D02*
X000480Y007058D01*
D13*
X024364Y004815D02*
X024364Y003377D01*
X025176Y003377D01*
X025176Y004815D01*
X024364Y004815D01*
X029864Y007889D02*
X030131Y007622D01*
X030130Y007622D01*
X030130Y007889D01*
X029864Y007889D01*
D14*
X030259Y007711D02*
X030719Y007711D01*
X030719Y007864D02*
X030719Y007557D01*
X030642Y007404D02*
X030719Y007327D01*
X030719Y007174D01*
X030642Y007097D01*
X030335Y007097D01*
X030259Y007174D01*
X030259Y007327D01*
X030335Y007404D01*
X030412Y007557D02*
X030259Y007711D01*
X030259Y006943D02*
X030259Y006790D01*
X030259Y006867D02*
X030719Y006867D01*
X030719Y006943D02*
X030719Y006790D01*
X034486Y004161D02*
X034640Y004161D01*
X034563Y004161D02*
X034563Y003700D01*
X034486Y003700D02*
X034640Y003700D01*
X034793Y003777D02*
X034870Y003700D01*
X035023Y003700D01*
X035100Y003777D01*
X035254Y003777D02*
X035330Y003700D01*
X035484Y003700D01*
X035561Y003777D01*
X035561Y003854D01*
X035484Y003930D01*
X035407Y003930D01*
X035484Y003930D02*
X035561Y004007D01*
X035561Y004084D01*
X035484Y004161D01*
X035330Y004161D01*
X035254Y004084D01*
X035100Y004084D02*
X035023Y004161D01*
X034870Y004161D01*
X034793Y004084D01*
X034793Y003777D01*
D15*
X021882Y005197D02*
X021882Y005247D01*
X021883Y005246D02*
X021898Y005249D01*
X021912Y005254D01*
X021925Y005263D01*
X021936Y005274D01*
X021945Y005287D01*
X021950Y005301D01*
X021953Y005316D01*
X022002Y005317D01*
X022003Y005316D01*
X022000Y005295D01*
X021994Y005276D01*
X021985Y005257D01*
X021973Y005240D01*
X021959Y005226D01*
X021942Y005214D01*
X021923Y005205D01*
X021904Y005199D01*
X021883Y005196D01*
X021883Y005205D01*
X021902Y005208D01*
X021920Y005213D01*
X021937Y005221D01*
X021953Y005232D01*
X021967Y005246D01*
X021978Y005262D01*
X021986Y005279D01*
X021991Y005297D01*
X021994Y005316D01*
X021985Y005316D01*
X021982Y005296D01*
X021976Y005278D01*
X021966Y005261D01*
X021954Y005245D01*
X021938Y005233D01*
X021921Y005223D01*
X021903Y005217D01*
X021883Y005214D01*
X021883Y005223D01*
X021901Y005226D01*
X021918Y005231D01*
X021933Y005240D01*
X021947Y005252D01*
X021959Y005266D01*
X021968Y005281D01*
X021973Y005298D01*
X021976Y005316D01*
X021967Y005316D01*
X021964Y005298D01*
X021957Y005280D01*
X021947Y005265D01*
X021934Y005252D01*
X021919Y005242D01*
X021901Y005235D01*
X021883Y005232D01*
X021883Y005241D01*
X021899Y005244D01*
X021915Y005250D01*
X021928Y005259D01*
X021940Y005271D01*
X021949Y005284D01*
X021955Y005300D01*
X021958Y005316D01*
X022002Y005825D02*
X021952Y005825D01*
X021953Y005826D02*
X021950Y005841D01*
X021945Y005855D01*
X021936Y005868D01*
X021925Y005879D01*
X021912Y005888D01*
X021898Y005893D01*
X021883Y005896D01*
X021882Y005945D01*
X021883Y005946D01*
X021904Y005943D01*
X021923Y005937D01*
X021942Y005928D01*
X021959Y005916D01*
X021973Y005902D01*
X021985Y005885D01*
X021994Y005866D01*
X022000Y005847D01*
X022003Y005826D01*
X021994Y005826D01*
X021991Y005845D01*
X021986Y005863D01*
X021978Y005880D01*
X021967Y005896D01*
X021953Y005910D01*
X021937Y005921D01*
X021920Y005929D01*
X021902Y005934D01*
X021883Y005937D01*
X021883Y005928D01*
X021903Y005925D01*
X021921Y005919D01*
X021938Y005909D01*
X021954Y005897D01*
X021966Y005881D01*
X021976Y005864D01*
X021982Y005846D01*
X021985Y005826D01*
X021976Y005826D01*
X021973Y005844D01*
X021968Y005861D01*
X021959Y005876D01*
X021947Y005890D01*
X021933Y005902D01*
X021918Y005911D01*
X021901Y005916D01*
X021883Y005919D01*
X021883Y005910D01*
X021901Y005907D01*
X021919Y005900D01*
X021934Y005890D01*
X021947Y005877D01*
X021957Y005862D01*
X021964Y005844D01*
X021967Y005826D01*
X021958Y005826D01*
X021955Y005842D01*
X021949Y005858D01*
X021940Y005871D01*
X021928Y005883D01*
X021915Y005892D01*
X021899Y005898D01*
X021883Y005901D01*
X020674Y005945D02*
X020674Y005895D01*
X020673Y005896D02*
X020658Y005893D01*
X020644Y005888D01*
X020631Y005879D01*
X020620Y005868D01*
X020611Y005855D01*
X020606Y005841D01*
X020603Y005826D01*
X020554Y005825D01*
X020553Y005826D01*
X020556Y005847D01*
X020562Y005866D01*
X020571Y005885D01*
X020583Y005902D01*
X020597Y005916D01*
X020614Y005928D01*
X020633Y005937D01*
X020652Y005943D01*
X020673Y005946D01*
X020673Y005937D01*
X020654Y005934D01*
X020636Y005929D01*
X020619Y005921D01*
X020603Y005910D01*
X020589Y005896D01*
X020578Y005880D01*
X020570Y005863D01*
X020565Y005845D01*
X020562Y005826D01*
X020571Y005826D01*
X020574Y005846D01*
X020580Y005864D01*
X020590Y005881D01*
X020602Y005897D01*
X020618Y005909D01*
X020635Y005919D01*
X020653Y005925D01*
X020673Y005928D01*
X020673Y005919D01*
X020655Y005916D01*
X020638Y005911D01*
X020623Y005902D01*
X020609Y005890D01*
X020597Y005876D01*
X020588Y005861D01*
X020583Y005844D01*
X020580Y005826D01*
X020589Y005826D01*
X020592Y005844D01*
X020599Y005862D01*
X020609Y005877D01*
X020622Y005890D01*
X020637Y005900D01*
X020655Y005907D01*
X020673Y005910D01*
X020673Y005901D01*
X020657Y005898D01*
X020641Y005892D01*
X020628Y005883D01*
X020616Y005871D01*
X020607Y005858D01*
X020601Y005842D01*
X020598Y005826D01*
X020554Y005317D02*
X020604Y005317D01*
X020603Y005316D02*
X020606Y005301D01*
X020611Y005287D01*
X020620Y005274D01*
X020631Y005263D01*
X020644Y005254D01*
X020658Y005249D01*
X020673Y005246D01*
X020674Y005197D01*
X020673Y005196D01*
X020652Y005199D01*
X020633Y005205D01*
X020614Y005214D01*
X020597Y005226D01*
X020583Y005240D01*
X020571Y005257D01*
X020562Y005276D01*
X020556Y005295D01*
X020553Y005316D01*
X020562Y005316D01*
X020565Y005297D01*
X020570Y005279D01*
X020578Y005262D01*
X020589Y005246D01*
X020603Y005232D01*
X020619Y005221D01*
X020636Y005213D01*
X020654Y005208D01*
X020673Y005205D01*
X020673Y005214D01*
X020653Y005217D01*
X020635Y005223D01*
X020618Y005233D01*
X020602Y005245D01*
X020590Y005261D01*
X020580Y005278D01*
X020574Y005296D01*
X020571Y005316D01*
X020580Y005316D01*
X020583Y005298D01*
X020588Y005281D01*
X020597Y005266D01*
X020609Y005252D01*
X020623Y005240D01*
X020638Y005231D01*
X020655Y005226D01*
X020673Y005223D01*
X020673Y005232D01*
X020655Y005235D01*
X020637Y005242D01*
X020622Y005252D01*
X020609Y005265D01*
X020599Y005280D01*
X020592Y005298D01*
X020589Y005316D01*
X020598Y005316D01*
X020601Y005300D01*
X020607Y005284D01*
X020616Y005271D01*
X020628Y005259D01*
X020641Y005250D01*
X020657Y005244D01*
X020673Y005241D01*
D16*
X021375Y005086D02*
X021545Y005086D01*
X021602Y005029D01*
X021602Y004916D01*
X021545Y004859D01*
X021375Y004859D01*
X021375Y004746D02*
X021375Y005086D01*
X021734Y004973D02*
X021847Y005086D01*
X021847Y004746D01*
X021734Y004746D02*
X021961Y004746D01*
X021602Y004746D02*
X021488Y004859D01*
X037324Y004212D02*
X037774Y004212D01*
X037774Y004062D02*
X037774Y004362D01*
X037474Y004062D02*
X037324Y004212D01*
X037399Y003902D02*
X037549Y003902D01*
X037624Y003827D01*
X037624Y003601D01*
X037774Y003601D02*
X037324Y003601D01*
X037324Y003827D01*
X037399Y003902D01*
X037324Y003441D02*
X037324Y003291D01*
X037324Y003366D02*
X037699Y003366D01*
X037774Y003291D01*
X037774Y003216D01*
X037699Y003141D01*
X004514Y002618D02*
X004514Y011368D01*
X001514Y011368D01*
X001514Y002618D01*
X004514Y002618D01*
D17*
X023842Y003506D02*
X023842Y003671D01*
X023897Y003726D01*
X024007Y003726D01*
X024062Y003671D01*
X024062Y003506D01*
X024062Y003616D02*
X024173Y003726D01*
X024173Y003874D02*
X023952Y004094D01*
X023897Y004094D01*
X023842Y004039D01*
X023842Y003929D01*
X023897Y003874D01*
X024173Y003874D02*
X024173Y004094D01*
X024173Y003506D02*
X023842Y003506D01*
X033931Y004638D02*
X034289Y004638D01*
X033931Y004638D02*
X033931Y005706D01*
X034463Y005709D02*
X034604Y005709D01*
X035053Y005709D02*
X035195Y005709D01*
X035721Y005706D02*
X035721Y004638D01*
X035363Y004638D01*
D18*
X032577Y004816D02*
X032330Y004816D01*
X032454Y004816D02*
X032454Y005187D01*
X032330Y005063D01*
X032209Y005125D02*
X032147Y005187D01*
X032024Y005187D01*
X031962Y005125D01*
X031962Y004878D01*
X032024Y004816D01*
X032147Y004816D01*
X032209Y004878D01*
X032147Y005559D02*
X032209Y005621D01*
X032147Y005559D02*
X032024Y005559D01*
X031962Y005621D01*
X031962Y005868D01*
X032024Y005930D01*
X032147Y005930D01*
X032209Y005868D01*
X032330Y005868D02*
X032392Y005930D01*
X032515Y005930D01*
X032577Y005868D01*
X032577Y005806D01*
X032330Y005559D01*
X032577Y005559D01*
M02*
