G75*
G70*
%OFA0B0*%
%FSLAX24Y24*%
%IPPOS*%
%LPD*%
%AMOC8*
5,1,8,0,0,1.08239X$1,22.5*
%
%ADD10C,0.0634*%
%ADD11C,0.0560*%
%ADD12OC8,0.0560*%
%ADD13C,0.0634*%
%ADD14R,0.0640X0.0640*%
%ADD15OC8,0.0640*%
%ADD16C,0.0640*%
D10*
X026508Y003215D03*
X027508Y003215D03*
X028508Y003215D03*
X029508Y003215D03*
X030508Y003215D03*
X031508Y003215D03*
X031508Y010215D03*
X030508Y010215D03*
X029508Y010215D03*
X028508Y010215D03*
X027508Y010215D03*
X026508Y010215D03*
D11*
X024731Y008684D02*
X024211Y008684D01*
X021731Y008684D02*
X021211Y008684D01*
X021211Y007684D02*
X021731Y007684D01*
X024211Y007684D02*
X024731Y007684D01*
X024731Y006684D02*
X024211Y006684D01*
X021731Y006684D02*
X021211Y006684D01*
D12*
X020278Y005571D03*
X022278Y005571D03*
D13*
X003311Y004118D02*
X002717Y004118D01*
X002717Y007071D02*
X003311Y007071D01*
X003311Y010023D02*
X002717Y010023D01*
D14*
X038519Y003646D03*
D15*
X038519Y004646D03*
X038519Y005646D03*
X038519Y006646D03*
X038519Y007646D03*
X038519Y008646D03*
D16*
X019300Y008348D02*
X018700Y008348D01*
X018700Y007448D02*
X019300Y007448D01*
X019300Y006548D02*
X018700Y006548D01*
M02*
