G75*
G70*
%OFA0B0*%
%FSLAX24Y24*%
%IPPOS*%
%LPD*%
%AMOC8*
5,1,8,0,0,1.08239X$1,22.5*
%
%ADD10C,0.0028*%
%ADD11C,0.0291*%
%ADD12C,0.0594*%
%ADD13C,0.0520*%
%ADD14OC8,0.0520*%
%ADD15R,0.0591X0.0472*%
%ADD16R,0.0512X0.0630*%
%ADD17R,0.0315X0.0591*%
%ADD18R,0.0984X0.1181*%
%ADD19C,0.0594*%
%ADD20R,0.0600X0.0600*%
%ADD21OC8,0.0600*%
%ADD22C,0.0600*%
%ADD23C,0.0100*%
%ADD24C,0.0060*%
%ADD25C,0.0240*%
D10*
X027802Y005925D02*
X027802Y006035D01*
X028050Y006035D01*
X028050Y005925D01*
X027802Y005925D01*
X027802Y005952D02*
X028050Y005952D01*
X028050Y005979D02*
X027802Y005979D01*
X027802Y006006D02*
X028050Y006006D01*
X028050Y006033D02*
X027802Y006033D01*
X027802Y006181D02*
X027802Y006291D01*
X028050Y006291D01*
X028050Y006181D01*
X027802Y006181D01*
X027802Y006208D02*
X028050Y006208D01*
X028050Y006235D02*
X027802Y006235D01*
X027802Y006262D02*
X028050Y006262D01*
X028050Y006289D02*
X027802Y006289D01*
X027802Y006437D02*
X027802Y006547D01*
X028050Y006547D01*
X028050Y006437D01*
X027802Y006437D01*
X027802Y006464D02*
X028050Y006464D01*
X028050Y006491D02*
X027802Y006491D01*
X027802Y006518D02*
X028050Y006518D01*
X028050Y006545D02*
X027802Y006545D01*
X027802Y006693D02*
X027802Y006803D01*
X028050Y006803D01*
X028050Y006693D01*
X027802Y006693D01*
X027802Y006720D02*
X028050Y006720D01*
X028050Y006747D02*
X027802Y006747D01*
X027802Y006774D02*
X028050Y006774D01*
X028050Y006801D02*
X027802Y006801D01*
X027802Y006949D02*
X027802Y007059D01*
X028050Y007059D01*
X028050Y006949D01*
X027802Y006949D01*
X027802Y006976D02*
X028050Y006976D01*
X028050Y007003D02*
X027802Y007003D01*
X027802Y007030D02*
X028050Y007030D01*
X028050Y007057D02*
X027802Y007057D01*
X027802Y007205D02*
X027802Y007315D01*
X028050Y007315D01*
X028050Y007205D01*
X027802Y007205D01*
X027802Y007232D02*
X028050Y007232D01*
X028050Y007259D02*
X027802Y007259D01*
X027802Y007286D02*
X028050Y007286D01*
X028050Y007313D02*
X027802Y007313D01*
X027802Y007460D02*
X027802Y007570D01*
X028050Y007570D01*
X028050Y007460D01*
X027802Y007460D01*
X027802Y007487D02*
X028050Y007487D01*
X028050Y007514D02*
X027802Y007514D01*
X027802Y007541D02*
X028050Y007541D01*
X028050Y007568D02*
X027802Y007568D01*
X028166Y007687D02*
X028166Y007935D01*
X028276Y007935D01*
X028276Y007687D01*
X028166Y007687D01*
X028166Y007714D02*
X028276Y007714D01*
X028276Y007741D02*
X028166Y007741D01*
X028166Y007768D02*
X028276Y007768D01*
X028276Y007795D02*
X028166Y007795D01*
X028166Y007822D02*
X028276Y007822D01*
X028276Y007849D02*
X028166Y007849D01*
X028166Y007876D02*
X028276Y007876D01*
X028276Y007903D02*
X028166Y007903D01*
X028166Y007930D02*
X028276Y007930D01*
X028422Y007935D02*
X028422Y007687D01*
X028422Y007935D02*
X028532Y007935D01*
X028532Y007687D01*
X028422Y007687D01*
X028422Y007714D02*
X028532Y007714D01*
X028532Y007741D02*
X028422Y007741D01*
X028422Y007768D02*
X028532Y007768D01*
X028532Y007795D02*
X028422Y007795D01*
X028422Y007822D02*
X028532Y007822D01*
X028532Y007849D02*
X028422Y007849D01*
X028422Y007876D02*
X028532Y007876D01*
X028532Y007903D02*
X028422Y007903D01*
X028422Y007930D02*
X028532Y007930D01*
X028678Y007935D02*
X028678Y007687D01*
X028678Y007935D02*
X028788Y007935D01*
X028788Y007687D01*
X028678Y007687D01*
X028678Y007714D02*
X028788Y007714D01*
X028788Y007741D02*
X028678Y007741D01*
X028678Y007768D02*
X028788Y007768D01*
X028788Y007795D02*
X028678Y007795D01*
X028678Y007822D02*
X028788Y007822D01*
X028788Y007849D02*
X028678Y007849D01*
X028678Y007876D02*
X028788Y007876D01*
X028788Y007903D02*
X028678Y007903D01*
X028678Y007930D02*
X028788Y007930D01*
X028934Y007935D02*
X028934Y007687D01*
X028934Y007935D02*
X029044Y007935D01*
X029044Y007687D01*
X028934Y007687D01*
X028934Y007714D02*
X029044Y007714D01*
X029044Y007741D02*
X028934Y007741D01*
X028934Y007768D02*
X029044Y007768D01*
X029044Y007795D02*
X028934Y007795D01*
X028934Y007822D02*
X029044Y007822D01*
X029044Y007849D02*
X028934Y007849D01*
X028934Y007876D02*
X029044Y007876D01*
X029044Y007903D02*
X028934Y007903D01*
X028934Y007930D02*
X029044Y007930D01*
X029190Y007935D02*
X029190Y007687D01*
X029190Y007935D02*
X029300Y007935D01*
X029300Y007687D01*
X029190Y007687D01*
X029190Y007714D02*
X029300Y007714D01*
X029300Y007741D02*
X029190Y007741D01*
X029190Y007768D02*
X029300Y007768D01*
X029300Y007795D02*
X029190Y007795D01*
X029190Y007822D02*
X029300Y007822D01*
X029300Y007849D02*
X029190Y007849D01*
X029190Y007876D02*
X029300Y007876D01*
X029300Y007903D02*
X029190Y007903D01*
X029190Y007930D02*
X029300Y007930D01*
X029446Y007935D02*
X029446Y007687D01*
X029446Y007935D02*
X029556Y007935D01*
X029556Y007687D01*
X029446Y007687D01*
X029446Y007714D02*
X029556Y007714D01*
X029556Y007741D02*
X029446Y007741D01*
X029446Y007768D02*
X029556Y007768D01*
X029556Y007795D02*
X029446Y007795D01*
X029446Y007822D02*
X029556Y007822D01*
X029556Y007849D02*
X029446Y007849D01*
X029446Y007876D02*
X029556Y007876D01*
X029556Y007903D02*
X029446Y007903D01*
X029446Y007930D02*
X029556Y007930D01*
X029702Y007935D02*
X029702Y007687D01*
X029702Y007935D02*
X029812Y007935D01*
X029812Y007687D01*
X029702Y007687D01*
X029702Y007714D02*
X029812Y007714D01*
X029812Y007741D02*
X029702Y007741D01*
X029702Y007768D02*
X029812Y007768D01*
X029812Y007795D02*
X029702Y007795D01*
X029702Y007822D02*
X029812Y007822D01*
X029812Y007849D02*
X029702Y007849D01*
X029702Y007876D02*
X029812Y007876D01*
X029812Y007903D02*
X029702Y007903D01*
X029702Y007930D02*
X029812Y007930D01*
X029928Y007570D02*
X029928Y007460D01*
X029928Y007570D02*
X030176Y007570D01*
X030176Y007460D01*
X029928Y007460D01*
X029928Y007487D02*
X030176Y007487D01*
X030176Y007514D02*
X029928Y007514D01*
X029928Y007541D02*
X030176Y007541D01*
X030176Y007568D02*
X029928Y007568D01*
X029928Y007315D02*
X029928Y007205D01*
X029928Y007315D02*
X030176Y007315D01*
X030176Y007205D01*
X029928Y007205D01*
X029928Y007232D02*
X030176Y007232D01*
X030176Y007259D02*
X029928Y007259D01*
X029928Y007286D02*
X030176Y007286D01*
X030176Y007313D02*
X029928Y007313D01*
X029928Y007059D02*
X029928Y006949D01*
X029928Y007059D02*
X030176Y007059D01*
X030176Y006949D01*
X029928Y006949D01*
X029928Y006976D02*
X030176Y006976D01*
X030176Y007003D02*
X029928Y007003D01*
X029928Y007030D02*
X030176Y007030D01*
X030176Y007057D02*
X029928Y007057D01*
X029928Y006803D02*
X029928Y006693D01*
X029928Y006803D02*
X030176Y006803D01*
X030176Y006693D01*
X029928Y006693D01*
X029928Y006720D02*
X030176Y006720D01*
X030176Y006747D02*
X029928Y006747D01*
X029928Y006774D02*
X030176Y006774D01*
X030176Y006801D02*
X029928Y006801D01*
X029928Y006547D02*
X029928Y006437D01*
X029928Y006547D02*
X030176Y006547D01*
X030176Y006437D01*
X029928Y006437D01*
X029928Y006464D02*
X030176Y006464D01*
X030176Y006491D02*
X029928Y006491D01*
X029928Y006518D02*
X030176Y006518D01*
X030176Y006545D02*
X029928Y006545D01*
X029928Y006291D02*
X029928Y006181D01*
X029928Y006291D02*
X030176Y006291D01*
X030176Y006181D01*
X029928Y006181D01*
X029928Y006208D02*
X030176Y006208D01*
X030176Y006235D02*
X029928Y006235D01*
X029928Y006262D02*
X030176Y006262D01*
X030176Y006289D02*
X029928Y006289D01*
X029928Y006035D02*
X029928Y005925D01*
X029928Y006035D02*
X030176Y006035D01*
X030176Y005925D01*
X029928Y005925D01*
X029928Y005952D02*
X030176Y005952D01*
X030176Y005979D02*
X029928Y005979D01*
X029928Y006006D02*
X030176Y006006D01*
X030176Y006033D02*
X029928Y006033D01*
X029702Y005809D02*
X029702Y005561D01*
X029702Y005809D02*
X029812Y005809D01*
X029812Y005561D01*
X029702Y005561D01*
X029702Y005588D02*
X029812Y005588D01*
X029812Y005615D02*
X029702Y005615D01*
X029702Y005642D02*
X029812Y005642D01*
X029812Y005669D02*
X029702Y005669D01*
X029702Y005696D02*
X029812Y005696D01*
X029812Y005723D02*
X029702Y005723D01*
X029702Y005750D02*
X029812Y005750D01*
X029812Y005777D02*
X029702Y005777D01*
X029702Y005804D02*
X029812Y005804D01*
X029446Y005809D02*
X029446Y005561D01*
X029446Y005809D02*
X029556Y005809D01*
X029556Y005561D01*
X029446Y005561D01*
X029446Y005588D02*
X029556Y005588D01*
X029556Y005615D02*
X029446Y005615D01*
X029446Y005642D02*
X029556Y005642D01*
X029556Y005669D02*
X029446Y005669D01*
X029446Y005696D02*
X029556Y005696D01*
X029556Y005723D02*
X029446Y005723D01*
X029446Y005750D02*
X029556Y005750D01*
X029556Y005777D02*
X029446Y005777D01*
X029446Y005804D02*
X029556Y005804D01*
X029190Y005809D02*
X029190Y005561D01*
X029190Y005809D02*
X029300Y005809D01*
X029300Y005561D01*
X029190Y005561D01*
X029190Y005588D02*
X029300Y005588D01*
X029300Y005615D02*
X029190Y005615D01*
X029190Y005642D02*
X029300Y005642D01*
X029300Y005669D02*
X029190Y005669D01*
X029190Y005696D02*
X029300Y005696D01*
X029300Y005723D02*
X029190Y005723D01*
X029190Y005750D02*
X029300Y005750D01*
X029300Y005777D02*
X029190Y005777D01*
X029190Y005804D02*
X029300Y005804D01*
X028934Y005809D02*
X028934Y005561D01*
X028934Y005809D02*
X029044Y005809D01*
X029044Y005561D01*
X028934Y005561D01*
X028934Y005588D02*
X029044Y005588D01*
X029044Y005615D02*
X028934Y005615D01*
X028934Y005642D02*
X029044Y005642D01*
X029044Y005669D02*
X028934Y005669D01*
X028934Y005696D02*
X029044Y005696D01*
X029044Y005723D02*
X028934Y005723D01*
X028934Y005750D02*
X029044Y005750D01*
X029044Y005777D02*
X028934Y005777D01*
X028934Y005804D02*
X029044Y005804D01*
X028678Y005809D02*
X028678Y005561D01*
X028678Y005809D02*
X028788Y005809D01*
X028788Y005561D01*
X028678Y005561D01*
X028678Y005588D02*
X028788Y005588D01*
X028788Y005615D02*
X028678Y005615D01*
X028678Y005642D02*
X028788Y005642D01*
X028788Y005669D02*
X028678Y005669D01*
X028678Y005696D02*
X028788Y005696D01*
X028788Y005723D02*
X028678Y005723D01*
X028678Y005750D02*
X028788Y005750D01*
X028788Y005777D02*
X028678Y005777D01*
X028678Y005804D02*
X028788Y005804D01*
X028422Y005809D02*
X028422Y005561D01*
X028422Y005809D02*
X028532Y005809D01*
X028532Y005561D01*
X028422Y005561D01*
X028422Y005588D02*
X028532Y005588D01*
X028532Y005615D02*
X028422Y005615D01*
X028422Y005642D02*
X028532Y005642D01*
X028532Y005669D02*
X028422Y005669D01*
X028422Y005696D02*
X028532Y005696D01*
X028532Y005723D02*
X028422Y005723D01*
X028422Y005750D02*
X028532Y005750D01*
X028532Y005777D02*
X028422Y005777D01*
X028422Y005804D02*
X028532Y005804D01*
X028166Y005809D02*
X028166Y005561D01*
X028166Y005809D02*
X028276Y005809D01*
X028276Y005561D01*
X028166Y005561D01*
X028166Y005588D02*
X028276Y005588D01*
X028276Y005615D02*
X028166Y005615D01*
X028166Y005642D02*
X028276Y005642D01*
X028276Y005669D02*
X028166Y005669D01*
X028166Y005696D02*
X028276Y005696D01*
X028276Y005723D02*
X028166Y005723D01*
X028166Y005750D02*
X028276Y005750D01*
X028276Y005777D02*
X028166Y005777D01*
X028166Y005804D02*
X028276Y005804D01*
D11*
X028406Y006165D02*
X028406Y007331D01*
X029572Y007331D01*
X029572Y006165D01*
X028406Y006165D01*
X028406Y006455D02*
X029572Y006455D01*
X029572Y006745D02*
X028406Y006745D01*
X028406Y007035D02*
X029572Y007035D01*
X029572Y007325D02*
X028406Y007325D01*
D12*
X028508Y010215D03*
X027508Y010215D03*
X026508Y010215D03*
X029508Y010215D03*
X030508Y010215D03*
X031508Y010215D03*
X031508Y003215D03*
X030508Y003215D03*
X029508Y003215D03*
X028508Y003215D03*
X027508Y003215D03*
X026508Y003215D03*
D13*
X024731Y006684D02*
X024211Y006684D01*
X021731Y006684D02*
X021211Y006684D01*
X021211Y007684D02*
X021731Y007684D01*
X024211Y007684D02*
X024731Y007684D01*
X024731Y008684D02*
X024211Y008684D01*
X021731Y008684D02*
X021211Y008684D01*
D14*
X020278Y005571D03*
X022278Y005571D03*
D15*
X024770Y004471D03*
X024770Y003721D03*
D16*
X031896Y005546D03*
X032684Y005546D03*
X032684Y006289D03*
X031896Y006289D03*
D17*
X034235Y005961D03*
X034826Y005961D03*
X035416Y005961D03*
D18*
X034826Y004858D03*
D19*
X003311Y004118D02*
X002717Y004118D01*
X002717Y007071D02*
X003311Y007071D01*
X003311Y010023D02*
X002717Y010023D01*
D20*
X038519Y003646D03*
D21*
X038519Y004646D03*
X038519Y005646D03*
X038519Y006646D03*
X038519Y007646D03*
X038519Y008646D03*
D22*
X019300Y008348D02*
X018700Y008348D01*
X018700Y007448D02*
X019300Y007448D01*
X019300Y006548D02*
X018700Y006548D01*
D23*
X018990Y006578D02*
X018210Y006578D01*
X017670Y007118D01*
X003030Y007118D01*
X003014Y004118D02*
X018825Y004118D01*
X020278Y005571D01*
X020278Y006820D01*
X019650Y007448D01*
X018900Y007448D01*
X021471Y006684D02*
X021471Y006378D01*
X022278Y005571D01*
X023700Y006278D02*
X023700Y008378D01*
X024000Y008678D01*
X024465Y008678D01*
X024471Y008684D01*
X025200Y008888D02*
X025200Y007958D01*
X024930Y007688D01*
X024475Y007688D01*
X024471Y007684D01*
X021471Y008684D02*
X021135Y008348D01*
X019000Y008348D01*
X023700Y006278D02*
X024770Y005208D01*
X024770Y004471D01*
X027930Y004928D02*
X027930Y005348D01*
X029010Y005348D02*
X029010Y005648D01*
X028989Y005685D01*
X027930Y004928D02*
X028530Y004328D01*
X028530Y003668D01*
X028508Y003215D01*
X031890Y005288D02*
X031890Y006283D01*
X031896Y006289D01*
X032883Y006488D02*
X035070Y006488D01*
X035416Y006141D01*
X034235Y005961D02*
X033820Y005546D01*
X032684Y005546D01*
D24*
X031890Y005288D02*
X031320Y004718D01*
X034560Y004718D01*
X034590Y004748D01*
X034650Y004748D01*
X034770Y004868D01*
X034770Y004928D01*
X034826Y004984D01*
X034826Y005961D01*
X034830Y005957D01*
X034830Y005528D01*
X035220Y005138D01*
X035700Y005138D01*
X036208Y005646D01*
X038519Y005646D01*
X038970Y005408D02*
X038970Y005948D01*
X038790Y006128D01*
X035583Y006128D01*
X035416Y005961D01*
X032883Y006488D02*
X032684Y006289D01*
X032883Y006488D02*
X032523Y006848D01*
X031620Y006848D01*
X031380Y006608D01*
X031380Y005408D01*
X030960Y004988D01*
X028890Y004988D01*
X028733Y005145D01*
X028733Y005685D01*
X028477Y005685D02*
X028477Y007185D01*
X028740Y007448D01*
X028740Y007804D01*
X028733Y007811D01*
X028733Y009631D01*
X029010Y009908D01*
X029250Y009668D01*
X029850Y009668D01*
X030397Y010215D01*
X030508Y010215D02*
X031508Y010215D01*
X030150Y010898D02*
X029508Y010256D01*
X029508Y010215D01*
X029010Y010478D02*
X029010Y009908D01*
X027508Y010215D02*
X027508Y007933D01*
X027926Y007515D01*
X027926Y007260D02*
X026842Y007260D01*
X025740Y006158D01*
X025740Y002978D01*
X026190Y002528D01*
X030630Y002528D01*
X030990Y002888D01*
X030990Y003608D01*
X030750Y003848D01*
X029700Y003848D01*
X029508Y003656D01*
X029508Y003215D01*
X029010Y002888D02*
X029010Y004028D01*
X029130Y004148D01*
X031890Y004148D01*
X032070Y003968D01*
X032070Y002588D01*
X031770Y002288D01*
X026010Y002288D01*
X025440Y002858D01*
X025440Y009147D01*
X026508Y010215D01*
X027000Y010478D02*
X027000Y009848D01*
X025590Y008438D01*
X025590Y002918D01*
X026100Y002408D01*
X031050Y002408D01*
X031508Y002866D01*
X031508Y003215D01*
X030540Y003248D02*
X030480Y003188D01*
X030480Y003008D01*
X030510Y003008D01*
X030510Y003158D01*
X030508Y003215D02*
X030508Y002916D01*
X030510Y002918D01*
X030510Y003008D01*
X030508Y002916D02*
X030240Y002648D01*
X026310Y002648D01*
X025920Y003038D01*
X025920Y005798D01*
X027126Y007004D01*
X027926Y007004D01*
X027926Y006748D02*
X027870Y006728D01*
X027210Y006728D01*
X026490Y006008D01*
X026490Y003668D01*
X026508Y003215D01*
X027000Y003008D02*
X027240Y002768D01*
X028890Y002768D01*
X029010Y002888D01*
X027508Y003215D02*
X027510Y003668D01*
X027510Y006128D01*
X027630Y006248D01*
X027870Y006248D01*
X027926Y006236D01*
X027926Y006492D02*
X027394Y006492D01*
X026970Y006068D01*
X027000Y003008D01*
X025920Y002168D02*
X024780Y003308D01*
X024780Y003711D01*
X024770Y003721D01*
X028230Y005048D02*
X028830Y004448D01*
X031890Y004448D01*
X032250Y004088D01*
X032250Y002528D01*
X031890Y002168D01*
X025920Y002168D01*
X028477Y005101D02*
X028860Y004718D01*
X031320Y004718D01*
X028477Y005101D02*
X028477Y005685D01*
X028230Y005676D02*
X028221Y005685D01*
X028230Y005676D02*
X028230Y005048D01*
X030052Y006492D02*
X031054Y006492D01*
X031530Y006968D01*
X037841Y006968D01*
X038519Y007646D01*
X038970Y007898D02*
X038970Y006848D01*
X038790Y006668D01*
X038541Y006668D01*
X038519Y006646D01*
X037200Y007088D02*
X038250Y008138D01*
X038730Y008138D01*
X038970Y007898D01*
X039180Y008768D02*
X039180Y003998D01*
X038820Y003638D01*
X038527Y003638D01*
X038519Y003646D01*
X039000Y003128D02*
X039360Y003488D01*
X039360Y008948D01*
X037410Y010898D01*
X030150Y010898D01*
X029010Y010478D02*
X028800Y010658D01*
X027180Y010658D01*
X027000Y010478D01*
X027180Y010658D02*
X026250Y010658D01*
X025200Y009608D01*
X025200Y008888D01*
X030052Y007004D02*
X031146Y007004D01*
X031350Y007208D01*
X036360Y007208D01*
X038250Y009098D01*
X038850Y009098D01*
X039180Y008768D01*
X037200Y007088D02*
X031440Y007088D01*
X031100Y006748D01*
X030052Y006748D01*
X038010Y004388D02*
X038010Y003278D01*
X038160Y003128D01*
X039000Y003128D01*
X038010Y004388D02*
X038268Y004646D01*
X038519Y004646D01*
X038519Y004957D01*
X038970Y005408D01*
D25*
X029010Y005348D03*
X027930Y005348D03*
M02*
