G75*
G70*
%OFA0B0*%
%FSLAX24Y24*%
%IPPOS*%
%LPD*%
%AMOC8*
5,1,8,0,0,1.08239X$1,22.5*
%
%ADD10C,0.0030*%
%ADD11C,0.0160*%
%ADD12C,0.0070*%
%ADD13C,0.0050*%
%ADD14C,0.0060*%
%ADD15C,0.0200*%
%ADD16R,0.4200X0.0250*%
%ADD17R,0.0750X0.0250*%
%ADD18R,0.0300X0.0250*%
%ADD19R,0.0240X0.0340*%
%ADD20C,0.0020*%
D10*
X000892Y001351D02*
X000941Y001303D01*
X001086Y001303D01*
X001038Y001400D02*
X001086Y001448D01*
X001038Y001496D01*
X000892Y001496D01*
X000941Y001400D02*
X001038Y001400D01*
X000941Y001400D02*
X000892Y001351D01*
X001186Y001496D02*
X001235Y001496D01*
X001331Y001400D01*
X001331Y001496D02*
X001331Y001303D01*
X001433Y001400D02*
X001626Y001400D01*
X001626Y001448D02*
X001578Y001496D01*
X001481Y001496D01*
X001433Y001448D01*
X001433Y001400D01*
X001481Y001303D02*
X001578Y001303D01*
X001626Y001351D01*
X001626Y001448D01*
X001726Y001496D02*
X001823Y001496D01*
X001774Y001545D02*
X001774Y001351D01*
X001726Y001303D01*
X001924Y001303D02*
X001924Y001496D01*
X001924Y001303D02*
X002069Y001303D01*
X002117Y001351D01*
X002117Y001496D01*
X002218Y001448D02*
X002267Y001496D01*
X002364Y001496D01*
X002412Y001448D01*
X002412Y001351D01*
X002364Y001303D01*
X002267Y001303D01*
X002218Y001351D01*
X002218Y001448D01*
X002513Y001303D02*
X002513Y001593D01*
X002707Y001593D02*
X002707Y001303D01*
X002610Y001400D01*
X002513Y001303D01*
X003102Y001303D02*
X003102Y001448D01*
X003151Y001496D01*
X003199Y001448D01*
X003199Y001303D01*
X003296Y001303D02*
X003296Y001496D01*
X003247Y001496D01*
X003199Y001448D01*
X003397Y001448D02*
X003397Y001400D01*
X003590Y001400D01*
X003590Y001448D02*
X003542Y001496D01*
X003445Y001496D01*
X003397Y001448D01*
X003445Y001303D02*
X003542Y001303D01*
X003590Y001351D01*
X003590Y001448D01*
X003690Y001303D02*
X003787Y001303D01*
X003739Y001303D02*
X003739Y001593D01*
X003787Y001593D01*
X003935Y001593D02*
X003935Y001303D01*
X003983Y001303D02*
X003887Y001303D01*
X004083Y001303D02*
X004180Y001303D01*
X004131Y001303D02*
X004131Y001496D01*
X004180Y001496D01*
X004131Y001593D02*
X004131Y001641D01*
X003983Y001593D02*
X003935Y001593D01*
X004281Y001593D02*
X004281Y001303D01*
X004378Y001400D01*
X004474Y001303D01*
X004474Y001593D01*
X004870Y001496D02*
X004870Y001254D01*
X004919Y001206D01*
X004967Y001206D01*
X005015Y001303D02*
X004870Y001303D01*
X005015Y001303D02*
X005064Y001351D01*
X005064Y001496D01*
X005165Y001448D02*
X005213Y001496D01*
X005358Y001496D01*
X005358Y001593D02*
X005358Y001303D01*
X005213Y001303D01*
X005165Y001351D01*
X005165Y001448D01*
X005754Y001448D02*
X005754Y001303D01*
X005754Y001448D02*
X005803Y001496D01*
X005948Y001496D01*
X005948Y001303D01*
X006049Y001303D02*
X006194Y001303D01*
X006242Y001351D01*
X006242Y001448D01*
X006194Y001496D01*
X006049Y001496D01*
X006049Y001254D01*
X006097Y001206D01*
X006146Y001206D01*
X006342Y001303D02*
X006439Y001303D01*
X006390Y001303D02*
X006390Y001496D01*
X006439Y001496D01*
X006540Y001496D02*
X006685Y001496D01*
X006733Y001448D01*
X006685Y001400D01*
X006588Y001400D01*
X006540Y001351D01*
X006588Y001303D01*
X006733Y001303D01*
X006835Y001400D02*
X007028Y001400D01*
X007028Y001448D02*
X006980Y001496D01*
X006883Y001496D01*
X006835Y001448D01*
X006835Y001400D01*
X006883Y001303D02*
X006980Y001303D01*
X007028Y001351D01*
X007028Y001448D01*
X007129Y001351D02*
X007129Y001545D01*
X007178Y001593D01*
X007323Y001593D01*
X007323Y001303D01*
X007178Y001303D01*
X007129Y001351D01*
X007719Y001448D02*
X007912Y001448D01*
X008308Y001448D02*
X008308Y001303D01*
X008308Y001448D02*
X008356Y001496D01*
X008453Y001496D01*
X008501Y001448D01*
X008603Y001496D02*
X008748Y001496D01*
X008796Y001448D01*
X008796Y001351D01*
X008748Y001303D01*
X008603Y001303D01*
X008501Y001303D02*
X008501Y001593D01*
X008896Y001496D02*
X008992Y001496D01*
X008944Y001545D02*
X008944Y001351D01*
X008896Y001303D01*
X009092Y001303D02*
X009189Y001303D01*
X009141Y001303D02*
X009141Y001496D01*
X009189Y001496D01*
X009290Y001496D02*
X009290Y001351D01*
X009338Y001303D01*
X009387Y001351D01*
X009435Y001303D01*
X009484Y001351D01*
X009484Y001496D01*
X009585Y001545D02*
X009633Y001593D01*
X009730Y001593D01*
X009778Y001545D01*
X009778Y001496D01*
X009730Y001448D01*
X009633Y001448D01*
X009585Y001400D01*
X009585Y001351D01*
X009633Y001303D01*
X009730Y001303D01*
X009778Y001351D01*
X010173Y001303D02*
X010221Y001351D01*
X010221Y001545D01*
X010269Y001496D02*
X010173Y001496D01*
X010370Y001448D02*
X010370Y001303D01*
X010370Y001448D02*
X010419Y001496D01*
X010516Y001496D01*
X010564Y001448D01*
X010665Y001496D02*
X010810Y001496D01*
X010859Y001448D01*
X010859Y001351D01*
X010810Y001303D01*
X010665Y001303D01*
X010665Y001254D02*
X010665Y001496D01*
X010564Y001593D02*
X010564Y001303D01*
X010665Y001254D02*
X010713Y001206D01*
X010762Y001206D01*
X010958Y001303D02*
X011055Y001303D01*
X011007Y001303D02*
X011007Y001496D01*
X011055Y001496D01*
X011007Y001593D02*
X011007Y001641D01*
X011350Y001593D02*
X011350Y001303D01*
X011156Y001303D01*
X009141Y001593D02*
X009141Y001641D01*
X006390Y001641D02*
X006390Y001593D01*
D11*
X016028Y004448D02*
X016032Y004592D01*
X016042Y004735D01*
X016060Y004878D01*
X016084Y005019D01*
X016116Y005159D01*
X016154Y005298D01*
X016199Y005434D01*
X016251Y005568D01*
X016309Y005700D01*
X016374Y005828D01*
X016445Y005953D01*
X016521Y006075D01*
X016604Y006192D01*
X016693Y006306D01*
X016786Y006414D01*
X016886Y006518D01*
X016990Y006618D01*
X017098Y006711D01*
X017212Y006800D01*
X017329Y006883D01*
X017451Y006959D01*
X017576Y007030D01*
X017704Y007095D01*
X017836Y007153D01*
X017970Y007205D01*
X018106Y007250D01*
X018245Y007288D01*
X018385Y007320D01*
X018526Y007344D01*
X018669Y007362D01*
X018812Y007372D01*
X018956Y007376D01*
X019100Y007372D01*
X019243Y007362D01*
X019386Y007344D01*
X019527Y007320D01*
X019667Y007288D01*
X019806Y007250D01*
X019942Y007205D01*
X020076Y007153D01*
X020208Y007095D01*
X020336Y007030D01*
X020461Y006959D01*
X020583Y006883D01*
X020700Y006800D01*
X020814Y006711D01*
X020922Y006618D01*
X021026Y006518D01*
X021126Y006414D01*
X021219Y006306D01*
X021308Y006192D01*
X021391Y006075D01*
X021467Y005953D01*
X021538Y005828D01*
X021603Y005700D01*
X021661Y005568D01*
X021713Y005434D01*
X021758Y005298D01*
X021796Y005159D01*
X021828Y005019D01*
X021852Y004878D01*
X021870Y004735D01*
X021880Y004592D01*
X021884Y004448D01*
X021880Y004304D01*
X021870Y004161D01*
X021852Y004018D01*
X021828Y003877D01*
X021796Y003737D01*
X021758Y003598D01*
X021713Y003462D01*
X021661Y003328D01*
X021603Y003196D01*
X021538Y003068D01*
X021467Y002943D01*
X021391Y002821D01*
X021308Y002704D01*
X021219Y002590D01*
X021126Y002482D01*
X021026Y002378D01*
X020922Y002278D01*
X020814Y002185D01*
X020700Y002096D01*
X020583Y002013D01*
X020461Y001937D01*
X020336Y001866D01*
X020208Y001801D01*
X020076Y001743D01*
X019942Y001691D01*
X019806Y001646D01*
X019667Y001608D01*
X019527Y001576D01*
X019386Y001552D01*
X019243Y001534D01*
X019100Y001524D01*
X018956Y001520D01*
X018812Y001524D01*
X018669Y001534D01*
X018526Y001552D01*
X018385Y001576D01*
X018245Y001608D01*
X018106Y001646D01*
X017970Y001691D01*
X017836Y001743D01*
X017704Y001801D01*
X017576Y001866D01*
X017451Y001937D01*
X017329Y002013D01*
X017212Y002096D01*
X017098Y002185D01*
X016990Y002278D01*
X016886Y002378D01*
X016786Y002482D01*
X016693Y002590D01*
X016604Y002704D01*
X016521Y002821D01*
X016445Y002943D01*
X016374Y003068D01*
X016309Y003196D01*
X016251Y003328D01*
X016199Y003462D01*
X016154Y003598D01*
X016116Y003737D01*
X016084Y003877D01*
X016060Y004018D01*
X016042Y004161D01*
X016032Y004304D01*
X016028Y004448D01*
D12*
X016039Y007513D02*
X016039Y007678D01*
X016094Y007733D01*
X016259Y007733D01*
X016259Y007513D01*
X016395Y007513D02*
X016505Y007513D01*
X016450Y007513D02*
X016450Y007733D01*
X016505Y007733D01*
X016450Y007843D02*
X016450Y007898D01*
X016653Y007788D02*
X016708Y007843D01*
X016818Y007843D01*
X016873Y007788D01*
X016653Y007788D02*
X016653Y007733D01*
X016873Y007513D01*
X016653Y007513D01*
X017021Y007513D02*
X017241Y007513D01*
X017241Y007843D01*
X018958Y007733D02*
X019068Y007733D01*
X019013Y007788D02*
X019013Y007568D01*
X018958Y007513D01*
X019216Y007513D02*
X019216Y007733D01*
X019436Y007733D02*
X019436Y007568D01*
X019381Y007513D01*
X019216Y007513D01*
X019584Y007568D02*
X019584Y007678D01*
X019640Y007733D01*
X019750Y007733D01*
X019805Y007678D01*
X019805Y007568D01*
X019750Y007513D01*
X019640Y007513D01*
X019584Y007568D01*
X019953Y007513D02*
X020173Y007513D01*
X019953Y007733D01*
X019953Y007788D01*
X020008Y007843D01*
X020118Y007843D01*
X020173Y007788D01*
X020541Y007843D02*
X020541Y007513D01*
X020321Y007513D01*
X013941Y007483D02*
X013721Y007483D01*
X013573Y007483D02*
X013353Y007483D01*
X013463Y007483D02*
X013463Y007813D01*
X013573Y007703D01*
X013941Y007813D02*
X013941Y007483D01*
D13*
X012326Y007928D02*
X021076Y007928D01*
X021076Y010928D01*
X012326Y010928D01*
X012326Y007928D01*
X026894Y010215D02*
X026894Y003221D01*
X027091Y003221D01*
X026894Y003221D02*
X026894Y003215D01*
X027879Y003221D02*
X028115Y003221D01*
X028902Y003221D02*
X029099Y003221D01*
X029886Y003221D02*
X030083Y003221D01*
X030871Y003221D02*
X031107Y003221D01*
X031894Y003221D02*
X032091Y003221D01*
X032918Y003221D02*
X033193Y003221D01*
X033194Y003215D02*
X037894Y003215D01*
X037894Y010215D01*
X033194Y010215D01*
X033194Y003215D01*
X033233Y010229D02*
X032879Y010229D01*
X032091Y010229D02*
X031894Y010229D01*
X031107Y010229D02*
X030910Y010229D01*
X030083Y010229D02*
X029886Y010229D01*
X029099Y010229D02*
X028902Y010229D01*
X028075Y010229D02*
X027918Y010229D01*
X027091Y010229D02*
X026894Y010229D01*
D14*
X025966Y010788D02*
X025866Y010888D01*
X022066Y010888D01*
X021966Y010788D01*
X021966Y009638D01*
X025966Y009638D02*
X025966Y010788D01*
X024256Y008068D02*
X023556Y008068D01*
X023539Y008066D01*
X023522Y008062D01*
X023506Y008055D01*
X023492Y008045D01*
X023479Y008032D01*
X023469Y008018D01*
X023462Y008002D01*
X023458Y007985D01*
X023456Y007968D01*
X023456Y007818D01*
X023506Y007768D01*
X023506Y005868D01*
X023456Y005818D01*
X023456Y005668D01*
X023458Y005651D01*
X023462Y005634D01*
X023469Y005618D01*
X023479Y005604D01*
X023492Y005591D01*
X023506Y005581D01*
X023522Y005574D01*
X023539Y005570D01*
X023556Y005568D01*
X024256Y005568D01*
X024273Y005570D01*
X024290Y005574D01*
X024306Y005581D01*
X024320Y005591D01*
X024333Y005604D01*
X024343Y005618D01*
X024350Y005634D01*
X024354Y005651D01*
X024356Y005668D01*
X024356Y005818D01*
X024306Y005868D01*
X024306Y007768D01*
X024356Y007818D01*
X024356Y007968D01*
X024354Y007985D01*
X024350Y008002D01*
X024343Y008018D01*
X024333Y008032D01*
X024320Y008045D01*
X024306Y008055D01*
X024290Y008062D01*
X024273Y008066D01*
X024256Y008068D01*
X023947Y004324D02*
X023949Y004285D01*
X023955Y004246D01*
X023964Y004208D01*
X023977Y004171D01*
X023994Y004135D01*
X024014Y004102D01*
X024038Y004070D01*
X024064Y004041D01*
X024093Y004015D01*
X024125Y003991D01*
X024158Y003971D01*
X024194Y003954D01*
X024231Y003941D01*
X024269Y003932D01*
X024308Y003926D01*
X024347Y003924D01*
X024386Y003926D01*
X024425Y003932D01*
X024463Y003941D01*
X024500Y003954D01*
X024536Y003971D01*
X024569Y003991D01*
X024601Y004015D01*
X024630Y004041D01*
X024656Y004070D01*
X024680Y004102D01*
X024700Y004135D01*
X024717Y004171D01*
X024730Y004208D01*
X024739Y004246D01*
X024745Y004285D01*
X024747Y004324D01*
X025397Y004324D01*
X025397Y001324D01*
X023297Y001324D01*
X023297Y004324D01*
X023947Y004324D01*
D15*
X022146Y010648D03*
D16*
X023966Y009313D03*
D17*
X025691Y009563D03*
X022241Y009563D03*
D18*
X023466Y009563D03*
X024466Y009563D03*
D19*
X023906Y008238D03*
X023906Y005398D03*
D20*
X009888Y003888D02*
X009888Y003778D01*
X009815Y003815D01*
X009778Y003815D01*
X009741Y003778D01*
X009741Y003705D01*
X009778Y003668D01*
X009852Y003668D01*
X009888Y003705D01*
X009888Y003888D02*
X009741Y003888D01*
X009667Y003815D02*
X009594Y003668D01*
X009520Y003815D01*
X008696Y003839D02*
X008696Y003693D01*
X008659Y003656D01*
X008586Y003656D01*
X008549Y003693D01*
X008549Y003766D01*
X008622Y003766D01*
X008549Y003839D02*
X008586Y003876D01*
X008659Y003876D01*
X008696Y003839D01*
X008475Y003876D02*
X008328Y003656D01*
X008328Y003876D01*
X008254Y003876D02*
X008144Y003876D01*
X008107Y003839D01*
X008107Y003693D01*
X008144Y003656D01*
X008254Y003656D01*
X008254Y003876D01*
X008475Y003876D02*
X008475Y003656D01*
X009377Y009918D02*
X009524Y009918D01*
X009377Y010065D01*
X009377Y010101D01*
X009413Y010138D01*
X009487Y010138D01*
X009524Y010101D01*
X009745Y010138D02*
X009745Y009918D01*
X009598Y009918D01*
X007294Y009955D02*
X007147Y009955D01*
X007073Y009955D02*
X006926Y009955D01*
X006999Y009955D02*
X006999Y010175D01*
X007073Y010102D01*
X007294Y010175D02*
X007294Y009955D01*
M02*
