G75*
G70*
%OFA0B0*%
%FSLAX24Y24*%
%IPPOS*%
%LPD*%
%AMOC8*
5,1,8,0,0,1.08239X$1,22.5*
%
%ADD10C,0.0030*%
%ADD11C,0.0060*%
%ADD12C,0.0080*%
%ADD13C,0.0070*%
%ADD14C,0.0100*%
%ADD15R,0.0079X0.0079*%
D10*
X029154Y008087D02*
X029177Y008064D01*
X029201Y008064D01*
X029224Y008088D01*
X029223Y008158D01*
X029176Y008157D01*
X029153Y008134D01*
X029154Y008087D01*
X029223Y008158D02*
X029270Y008112D01*
X029294Y008066D01*
X029407Y008161D02*
X029431Y008162D01*
X029526Y008070D01*
X029549Y008071D01*
X029548Y008164D01*
X029500Y008226D02*
X029406Y008225D01*
X029476Y008226D02*
X029475Y008319D01*
X029498Y008320D02*
X029546Y008274D01*
X029500Y008226D01*
X029498Y008320D02*
X029405Y008318D01*
X029404Y008381D02*
X029449Y008429D01*
X029450Y008405D02*
X029449Y008475D01*
X029402Y008475D02*
X029542Y008477D01*
X029543Y008407D01*
X029520Y008383D01*
X029474Y008382D01*
X029450Y008405D01*
X029288Y008402D02*
X029287Y008473D01*
X029147Y008470D01*
X029194Y008471D02*
X029195Y008401D01*
X029219Y008378D01*
X029265Y008379D01*
X029288Y008402D01*
X029195Y008424D02*
X029149Y008377D01*
X029150Y008314D02*
X029243Y008315D01*
X029291Y008269D01*
X029245Y008222D01*
X029151Y008220D01*
X029221Y008221D02*
X029220Y008315D01*
X029660Y008299D02*
X029683Y008323D01*
X029660Y008299D02*
X029661Y008252D01*
X029685Y008229D01*
X029708Y008230D01*
X029731Y008254D01*
X029730Y008300D01*
X029753Y008324D01*
X029776Y008324D01*
X029800Y008302D01*
X029801Y008255D01*
X029778Y008231D01*
X029779Y008168D02*
X029756Y008168D01*
X029733Y008144D01*
X029734Y008097D01*
X029711Y008073D01*
X029687Y008073D01*
X029664Y008096D01*
X029663Y008143D01*
X029686Y008166D01*
X029779Y008168D02*
X029803Y008145D01*
X029804Y008098D01*
X029781Y008075D01*
X029919Y008100D02*
X029918Y008147D01*
X029941Y008171D01*
X029987Y008172D02*
X030012Y008125D01*
X030012Y008102D01*
X029989Y008078D01*
X029942Y008077D01*
X029919Y008100D01*
X029987Y008172D02*
X030057Y008173D01*
X030059Y008079D01*
X030174Y008105D02*
X030314Y008107D01*
X030242Y008176D01*
X030244Y008083D01*
X030241Y008239D02*
X030240Y008333D01*
X030263Y008333D02*
X030311Y008287D01*
X030265Y008240D01*
X030171Y008238D01*
X030170Y008331D02*
X030263Y008333D01*
X030285Y008396D02*
X030239Y008396D01*
X030215Y008419D01*
X030214Y008489D01*
X030214Y008442D02*
X030168Y008394D01*
X030167Y008488D02*
X030307Y008490D01*
X030308Y008420D01*
X030285Y008396D01*
X030423Y008399D02*
X030469Y008446D01*
X030470Y008423D02*
X030469Y008493D01*
X030422Y008492D02*
X030562Y008495D01*
X030563Y008425D01*
X030540Y008401D01*
X030494Y008400D01*
X030470Y008423D01*
X030495Y008337D02*
X030496Y008244D01*
X030520Y008244D02*
X030426Y008242D01*
X030451Y008180D02*
X030428Y008156D01*
X030429Y008109D01*
X030452Y008086D01*
X030476Y008087D01*
X030499Y008110D01*
X030498Y008134D01*
X030499Y008110D02*
X030522Y008088D01*
X030546Y008088D01*
X030569Y008112D01*
X030568Y008158D01*
X030544Y008181D01*
X030520Y008244D02*
X030565Y008292D01*
X030518Y008337D01*
X030425Y008336D01*
X030680Y008340D02*
X030773Y008342D01*
X030820Y008296D01*
X030775Y008248D01*
X030681Y008247D01*
X030682Y008184D02*
X030777Y008092D01*
X030801Y008092D01*
X030824Y008116D01*
X030823Y008163D01*
X030799Y008186D01*
X030751Y008248D02*
X030750Y008341D01*
X030748Y008405D02*
X030725Y008428D01*
X030723Y008498D01*
X030677Y008497D02*
X030817Y008499D01*
X030818Y008429D01*
X030795Y008405D01*
X030748Y008405D01*
X030724Y008451D02*
X030678Y008403D01*
X030682Y008184D02*
X030684Y008090D01*
X030056Y008283D02*
X030008Y008329D01*
X029915Y008327D01*
X029914Y008390D02*
X029959Y008438D01*
X029960Y008414D02*
X029959Y008484D01*
X029912Y008483D02*
X030052Y008486D01*
X030053Y008416D01*
X030030Y008392D01*
X029984Y008391D01*
X029960Y008414D01*
X029985Y008328D02*
X029986Y008235D01*
X030010Y008235D02*
X029916Y008234D01*
X030010Y008235D02*
X030056Y008283D01*
X029799Y008388D02*
X029705Y008386D01*
X029658Y008432D01*
X029704Y008480D01*
X029797Y008481D01*
X029283Y008692D02*
X029260Y008692D01*
X029165Y008783D01*
X029142Y008783D01*
X029282Y008786D02*
X029283Y008692D01*
X029398Y008717D02*
X029421Y008695D01*
X029445Y008695D01*
X029468Y008719D01*
X029467Y008789D01*
X029420Y008788D01*
X029397Y008764D01*
X029398Y008717D01*
X029467Y008789D02*
X029514Y008743D01*
X029538Y008697D01*
X029653Y008722D02*
X029652Y008769D01*
X029675Y008792D01*
X029722Y008793D02*
X029746Y008747D01*
X029746Y008724D01*
X029723Y008700D01*
X029676Y008699D01*
X029653Y008722D01*
X029722Y008793D02*
X029792Y008794D01*
X029793Y008701D01*
X029908Y008726D02*
X030048Y008729D01*
X029976Y008798D01*
X029978Y008704D01*
X030163Y008731D02*
X030162Y008778D01*
X030185Y008801D01*
X030232Y008755D02*
X030233Y008732D01*
X030210Y008708D01*
X030186Y008708D01*
X030163Y008731D01*
X030233Y008732D02*
X030256Y008709D01*
X030280Y008710D01*
X030303Y008733D01*
X030302Y008780D01*
X030278Y008803D01*
X030416Y008805D02*
X030511Y008714D01*
X030535Y008714D01*
X030558Y008738D01*
X030557Y008784D01*
X030533Y008807D01*
X030416Y008805D02*
X030418Y008712D01*
X030673Y008716D02*
X030671Y008810D01*
X030672Y008763D02*
X030812Y008766D01*
X030765Y008811D01*
D11*
X037124Y007704D02*
X037167Y007748D01*
X037254Y007748D01*
X037297Y007704D01*
X037297Y007531D01*
X037254Y007488D01*
X037167Y007488D01*
X037124Y007531D01*
X037418Y007531D02*
X037462Y007488D01*
X037548Y007488D01*
X037592Y007531D01*
X037592Y007704D01*
X037548Y007748D01*
X037462Y007748D01*
X037418Y007704D01*
X037418Y007618D01*
X037505Y007618D01*
X037713Y007618D02*
X037756Y007661D01*
X037886Y007661D01*
X037886Y007748D02*
X037886Y007488D01*
X037756Y007488D01*
X037713Y007531D01*
X037713Y007618D01*
X037548Y006788D02*
X037462Y006788D01*
X037418Y006744D01*
X037418Y006658D01*
X037505Y006658D01*
X037592Y006744D02*
X037592Y006571D01*
X037548Y006528D01*
X037462Y006528D01*
X037418Y006571D01*
X037297Y006528D02*
X037167Y006528D01*
X037124Y006571D01*
X037124Y006744D01*
X037167Y006788D01*
X037297Y006788D01*
X037297Y006528D01*
X037713Y006571D02*
X037713Y006658D01*
X037756Y006701D01*
X037886Y006701D01*
X037886Y006788D02*
X037886Y006528D01*
X037756Y006528D01*
X037713Y006571D01*
X037592Y006744D02*
X037548Y006788D01*
X037548Y005828D02*
X037592Y005784D01*
X037548Y005828D02*
X037462Y005828D01*
X037418Y005784D01*
X037418Y005741D01*
X037462Y005698D01*
X037548Y005698D01*
X037592Y005654D01*
X037592Y005611D01*
X037548Y005568D01*
X037462Y005568D01*
X037418Y005611D01*
X037297Y005611D02*
X037297Y005654D01*
X037254Y005698D01*
X037167Y005698D01*
X037124Y005741D01*
X037124Y005784D01*
X037167Y005828D01*
X037254Y005828D01*
X037297Y005784D01*
X037297Y005611D02*
X037254Y005568D01*
X037167Y005568D01*
X037124Y005611D01*
X037713Y005568D02*
X037713Y005741D01*
X037800Y005828D01*
X037886Y005741D01*
X037886Y005568D01*
X037800Y004868D02*
X037713Y004781D01*
X037713Y004608D01*
X037592Y004608D02*
X037462Y004608D01*
X037418Y004651D01*
X037418Y004824D01*
X037462Y004868D01*
X037592Y004868D01*
X037592Y004608D01*
X037886Y004608D02*
X037886Y004781D01*
X037800Y004868D01*
X037297Y004868D02*
X037297Y004608D01*
X037167Y004608D01*
X037124Y004651D01*
X037124Y004824D01*
X037167Y004868D01*
X037297Y004868D01*
X037297Y003908D02*
X037124Y003908D01*
X037002Y003908D02*
X037002Y003648D01*
X036872Y003648D01*
X036829Y003691D01*
X036829Y003778D01*
X036872Y003821D01*
X037002Y003821D01*
X036916Y003821D02*
X036829Y003908D01*
X037297Y003908D02*
X037297Y003648D01*
X037418Y003691D02*
X037462Y003648D01*
X037548Y003648D01*
X037592Y003691D01*
X037592Y003864D01*
X037548Y003908D01*
X037462Y003908D01*
X037418Y003864D01*
X037713Y003908D02*
X037713Y003648D01*
X037800Y003734D01*
X037886Y003648D01*
X037886Y003908D01*
D12*
X027020Y002444D02*
X027020Y001632D01*
X028457Y001632D01*
X028457Y002444D01*
X027020Y002444D01*
X031116Y007712D02*
X031116Y007889D01*
X030940Y007889D01*
X031062Y007767D01*
X031116Y007712D01*
X031828Y007732D02*
X031828Y008544D01*
X033265Y008544D01*
X033265Y007732D01*
X031828Y007732D01*
X031858Y008842D02*
X031858Y009654D01*
X033295Y009654D01*
X033295Y008842D01*
X031858Y008842D01*
D13*
X034468Y002946D02*
X034468Y001878D01*
X034786Y001878D01*
X035938Y001878D02*
X036257Y001878D01*
X036257Y002946D01*
X035711Y002949D02*
X035609Y002949D01*
X035121Y002949D02*
X035019Y002949D01*
D14*
X037985Y003146D02*
X037985Y004146D01*
X038985Y004146D01*
X037985Y004146D02*
X037985Y009146D01*
X038985Y009146D01*
X038985Y003146D01*
X037985Y003146D01*
D15*
X034506Y008168D03*
X034506Y009248D03*
M02*
