G75*
G70*
%OFA0B0*%
%FSLAX24Y24*%
%IPPOS*%
%LPD*%
%AMOC8*
5,1,8,0,0,1.08239X$1,22.5*
%
%ADD10R,0.0143X0.0279*%
%ADD11R,0.0279X0.0143*%
%ADD12R,0.0143X0.0279*%
%ADD13R,0.1464X0.1464*%
%ADD14C,0.0634*%
%ADD15C,0.0560*%
%ADD16R,0.0512X0.0631*%
%ADD17R,0.0552X0.0670*%
%ADD18R,0.0355X0.0631*%
%ADD19R,0.1024X0.1221*%
%ADD20R,0.0640X0.0640*%
%ADD21OC8,0.0640*%
%ADD22C,0.0640*%
%ADD23OC8,0.0560*%
%ADD24R,0.1221X0.0827*%
%ADD25C,0.0634*%
%ADD26R,0.0634X0.0634*%
%ADD27R,0.0512X0.0512*%
D10*
X029208Y007811D03*
X029463Y007811D03*
X029719Y007811D03*
X029975Y007811D03*
X030231Y007811D03*
X030487Y007811D03*
X030743Y007811D03*
D11*
X031039Y007515D03*
X031039Y007260D03*
X031039Y007004D03*
X031039Y006748D03*
X031039Y006492D03*
X031039Y006236D03*
X031039Y005980D03*
X028912Y005980D03*
X028912Y006236D03*
X028912Y006492D03*
X028912Y006748D03*
X028912Y007004D03*
X028912Y007260D03*
X028912Y007515D03*
D12*
X029208Y005684D03*
X029463Y005684D03*
X029719Y005684D03*
X029975Y005684D03*
X030231Y005684D03*
X030487Y005684D03*
X030743Y005684D03*
D13*
X029975Y006748D03*
D14*
X029494Y010215D03*
X030494Y010215D03*
X031494Y010215D03*
X032494Y010215D03*
X028494Y010215D03*
X027494Y010215D03*
X027494Y003215D03*
X028494Y003215D03*
X029494Y003215D03*
X030494Y003215D03*
X031494Y003215D03*
X032494Y003215D03*
D15*
X026367Y002824D02*
X025847Y002824D01*
X025847Y003824D02*
X026367Y003824D01*
X022847Y003824D02*
X022327Y003824D01*
X022327Y002824D02*
X022847Y002824D01*
X022847Y001824D02*
X022327Y001824D01*
X025847Y001824D02*
X026367Y001824D01*
D16*
X027363Y002038D03*
X028113Y002038D03*
X032171Y008138D03*
X032921Y008138D03*
X032951Y009248D03*
X032201Y009248D03*
D17*
X032883Y006289D03*
X033670Y006289D03*
X033670Y005456D03*
X032883Y005456D03*
D18*
X034772Y003201D03*
X035362Y003201D03*
X035953Y003201D03*
D19*
X035362Y002098D03*
D20*
X038485Y003646D03*
D21*
X038485Y004646D03*
X038485Y005646D03*
X038485Y006646D03*
X038485Y007646D03*
X038485Y008646D03*
D22*
X024966Y009888D02*
X024966Y010488D01*
X023966Y010488D02*
X023966Y009888D01*
X022966Y009888D02*
X022966Y010488D01*
D23*
X023906Y008818D03*
X023906Y004818D03*
D24*
X012506Y003265D03*
X012506Y006612D03*
D25*
X013826Y009131D02*
X013826Y009725D01*
X016779Y009725D02*
X016779Y009131D01*
X019732Y009131D02*
X019732Y009725D01*
D26*
X000956Y003148D03*
X007206Y003148D03*
X008456Y003148D03*
X009706Y003148D03*
X009706Y009398D03*
X007206Y009398D03*
X000956Y009398D03*
D27*
X034053Y009248D03*
X034880Y009248D03*
X034880Y008168D03*
X034053Y008168D03*
M02*
