G75*
G70*
%OFA0B0*%
%FSLAX24Y24*%
%IPPOS*%
%LPD*%
%AMOC8*
5,1,8,0,0,1.08239X$1,22.5*
%
%ADD10C,0.0634*%
%ADD11C,0.0560*%
%ADD12R,0.0640X0.0640*%
%ADD13OC8,0.0640*%
%ADD14C,0.0640*%
%ADD15OC8,0.0560*%
%ADD16C,0.0634*%
%ADD17R,0.0634X0.0634*%
D10*
X027494Y003215D03*
X028494Y003215D03*
X029494Y003215D03*
X030494Y003215D03*
X031494Y003215D03*
X032494Y003215D03*
X032494Y010215D03*
X031494Y010215D03*
X030494Y010215D03*
X029494Y010215D03*
X028494Y010215D03*
X027494Y010215D03*
D11*
X026367Y003824D02*
X025847Y003824D01*
X025847Y002824D02*
X026367Y002824D01*
X026367Y001824D02*
X025847Y001824D01*
X022847Y001824D02*
X022327Y001824D01*
X022327Y002824D02*
X022847Y002824D01*
X022847Y003824D02*
X022327Y003824D01*
D12*
X038485Y003646D03*
D13*
X038485Y004646D03*
X038485Y005646D03*
X038485Y006646D03*
X038485Y007646D03*
X038485Y008646D03*
D14*
X024966Y009888D02*
X024966Y010488D01*
X023966Y010488D02*
X023966Y009888D01*
X022966Y009888D02*
X022966Y010488D01*
D15*
X023906Y008818D03*
X023906Y004818D03*
D16*
X019732Y009131D02*
X019732Y009725D01*
X016779Y009725D02*
X016779Y009131D01*
X013826Y009131D02*
X013826Y009725D01*
D17*
X000956Y003148D03*
X007206Y003148D03*
X008456Y003148D03*
X009706Y003148D03*
X009706Y009398D03*
X007206Y009398D03*
X000956Y009398D03*
M02*
